<?xml version="1.0" encoding="UTF-8"?>
<svg width="38px" height="37px" viewBox="0 0 38 37" version="1.1" xmlns="http://www.w3.org/2000/svg" xmlns:xlink="http://www.w3.org/1999/xlink">
    <!-- Generator: Sketch 47.1 (45422) - http://www.bohemiancoding.com/sketch -->
    <title>Artboard</title>
    <desc>Created with Sketch.</desc>
    <defs></defs>
    <g id="Page-1" stroke="none" stroke-width="1" fill="none" fill-rule="evenodd">
        <g id="Artboard" fill-rule="nonzero" fill="#A51417">
            <g id="facebook-icon" transform="translate(0.502686, 0.076904)">
                <path d="M18.4770465,0.55730178 C8.50311512,0.55730178 0.418502799,8.6419141 0.418502799,18.6158455 C0.418502799,28.5890695 8.50347331,36.674389 18.4770465,36.674389 C28.4506195,36.674389 36.53559,28.5890695 36.53559,18.6158455 C36.53559,8.6419141 28.4509777,0.55730178 18.4770465,0.55730178 L18.4770465,2.57999134 C27.3338771,2.57999134 34.5129005,9.7590147 34.5129005,18.6158455 C34.5129005,27.4719884 27.3334994,34.6516995 18.4770465,34.6516995 C9.62059346,34.6516995 2.44119236,27.4719884 2.44119236,18.6158455 C2.44119236,9.7590147 9.62021572,2.57999134 18.4770465,2.57999134 L18.4770465,0.55730178 Z" id="Fill-1"></path>
                <path d="M16.0162833,28.1018658 L19.9360735,28.1018658 L19.9360735,18.6150996 L22.5506877,18.6150996 L22.8969589,15.3462993 L19.9360735,15.3462993 L19.9403353,13.7097681 C19.9403353,12.8574082 20.0213096,12.4003302 21.2433806,12.4003302 L22.8777808,12.4003302 L22.8777808,9.13046433 L20.2621013,9.13046433 C17.1200894,9.13046433 16.0162833,10.7169193 16.0162833,13.3837404 L16.0162833,15.3462993 L14.0569208,15.3462993 L14.0569208,18.616165 L16.0162833,18.616165 L16.0162833,28.1018658 Z" id="Fill-3"></path>
            </g>
        </g>
    </g>
</svg>