<?xml version="1.0" encoding="UTF-8"?>
<svg width="37px" height="37px" viewBox="0 0 37 37" version="1.1" xmlns="http://www.w3.org/2000/svg" xmlns:xlink="http://www.w3.org/1999/xlink">
    <!-- Generator: Sketch 47.1 (45422) - http://www.bohemiancoding.com/sketch -->
    <title>flickr-icon</title>
    <desc>Created with Sketch.</desc>
    <defs></defs>
    <g id="Page-1" stroke="none" stroke-width="1" fill="none" fill-rule="evenodd">
        <g id="flickr-icon" fill-rule="nonzero" fill="#53565A">
            <path d="M18.9415964,0.68418978 C8.99309557,0.68418978 0.929097268,8.74818808 0.929097268,18.6966889 C0.929097268,28.643778 8.99381106,36.7091881 18.9415964,36.7091881 C28.8893818,36.7091881 36.9540956,28.643778 36.9540956,18.6966889 C36.9540956,8.74818808 28.8900973,0.68418978 18.9415964,0.68418978 L18.9415964,2.67220364 C27.7921475,2.67220364 34.9660817,9.84613781 34.9660817,18.6966889 C34.9660817,27.5458667 27.7913937,34.7211742 18.9415964,34.7211742 C10.0917992,34.7211742 2.91711113,27.5458667 2.91711113,18.6966889 C2.91711113,9.84613781 10.0910453,2.67220364 18.9415964,2.67220364 L18.9415964,0.68418978 Z" id="Fill-1"></path>
            <path d="M12.904499,14.0006487 C15.4976918,14.0006487 17.6005392,16.1034962 17.6005392,18.6966889 C17.6005392,21.2898816 15.4976918,23.3927291 12.904499,23.3927291 C10.3113063,23.3927291 8.20845884,21.2898816 8.20845884,18.6966889 C8.20845884,16.1034962 10.3113063,14.0006487 12.904499,14.0006487" id="Fill-4"></path>
            <path d="M24.9786938,14.0006487 C27.5718865,14.0006487 29.674734,16.1034962 29.674734,18.6966889 C29.674734,21.2898816 27.5718865,23.3927291 24.9786938,23.3927291 C22.385501,23.3927291 20.2826536,21.2898816 20.2826536,18.6966889 C20.2826536,16.1034962 22.385501,14.0006487 24.9786938,14.0006487" id="Fill-6"></path>
        </g>
    </g>
</svg>