<?xml version="1.0" encoding="UTF-8"?>
<svg width="38px" height="37px" viewBox="0 0 38 37" version="1.1" xmlns="http://www.w3.org/2000/svg" xmlns:xlink="http://www.w3.org/1999/xlink">
    <!-- Generator: Sketch 47.1 (45422) - http://www.bohemiancoding.com/sketch -->
    <title>Artboard</title>
    <desc>Created with Sketch.</desc>
    <defs></defs>
    <g id="Page-1" stroke="none" stroke-width="1" fill="none" fill-rule="evenodd">
        <g id="Artboard" fill-rule="nonzero" fill="#A51417">
            <g id="flickr-icon" transform="translate(0.364990, 0.161133)">
                <path d="M18.5766064,0.52305678 C8.62810557,0.52305678 0.564107268,8.58705508 0.564107268,18.5355559 C0.564107268,28.482645 8.62882106,36.5480551 18.5766064,36.5480551 C28.5243918,36.5480551 36.5891056,28.482645 36.5891056,18.5355559 C36.5891056,8.58705508 28.5251073,0.52305678 18.5766064,0.52305678 L18.5766064,2.51107064 C27.4271575,2.51107064 34.6010917,9.68500481 34.6010917,18.5355559 C34.6010917,27.3847337 27.4264037,34.5600412 18.5766064,34.5600412 C9.72680916,34.5600412 2.55212113,27.3847337 2.55212113,18.5355559 C2.55212113,9.68500481 9.72605531,2.51107064 18.5766064,2.51107064 L18.5766064,0.52305678 Z" id="Fill-1"></path>
                <path d="M12.539509,13.8395157 C15.1327018,13.8395157 17.2355492,15.9423632 17.2355492,18.5355559 C17.2355492,21.1287486 15.1327018,23.2315961 12.539509,23.2315961 C9.94631631,23.2315961 7.84346884,21.1287486 7.84346884,18.5355559 C7.84346884,15.9423632 9.94631631,13.8395157 12.539509,13.8395157" id="Fill-4"></path>
                <path d="M24.6137038,13.8395157 C27.2068965,13.8395157 29.309744,15.9423632 29.309744,18.5355559 C29.309744,21.1287486 27.2068965,23.2315961 24.6137038,23.2315961 C22.020511,23.2315961 19.9176636,21.1287486 19.9176636,18.5355559 C19.9176636,15.9423632 22.020511,13.8395157 24.6137038,13.8395157" id="Fill-6"></path>
            </g>
        </g>
    </g>
</svg>