<?xml version="1.0" encoding="UTF-8"?>
<svg width="38px" height="37px" viewBox="0 0 38 37" version="1.1" xmlns="http://www.w3.org/2000/svg" xmlns:xlink="http://www.w3.org/1999/xlink">
    <!-- Generator: Sketch 47.1 (45422) - http://www.bohemiancoding.com/sketch -->
    <title>Artboard</title>
    <desc>Created with Sketch.</desc>
    <defs></defs>
    <g id="Page-1" stroke="none" stroke-width="1" fill="none" fill-rule="evenodd">
        <g id="Artboard" fill-rule="nonzero">
            <g id="instagram-icon" transform="translate(0.108069, 0.450012)">
                <path d="M18.8426665,2.2123505 C27.659466,2.2123505 34.8338807,9.38676526 34.8338807,18.2035647 C34.8338807,27.0203643 27.659466,34.194779 18.8426665,34.194779 C10.025867,34.194779 2.85145225,27.0203643 2.85145225,18.2035647 C2.85145225,9.38676526 10.025867,2.2123505 18.8426665,2.2123505 L18.8426665,0.124526819 C8.87279383,0.124526819 0.763628565,8.23369208 0.763628565,18.2035647 C0.763628565,28.1734374 8.87279383,36.2826027 18.8426665,36.2826027 C28.8125392,36.2826027 36.9217044,28.1734374 36.9217044,18.2035647 C36.9217044,8.23369208 28.8125392,0.124526819 18.8426665,0.124526819 L18.8426665,2.2123505 Z" id="Fill-4" fill="#A51417"></path>
                <path d="M25.6082367,14.262251 C25.6082367,14.57391 25.3557816,14.8263649 25.0441227,14.8263649 L22.7899007,14.8263649 C22.4771246,14.8263649 22.2257867,14.57391 22.2257867,14.262251 L22.2257867,12.006912 C22.2257867,11.695253 22.4771246,11.4427979 22.7899007,11.4427979 L25.0441227,11.4427979 C25.3557816,11.4427979 25.6082367,11.695253 25.6082367,12.006912 L25.6082367,14.262251 Z M25.6082367,24.4107179 C25.6082367,24.8061563 25.4406781,24.9748319 25.0441227,24.9748319 L12.6414338,24.9748319 C12.2471125,24.9748319 12.0762027,24.8061563 12.0762027,24.4107179 L12.0762027,16.5175899 L13.4825781,16.8236637 C13.3306582,17.314052 13.2502301,17.8323666 13.2502301,18.3707882 C13.2502301,21.3689705 15.7613752,23.8030386 18.8556244,23.8030386 C21.9521076,23.8030386 24.4621357,21.3700875 24.4621357,18.3707882 C24.4621357,17.8323666 24.3794734,17.314052 24.2297877,16.8236637 L25.6071196,16.5175899 L25.6071196,24.4107179 L25.6082367,24.4107179 Z M18.8567415,14.6643917 C20.8562743,14.6643917 22.4782417,16.2360915 22.4782417,18.1741861 C22.4782417,20.1122808 20.8562743,21.6850977 18.8567415,21.6850977 C16.8572086,21.6850977 15.2341241,20.1111637 15.2341241,18.1741861 C15.2341241,16.2360915 16.8572086,14.6643917 18.8567415,14.6643917 L18.8567415,14.6643917 Z M25.6082367,9.18745897 L12.0762027,9.18745897 C10.8038743,9.18745897 9.82086372,10.1693525 9.82086372,11.4427979 L9.82086372,24.9737149 C9.82086372,26.2471604 10.8038743,27.2290538 12.0762027,27.2290538 L25.6071196,27.2290538 C26.8816822,27.2290538 27.8635756,26.2471604 27.8635756,24.9737149 L27.8635756,11.4427979 C27.8646927,10.1693525 26.8816822,9.18745897 25.6082367,9.18745897 L25.6082367,9.18745897 Z" id="Fill-6" fill="#961D12"></path>
            </g>
        </g>
    </g>
</svg>