<?xml version="1.0" encoding="UTF-8"?>
<svg width="38px" height="37px" viewBox="0 0 38 37" version="1.1" xmlns="http://www.w3.org/2000/svg" xmlns:xlink="http://www.w3.org/1999/xlink">
    <!-- Generator: Sketch 47.1 (45422) - http://www.bohemiancoding.com/sketch -->
    <title>rss-icon</title>
    <desc>Created with Sketch.</desc>
    <defs></defs>
    <g id="Page-1" stroke="none" stroke-width="1" fill="none" fill-rule="evenodd">
        <g id="rss-icon" fill-rule="nonzero" fill="#53565A">
            <path d="M18.9754371,34.794336 C10.1201813,34.794336 2.91297216,27.5871268 2.91297216,18.7318711 C2.91297216,9.8759094 10.1197938,2.66940613 18.9754371,2.66940613 C27.8310804,2.66940613 35.037902,9.8759094 35.037902,18.7318711 C35.037902,27.5871268 27.8306928,34.794336 18.9754371,34.794336 L18.9754371,36.8379294 C28.9593383,36.8379294 37.0814954,28.7157723 37.0814954,18.7318711 C37.0814954,8.7472437 28.9597056,0.625812692 18.9754371,0.625812692 C8.99116855,0.625812692 0.869378725,8.7472437 0.869378725,18.7318711 C0.869378725,28.7157723 8.99153584,36.8379294 18.9754371,36.8379294 L18.9754371,34.794336 Z" id="Fill-1"></path>
            <path d="M22.7486261,26.0011834 C22.7486261,19.9109858 17.7944636,14.9557298 11.7064528,14.9557298 L11.7064528,18.1637442 C13.7948329,18.1637442 15.7574729,18.9794152 17.2357399,20.459869 C18.7140069,21.9337624 19.5285845,23.9062429 19.5285845,26.0011834 L22.7486261,26.0011834 Z M16.164215,23.7870631 C16.164215,22.5646499 15.1681342,21.5631023 13.9347872,21.5631023 C12.7069072,21.5631023 11.7086396,22.5646499 11.7086396,23.7870631 C11.7075461,25.0149431 12.7058137,26.0055569 13.9347872,26.0055569 C15.1681342,26.0055569 16.164215,25.0149431 16.164215,23.7870631 Z M28.4309883,26.00009 C28.4309883,16.7773222 20.9281272,9.27118099 11.7075461,9.27118099 L11.7075461,12.4781019 C19.1535508,12.4781019 25.2131334,18.5453383 25.2131334,26.00009 L28.4309883,26.00009 Z" id="Fill-5"></path>
        </g>
    </g>
</svg>