<?xml version="1.0" encoding="UTF-8"?>
<svg width="38px" height="37px" viewBox="0 0 38 37" version="1.1" xmlns="http://www.w3.org/2000/svg" xmlns:xlink="http://www.w3.org/1999/xlink">
    <!-- Generator: Sketch 47.1 (45422) - http://www.bohemiancoding.com/sketch -->
    <title>Artboard</title>
    <desc>Created with Sketch.</desc>
    <defs></defs>
    <g id="Page-1" stroke="none" stroke-width="1" fill="none" fill-rule="evenodd">
        <g id="Artboard" fill-rule="nonzero" fill="#A51417">
            <g id="rss-icon" transform="translate(0.285645, -0.360840)">
                <path d="M18.6897921,35.155176 C9.83453633,35.155176 2.62732716,27.9479668 2.62732716,19.0927111 C2.62732716,10.2367494 9.83414882,3.03024613 18.6897921,3.03024613 C27.5454354,3.03024613 34.752257,10.2367494 34.752257,19.0927111 C34.752257,27.9479668 27.5450478,35.155176 18.6897921,35.155176 L18.6897921,37.1987694 C28.6736933,37.1987694 36.7958504,29.0766123 36.7958504,19.0927111 C36.7958504,9.1080837 28.6740606,0.986652692 18.6897921,0.986652692 C8.70552355,0.986652692 0.583733725,9.1080837 0.583733725,19.0927111 C0.583733725,29.0766123 8.70589084,37.1987694 18.6897921,37.1987694 L18.6897921,35.155176 Z" id="Fill-1"></path>
                <path d="M22.4629811,26.3620234 C22.4629811,20.2718258 17.5088186,15.3165698 11.4208078,15.3165698 L11.4208078,18.5245842 C13.5091879,18.5245842 15.4718279,19.3402552 16.9500949,20.820709 C18.4283619,22.2946024 19.2429395,24.2670829 19.2429395,26.3620234 L22.4629811,26.3620234 Z M15.87857,24.1479031 C15.87857,22.9254899 14.8824892,21.9239423 13.6491422,21.9239423 C12.4212622,21.9239423 11.4229946,22.9254899 11.4229946,24.1479031 C11.4219011,25.3757831 12.4201687,26.3663969 13.6491422,26.3663969 C14.8824892,26.3663969 15.87857,25.3757831 15.87857,24.1479031 Z M28.1453433,26.36093 C28.1453433,17.1381622 20.6424822,9.63202099 11.4219011,9.63202099 L11.4219011,12.8389419 C18.8679058,12.8389419 24.9274884,18.9061783 24.9274884,26.36093 L28.1453433,26.36093 Z" id="Fill-5"></path>
            </g>
        </g>
    </g>
</svg>