<?xml version="1.0" encoding="UTF-8"?>
<svg width="38px" height="37px" viewBox="0 0 38 37" version="1.1" xmlns="http://www.w3.org/2000/svg" xmlns:xlink="http://www.w3.org/1999/xlink">
    <!-- Generator: Sketch 47.1 (45422) - http://www.bohemiancoding.com/sketch -->
    <title>Artboard</title>
    <desc>Created with Sketch.</desc>
    <defs></defs>
    <g id="Page-1" stroke="none" stroke-width="1" fill="none" fill-rule="evenodd">
        <g id="Artboard">
            <g id="Twitter" transform="translate(0.887695, 0.606934)">
                <path d="M18.072971,0 C8.09107095,0 0,8.09107095 0,18.072971 C0,28.0541628 8.09142981,36.145942 18.072971,36.145942 C28.0545122,36.145942 36.145942,28.0541628 36.145942,18.072971 C36.145942,8.09107095 28.054871,0 18.072971,0 L18.072971,2 C26.9503015,2 34.145942,9.19564045 34.145942,18.072971 C34.145942,26.9496127 26.9499233,34.145942 18.072971,34.145942 C9.19601864,34.145942 2,26.9496127 2,18.072971 C2,9.19564045 9.19564045,2 18.072971,2 L18.072971,0 Z" id="Fill-1" fill="#A51417" fill-rule="nonzero"></path>
                <path d="M20.9931589,10.5999466 C19.2975995,11.2177747 18.2241365,12.8098292 18.3468484,14.5523394 L18.3873967,15.2245876 L17.7076791,15.1424239 C15.2374336,14.8265739 13.0787698,13.7563121 11.2455596,11.9583148 L10.3492286,11.0662521 L10.1208776,11.7246285 C9.6321638,13.192904 9.94481258,14.7444103 10.9627885,15.7879956 C11.5048553,16.3642084 11.3832104,16.4463721 10.4463311,16.1038456 C10.1219447,15.9939383 9.83490533,15.9117747 9.80929587,15.95339 C9.71326041,16.0494255 10.0387139,17.2978865 10.2980097,17.7930027 C10.6512068,18.4801897 11.3693386,19.1513709 12.1568294,19.5504516 L12.8226753,19.8663016 L12.0341174,19.8780392 C11.2754373,19.8780392 11.2466266,19.891911 11.3287903,20.1810845 C11.5998237,21.0731472 12.6732868,22.0206971 13.8673277,22.4315155 L14.7092385,22.7206889 L13.9761679,23.1603179 C12.8899001,23.7930849 11.6136955,24.1494832 10.338558,24.1750926 C9.72606514,24.1889644 9.22347956,24.2433845 9.22347956,24.2849999 C9.22347956,24.4215836 10.8806248,25.1888003 11.8431135,25.4929126 C14.734848,26.3839082 18.1697164,25.9997664 20.748802,24.4760037 C22.5820123,23.3929371 24.4141555,21.2374746 25.2710052,19.1503039 C25.7319754,18.0394937 26.1929457,16.0078101 26.1929457,15.0335837 C26.1929457,14.4018838 26.233494,14.3197201 26.9932412,13.5653082 C27.4414067,13.1256792 27.8618286,12.6455019 27.9450593,12.5089181 C28.0816431,12.2474883 28.0656372,12.2474883 27.3741818,12.4811746 C26.2206892,12.89306 26.057429,12.8386399 26.6283064,12.2208118 C27.0497954,11.7811827 27.5513139,10.9851555 27.5513139,10.7525362 C27.5513139,10.7119879 27.3475053,10.7802798 27.1170202,10.9029918 C26.8737304,11.0406426 26.3295294,11.2465853 25.9219122,11.3692973 L25.1899086,11.6029836 L24.5251298,11.1484158 C24.1580609,10.9019247 23.6426706,10.6266231 23.3716372,10.5444594 C22.6769807,10.3523885 21.6184565,10.3801321 20.9931589,10.5999466" id="Fill-3" fill="#961D12"></path>
            </g>
        </g>
    </g>
</svg>