<?xml version="1.0" encoding="UTF-8"?>
<svg width="38px" height="37px" viewBox="0 0 38 37" version="1.1" xmlns="http://www.w3.org/2000/svg" xmlns:xlink="http://www.w3.org/1999/xlink">
    <!-- Generator: Sketch 47.1 (45422) - http://www.bohemiancoding.com/sketch -->
    <title>Artboard</title>
    <desc>Created with Sketch.</desc>
    <defs></defs>
    <g id="Page-1" stroke="none" stroke-width="1" fill="none" fill-rule="evenodd">
        <g id="Artboard" fill-rule="nonzero">
            <g id="youtube-icon" transform="translate(0.101318, 0.000000)">
                <g id="Group-3" transform="translate(0.731525, 0.560018)" fill="#A51417">
                    <g id="Fill-1-Clipped" transform="translate(0.000000, -0.000000)">
                        <path d="M18.1277377,0.0368495829 C8.13588307,0.0368495829 0.0367428211,8.13598985 0.0367428211,18.1278445 C0.0367428211,28.1189904 8.13624204,36.2188393 18.1277377,36.2188393 C28.1192333,36.2188393 36.2187326,28.1189904 36.2187326,18.1278445 C36.2187326,8.13598985 28.1195923,0.0368495829 18.1277377,0.0368495829 L18.1277377,2.05522099 C27.0048766,2.05522099 34.2003612,9.2507056 34.2003612,18.1278445 C34.2003612,27.0042942 27.0044981,34.2004679 18.1277377,34.2004679 C9.25097727,34.2004679 2.05511423,27.0042942 2.05511423,18.1278445 C2.05511423,9.2507056 9.25059882,2.05522099 18.1277377,2.05522099 L18.1277377,0.0368495829 Z" id="Fill-1"></path>
                    </g>
                </g>
                <path d="M18.8561663,17.8413517 C18.8561663,17.8402841 25.6152247,17.8509603 26.4170021,18.6527376 C27.2219824,19.4555827 27.231591,23.4164272 27.231591,23.438847 C27.231591,23.438847 27.2251853,27.4210438 26.4170021,28.2260241 C25.6141571,29.0256663 18.8561663,29.0438157 18.8561663,29.0438157 C18.8561663,29.0438157 12.0981756,29.0267339 11.294263,28.2260241 C10.4892827,27.423179 10.488215,23.4687402 10.488215,23.438847 C10.488215,23.4164272 10.4903503,19.4555827 11.294263,18.6527376 C12.0981756,17.8520279 18.8561663,17.8413517 18.8561663,17.8413517" id="Fill-4" fill="#A51417"></path>
                <path d="M23.9210295,23.6026189 L23.9210295,23.1008408 C23.9210295,22.8926563 23.9541256,22.7431904 24.0213852,22.6556461 C24.0897124,22.5627637 24.2018118,22.5189916 24.3566157,22.5189916 C24.5050139,22.5189916 24.6139104,22.5627637 24.6801025,22.6556461 C24.7473621,22.7431904 24.7836609,22.8926563 24.7836609,23.1008408 L24.7836609,23.6026189 L23.9210295,23.6026189 Z M25.7893525,24.3787736 L25.7893525,23.1115168 C25.7893525,22.6417671 25.6697797,22.2809139 25.4306344,22.0289572 C25.1893538,21.7780682 24.8466501,21.6531574 24.3993202,21.6531574 C23.9615989,21.6531574 23.6060836,21.7887442 23.3285043,22.059918 C23.0541277,22.3310917 22.9142704,22.683404 22.9142704,23.1115168 L22.9142704,25.3417606 C22.9142704,25.8211189 23.042384,26.1979863 23.2922054,26.46916 C23.5430945,26.7414013 23.8890012,26.8769882 24.3256548,26.8769882 C24.8114188,26.8769882 25.1776101,26.7488746 25.4210259,26.4926475 C25.6676446,26.2342851 25.7882848,25.8499444 25.7882848,25.340693 L25.7882848,25.0866011 L24.7847285,25.0866011 L24.7847285,25.3129351 C24.7847285,25.6054611 24.7494973,25.7944286 24.6865081,25.8798376 C24.6224513,25.9641791 24.5092844,26.0068836 24.3459396,26.0068836 C24.1911356,26.0068836 24.0811715,25.9577733 24.0160471,25.8563501 C23.9530579,25.7559944 23.9210295,25.5745003 23.9210295,25.3129351 L23.9210295,24.3787736 L25.7893525,24.3787736 Z" id="Fill-6" fill="#E2E2E2"></path>
                <path d="M21.3979396,25.5783436 C21.3979396,25.7374181 21.3680464,25.850585 21.3125305,25.9189122 C21.2570146,25.9915099 21.1694704,26.0256736 21.0498977,26.0256736 C20.9666239,26.0256736 20.8897558,26.0064565 20.8139552,25.9722929 C20.7381547,25.9381292 20.6602189,25.8751401 20.5812156,25.7972043 L20.5812156,22.7021941 C20.6474076,22.6338668 20.7146672,22.5815538 20.7829944,22.550593 C20.850254,22.517497 20.9196489,22.5025504 20.9901114,22.5025504 C21.1214278,22.5025504 21.2239186,22.5452549 21.2943811,22.6317316 C21.3627083,22.7171406 21.3979396,22.8452542 21.3979396,23.0128694 L21.3979396,25.5783436 Z M22.1580801,22.0306654 C21.9968705,21.8192781 21.7598604,21.7146519 21.4502526,21.7146519 C21.2986516,21.7146519 21.1491857,21.753086 20.9997199,21.833157 C20.8523893,21.9100252 20.7135996,22.0274626 20.5812156,22.1769284 L20.5812156,20.0096739 L19.5947411,20.0096739 L19.5947411,26.7420419 L20.5812156,26.7420419 L20.5812156,26.3598365 C20.7082615,26.5146403 20.8491864,26.6235369 20.9986523,26.6972022 C21.1470505,26.7697999 21.316801,26.8039635 21.5089713,26.8039635 C21.7982945,26.8039635 22.0214256,26.7121487 22.1730266,26.5242489 C22.3267629,26.336349 22.4025635,26.0673105 22.4025635,25.7160657 L22.4025635,22.9594888 C22.4025635,22.5527282 22.3224925,22.2420528 22.1580801,22.0306654 L22.1580801,22.0306654 Z" id="Fill-8" fill="#E2E2E2"></path>
                <path d="M17.884425,26.7408675 L17.884425,26.1953173 C17.7029307,26.3970961 17.5160984,26.5508324 17.3196576,26.6554584 C17.1242844,26.7622198 16.9353169,26.8134652 16.7527551,26.8134652 C16.5264211,26.8134652 16.3588058,26.7408675 16.242436,26.5914017 C16.1303367,26.4430035 16.0716179,26.2230751 16.0716179,25.9262788 L16.0716179,21.7732639 L17.0474163,21.7732639 L17.0474163,25.5825073 C17.0474163,25.7010124 17.067701,25.7842863 17.1072026,25.8387344 C17.1499071,25.8921151 17.2171668,25.9177378 17.3079139,25.9177378 C17.379444,25.9177378 17.4712587,25.8835743 17.5812228,25.8120442 C17.691187,25.7405141 17.7915426,25.6529698 17.884425,25.5462085 L17.884425,21.7732639 L18.8591556,21.7732639 L18.8591556,26.7408675 L17.884425,26.7408675 Z" id="Fill-10" fill="#E2E2E2"></path>
                <polygon id="Fill-12" fill="#E2E2E2" points="14.5043619 20.987821 14.5043619 26.7411879 13.4025852 26.7411879 13.4025852 20.987821 12.2645097 20.987821 12.2645097 20.0098874 15.6424375 20.0098874 15.6424375 20.987821"></polygon>
                <path d="M24.3537331,15.7582251 L23.2540917,15.7582251 L23.2540917,15.1539561 C23.0523128,15.3760196 22.841993,15.5468377 22.6220647,15.6621399 C22.403204,15.7785097 22.190749,15.8372285 21.9836321,15.8372285 C21.7274049,15.8372285 21.5373698,15.7550222 21.4092562,15.5927451 C21.2811427,15.4294003 21.2170859,15.1859845 21.2170859,14.8592948 L21.2170859,10.2867081 L22.3145922,10.2867081 L22.3145922,14.4813598 C22.3145922,14.610541 22.3391473,14.704491 22.3850546,14.762142 C22.4298944,14.8208608 22.5067625,14.8496864 22.6081858,14.8496864 C22.6882567,14.8496864 22.7907476,14.8112522 22.9145907,14.7343842 C23.0384338,14.657516 23.1526684,14.5592956 23.2540917,14.4397229 L23.2540917,10.2867081 L24.3537331,10.2867081 L24.3537331,15.7582251 Z" id="Fill-14" fill="#A51417"></path>
                <path d="M19.204315,14.4779435 C19.204315,14.6231388 19.1605428,14.7384411 19.0729986,14.8238501 C18.9843867,14.907124 18.8669493,14.9487609 18.7185511,14.9487609 C18.5722881,14.9487609 18.4601887,14.9081916 18.3833206,14.8259853 C18.3053848,14.7427115 18.2648155,14.6274093 18.2648155,14.4779435 L18.2648155,11.4971678 C18.2648155,11.3775952 18.30752,11.2804424 18.3907938,11.2067771 C18.4751353,11.1331118 18.5840317,11.0968129 18.7185511,11.0968129 C18.8626788,11.0968129 18.9801162,11.1331118 19.0697957,11.2067771 C19.1594752,11.2804424 19.204315,11.3775952 19.204315,11.4971678 L19.204315,14.4779435 Z M19.8897226,10.5459245 C19.5982642,10.2811565 19.2245997,10.1477049 18.7697965,10.1477049 C18.2712211,10.1477049 17.8719339,10.2736832 17.5772726,10.5245723 C17.2804763,10.7754614 17.132078,11.1128271 17.1331456,11.5377371 L17.1331456,14.3733174 C17.1331456,14.8387967 17.278341,15.2081908 17.5655289,15.483635 C17.8548521,15.7580115 18.2402604,15.8957337 18.7206863,15.8957337 C19.2213968,15.8957337 19.6121432,15.762282 19.8993311,15.4964463 C20.1833162,15.2295431 20.3253087,14.8633518 20.3253087,14.3957373 L20.3253087,11.5686979 C20.3242411,11.1523288 20.1790457,10.8106926 19.8897226,10.5459245 L19.8897226,10.5459245 Z" id="Fill-16" fill="#A51417"></path>
                <polygon id="Fill-18" fill="#A51417" points="14.1383841 8.34279815 12.8914121 8.34279815 14.3647181 12.8203674 14.3647181 15.7584386 15.6031494 15.7584386 15.6031494 12.6815777 17.0433594 8.34279815 15.7846435 8.34279815 15.0202326 11.3064921 14.9422968 11.3064921"></polygon>
            </g>
        </g>
    </g>
</svg>