<?xml version="1.0" encoding="utf-8"?>
<!-- Generator: Adobe Illustrator 19.1.0, SVG Export Plug-In . SVG Version: 6.00 Build 0)  -->
<svg version="1.1" id="Layer_1" xmlns="http://www.w3.org/2000/svg" xmlns:xlink="http://www.w3.org/1999/xlink" x="0px" y="0px"
	 viewBox="-411 197 400 400" style="enable-background:new -411 197 400 400;" xml:space="preserve">
<style type="text/css">
	.st0{fill:#A31E22;}
</style>
<g>
	<path class="st0" d="M-304.8,296.1c-8.6,0-15.6,0.2-21.1,0.7c-5.5,0.5-10.1,1.6-13.8,3.4c-3.7,1.8-6.9,4.4-9.5,7.7
		c-2.6,3.3-5.5,8-8.6,14l-7.5,14h-15.4l33.3-84.8h10.7c0,0.5-0.1,0.9-0.2,1.3c-0.1,0.4-0.2,0.9-0.2,1.6c0,3.6,2,6.1,5.9,7.7
		c3.9,1.6,10.7,2.3,20.2,2.3h108.4l-1.1,7.2c-7.2,10.5-14.9,22.7-23.3,36.5c-8.4,13.8-17.7,29.8-27.9,47.8
		c-10.3,18-21.6,38.2-34,60.7c-12.4,22.4-26.2,47.4-41.5,74.8c-5.7,10.3-10.7,18.8-15,25.6c-4.3,6.8-8.2,12.2-11.8,16.1
		c-3.6,3.9-7,6.7-10.2,8.2c-3.2,1.5-6.6,2.3-10.2,2.3c-5,0-9.1-1.3-12.3-3.9c-3.2-2.6-4.8-6.2-4.8-10.7c0-2.4,0.7-5.1,2-8.2
		c1.3-3.1,3.9-7.7,7.9-14c3.9-6.2,9.5-14.6,16.8-25.2c7.3-10.6,17-24.5,29.2-41.7l100.6-143.1H-304.8z"/>
	<path class="st0" d="M-50.7,439.6c0,13.8-2.7,27-8.1,39.5c-5.4,12.5-12.6,23.5-21.7,32.9c-9.1,9.4-19.5,16.9-31.3,22.5
		c-11.8,5.6-24.3,8.4-37.4,8.4c-11.7,0-22.2-2.3-31.7-7c-9.4-4.7-17.4-11.3-24-20c-6.6-8.7-11.6-19.2-15.2-31.5
		c-3.6-12.3-5.4-26.2-5.4-41.7c0-23.6,3.9-46.4,11.8-68.3c7.9-21.9,18.4-41.4,31.7-58.3c13.2-16.9,28.4-30.5,45.4-40.6
		c17.1-10.1,34.8-15.2,53.1-15.2c7.9,0,15.2,1,22,2.9c6.8,1.9,12.7,4.6,17.7,8.1c5,3.5,8.9,7.5,11.8,12.2c2.9,4.7,4.3,9.7,4.3,15.2
		c0,6.2-1.7,11.2-5.2,14.9c-3.5,3.7-8.2,5.5-14.1,5.5c-5,0-9.2-1.6-12.5-4.8c-3.3-3.2-5-8.2-5-14.9c0-7.6-1.3-13.4-3.9-17.2
		c-2.6-3.8-7.6-5.7-15-5.7c-9.5,0-19,2.5-28.3,7.5c-9.3,5-18.1,12.1-26.3,21.1c-8.2,9.1-15.6,19.8-22.2,32.2
		c-6.6,12.4-11.8,26.1-15.6,41.2l1.1,0.7c15.5-9.5,31.8-14.3,49-14.3c11.2,0,21.4,1.8,30.6,5.4c9.2,3.6,17.1,8.7,23.6,15.2
		c6.6,6.6,11.6,14.4,15.2,23.6C-52.5,418.2-50.7,428.4-50.7,439.6z M-131.9,382.3c-8.6,0-16.4,2-23.4,6.1c-7,4.1-13.1,9.8-18.1,17.2
		c-5,7.4-8.9,16.3-11.6,26.8c-2.7,10.5-4.1,22.1-4.1,34.7c0,19.3,3.2,34.1,9.7,44.4c6.4,10.3,15.9,15.4,28.3,15.4
		c8.1,0,15.7-2.3,22.9-6.8c7.2-4.5,13.3-10.9,18.4-19c5.1-8.1,9.2-17.6,12.2-28.5c3-10.9,4.5-22.6,4.5-35.2
		C-93.3,400.7-106.2,382.3-131.9,382.3z"/>
</g>
</svg>
