<svg xmlns="http://www.w3.org/2000/svg" viewBox="0 0 112.75 110.11"><defs><style>.cls-1{fill:#632666;}.cls-2{fill:#ddd;}.cls-3{fill:#69c7c7;}</style></defs><title>Asset 1</title><g id="Layer_2" data-name="Layer 2"><g id="Layer_1-2" data-name="Layer 1"><path class="cls-1" d="M41,52S29.49,52,29.49,64V80.45s0,12.06,11.53,12.06h60.2s11.53,0,11.53-12.06V64S112.75,52,101.22,52Z"/><path class="cls-1" d="M44.56,108.33s-4,4.89-4-1.54V81.19s0-6.43,6.15-6.43H65.85s6.15,0,2.15,4.89Z"/><path class="cls-2" d="M11.53,30.78S0,30.78,0,42V57.29S0,68.52,11.53,68.52h60.2s11.53,0,11.53-11.23V42s0-11.23-11.53-11.23Z"/><path class="cls-2" d="M15.07,83.25s-4,4.55-4-1.44V58s0-6,6.15-6H36.35s6.15,0,2.15,4.55Z"/><path class="cls-3" d="M99.1,0s11.53,0,11.53,11.23V39.3s0,11.23-11.53,11.23H43.86s-11.53,0-11.53-11.23V11.23S32.33,0,43.86,0Z"/><path class="cls-3" d="M93.42,64.43s4,4.55,4-1.44V39.16s0-6-6.15-6H72.13S66,33.17,70,37.73Z"/></g></g></svg>