<svg xmlns="http://www.w3.org/2000/svg" viewBox="0 0 25 25"><path d="M12.5.5C5.9.5.5 5.9.5 12.5s5.4 12 12 12 12-5.4 12-12-5.4-12-12-12zM8.6 3.6c-.6.7-1.3 1.7-1.9 3H4.9c1-1.3 2.2-2.3 3.7-3zM3.7 8.5H6c-.3.9-.4 2-.5 3.1H2.9c.1-1.1.4-2.2.8-3.1zm0 8.1c-.4-1-.7-2-.9-3.1h2.7c.1 1.1.2 2.2.5 3.1H3.7zm1.2 1.9h1.8c.5 1.2 1.2 2.1 1.9 2.9-1.5-.7-2.7-1.7-3.7-2.9zm6.6 3.1c-.5-.3-1.8-1.3-2.8-3.1h2.8v3.1zm0-5H7.9c-.3-.9-.5-1.9-.6-3.1h4.2v3.1zm0-5H7.3c.1-1.2.3-2.2.6-3.1h3.6v3.1zm0-5H8.7c1-1.8 2.3-2.8 2.8-3.1v3.1zm9.8 1.9c.4 1 .7 2 .8 3.1h-2.7c-.1-1.1-.2-2.2-.5-3.1h2.4zm-1.1-1.9h-1.9c-.6-1.3-1.3-2.2-2-3 1.6.6 2.9 1.7 3.9 3zm-6.7-3.1c.5.3 1.8 1.3 2.8 3.1h-2.8V3.5zm0 5h3.6c.3.9.5 1.9.6 3.1h-4.2V8.5zm0 5h4.2c-.1 1.2-.3 2.2-.6 3.1h-3.6v-3.1zm0 8.1v-3.1h2.8c-1 1.8-2.3 2.7-2.8 3.1zm2.9-.2c.7-.7 1.3-1.7 1.9-2.9h1.8c-.9 1.2-2.2 2.2-3.7 2.9zm4.9-4.8H19c.3-.9.4-2 .5-3.1h2.7c-.1 1.1-.4 2.1-.9 3.1z"/></svg>