<?xml version="1.0" encoding="utf-8"?>
<!-- Generator: Adobe Illustrator 19.1.0, SVG Export Plug-In . SVG Version: 6.00 Build 0)  -->
<svg version="1.1" id="Layer_1" xmlns="http://www.w3.org/2000/svg" xmlns:xlink="http://www.w3.org/1999/xlink" x="0px" y="0px"
	 viewBox="-411 197 400 400" style="enable-background:new -411 197 400 400;" xml:space="preserve">
<style type="text/css">
	.st0{fill:#F2F2F2;}
	.st1{fill:#C8C8C8;}
	.st2{fill:#F4BD18;}
	.st3{fill:#FFFFFF;}
	.st4{fill:#3E3E3E;}
	.st5{fill:#6D7574;}
</style>
<g>
	<path class="st0" d="M-339.5,217.7l-3-3c1.8-1.8,4.2-3.2,6.9-4.1l1.3,4C-336.3,215.3-338.1,216.4-339.5,217.7z"/>
	<path class="st1" d="M-78.5,456.8c-0.6-4-1.8-8.5-3.5-13.3l4-1.4c1.8,5.1,3.1,9.9,3.7,14.1L-78.5,456.8z M-87.5,430.5
		c-1.9-4-4-8.2-6.5-12.5l3.7-2.1c2.5,4.4,4.7,8.7,6.6,12.8L-87.5,430.5z M-101.1,405.9c-2.4-3.9-5-7.8-7.7-11.8l3.5-2.4
		c2.8,4,5.4,8.1,7.8,12L-101.1,405.9z M-117,382.5c-2.7-3.7-5.6-7.5-8.5-11.3l3.4-2.6c3,3.8,5.9,7.7,8.6,11.4L-117,382.5z
		 M-134.3,360.1c-2.9-3.6-6-7.2-9.1-10.9l3.2-2.8c3.2,3.7,6.2,7.3,9.2,10.9L-134.3,360.1z M-152.8,338.6c-3.1-3.5-6.3-7-9.6-10.4
		l3.1-2.9c3.3,3.5,6.5,7,9.7,10.5L-152.8,338.6z M-172.2,317.9c-1.6-1.7-3.3-3.4-5-5c-1.7-1.7-3.4-3.3-5-5l3-3
		c1.7,1.7,3.4,3.3,5.1,5c1.7,1.7,3.4,3.4,5,5.1L-172.2,317.9z M-192.5,298.1c-3.5-3.3-7-6.5-10.4-9.6l2.8-3.2
		c3.5,3.1,7,6.4,10.5,9.7L-192.5,298.1z M-213.6,279.1c-3.6-3.1-7.3-6.2-10.9-9.1l2.7-3.3c3.6,3,7.3,6,10.9,9.2L-213.6,279.1z
		 M-235.5,261.2c-3.8-2.9-7.6-5.8-11.3-8.5l2.5-3.4c3.8,2.7,7.6,5.6,11.4,8.6L-235.5,261.2z M-258.4,244.5c-4-2.7-8-5.3-11.8-7.7
		l2.2-3.6c3.9,2.4,7.9,5.1,12,7.8L-258.4,244.5z M-282.4,229.6c-4.3-2.4-8.5-4.6-12.5-6.5l1.8-3.8c4.1,1.9,8.4,4.1,12.8,6.6
		L-282.4,229.6z M-307.8,217.7c-4.9-1.7-9.4-2.9-13.4-3.5l0.7-4.2c4.2,0.7,9,1.9,14.1,3.7L-307.8,217.7z"/>
	<path class="st0" d="M-79.1,478.1l-3-3c1.4-1.4,2.4-3.1,3.1-5.2l4,1.3C-75.8,474-77.2,476.3-79.1,478.1z"/>
	<path class="st1" d="M-342.5,478.1c-20.5-20.5,21.3-94.4,95.1-168.3c34.9-34.9,71.4-64.1,102.8-82.1c32.1-18.5,55.4-23.1,65.5-13
		l-3,3c-8.5-8.5-30.5-3.5-60.4,13.7c-31.1,17.9-67.2,46.8-101.9,81.5c-69.7,69.7-113.2,144-95.1,162.2L-342.5,478.1z"/>
	<g>
		<path class="st2" d="M-210.8,235.3c-61.4,0-111.1,49.8-111.1,111.1c0,32.5,14,61.7,36.2,82.1c1.1,0.9,2.1,1.8,3.2,2.8
			c17.4,15.8,28.3,38.6,28.3,64v20.1h43.4h43.4v-20.1c0-25.4,10.9-48.1,28.3-64c1.1-0.9,2.1-1.8,3.2-2.8
			c22.2-20.3,36.2-49.5,36.2-82.1C-99.7,285.1-149.4,235.3-210.8,235.3z"/>
		<g>
			<polygon class="st3" points="-202.8,391.2 -218.7,338.4 -224.5,357.8 -253.2,357.8 -253.2,352.1 -228.7,352.1 -218.7,318.7 
				-202.8,371.5 -197,352.1 -168.3,352.1 -168.3,357.8 -192.8,357.8 			"/>
			<g>
				
					<rect x="-321.7" y="433" transform="matrix(-0.1867 -0.9824 0.9824 -0.1867 -709.8457 282.5054)" class="st4" width="167.5" height="4.2"/>
				
					<rect x="-185.6" y="351.4" transform="matrix(-0.9824 -0.1868 0.1868 -0.9824 -445.0708 828.3735)" class="st4" width="4.2" height="167.5"/>
			</g>
			<g>
				<path class="st4" d="M-159.8,354.9c0,4.7-3.8,8.5-8.5,8.5s-8.5-3.8-8.5-8.5s3.8-8.5,8.5-8.5S-159.8,350.2-159.8,354.9z"/>
				<path class="st4" d="M-244.8,354.9c0,4.7-3.8,8.5-8.5,8.5s-8.5-3.8-8.5-8.5s3.8-8.5,8.5-8.5S-244.8,350.2-244.8,354.9z"/>
			</g>
		</g>
		<g>
			<rect x="-259.3" y="515.3" class="st4" width="97" height="51.3"/>
			<polygon class="st5" points="-157.9,526.9 -263.7,533 -263.7,525.7 -157.9,519.6 			"/>
			<polygon class="st5" points="-157.9,541.6 -263.7,547.7 -263.7,540.3 -157.9,534.3 			"/>
			<polygon class="st5" points="-157.9,556.3 -263.7,562.3 -263.7,555 -157.9,548.9 			"/>
			<polygon class="st5" points="-188.3,584.5 -233.2,584.5 -242.3,566.6 -179.2,566.6 			"/>
		</g>
	</g>
	<path class="st1" d="M-94.1,483.3c-30.9,0-92.1-39.2-153.2-100.3c-73.9-73.9-115.6-147.8-95.2-168.3l3,3
		c-18.1,18.2,25.4,92.5,95.2,162.3s144.1,113.3,162.2,95.1l3,3C-82.6,481.7-87.7,483.3-94.1,483.3z"/>
	<g>
		<path class="st1" d="M-79,222.9c-0.7-2.1-1.7-3.8-3.1-5.2l3-3c1.8,1.8,3.2,4.2,4.1,6.9L-79,222.9z"/>
		<path class="st1" d="M-320.5,482.8l-0.7-4.2c4-0.6,8.5-1.8,13.3-3.5l1.4,4C-311.5,480.9-316.2,482.2-320.5,482.8z M-293.1,473.6
			l-1.8-3.8c4-1.9,8.2-4,12.5-6.5l2.1,3.7C-284.7,469.5-289,471.7-293.1,473.6z M-268,459.7l-2.3-3.6c3.9-2.4,7.8-5,11.8-7.7
			l2.4,3.5C-260,454.6-264,457.3-268,459.7z M-244.3,443.6l-2.5-3.4c3.7-2.7,7.5-5.6,11.3-8.5l2.6,3.4
			C-236.7,438-240.5,440.9-244.3,443.6z M-221.7,426.1l-2.7-3.3c3.6-2.9,7.2-6,10.9-9.1l2.8,3.2
			C-214.4,420.1-218.1,423.2-221.7,426.1z M-200.1,407.5l-2.8-3.2c3.5-3.1,7-6.3,10.4-9.6l2.9,3.1
			C-193.1,401.2-196.6,404.4-200.1,407.5z M-179.3,388l-3-3c1.7-1.6,3.4-3.3,5-5c1.7-1.7,3.4-3.4,5-5.1l3,3c-1.7,1.7-3.3,3.4-5,5.1
			C-175.9,384.7-177.6,386.3-179.3,388z M-159.3,367.6l-3.1-2.9c3.3-3.5,6.5-7,9.6-10.4l3.2,2.8C-152.8,360.6-156,364.1-159.3,367.6
			z M-140.2,346.4l-3.2-2.8c3.1-3.6,6.2-7.3,9.1-10.9l3.3,2.7C-134,339.1-137.1,342.7-140.2,346.4z M-122.1,324.3l-3.4-2.6
			c2.9-3.8,5.8-7.6,8.5-11.3l3.4,2.5C-116.3,316.6-119.2,320.5-122.1,324.3z M-105.3,301.2l-3.5-2.4c2.7-4,5.3-8,7.7-11.8l3.6,2.2
			C-99.9,293.1-102.5,297.1-105.3,301.2z M-90.2,276.9l-3.7-2.1c2.4-4.3,4.6-8.5,6.5-12.5l3.8,1.8
			C-85.5,268.2-87.7,272.5-90.2,276.9z M-78.1,250.8l-4-1.4c1.7-4.9,2.9-9.4,3.5-13.4l4.2,0.7C-75,240.9-76.3,245.7-78.1,250.8z"/>
		<path class="st1" d="M-335.6,482.2c-2.7-0.9-5-2.3-6.9-4.1l3-3c1.4,1.4,3.1,2.4,5.2,3.1L-335.6,482.2z"/>
	</g>
</g>
</svg>
