<?xml version="1.0" encoding="utf-8"?>
<!-- Generator: Adobe Illustrator 19.1.0, SVG Export Plug-In . SVG Version: 6.00 Build 0)  -->
<svg version="1.1" id="Layer_1" xmlns="http://www.w3.org/2000/svg" xmlns:xlink="http://www.w3.org/1999/xlink" x="0px" y="0px"
	 viewBox="0 0 400 400" style="enable-background:new 0 0 400 400;" xml:space="preserve">
<style type="text/css">
	.st0{fill:#E7E7E7;}
	.st1{fill:#C8C8C8;}
	.st2{fill:#86D1D3;}
	.st3{fill:#68C8C7;}
	.st4{fill:#A41E22;}
	.st5{fill:#FFFFFF;}
</style>
<g>
	<path id="XMLID_4547_" class="st0" d="M207.6,225.8c-0.2,0-59.5-3.3-77.7-85.1c-1.4-6.2-3-12.7-4.6-19.2c-3.5-14.2-6.8-27.6-8-40
		c-3.1-31.5,7.1-54.6,59-59.6l1.1,11.1c-42.9,4.2-51.3,22.4-48.9,47.4c1.1,11.4,4.4,24.6,7.8,38.4c1.5,6.2,3.1,12.5,4.6,19.4
		c16.4,73.5,67.4,76.3,67.6,76.3L207.6,225.8L207.6,225.8z"/>
	<path id="XMLID_4546_" class="st1" d="M207.6,214.7c0.1,0,51.2-2.8,67.6-76.3c1.5-6.9,3.1-13.2,4.6-19.4
		c3.4-13.8,6.7-26.9,7.8-38.4c2.4-25-6-43.3-48.9-47.4l1-11.1c51.9,5,62,28.1,59,59.6c-1.2,12.4-4.5,25.8-8,40
		c-1.6,6.4-3.2,13-4.6,19.2c-18.2,81.8-77.5,85.1-77.7,85.1L207.6,214.7L207.6,214.7z"/>
	<path id="XMLID_4545_" class="st2" d="M219.3,229.5v35.2h-22.4v-35.2c-7.9-2.1-19.6-6.6-31.5-16l13.9-17.5
		c12.9,10.2,25,12.5,28.8,13c3.8-0.5,15.9-2.8,28.8-13l13.9,17.5C238.8,222.9,227.2,227.4,219.3,229.5L219.3,229.5z"/>
	<path id="XMLID_4544_" class="st3" d="M219.3,229.5v35.2H208V209c3.8-0.5,15.9-2.8,28.8-13l13.9,17.5
		C238.8,222.9,227.2,227.4,219.3,229.5L219.3,229.5z"/>
	<path id="XMLID_4543_" class="st4" d="M290.3,342.8c0,12.3-5,23.5-13.1,31.5c-8.1,8.1-19.3,13.1-31.5,13.1h-50.5h-76.7
		c-12.3,0-23.5-5-31.5-13.1c-8.1-8.1-13.1-19.3-13.1-31.5c0-12.3,5-23.5,13.1-31.5c8.1-8.1,19.3-13.1,31.5-13.1H169
		c9.2,0,17.6-3.8,23.6-9.8c6.1-6.1,9.8-14.4,9.8-23.6h11.2c0,12.3-5,23.5-13.1,31.5c-8.1,8.1-19.3,13.1-31.5,13.1h-50.5
		c-9.2,0-17.6,3.8-23.6,9.8c-6.1,6.1-9.8,14.4-9.8,23.6c0,9.2,3.8,17.6,9.8,23.6c6.1,6.1,14.4,9.8,23.6,9.8h76.7h50.5
		c9.2,0,17.6-3.8,23.6-9.8c6.1-6.1,9.8-14.4,9.8-23.6H290.3L290.3,342.8z"/>
	<path id="XMLID_4542_" class="st1" d="M284.7,265.6c11.4,0,21.8,4.6,29.3,12.1v0c7.5,7.5,12.1,17.9,12.1,29.3
		c0,11.4-4.6,21.8-12.1,29.3v0c-7.5,7.5-17.9,12.1-29.3,12.1c-11.4,0-21.8-4.6-29.3-12.1v0c-7.5-7.5-12.1-17.9-12.1-29.3
		c0-11.4,4.6-21.8,12.1-29.3v0C262.9,270.2,273.3,265.6,284.7,265.6L284.7,265.6z"/>
	<path id="XMLID_4541_" class="st5" d="M284.7,288.9c5,0,9.5,2,12.8,5.3v0c3.3,3.3,5.3,7.8,5.3,12.8c0,5-2,9.5-5.3,12.8v0
		c-3.3,3.3-7.8,5.3-12.8,5.3c-5,0-9.5-2-12.8-5.3v0c-3.3-3.3-5.3-7.8-5.3-12.8c0-5,2-9.5,5.3-12.8v0
		C275.2,291,279.7,288.9,284.7,288.9L284.7,288.9z"/>
	<path id="XMLID_4540_" class="st4" d="M284.7,298c2.5,0,4.8,1,6.4,2.6v0c1.6,1.6,2.7,3.9,2.7,6.4c0,2.5-1,4.8-2.7,6.4v0
		c-1.6,1.6-3.9,2.7-6.4,2.7c-2.5,0-4.8-1-6.4-2.7v0c-1.6-1.6-2.7-3.9-2.7-6.4c0-2.5,1-4.8,2.7-6.4v0C280,299,282.2,298,284.7,298
		L284.7,298z"/>
	<path id="XMLID_4539_" class="st0" d="M284.7,288.9c5,0,9.5,2,12.8,5.3v0c3.3,3.3,5.3,7.8,5.3,12.8c0,5-2,9.5-5.3,12.8v0
		c-3.3,3.3-7.8,5.3-12.8,5.3V288.9L284.7,288.9z"/>
	<path id="XMLID_4538_" class="st4" d="M284.7,298L284.7,298c2.5,0,4.8,1,6.4,2.7l0,0c1.6,1.6,2.7,3.9,2.7,6.4c0,2.5-1,4.8-2.7,6.4
		l0,0c-1.6,1.6-3.9,2.7-6.4,2.7"/>
	<path id="XMLID_4537_" class="st2" d="M184.9,13.9c3.8,0,7.2,1.5,9.7,4c2.5,2.5,4,5.9,4,9.7c0,3.8-1.5,7.2-4,9.7l0,0
		c-2.5,2.5-5.9,4-9.7,4c-3.8,0-7.2-1.5-9.7-4l0,0c-2.5-2.5-4-5.9-4-9.7c0-3.8,1.5-7.2,4-9.7l0,0C177.7,15.4,181.1,13.9,184.9,13.9
		L184.9,13.9z"/>
	<path id="XMLID_4536_" class="st3" d="M231.3,12.5c3.8,0,7.2,1.5,9.7,4c2.5,2.5,4,5.9,4,9.7c0,3.8-1.5,7.2-4,9.7l0,0
		c-2.5,2.5-5.9,4-9.7,4c-3.8,0-7.2-1.5-9.6-4l0,0c-2.5-2.5-4-5.9-4-9.6c0-3.8,1.5-7.2,4-9.7l0,0C224.2,14,227.6,12.5,231.3,12.5
		L231.3,12.5z"/>
</g>
</svg>
