<?xml version="1.0" encoding="UTF-8" standalone="no"?><!DOCTYPE svg PUBLIC "-//W3C//DTD SVG 1.1//EN" "http://www.w3.org/Graphics/SVG/1.1/DTD/svg11.dtd"><svg width="100%" height="100%" viewBox="0 0 250 250" version="1.1" xmlns="http://www.w3.org/2000/svg" xmlns:xlink="http://www.w3.org/1999/xlink" xml:space="preserve" xmlns:serif="http://www.serif.com/" style="fill-rule:evenodd;clip-rule:evenodd;stroke-linejoin:round;stroke-miterlimit:1.41421;"><g id="Group"><g id="Path-4"><circle id="Mask" cx="125" cy="124.958" r="110.081" style="fill:#4992ad;"/><path d="M69.376,135.874l90.81,93.38l33.495,-14.886l33.479,-37.21l14.448,-43.496l-93.057,-71.448l-2.874,72.307l-76.301,1.353Z" style="fill-opacity:0.135216;"/></g><path id="Mask1" serif:id="Mask" d="M125,240.871c64.017,0 115.914,-51.896 115.914,-115.913c0,-64.018 -51.897,-115.914 -115.914,-115.914c-64.017,0 -115.914,51.896 -115.914,115.914c0,64.017 51.897,115.913 115.914,115.913Zm0,9.087c-69.036,0 -125,-55.965 -125,-125c0,-69.036 55.964,-125 125,-125c69.036,0 125,55.964 125,125c0,69.035 -55.964,125 -125,125Z" style="fill:#539db6;fill-rule:nonzero;"/><g id="Page-1"><path id="Fill-1" d="M99.296,61.886l0,72.911l-30.981,0l28.106,29.095l28.109,29.096l28.108,-29.096l28.106,-29.093l-32.783,-0.002l0,-72.911l-48.665,0Z" style="fill:#fff;"/><path id="Fill-11" serif:id="Fill-1" d="M123.703,61.886l0.827,131.102l28.108,-29.096l28.106,-29.093l-32.783,-0.002l0,-72.911l-24.258,0Z" style="fill:#f9f5f5;"/></g><path id="_-" serif:id="$" d="M123.336,100.32l1.988,0l0,2.295c1.025,0 2.307,0.26 3.845,0.781c1.538,0.52 2.733,1.325 3.584,2.413c0.852,1.089 1.278,2.311 1.278,3.668c0,1.025 -0.26,1.834 -0.781,2.425c-0.52,0.592 -1.175,0.888 -1.964,0.888c-0.694,0 -1.281,-0.237 -1.762,-0.71c-0.482,-0.473 -0.722,-1.065 -0.722,-1.775c0,-0.725 0.284,-1.451 0.852,-2.177c0.568,-0.773 0.852,-1.27 0.852,-1.49c0,-0.442 -0.363,-0.884 -1.089,-1.325c-1.073,-0.631 -2.437,-0.986 -4.093,-1.065l0,12.801c3.454,1.215 5.943,2.717 7.465,4.508c1.522,1.79 2.283,3.853 2.283,6.187c0,2.524 -0.844,4.591 -2.531,6.2c-1.688,1.609 -4.094,2.524 -7.217,2.745l0,5.892l-1.988,0l0,-5.892c-1.862,0 -3.53,-0.328 -5.005,-0.982c-1.475,-0.655 -2.563,-1.515 -3.265,-2.579c-0.702,-1.065 -1.053,-2.221 -1.053,-3.467c0,-1.136 0.28,-2.043 0.84,-2.721c0.56,-0.678 1.25,-1.018 2.07,-1.018c0.758,0 1.389,0.265 1.893,0.793c0.505,0.529 0.758,1.234 0.758,2.118c0,0.899 -0.363,1.656 -1.089,2.271c-0.836,0.726 -1.254,1.215 -1.254,1.467c0,0.474 0.434,0.947 1.301,1.42c1.199,0.663 2.8,1.018 4.804,1.065l0,-13.511c-5.995,-1.925 -8.992,-5.253 -8.992,-9.986c0,-2.476 0.813,-4.543 2.437,-6.199c1.625,-1.657 3.81,-2.571 6.555,-2.745l0,-2.295Zm0,15.972l0,-12.021c-1.988,0.127 -3.542,0.726 -4.662,1.799c-1.12,1.072 -1.68,2.374 -1.68,3.904c0,1.309 0.43,2.457 1.29,3.443c0.86,0.986 2.544,1.944 5.052,2.875Zm1.988,6.034l0,12.706c2.176,-0.189 3.856,-0.844 5.04,-1.964c1.183,-1.12 1.774,-2.476 1.774,-4.07c0,-1.403 -0.469,-2.634 -1.408,-3.691c-0.938,-1.057 -2.741,-2.051 -5.406,-2.981Z" style="fill:#4f707b;"/></g></svg>