<?xml version="1.0" encoding="UTF-8"?>
<svg width="249px" height="248px" viewBox="0 0 249 248" version="1.1" xmlns="http://www.w3.org/2000/svg" xmlns:xlink="http://www.w3.org/1999/xlink">
    <!-- Generator: Sketch 47.1 (45422) - http://www.bohemiancoding.com/sketch -->
    <title>debt-icon</title>
    <desc>Created with Sketch.</desc>
    <defs>
        <circle id="path-1" cx="109.990135" cy="109.405651" r="109.035203"></circle>
    </defs>
    <g id="Page-1" stroke="none" stroke-width="1" fill="none" fill-rule="evenodd">
        <g id="debt-icon">
            <g id="Path-4" transform="translate(14.649750, 14.475564)">
                <g id="Mask" fill-rule="nonzero" fill="#4992AD">
                    <circle id="path-1" cx="110.009858" cy="109.637169" r="109.017149"></circle>
                </g>
                <g id="Clipped">
                    <mask id="mask-2" fill="white">
                        <use xlink:href="#path-1"></use>
                    </mask>
                    <g id="path-1"></g>
                    <polygon id="Shape" fill-opacity="0.44" fill="#000000" fill-rule="nonzero" opacity="0.30785779" mask="url(#mask-2)" points="54.8941465 120.21851 146.831207 215.360862 178.019058 197.966086 211.179591 161.109674 225.490157 118.026823 133.317432 47.2577812 130.470759 118.877656"></polygon>
                </g>
            </g>
            <g id="Page-1" transform="translate(67.635821, 61.312805)" fill-rule="nonzero">
                <polygon id="Fill-1" fill="#FFFFFF" points="31.5444763 0.0957323609 31.5444763 72.3138381 0.857654447 72.3138381 28.6969877 101.132794 56.5381063 129.952817 84.3792248 101.132794 112.218558 72.315972 79.746477 72.3138381 79.746477 0.0957323609"></polygon>
                <polygon id="Fill-1" fill="#F9F5F5" points="55.719381 0.0957323609 56.5381063 129.952817 84.3792248 101.132794 112.218558 72.315972 79.746477 72.3138381 79.746477 0.0957323609"></polygon>
            </g>
            <path d="M122.991566,99.4774108 L124.960316,99.4774108 L124.960316,101.750848 C125.975947,101.750848 127.245465,102.008658 128.76891,102.524286 C130.292355,103.039913 131.475937,103.83678 132.319691,104.914911 C133.163446,105.993041 133.585316,107.203967 133.585316,108.547723 C133.585316,109.563353 133.327507,110.364127 132.811879,110.950067 C132.296251,111.536007 131.64782,111.828973 130.866566,111.828973 C130.179063,111.828973 129.597038,111.594601 129.120473,111.125848 C128.643908,110.657096 128.405629,110.071164 128.405629,109.368036 C128.405629,108.649282 128.686876,107.930539 129.249379,107.211786 C129.811882,106.446157 130.093129,105.953974 130.093129,105.735223 C130.093129,105.297721 129.733758,104.860226 129.015004,104.422723 C127.952499,103.79772 126.60095,103.446161 124.960316,103.368036 L124.960316,116.047723 C128.382209,117.250854 130.847028,118.739121 132.354848,120.512567 C133.862668,122.286013 134.616566,124.328962 134.616566,126.641473 C134.616566,129.141486 133.780637,131.18834 132.108754,132.782098 C130.436871,134.375856 128.054082,135.282097 124.960316,135.500848 L124.960316,141.336786 L122.991566,141.336786 L122.991566,135.500848 C121.147807,135.500848 119.49548,135.176633 118.034535,134.528192 C116.57359,133.879751 115.495476,133.028197 114.80016,131.973505 C114.104844,130.918812 113.757191,129.774292 113.757191,128.539911 C113.757191,127.414905 114.034532,126.516477 114.589223,125.844598 C115.143913,125.17272 115.8275,124.836786 116.640004,124.836786 C117.390008,124.836786 118.015001,125.098502 118.515004,125.621942 C119.015006,126.145382 119.265004,126.844594 119.265004,127.719598 C119.265004,128.610228 118.905633,129.36022 118.186879,129.969598 C117.35875,130.688352 116.944691,131.172722 116.944691,131.422723 C116.944691,131.891476 117.374375,132.360221 118.233754,132.828973 C119.42126,133.485227 121.007182,133.836786 122.991566,133.883661 L122.991566,120.500848 C117.054037,118.594589 114.085316,115.297747 114.085316,110.610223 C114.085316,108.157086 114.889996,106.110232 116.499379,104.469598 C118.108762,102.828965 120.272803,101.922724 122.991566,101.750848 L122.991566,99.4774108 Z M122.991566,115.297723 L122.991566,103.391473 C121.022807,103.516474 119.48376,104.110218 118.374379,105.172723 C117.264998,106.235229 116.710316,107.524278 116.710316,109.039911 C116.710316,110.336792 117.136093,111.4735 117.98766,112.450067 C118.839227,113.426634 120.507179,114.375844 122.991566,115.297723 Z M124.960316,121.274286 L124.960316,133.860223 C127.116577,133.672722 128.780623,133.024291 129.952504,131.914911 C131.124385,130.80553 131.710316,129.461794 131.710316,127.883661 C131.710316,126.493029 131.245477,125.274291 130.315785,124.227411 C129.386093,123.180531 127.600955,122.196165 124.960316,121.274286 Z" id="$" fill="#4F707B" fill-rule="nonzero"></path>
            <path d="M239.295208,124.226777 C239.295208,60.8029719 187.879413,9.38717728 124.455609,9.38717728 C61.0318041,9.38717728 9.61600946,60.8029719 9.61600946,124.226777 C9.61600946,187.650582 61.0318041,239.066376 124.455609,239.066376 C187.879413,239.066376 239.295208,187.650582 239.295208,124.226777 Z M248.215029,124.226777 C248.215029,192.576862 192.805695,247.986197 124.455609,247.986197 C56.1055227,247.986197 0.696187948,192.576862 0.696187948,124.226777 C0.696187948,55.8766905 56.1055227,0.467355766 124.455609,0.467355766 C192.805695,0.467355766 248.215029,55.8766905 248.215029,124.226777 Z" id="Fill-1" fill="#4992AD" fill-rule="nonzero"></path>
        </g>
    </g>
</svg>