<?xml version="1.0" encoding="UTF-8"?>
<svg width="249px" height="248px" viewBox="0 0 249 248" version="1.1" xmlns="http://www.w3.org/2000/svg" xmlns:xlink="http://www.w3.org/1999/xlink">
    <!-- Generator: Sketch 47.1 (45422) - http://www.bohemiancoding.com/sketch -->
    <title>graduation-icon</title>
    <desc>Created with Sketch.</desc>
    <defs>
        <circle id="path-1" cx="109.205218" cy="109.419281" r="109.048786"></circle>
    </defs>
    <g id="Page-1" stroke="none" stroke-width="1" fill="none" fill-rule="evenodd">
        <g id="graduation-icon">
            <g id="Path-3" transform="translate(15.367825, 14.756586)">
                <g id="Mask" fill-rule="nonzero" fill="#C2585B">
                    <circle id="path-1" cx="109.205218" cy="109.419281" r="109.048786"></circle>
                </g>
                <g id="Clipped">
                    <mask id="mask-2" fill="white">
                        <use xlink:href="#path-1"></use>
                    </mask>
                    <g id="path-1"></g>
                    <path d="M51.4553375,130.758368 L129.524765,223.152761 C145.705317,219.153226 158.103836,214.426681 166.720322,208.973125 C175.336809,203.519569 187.071869,192.971462 201.925503,177.328806 C210.46673,165.204653 215.834779,156.359447 218.029649,150.79319 C220.22452,145.226932 222.188825,134.928565 223.922565,119.898091 L181.943698,82.8147026 L51.4553375,130.758368 Z" id="Shape" fill="#000000" fill-rule="nonzero" opacity="0.169270833" mask="url(#mask-2)"></path>
                </g>
            </g>
            <g id="Page-1" transform="translate(53.414245, 74.178767)" fill-rule="nonzero">
                <path d="M16.253915,39.6072255 C16.253915,39.6072255 15.6832972,56.8559646 12.8548734,66.8660954 C11.8796379,70.3176788 13.8958435,73.4341647 16.9398264,75.3309467 C26.8081632,81.4800582 53.4273538,88.4551543 69.9429167,88.8221439 C90.5925328,89.2810242 114.019063,81.5538232 125.334595,74.7695065 C129.477021,72.2858166 131.105129,67.1033365 129.133435,62.6940699 C125.598565,54.7888233 124.779119,47.3593208 124.779119,42.9341081 C124.779119,37.1981037 127.876562,27.2174559 127.876562,27.2174559 L14.0742332,27.2174559 L16.253915,39.6072255 Z" id="Fill-1" fill="#FFF6F6"></path>
                <path d="M69.9429167,88.8221439 C90.5925328,89.2810242 114.019063,81.5538232 125.334595,74.7695065 C129.477021,72.2858166 131.105129,67.1033365 129.133435,62.6940699 C125.598565,54.7888233 124.779119,47.3593208 124.779119,42.9341081 C124.779119,37.1981037 127.876562,27.2174559 127.876562,27.2174559 C102.924166,27.2174559 84.2098698,27.2174559 71.7336721,27.2174559 C69.4891625,43.9309262 68.924286,74.4492572 69.9429167,88.8221439 Z" id="Fill-1" fill="#EEE2E2"></path>
                <path d="M71.7711435,58.6368907 C72.4273874,58.904418 73.1498376,58.8961581 73.8008846,58.6137173 L143.157351,28.5209171 C145.699906,27.4177687 145.515111,23.379851 142.88473,22.5652236 L70.4084555,0.117025963 C69.8607196,-0.052645049 69.2795167,-0.0373872771 68.7396798,0.160619597 L2.54833677,24.4462889 C-0.00793754346,25.3841256 -0.0669724616,29.3514904 2.45988833,30.3815622 L71.7711435,58.6368907 Z" id="Fill-5" fill="#FFFFFF"></path>
                <path d="M70.1463067,23.6963696 C70.0666387,23.7243781 69.913961,23.778183 69.6921657,23.8565454 C69.3229358,23.9869978 68.8947512,24.1386921 68.4125206,24.3100311 C67.0351476,24.799419 65.5005355,25.348209 63.8479421,25.9436301 C59.1257287,27.64502 54.4032798,29.3794837 49.9940668,31.0451032 C49.1659802,31.3579203 48.3554744,31.6658772 47.5638523,31.968551 C37.5901802,35.7819486 31.3966414,38.4312109 29.752183,39.7947037 C27.772424,41.4362091 27.2133297,44.6849317 27.4949866,49.1943928 C27.6032719,50.9280911 27.8389666,52.7681888 28.1638071,54.6346379 C28.3231455,55.550156 28.4938451,56.4133362 28.6647859,57.1992165 C28.7248572,57.4753876 28.7807894,57.7226475 28.8311956,57.9378455 C28.8619604,58.069189 28.8844098,58.1620855 28.8971575,58.2133724 C29.1020337,59.0376304 29.9363118,59.5397387 30.7605698,59.3348626 C31.5848278,59.1299864 32.0869361,58.2957083 31.8820599,57.4714504 C31.8411474,57.3068511 31.766833,56.9895821 31.6702354,56.5454859 C31.5080291,55.7997615 31.3455813,54.9783079 31.1939825,54.1072602 C30.8870994,52.3439891 30.6652455,50.6119488 30.5647308,49.0026593 C30.3425289,45.4451033 30.7730019,42.9437593 31.715355,42.1624128 C32.9581159,41.131985 39.2600188,38.4363704 48.6622929,34.8414448 C49.4499941,34.5402701 50.2566647,34.2337704 51.0809825,33.922377 C55.4737601,32.2629661 60.1820152,30.5337156 64.890506,28.8372699 C66.538659,28.2434486 68.0690257,27.6961768 69.4422747,27.2082542 C69.9227619,27.0375345 70.3492349,26.8864467 70.7167787,26.75659 C70.9370476,26.6787669 71.088903,26.6252518 71.1664136,26.5980023 C71.9676773,26.3163075 72.3888712,25.4383963 72.1071764,24.6371325 C71.8254818,23.8358687 70.9475704,23.4146748 70.1463067,23.6963696 Z" id="Stroke-9" fill="#BEBEBE"></path>
                <path d="M66.184865,25.1570655 C66.184865,22.0087984 68.7371117,19.4565517 71.8853788,19.4565517 C75.033646,19.4565517 77.5858927,22.0087984 77.5858927,25.1570655 C77.5858927,28.3053327 75.033646,30.8575794 71.8853788,30.8575794 C68.7371117,30.8575794 66.184865,28.3053327 66.184865,25.1570655 Z" id="Fill-11-Copy" fill="#B6B6B6"></path>
                <path d="M27.3923091,74.2799613 C30.2603113,76.5743631 34.8491148,76.1154827 37.1435166,73.4769207 C33.9313541,69.5764376 31.7644063,64.8826651 31.7516724,64.0698734 C31.7389385,63.2570815 30.4897514,64.0698734 30.4897514,64.0698734 C30.4897514,64.0698734 29.4572706,72.5591599 27.3923091,74.2799613 Z" id="Fill-13" fill="#B6B6B6"></path>
                <path d="M30.7872162,68.5329796 C27.5941614,68.5329796 25.0056061,65.9444243 25.0056061,62.7513696 C25.0056061,59.5583148 27.5941614,56.9697595 30.7872162,56.9697595 C33.9802709,56.9697595 36.5688262,59.5583148 36.5688262,62.7513696 C36.5688262,65.9444243 33.9802709,68.5329796 30.7872162,68.5329796" id="Fill-11" fill="#B6B6B6"></path>
            </g>
            <path d="M239.295208,124.226777 C239.295208,60.8029719 187.879413,9.38717728 124.455609,9.38717728 C61.0318041,9.38717728 9.61600946,60.8029719 9.61600946,124.226777 C9.61600946,187.650582 61.0318041,239.066376 124.455609,239.066376 C187.879413,239.066376 239.295208,187.650582 239.295208,124.226777 Z M248.215029,124.226777 C248.215029,192.576862 192.805695,247.986197 124.455609,247.986197 C56.1055227,247.986197 0.696187948,192.576862 0.696187948,124.226777 C0.696187948,55.8766905 56.1055227,0.467355766 124.455609,0.467355766 C192.805695,0.467355766 248.215029,55.8766905 248.215029,124.226777 Z" id="Fill-1" fill="#C2585B" fill-rule="nonzero"></path>
        </g>
    </g>
</svg>