<?xml version="1.0" encoding="UTF-8" standalone="no"?><!DOCTYPE svg PUBLIC "-//W3C//DTD SVG 1.1//EN" "http://www.w3.org/Graphics/SVG/1.1/DTD/svg11.dtd"><svg width="100%" height="100%" viewBox="0 0 250 250" version="1.1" xmlns="http://www.w3.org/2000/svg" xmlns:xlink="http://www.w3.org/1999/xlink" xml:space="preserve" xmlns:serif="http://www.serif.com/" style="fill-rule:evenodd;clip-rule:evenodd;stroke-linejoin:round;stroke-miterlimit:1.41421;"><g id="_30-Degree-Programs" serif:id="30-Degree-Programs"><g id="Path-3"><circle id="Mask" cx="125" cy="125" r="110.232" style="fill:#c2585b;"/><path d="M66.624,146.571l78.916,93.396c16.356,-4.043 28.889,-8.82 37.599,-14.333c8.71,-5.513 20.572,-16.175 35.587,-31.988c8.634,-12.255 14.06,-21.197 16.279,-26.823c2.219,-5.627 4.204,-16.037 5.957,-31.231l-39.719,-38.67l-134.619,49.649Z" style="fill-opacity:0.169271;"/></g><g id="Page-1"><path id="Fill-1" d="M69.499,114.497c0,0 -0.576,17.436 -3.435,27.555c-0.986,3.489 1.052,6.639 4.129,8.557c9.975,6.216 36.883,13.266 53.578,13.637c20.874,0.464 44.554,-7.347 55.993,-14.205c4.187,-2.51 5.833,-7.749 3.84,-12.206c-3.574,-7.991 -4.402,-15.501 -4.402,-19.975c0,-5.798 3.131,-15.887 3.131,-15.887l-115.037,0l2.203,12.524Z" style="fill:#fff6f6;"/><path id="Fill-11" serif:id="Fill-1" d="M123.771,164.246c20.874,0.464 44.554,-7.347 55.993,-14.205c4.187,-2.51 5.833,-7.749 3.84,-12.206c-3.574,-7.991 -4.402,-15.501 -4.402,-19.975c0,-5.798 3.131,-15.887 3.131,-15.887c-25.223,0 -44.14,0 -56.752,0c-2.269,16.895 -2.84,47.744 -1.81,62.273Z" style="fill:#eee2e2;"/><path id="Fill-5" d="M125.619,133.734c0.663,0.27 1.394,0.262 2.052,-0.024l70.109,-30.419c2.57,-1.115 2.383,-5.197 -0.276,-6.02l-73.262,-22.692c-0.554,-0.172 -1.142,-0.156 -1.687,0.044l-66.91,24.549c-2.584,0.948 -2.644,4.958 -0.089,6l70.063,28.562Z" style="fill:#fff;"/><path id="Stroke-9" d="M123.977,98.414c-0.081,0.028 -0.235,0.083 -0.46,0.162c-0.373,0.132 -0.806,0.285 -1.293,0.458c-1.392,0.495 -2.944,1.05 -4.614,1.652c-4.774,1.719 -9.547,3.473 -14.004,5.156c-0.837,0.317 -1.657,0.628 -2.457,0.934c-10.082,3.855 -16.343,6.533 -18.005,7.911c-2.001,1.659 -2.566,4.943 -2.282,9.502c0.11,1.752 0.348,3.612 0.677,5.499c0.161,0.925 0.333,1.798 0.506,2.592c0.061,0.279 0.117,0.529 0.168,0.747c0.031,0.133 0.054,0.227 0.067,0.278c0.207,0.834 1.05,1.341 1.883,1.134c0.834,-0.207 1.341,-1.05 1.134,-1.884c-0.041,-0.166 -0.116,-0.487 -0.214,-0.936c-0.164,-0.753 -0.328,-1.584 -0.481,-2.464c-0.311,-1.783 -0.535,-3.533 -0.636,-5.16c-0.225,-3.596 0.21,-6.125 1.163,-6.915c1.256,-1.041 7.626,-3.766 17.13,-7.4c0.797,-0.305 1.612,-0.614 2.445,-0.929c4.441,-1.678 9.2,-3.426 13.96,-5.14c1.666,-0.601 3.213,-1.154 4.601,-1.647c0.486,-0.173 0.917,-0.325 1.288,-0.457c0.223,-0.078 0.376,-0.132 0.455,-0.16c0.81,-0.285 1.235,-1.172 0.951,-1.982c-0.285,-0.81 -1.173,-1.236 -1.982,-0.951Z" style="fill:#bebebe;fill-rule:nonzero;"/><path id="Fill-11-Copy" d="M119.972,99.89c0,-3.182 2.58,-5.762 5.762,-5.762c3.183,0 5.763,2.58 5.763,5.762c0,3.183 -2.58,5.763 -5.763,5.763c-3.182,0 -5.762,-2.58 -5.762,-5.763Z" style="fill:#b6b6b6;"/><path id="Fill-13" d="M80.759,149.546c2.899,2.32 7.537,1.856 9.857,-0.811c-3.247,-3.943 -5.438,-8.688 -5.451,-9.51c-0.013,-0.821 -1.275,0 -1.275,0c0,0 -1.044,8.582 -3.131,10.321Z" style="fill:#b6b6b6;"/><path id="Fill-111" serif:id="Fill-11" d="M84.19,143.737c-3.227,0 -5.844,-2.617 -5.844,-5.844c0,-3.228 2.617,-5.845 5.844,-5.845c3.228,0 5.845,2.617 5.845,5.845c0,3.227 -2.617,5.844 -5.845,5.844" style="fill:#b6b6b6;"/></g><path id="Mask1" serif:id="Mask" d="M125,240.673c63.884,0 115.673,-51.789 115.673,-115.673c0,-63.884 -51.789,-115.673 -115.673,-115.673c-7.906,0 -15.627,0.793 -23.088,2.305c-52.822,10.699 -92.585,57.39 -92.585,113.368c0,63.884 51.789,115.673 115.673,115.673Zm0,9.327c-69.036,0 -125,-55.964 -125,-125c0,-59.738 42.216,-110.793 100.061,-122.51c8.152,-1.651 16.494,-2.49 24.939,-2.49c69.036,0 125,55.964 125,125c0,69.036 -55.964,125 -125,125Z" style="fill:#c2585b;fill-rule:nonzero;"/></g></svg>