<?xml version="1.0" encoding="UTF-8" standalone="no"?><!DOCTYPE svg PUBLIC "-//W3C//DTD SVG 1.1//EN" "http://www.w3.org/Graphics/SVG/1.1/DTD/svg11.dtd"><svg width="100%" height="100%" viewBox="0 0 250 250" version="1.1" xmlns="http://www.w3.org/2000/svg" xmlns:xlink="http://www.w3.org/1999/xlink" xml:space="preserve" xmlns:serif="http://www.serif.com/" style="fill-rule:evenodd;clip-rule:evenodd;stroke-linejoin:round;stroke-miterlimit:1.41421;"><g id="Top-10-Medical-School"><g id="Page-1"><path id="Fill-1" d="M234.079,125.049c0,60.261 -48.852,109.112 -109.113,109.112c-60.26,0 -109.112,-48.851 -109.112,-109.112c0,-60.261 48.852,-109.112 109.112,-109.112c60.261,0 109.113,48.851 109.113,109.112Z" style="fill:#6caca8;"/><g id="Fill-6-Copy"><path id="Mask" d="M234.079,125.049c0,60.261 -48.852,109.112 -109.113,109.112c-60.26,0 -109.112,-48.851 -109.112,-109.112c0,-60.261 48.852,-109.112 109.112,-109.112c60.261,0 109.113,48.851 109.113,109.112Z" style="fill:#6caca8;"/><path d="M234.208,123.965l-65.864,-48.685l-1.202,2.35l-93.115,102.212l53.652,55.096c59.605,3.5 111.886,-52.342 106.529,-110.973Z" style="fill-opacity:0.297668;"/></g><path id="Fill-8" d="M83.957,185.724c-5.706,0 -10.333,-4.625 -10.333,-10.332l0,-90.614c0,-5.707 4.627,-10.334 10.333,-10.334l80.116,0c5.707,0 10.333,4.627 10.333,10.334l0,90.614c0,5.707 -4.626,10.332 -10.333,10.332l-80.116,0Z" style="fill:#ddd;"/><path id="Fill-10" d="M85.569,104.235l15.656,0l0,-15.657l-15.656,0l0,15.657Z" style="fill:#fff;"/><path id="Fill-12" d="M85.569,126.096l15.656,0l0,-15.656l-15.656,0l0,15.656Z" style="fill:#fff;"/><path id="Fill-13" d="M85.569,147.959l15.656,0l0,-15.656l-15.656,0l0,15.656Z" style="fill:#fff;"/><path id="Fill-14" d="M146.959,104.235l15.655,0l0,-15.657l-15.655,0l0,15.657Z" style="fill:#fff;"/><path id="Fill-15" d="M146.959,126.096l15.655,0l0,-15.656l-15.655,0l0,15.656Z" style="fill:#fff;"/><path id="Fill-16" d="M146.959,147.959l15.655,0l0,-15.656l-15.655,0l0,15.656Z" style="fill:#fff;"/><path id="Fill-17" d="M116.263,104.235l15.656,0l0,-15.657l-15.656,0l0,15.657Z" style="fill:#fff;"/><path id="Fill-18" d="M116.263,126.096l15.656,0l0,-15.656l-15.656,0l0,15.656Z" style="fill:#fff;"/><path id="Fill-19" d="M116.263,147.959l15.656,0l0,-15.656l-15.656,0l0,15.656Z" style="fill:#fff;"/><path id="Fill-20" d="M113.007,185.723l22.017,0l0,-27.225l-22.017,0l0,27.225Z" style="fill:#fff;"/><path id="Fill-21" d="M135.9,84.823l-24.886,0c-3.558,0 -6.442,-2.884 -6.442,-6.442l0,-19.235c0,-3.558 2.884,-6.443 6.442,-6.443l24.886,0c3.558,0 6.442,2.885 6.442,6.443l0,19.235c0,3.558 -2.884,6.442 -6.442,6.442" style="fill:#efefef;"/><path id="Fill-22" d="M135.425,63.528l-7.032,0l0,-7.033l-10.247,0l0,7.033l-7.033,0l0,10.246l7.033,0l0,7.034l10.247,0l0,-7.034l7.032,0l0,-10.246Z" style="fill:#a84e56;"/><path id="Fill-23" d="M182.486,158.965l-115.96,0c-1.152,0 -2.086,-0.934 -2.086,-2.086l0,-1.86c0,-1.153 0.934,-2.087 2.086,-2.087l115.96,0c1.152,0 2.086,0.934 2.086,2.087l0,1.86c0,1.152 -0.934,2.086 -2.086,2.086" style="fill:#788281;"/></g><path id="Fill-11" serif:id="Fill-1" d="M240.991,125c0,-64.06 -51.931,-115.991 -115.991,-115.991c-64.06,0 -115.991,51.931 -115.991,115.991c0,64.06 51.931,115.991 115.991,115.991c64.06,0 115.991,-51.931 115.991,-115.991Zm9.009,0c0,69.035 -55.965,125 -125,125c-69.035,0 -125,-55.965 -125,-125c0,-69.035 55.965,-125 125,-125c69.035,0 125,55.965 125,125Z" style="fill:#6caca8;fill-rule:nonzero;"/></g></svg>