<?xml version="1.0" encoding="UTF-8"?>
<svg width="249px" height="248px" viewBox="0 0 249 248" version="1.1" xmlns="http://www.w3.org/2000/svg" xmlns:xlink="http://www.w3.org/1999/xlink">
    <!-- Generator: Sketch 47.1 (45422) - http://www.bohemiancoding.com/sketch -->
    <title>hospital-icon</title>
    <desc>Created with Sketch.</desc>
    <defs>
        <path d="M219.212033,109.963147 C219.212033,170.299374 170.299268,219.212138 109.963041,219.212138 C49.6268141,219.212138 0.714049674,170.299374 0.714049674,109.963147 C0.714049674,49.6269196 49.6268141,0.714155217 109.963041,0.714155217 C170.299268,0.714155217 219.212033,49.6269196 219.212033,109.963147 Z" id="path-1"></path>
    </defs>
    <g id="Page-1" stroke="none" stroke-width="1" fill="none" fill-rule="evenodd">
        <g id="hospital-icon" transform="translate(0.611328, 0.300781)">
            <g id="Page-1" transform="translate(13.881240, 13.962848)">
                <path d="M219.219414,109.963147 C219.219414,170.303451 170.303345,219.219519 109.963041,219.219519 C49.6227377,219.219519 0.706668619,170.303451 0.706668619,109.963147 C0.706668619,49.6228432 49.6227377,0.706774163 109.963041,0.706774163 C170.303345,0.706774163 219.219414,49.6228432 219.219414,109.963147 Z" id="Fill-1" fill="#6CACA8" fill-rule="nonzero"></path>
                <g id="Fill-6-Copy">
                    <g id="Mask" transform="translate(1.000000, 1.000000)" fill-rule="nonzero" fill="#6CACA8">
                        <path d="M217.103271,108.963147 C217.103271,168.687025 168.686919,217.103376 108.963041,217.103376 C49.2391631,217.103376 0.82281153,168.687025 0.82281153,108.963147 C0.82281153,49.2392686 49.2391631,0.82291707 108.963041,0.82291707 C168.686919,0.82291707 217.103271,49.2392686 217.103271,108.963147 Z" id="path-3"></path>
                    </g>
                    <g id="Clipped">
                        <mask id="mask-2" fill="white">
                            <use xlink:href="#path-1"></use>
                        </mask>
                        <g id="path-3"></g>
                        <path d="M219.427964,109.629681 L152.954017,60.637465 L151.762473,62.9667268 L61.8599712,166.75639 L112.912706,219.596722 C171.987165,223.065542 224.737416,167.738093 219.427964,109.629681 Z" id="Shape" fill="#000000" fill-rule="nonzero" opacity="0.297667572" mask="url(#mask-2)"></path>
                    </g>
                </g>
                <path d="M69.3193744,170.098102 C63.6635002,170.098102 59.0777988,165.513457 59.0777988,159.857582 L59.0777988,70.0506591 C59.0777988,64.3947849 63.6635002,59.8090837 69.3193744,59.8090837 L148.721135,59.8090837 C154.37701,59.8090837 158.961655,64.3947849 158.961655,70.0506591 L158.961655,159.857582 C158.961655,165.513457 154.37701,170.098102 148.721135,170.098102 L69.3193744,170.098102 Z" id="Fill-8" fill="#DDDDDD" fill-rule="nonzero"></path>
                <polygon id="Fill-10" fill="#FFFFFF" fill-rule="nonzero" points="70.9166126 89.3343511 86.4330639 89.3343511 86.4330639 73.8168444 70.9166126 73.8168444"></polygon>
                <polygon id="Fill-12" fill="#FFFFFF" fill-rule="nonzero" points="70.9166126 111.000603 86.4330639 111.000603 86.4330639 95.4841512 70.9166126 95.4841512"></polygon>
                <polygon id="Fill-13" fill="#FFFFFF" fill-rule="nonzero" points="70.9166126 132.668964 86.4330639 132.668964 86.4330639 117.152513 70.9166126 117.152513"></polygon>
                <polygon id="Fill-14" fill="#FFFFFF" fill-rule="nonzero" points="131.759212 89.3343511 147.275663 89.3343511 147.275663 73.8168444 131.759212 73.8168444"></polygon>
                <polygon id="Fill-15" fill="#FFFFFF" fill-rule="nonzero" points="131.759212 111.000603 147.275663 111.000603 147.275663 95.4841512 131.759212 95.4841512"></polygon>
                <polygon id="Fill-16" fill="#FFFFFF" fill-rule="nonzero" points="131.759212 132.668964 147.275663 132.668964 147.275663 117.152513 131.759212 117.152513"></polygon>
                <polygon id="Fill-17" fill="#FFFFFF" fill-rule="nonzero" points="101.337384 89.3343511 116.853836 89.3343511 116.853836 73.8168444 101.337384 73.8168444"></polygon>
                <polygon id="Fill-18" fill="#FFFFFF" fill-rule="nonzero" points="101.337384 111.000603 116.853836 111.000603 116.853836 95.4841512 101.337384 95.4841512"></polygon>
                <polygon id="Fill-19" fill="#FFFFFF" fill-rule="nonzero" points="101.337384 132.668964 116.853836 132.668964 116.853836 117.152513 101.337384 117.152513"></polygon>
                <polygon id="Fill-20" fill="#FFFFFF" fill-rule="nonzero" points="98.1099799 170.096519 119.931375 170.096519 119.931375 143.114232 98.1099799 143.114232"></polygon>
                <path d="M120.799544,70.0950913 L96.1349091,70.0950913 C92.6088268,70.0950913 89.7497554,67.2370754 89.7497554,63.7109931 L89.7497554,44.6473514 C89.7497554,41.1212691 92.6088268,38.2621978 96.1349091,38.2621978 L120.799544,38.2621978 C124.325627,38.2621978 127.183643,41.1212691 127.183643,44.6473514 L127.183643,63.7109931 C127.183643,67.2370754 124.325627,70.0950913 120.799544,70.0950913" id="Fill-21" fill="#EFEFEF" fill-rule="nonzero"></path>
                <polygon id="Fill-22" fill="#A84E56" fill-rule="nonzero" points="120.32852 48.9902059 113.358676 48.9902059 113.358676 42.020362 103.203644 42.020362 103.203644 48.9902059 96.232744 48.9902059 96.232744 59.1452387 103.203644 59.1452387 103.203644 66.1161379 113.358676 66.1161379 113.358676 59.1452387 120.32852 59.1452387"></polygon>
                <path d="M166.97001,143.577129 L52.0435758,143.577129 C50.9016359,143.577129 49.9760525,142.651546 49.9760525,141.509605 L49.9760525,139.665827 C49.9760525,138.523886 50.9016359,137.598303 52.0435758,137.598303 L166.97001,137.598303 C168.11195,137.598303 169.037533,138.523886 169.037533,139.665827 L169.037533,141.509605 C169.037533,142.651546 168.11195,143.577129 166.97001,143.577129" id="Fill-23" fill="#788281" fill-rule="nonzero"></path>
            </g>
            <path d="M238.68388,123.925995 C238.68388,60.5021907 187.268085,9.08639603 123.844281,9.08639603 C60.420476,9.08639603 9.00468134,60.5021907 9.00468134,123.925995 C9.00468134,187.3498 60.420476,238.765594 123.844281,238.765594 C187.268085,238.765594 238.68388,187.3498 238.68388,123.925995 Z M247.603701,123.925995 C247.603701,192.276081 192.194367,247.685416 123.844281,247.685416 C55.4941945,247.685416 0.0848598231,192.276081 0.0848598231,123.925995 C0.0848598231,55.5759092 55.4941945,0.166574516 123.844281,0.166574516 C192.194367,0.166574516 247.603701,55.5759092 247.603701,123.925995 Z" id="Fill-1" fill="#6CACA8" fill-rule="nonzero"></path>
        </g>
    </g>
</svg>