<?xml version="1.0" encoding="utf-8"?>
<!-- Generator: Adobe Illustrator 22.1.0, SVG Export Plug-In . SVG Version: 6.00 Build 0)  -->
<svg version="1.1" id="Layer_1" xmlns="http://www.w3.org/2000/svg" xmlns:xlink="http://www.w3.org/1999/xlink" x="0px" y="0px"
	 viewBox="0 0 249 248" style="enable-background:new 0 0 249 248;" xml:space="preserve">
<style type="text/css">
	.st0{fill:#4992AD;}
	.st1{opacity:0.3079;fill-opacity:0.44;enable-background:new    ;}
	.st2{fill:#ECEDDF;}
	.st3{fill:none;stroke:#000000;stroke-width:9;stroke-miterlimit:10;}
	.st4{fill:#E5E5E5;}
	.st5{fill:#E0E0D5;}
	.st6{fill:none;stroke:#000000;stroke-width:7;stroke-miterlimit:10;}
	.st7{display:none;fill:#727E7D;}
	.st8{fill:#396E7C;}
	.st9{fill:none;}
	.st10{fill:#FFFFFF;}
</style>
<title>debt-icon</title>
<desc>Created with Sketch.</desc>
<g>
	<g id="debt-icon_7_">
		<g id="Path-4_7_" transform="translate(14.649750, 14.475564)">
			<g id="Mask_7_">
				<circle id="path-1_7_" class="st0" cx="109.7" cy="109.6" r="108.8"/>
			</g>
		</g>
		<path id="Fill-1_8_" class="st0" d="M238.8,124.2c0-63.3-51.3-114.6-114.6-114.6S9.5,60.9,9.5,124.2s51.3,114.6,114.6,114.6
			S238.8,187.5,238.8,124.2z M247.7,124.2c0,68.2-55.3,123.6-123.6,123.6S0.6,192.5,0.6,124.2S55.9,0.7,124.1,0.7
			S247.7,56,247.7,124.2z"/>
	</g>
	<g>
		<path class="st1" d="M231.1,144.9l-82.4-64.8l-8.2,72.1l-32.1,26l50.5,49C195.7,214.9,223.7,183.6,231.1,144.9z"/>
	</g>
	<path class="st2" d="M108.5,178.2h35.1V164c0-6.9,2.2-13.7,6.4-19.2l7.2-9.6c12.1-16.2,9.8-39-5.3-52.4l-0.1-0.1
		c-14.7-13.1-36.9-13.1-51.6,0l0,0C85.1,96.2,82.8,119,95,135.2l7.1,9.5c4.2,5.6,6.4,12.3,6.4,19.3V178.2z"/>
	<path class="st3" d="M144.7,161.6"/>
	<path class="st3" d="M107.9,161.6"/>
	<path class="st3" d="M144.7,167.8"/>
	<path class="st3" d="M107.9,167.8"/>
	<path class="st3" d="M144.7,173.6"/>
	<path class="st3" d="M107.9,173.6"/>
	<path class="st4" d="M115.7,182.7c0,2.4,4.5,4.4,10.1,4.4s10.1-2,10.1-4.4v-1.4h-20.4L115.7,182.7z"/>
	<g>
		<path class="st2" d="M126.6,64c-0.8,0-1.5-0.7-1.5-1.5v-16c0-0.8,0.7-1.5,1.5-1.5s1.5,0.7,1.5,1.5v16
			C128.1,63.3,127.4,64,126.6,64z"/>
	</g>
	<g>
		<path class="st2" d="M90.8,78.7c-0.4,0-0.8-0.1-1.1-0.4L78.4,66.9c-0.6-0.6-0.6-1.5,0-2.1s1.5-0.6,2.1,0l11.3,11.3
			c0.6,0.6,0.6,1.5,0,2.1C91.6,78.6,91.2,78.7,90.8,78.7z"/>
	</g>
	<g>
		<path class="st2" d="M75.9,114.4h-16c-0.8,0-1.5-0.7-1.5-1.5s0.7-1.5,1.5-1.5h16c0.8,0,1.5,0.7,1.5,1.5
			C77.4,113.8,76.7,114.4,75.9,114.4z"/>
	</g>
	<g>
		<path class="st2" d="M193.1,114.6h-16c-0.8,0-1.5-0.7-1.5-1.5s0.7-1.5,1.5-1.5h16c0.8,0,1.5,0.7,1.5,1.5
			C194.6,114,193.9,114.6,193.1,114.6z"/>
	</g>
	<g>
		<path class="st2" d="M162.3,78.8c-0.4,0-0.8-0.1-1.1-0.4c-0.6-0.6-0.6-1.5,0-2.1L172.6,65c0.6-0.6,1.5-0.6,2.1,0s0.6,1.5,0,2.1
			l-11.3,11.3C163.1,78.7,162.7,78.8,162.3,78.8z"/>
	</g>
	<path class="st5" d="M126.6,178.2h17.1V164c0-6.9,2.2-13.7,6.4-19.2l7.2-9.6c12.1-16.2,9.8-39-5.3-52.4l-0.1-0.1
		c-7.3-6.4-16.3-9.7-25.4-9.8L126.6,178.2z"/>
	<path class="st6" d="M141.9,119.2"/>
	<rect x="108.6" y="162.8" class="st7" width="35" height="15.4"/>
	<g>
		<path class="st8" d="M108.5,163c0-0.9-0.1-1.8-0.2-2.7"/>
		<path class="st0" d="M108.5,163h35.2c0-0.9,0.1-1.8,0.2-2.7l-35.6,0C108.4,161.2,108.5,162.1,108.5,163z"/>
		<line class="st9" x1="108.5" y1="169.1" x2="108.5" y2="166.5"/>
		<rect x="108.5" y="166.5" class="st0" width="35.2" height="2.7"/>
		<line class="st9" x1="108.5" y1="174.9" x2="108.5" y2="172.2"/>
		<rect x="108.5" y="172.2" class="st0" width="35.2" height="2.7"/>
	</g>
	<path class="st10" d="M115.8,79.1c-12.1,3.6-23.1,13.2-22.8,29.1c0,2.6,3.8,3,4.4,0.5c0.1-0.3,0.1-0.7,0.2-1.1
		C99,92.5,110,85.4,117,83.4c0.1,0,0.2-0.1,0.3-0.1C119.9,82.3,118.5,78.3,115.8,79.1z"/>
</g>
</svg>
