<?xml version="1.0" encoding="UTF-8" standalone="no"?><!DOCTYPE svg PUBLIC "-//W3C//DTD SVG 1.1//EN" "http://www.w3.org/Graphics/SVG/1.1/DTD/svg11.dtd"><svg width="100%" height="100%" viewBox="0 0 250 250" version="1.1" xmlns="http://www.w3.org/2000/svg" xmlns:xlink="http://www.w3.org/1999/xlink" xml:space="preserve" xmlns:serif="http://www.serif.com/" style="fill-rule:evenodd;clip-rule:evenodd;"><g id="Best-Employers"><g id="Path-4-Copy"><ellipse id="Mask" cx="124.987" cy="124.681" rx="109.926" ry="109.646" style="fill:#9ab478;"/><path id="Path-4" d="M66.616,190.844l66.459,48.959l54.357,-13.622l39.619,-40.099l18.285,-96.453l-67.668,-44.645l-20.46,32.85l7.623,37.019l-14.96,40.527l-25.9,5.381c1.933,1.159 2.994,1.983 3.184,2.471c3.999,10.321 -9.553,17.08 -10.16,17.384c-0.65,0.326 -17.443,3.736 -50.379,10.228Z" style="fill-opacity:0.135216;"/></g><ellipse id="Mask-Copy" cx="124.987" cy="124.681" rx="120.287" ry="119.981" style="fill:none;stroke:#9ab478;stroke-width:9.06px;"/><g id="microscope_flat"><path id="Fill-7" d="M156.472,67.241c9.196,11.61 14.261,26.961 14.261,43.225c0,16.265 -5.065,31.616 -14.261,43.226c-4.587,5.789 -9.961,10.354 -15.976,13.564l-5.434,-11.374c4.215,-2.344 8.114,-5.709 11.508,-9.994c3.592,-4.534 6.421,-9.84 8.407,-15.77c2.082,-6.212 3.137,-12.823 3.137,-19.652c0,-6.828 -1.055,-13.44 -3.137,-19.651c-1.986,-5.93 -4.815,-11.236 -8.407,-15.77l9.902,-7.804" style="fill:#e6eedc;"/><path id="Fill-8" d="M143.843,162.945c-0.047,-1.736 -0.616,-3.384 -1.583,-4.743c-0.732,-1.028 -1.692,-1.892 -2.827,-2.504c3.259,-2.275 6.26,-5.133 8.952,-8.533c3.741,-4.722 6.683,-10.238 8.746,-16.394c2.153,-6.423 3.243,-13.254 3.243,-20.305c0,-7.05 -1.09,-13.881 -3.243,-20.304c-0.397,-1.187 -0.828,-2.35 -1.29,-3.488l5.539,-8.283c4.872,9.5 7.484,20.547 7.484,32.075c0,15.803 -4.907,30.701 -13.817,41.949c-3.329,4.201 -7.084,7.729 -11.204,10.53" style="fill:#f7ffeb;"/><path id="Fill-9" d="M130.342,119.024l-1.838,2.871c-1.737,2.715 -5.352,3.51 -8.073,1.777l-2.362,-1.504c-2.721,-1.734 -3.518,-5.339 -1.781,-8.053l1.838,-2.872l12.216,7.781" style="fill:#f7ffeb;"/><path id="Fill-11" d="M132.186,116.149l-0.613,0.957l-12.216,-7.78l0.613,-0.958l12.216,7.781" style="fill:#8da56e;"/><path id="Fill-12" d="M182.605,47.586l-0.886,1.297l-16.541,-11.248l0.887,-1.297l16.54,11.248" style="fill:#778e59;"/><path id="Fill-14" d="M178.215,47.151l-6.377,9.33l-11.038,-7.506l6.377,-9.33l11.038,7.506" style="fill:#f7ffeb;"/><path id="Fill-15" d="M131.219,117.566l-0.613,0.957l-12.216,-7.78l0.613,-0.958l12.216,7.781" style="fill:#8da56e;"/><path id="Fill-16" d="M169.815,191.024l-103.477,0l0,-3.351c0,-12.947 10.246,-14.042 22.885,-14.042l64.059,0c0.113,0 0.231,0.001 0.354,0.004c8.767,0.223 15.825,7.464 16.145,16.443l0.034,0.946" style="fill:#f7ffeb;stroke:#e6eedc;stroke-width:1.01px;"/><path id="Fill-17" d="M122.127,166.274l-4.853,-3.543l5.85,-17.479l5.048,3.662l-6.045,17.36" style="fill:#f7ffeb;"/><path id="Fill-18" d="M90.406,125.86c0.836,-1.234 2.518,-1.558 3.755,-0.723l35.136,21.379c1.237,0.835 1.562,2.512 0.725,3.746c-0.836,1.234 -2.518,1.558 -3.755,0.723l-35.136,-21.379c-1.237,-0.835 -1.562,-2.512 -0.725,-3.746" style="fill:#f7ffeb;"/><path id="Fill-19" d="M128.785,148.362c-0.428,0 -1.285,-0.35 -2.188,-0.919l-32.473,-19.951c-1.171,-0.739 -1.974,-1.567 -1.795,-1.851c0.042,-0.065 0.131,-0.096 0.258,-0.096c0.428,0 1.286,0.349 2.189,0.918l32.472,19.952c1.171,0.738 1.975,1.566 1.795,1.851c-0.041,0.065 -0.131,0.096 -0.258,0.096" style="fill:#778e59;"/><path id="Fill-20" d="M163.56,62.854l-5.288,-3.446c-2.696,-1.756 -3.454,-5.361 -1.693,-8.05l3.503,-5.35c1.761,-2.689 5.375,-3.445 8.071,-1.689l5.288,3.446c2.696,1.757 3.455,5.361 1.694,8.05l-3.504,5.35c-1.76,2.69 -5.374,3.446 -8.071,1.689" style="fill:#8da56e;"/><path id="Fill-21" d="M106.789,159.864l-11.796,4.954c-1.616,0.678 -3.477,-0.079 -4.157,-1.689l-1.631,-3.863l17.648,-7.411l1.63,3.861c0.68,1.612 -0.078,3.469 -1.694,4.148" style="fill:#8da56e;"/><path id="Fill-22" d="M89.26,159.282c0.122,0.288 4.171,-1.137 9.044,-3.184c4.873,-2.046 8.725,-3.939 8.604,-4.227c-0.122,-0.288 -4.171,1.137 -9.044,3.184c-4.873,2.047 -8.725,3.939 -8.604,4.227" style="fill:#788a61;"/><path id="Fill-23" d="M173.891,59.684l-36.54,54.637l-16.881,-11.232l36.54,-54.637l16.881,11.232" style="fill:#f7ffeb;"/><path id="Fill-25" d="M124.728,101.757l-1.379,-0.849l33.398,-50.054l1.266,0.791l-33.285,50.112" style="fill:#a3bc82;"/><path id="Fill-26" d="M118.293,106.597c-1.348,-0.857 -1.748,-2.657 -0.889,-4.001l1.332,-2.085l21.586,13.717l-1.332,2.085c-0.858,1.344 -2.663,1.744 -4.01,0.887l-16.687,-10.603Z" style="fill:#8da56e;"/><path id="Fill-27" d="M119.224,190.489l-0.408,-24.553c-0.127,-7.104 2.478,-10.957 8.196,-10.957l8.317,0c0.947,0 1.865,0.154 2.726,0.444c3.279,1.101 5.455,4.213 5.493,7.664l0.302,27.251l-24.626,0.151" style="fill:#787974;"/><path id="Fill-29" d="M118.909,191.024l-0.093,-25.088c-0.127,-7.104 2.478,-10.957 8.196,-10.957l8.317,0c0.947,0 1.865,0.154 2.726,0.444c3.279,1.101 5.455,4.213 5.493,7.664l0.283,27.937l-24.922,0" style="fill:#9ab478;"/><path id="Fill-30" d="M131.231,169.091c-2.661,0 -4.818,-2.151 -4.818,-4.805c0,-2.655 2.157,-4.806 4.818,-4.806c2.661,0 4.819,2.151 4.819,4.806c0,2.654 -2.158,4.805 -4.819,4.805" style="fill:#f7ffeb;"/><path id="Fill-31" d="M128.975,168.264c-1.272,-0.81 -2.116,-2.229 -2.116,-3.846c0,-2.517 2.046,-4.558 4.57,-4.558c1.348,0 2.56,0.584 3.397,1.51c-0.709,-0.451 -1.551,-0.714 -2.454,-0.714c-2.524,0 -4.57,2.042 -4.57,4.559c0,1.172 0.444,2.241 1.173,3.049" style="fill:#c9ddae;"/><path id="Fill-34" d="M102.686,162.288c-0.933,0 -1.69,-0.755 -1.69,-1.685c0,-0.932 0.757,-1.687 1.69,-1.687c0.933,0 1.69,0.755 1.69,1.687c0,0.93 -0.757,1.685 -1.69,1.685" style="fill:#f7ffeb;"/><path id="Rectangle-25" d="M101.639,157.714l17.485,0l-0.288,1.273l0,5.003l-17.197,0c-1.738,0 -3.146,-1.405 -3.146,-3.138c0,-1.733 1.408,-3.138 3.146,-3.138Z" style="fill:#f7ffeb;"/></g></g></svg>