<?xml version="1.0" encoding="UTF-8"?>
<svg width="249px" height="248px" viewBox="0 0 249 248" version="1.1" xmlns="http://www.w3.org/2000/svg" xmlns:xlink="http://www.w3.org/1999/xlink">
    <!-- Generator: Sketch 47.1 (45422) - http://www.bohemiancoding.com/sketch -->
    <title>microscope-icon</title>
    <desc>Created with Sketch.</desc>
    <defs>
        <circle id="path-1" cx="109.990135" cy="109.405651" r="109.035203"></circle>
    </defs>
    <g id="Page-1" stroke="none" stroke-width="1" fill="none" fill-rule="evenodd">
        <g id="microscope-icon">
            <g id="Path-4-Copy" transform="translate(14.695599, 14.721657)">
                <g id="Mask" fill-rule="nonzero" fill="#9AB478">
                    <circle id="path-1" cx="109.990135" cy="109.405651" r="109.035203"></circle>
                </g>
                <g id="Path-4-Clipped">
                    <mask id="mask-2" fill="white">
                        <use xlink:href="#path-1"></use>
                    </mask>
                    <g id="path-1"></g>
                    <path d="M52.0921684,175.200828 L118.012393,223.886439 L171.929045,210.34039 L211.227407,170.464903 L229.364006,74.5490309 L162.244523,30.1533631 L141.950092,62.8202174 L149.511289,99.6327478 L134.672913,139.933936 L108.982155,145.285161 C110.899931,146.437644 111.952704,147.256784 112.140475,147.742581 C116.107464,158.005873 102.665232,164.727111 102.06335,165.029842 C101.418734,165.354067 84.7616737,168.744396 52.0921684,175.200828 Z" id="Path-4" fill-opacity="0.44" fill="#000000" fill-rule="nonzero" opacity="0.30785779" mask="url(#mask-2)"></path>
                </g>
            </g>
            <path d="M239.295208,124.226777 C239.295208,60.8029719 187.879413,9.38717728 124.455609,9.38717728 C61.0318041,9.38717728 9.61600946,60.8029719 9.61600946,124.226777 C9.61600946,187.650582 61.0318041,239.066376 124.455609,239.066376 C187.879413,239.066376 239.295208,187.650582 239.295208,124.226777 Z M248.215029,124.226777 C248.215029,192.576862 192.805695,247.986197 124.455609,247.986197 C56.1055227,247.986197 0.696187948,192.576862 0.696187948,124.226777 C0.696187948,55.8766905 56.1055227,0.467355766 124.455609,0.467355766 C192.805695,0.467355766 248.215029,55.8766905 248.215029,124.226777 Z" id="Fill-1" fill="#9AB478" fill-rule="nonzero"></path>
            <g id="microscope_flat" transform="translate(65.890364, 35.553627)" fill-rule="nonzero">
                <path d="M90.0251706,31.4540577 C99.1472497,42.9995007 104.170991,58.2650238 104.170991,74.4386619 C104.170991,90.6124478 99.1472497,105.877971 90.0251706,117.423709 C85.4760256,123.180325 80.1448022,127.719423 74.1789622,130.912454 L68.788636,119.601649 C72.9700138,117.270042 76.8371121,113.924231 80.2039051,109.663212 C83.7666239,105.154109 86.5723831,99.8778512 88.5430193,93.9811615 C90.6074813,87.8038812 91.654488,81.2288387 91.654488,74.4386619 C91.654488,67.6484851 90.6074813,61.0735904 88.5430193,54.89631 C86.5723831,48.9996203 83.7666239,43.7233627 80.2039051,39.2142597 L90.0251706,31.4540577" id="Fill-7" fill="#E6EEDC"></path>
                <path d="M77.4989161,126.624543 C77.4520771,124.89874 76.8879406,123.260114 75.9284061,121.908137 C75.2029188,120.885658 74.2506244,120.027189 73.1248632,119.41843 C76.3571971,117.156269 79.3336158,114.313571 82.0044729,110.933036 C85.714801,106.237316 88.6332989,100.752278 90.679439,94.6302584 C92.8143811,88.243163 93.895963,81.4498833 93.895963,74.4386619 C93.895963,67.4275883 92.8143811,60.6341609 90.679439,54.2470654 C90.2849276,53.0669296 89.8579096,51.9099916 89.3992716,50.7783201 L94.8933233,42.5421925 C99.7264575,51.9887462 102.316639,62.9744853 102.316639,74.4386619 C102.316639,90.1535143 97.4495208,104.968083 88.6115786,116.153442 C85.3099466,120.331569 81.585286,123.839322 77.4989161,126.624543" id="Fill-8" fill="#F7FFEB"></path>
                <path d="M64.1073961,82.9487311 L62.2843692,85.8038413 C60.5607828,88.5030677 56.9753095,89.2940113 54.2760831,87.570425 L51.93369,86.07468 C49.2344636,84.3510936 48.4436677,80.765768 50.1672541,78.0665416 L51.9904287,75.2112837 L64.1073961,82.9487311" id="Fill-9" fill="#F7FFEB"></path>
                <polyline id="Fill-11" fill="#8DA56E" points="65.93589 80.0894838 65.3278696 81.0416305 53.2107545 73.3043308 53.8189226 72.3520364 65.93589 80.0894838"></polyline>
                <polyline id="Fill-12" fill="#778E59" points="115.94723 11.9087507 115.068075 13.1982268 98.6611289 2.01272002 99.5402836 0.72324395 115.94723 11.9087507"></polyline>
                <polyline id="Fill-14" fill="#F7FFEB" points="111.592829 11.4759702 105.267348 20.753933 94.3185482 13.2895406 100.644029 4.01157785 111.592829 11.4759702"></polyline>
                <polyline id="Fill-15" fill="#8DA56E" points="64.9775376 81.4984954 64.3695172 82.450642 52.252402 74.7133423 52.8604224 73.7610479 64.9775376 81.4984954"></polyline>
                <path d="M103.260807,154.547677 L0.621792087,154.547677 L0.621792087,151.215754 C0.621792087,138.340202 10.7849676,137.251232 23.3217128,137.251232 L86.8615437,137.251232 C86.9735436,137.251232 87.0904194,137.25271 87.2120235,137.255665 C95.9084144,137.477301 102.909145,144.677503 103.226823,153.606464 L103.260807,154.547677" id="Fill-16" stroke="#E6EEDC" fill="#F7FFEB"></path>
                <polyline id="Fill-17" fill="#F7FFEB" points="55.9587407 129.935779 51.1446672 126.411773 56.9481222 109.030959 61.9548709 112.672285 55.9587407 129.935779"></polyline>
                <path d="M24.4943131,89.746739 C25.3242646,88.5196165 26.9919988,88.1973583 28.2192691,89.0273098 L63.0705847,110.287781 C64.297855,111.117733 64.6199654,112.785319 63.7900139,114.012589 C62.9600624,115.240007 61.2924759,115.56197 60.0652056,114.732019 L25.2137423,93.4715474 C23.986472,92.6417436 23.6643615,90.9740094 24.4943131,89.746739" id="Fill-18" fill="#F7FFEB"></path>
                <path d="M62.5631868,112.122776 C62.1386807,112.122776 61.2877477,111.775399 60.3920443,111.20949 L28.1830686,91.3691118 C27.0212547,90.6350546 26.2241052,89.8111611 26.4025958,89.5287973 C26.4433767,89.4640797 26.532031,89.4333463 26.6582155,89.4333463 C27.0827216,89.4333463 27.9335069,89.7805754 28.8292104,90.346485 L61.038186,110.186863 C62.1998522,110.92092 62.9971494,111.744814 62.8186588,112.027325 C62.7778779,112.092043 62.6892236,112.122776 62.5631868,112.122776" id="Fill-19" fill="#778E59"></path>
                <path d="M97.056487,27.0915298 L91.8111105,23.6647475 C89.136264,21.9179633 88.384476,18.3338197 90.1312602,15.6595643 L93.6063591,10.3392749 C95.3528478,7.66501949 98.9374346,6.91323145 101.611838,8.66001569 L106.857214,12.086798 C109.531618,13.8335822 110.283701,17.417578 108.537212,20.0918335 L105.061966,25.4122706 C103.315477,28.086526 99.7308902,28.8383141 97.056487,27.0915298" id="Fill-20" fill="#8DA56E"></path>
                <path d="M40.7449326,123.561539 L29.0446402,128.48776 C27.4419191,129.161532 25.5955466,128.409449 24.92074,126.807762 L23.3036865,122.966078 L40.8080249,115.596545 L42.4250784,119.436161 C43.099885,121.039325 42.3476537,122.886289 40.7449326,123.561539" id="Fill-21" fill="#8DA56E"></path>
                <path d="M23.3583566,122.982331 C23.4789264,123.26898 27.4951117,121.851989 32.3288369,119.815897 C37.1625621,117.781282 40.9832648,115.898856 40.862695,115.612355 C40.7419775,115.326002 36.7257922,116.743584 31.892067,118.778642 C27.0584895,120.814734 23.2376391,122.695682 23.3583566,122.982331" id="Fill-22" fill="#788A61"></path>
                <polyline id="Fill-23" fill="#F7FFEB" points="107.303441 23.9391324 71.0592192 78.2716284 54.3152387 67.1020794 90.5591647 12.7697312 107.303441 23.9391324"></polyline>
                <polyline id="Fill-25" fill="#A3BC82" points="58.5385794 65.7780282 57.1703488 64.9334487 90.2983735 15.1580767 91.5540132 15.9447354 58.5385794 65.7780282"></polyline>
                <path d="M52.1557689,70.5903287 C50.8191583,69.7388046 50.4222828,67.9487275 51.2738069,66.612117 L52.594903,64.538494 L74.0065297,78.1795758 L72.6852859,80.2531987 C71.8337618,81.5896615 70.0436847,81.986537 68.7072219,81.1350129 L52.1557689,70.5903287 Z" id="Fill-26" fill="#8DA56E"></path>
                <path d="M53.0792507,154.015751 L52.6742485,129.598893 C52.5482117,122.534627 55.1326309,118.703286 60.803991,118.703286 L69.0541555,118.703286 C69.9927085,118.703286 70.9031877,118.856953 71.7578146,119.145079 C75.0103913,120.239959 77.168088,123.333993 77.2060616,126.76639 L77.5061562,153.865039 L53.0792507,154.015751" id="Fill-27" fill="#787974"></path>
                <path d="M52.7663012,154.547677 L52.6742485,129.598893 C52.5482117,122.534627 55.1326309,118.703286 60.803991,118.703286 L69.0541555,118.703286 C69.9927085,118.703286 70.9031877,118.856953 71.7578146,119.145079 C75.0103913,120.239959 77.168088,123.333993 77.2060616,126.76639 L77.4872433,154.547677 L52.7663012,154.547677" id="Fill-29" fill="#9AB478"></path>
                <path d="M64.9892104,132.737254 C62.3498256,132.737254 60.2101553,130.597731 60.2101553,127.958789 C60.2101553,125.31837 62.3498256,123.178848 64.9892104,123.178848 C67.6287429,123.178848 69.768561,125.31837 69.768561,127.958789 C69.768561,130.597731 67.6287429,132.737254 64.9892104,132.737254" id="Fill-30" fill="#F7FFEB"></path>
                <path d="M62.7512816,131.914247 C61.4897316,131.10897 60.6520967,129.69789 60.6520967,128.090293 C60.6520967,125.587288 62.681688,123.557106 65.1852841,123.557106 C66.5229289,123.557106 67.7249328,124.137791 68.5547366,125.058318 C67.8514129,124.610614 67.0167331,124.349084 66.1205864,124.349084 C63.6171381,124.349084 61.5876946,126.379266 61.5876946,128.882271 C61.5876946,130.048075 62.0280107,131.110448 62.7512816,131.914247" id="Fill-31" fill="#C9DDAE"></path>
                <path d="M36.6752593,125.971457 C35.7494134,125.971457 34.9988074,125.220851 34.9988074,124.295891 C34.9988074,123.369454 35.7494134,122.618848 36.6752593,122.618848 C37.6011051,122.618848 38.3517111,123.369454 38.3517111,124.295891 C38.3517111,125.220851 37.6011051,125.971457 36.6752593,125.971457" id="Fill-34" fill="#F7FFEB"></path>
                <path d="M35.6364859,121.422861 L52.980353,121.422861 L52.6941265,122.688978 L52.6941265,127.663926 L35.6364859,127.663926 L35.6364859,127.663926 C33.9130634,127.663926 32.5159535,126.266816 32.5159535,124.543394 L32.5159535,124.543394 L32.5159535,124.543394 C32.5159535,122.819971 33.9130634,121.422861 35.6364859,121.422861 Z" id="Rectangle-25" fill="#F7FFEB"></path>
            </g>
        </g>
    </g>
</svg>