<?xml version="1.0" encoding="UTF-8"?>
<svg width="744px" height="861px" viewBox="0 0 744 861" version="1.1" xmlns="http://www.w3.org/2000/svg" xmlns:xlink="http://www.w3.org/1999/xlink">
    <!-- Generator: Sketch 47.1 (45422) - http://www.bohemiancoding.com/sketch -->
    <title>Page 1</title>
    <desc>Created with Sketch.</desc>
    <defs></defs>
    <g id="Page-1" stroke="none" stroke-width="1" fill="none" fill-rule="evenodd" opacity="0.0611979167">
        <g id="WashU-Med-Fast-Facts-Copy" transform="translate(-232.843750, -60.406250)">
            <g id="Page-1" transform="translate(232.488281, 0.823079)">
                <g id="Shield_open_pos" transform="translate(0.803073, 60.108561)">
                    <path d="M546.353244,127.055666 L570.433543,147.164513 C571.433894,148.009121 571.817262,149.386849 571.373993,150.626805 L561.298604,178.774399 L586.900395,162.097893 C587.906736,161.438979 589.212583,161.415019 590.248874,162.055962 L615.56913,177.654246 L604.750965,150.734627 C604.259775,149.506652 604.595222,148.092982 605.589583,147.218424 L628.489828,127.055666 L599.479656,127.055666 C598.20975,127.055666 597.071626,126.28893 596.586426,125.114866 L586.211531,99.9263931 L577.99907,124.899221 C577.579762,126.187098 576.381737,127.055666 575.027969,127.055666 L546.353244,127.055666 Z M555.212638,189.598553 C554.523773,189.598553 553.840899,189.376919 553.271837,188.927659 C552.223566,188.095032 551.816237,186.681363 552.265497,185.417447 L564.736935,150.572894 L535.714783,126.330861 C534.702452,125.480263 534.325074,124.096544 534.774334,122.856589 C535.229583,121.616633 536.403647,120.795986 537.721475,120.795986 L572.763702,120.795986 L582.910972,89.9288757 C583.324291,88.6829298 584.462414,87.8263421 585.768262,87.7724309 C587.271783,87.6945593 588.284114,88.5032261 588.781294,89.7132312 L601.576199,120.795986 L636.78615,120.795986 C638.086007,120.795986 639.254081,121.598663 639.715321,122.814658 C640.17057,124.036643 639.829133,125.414372 638.852743,126.27096 L611.388023,150.453091 L624.919714,184.14155 C625.422884,185.393486 625.069467,186.831116 624.033175,187.705674 C622.996884,188.574242 621.523313,188.682064 620.367219,187.969239 L588.655501,168.423464 L556.925813,189.095383 C556.404672,189.43682 555.80566,189.598553 555.212638,189.598553 L555.212638,189.598553 Z" id="Fill-1" fill="#1A1919"></path>
                    <path d="M331.253872,150.177546 L355.310211,170.286393 C356.316552,171.12501 356.693929,172.508729 356.25066,173.742694 L346.181261,201.878308 L371.693201,185.219772 C372.705532,184.560859 374.011379,184.536898 375.04168,185.171851 L400.403866,200.770135 L389.49585,173.862497 C388.99268,172.628531 389.334117,171.214862 390.334467,170.334314 L413.312584,150.177546 L384.254491,150.177546 C382.984585,150.177546 381.834481,149.41081 381.355271,148.236745 L371.034287,123.072233 L362.863757,148.021101 C362.444449,149.308978 361.246424,150.177546 359.892656,150.177546 L331.253872,150.177546 Z M340.089305,212.726423 C339.406431,212.726423 338.717567,212.498798 338.154495,212.049539 C337.094243,211.222902 336.692905,209.803242 337.142164,208.539326 L349.619593,173.688783 L320.615411,149.44675 C319.60907,148.602143 319.237682,147.218424 319.686942,145.978468 C320.130211,144.738513 321.310265,143.917866 322.628093,143.917866 L357.622399,143.917866 L367.733729,113.050755 C368.141057,111.804809 369.279181,110.942232 370.591018,110.894311 C371.884885,110.85238 373.10687,111.619116 373.60405,112.835111 L386.351035,143.917866 L421.632867,143.917866 C422.932724,143.917866 424.100798,144.726532 424.562037,145.942528 C425.017287,147.164513 424.67585,148.542242 423.693469,149.398829 L396.138898,173.574971 L409.784401,207.25744 C410.293561,208.509376 409.940144,209.947005 408.909843,210.821564 C407.879541,211.696122 406.39399,211.803944 405.243887,211.097109 L373.454297,191.545344 L341.802481,212.217263 C341.28134,212.5587 340.688317,212.726423 340.089305,212.726423 L340.089305,212.726423 Z" id="Fill-2" fill="#1A1919"></path>
                    <path d="M114.950485,127.055666 L139.006824,147.164513 C140.013165,148.009121 140.390542,149.386849 139.947273,150.626805 L129.871884,178.774399 L155.491646,162.097893 C156.509967,161.432989 157.815814,161.415019 158.846115,162.055962 L184.16637,177.654246 L173.348206,150.734627 C172.857016,149.506652 173.192463,148.092982 174.186823,147.218424 L197.093059,127.055666 L168.082887,127.055666 C166.81298,127.055666 165.668867,126.28893 165.189657,125.114866 L154.808771,99.9144128 L146.572351,124.905211 C146.147052,126.187098 144.949027,127.055666 143.601249,127.055666 L114.950485,127.055666 Z M123.791908,189.598553 C123.103044,189.598553 122.414179,189.376919 121.845118,188.927659 C120.796846,188.095032 120.389517,186.681363 120.838777,185.417447 L133.310215,150.566904 L104.312024,126.324871 C103.305683,125.480263 102.928305,124.090554 103.377565,122.856589 C103.826824,121.616633 105.006878,120.795986 106.324706,120.795986 L141.336982,120.795986 L151.508213,89.9228856 C151.921532,88.6829298 153.059655,87.8203519 154.371492,87.7724309 C155.635409,87.7724309 156.881354,88.5032261 157.378535,89.7132312 L170.17943,120.795986 L205.389381,120.795986 C206.689238,120.795986 207.857312,121.598663 208.312561,122.814658 C208.779791,124.036643 208.432364,125.414372 207.455974,126.27096 L179.985264,150.453091 L193.516954,184.14155 C194.026115,185.393486 193.666708,186.831116 192.630416,187.705674 C191.600115,188.574242 190.126544,188.682064 188.97045,187.969239 L157.246752,168.423464 L125.499093,189.095383 C124.977953,189.43682 124.38493,189.598553 123.791908,189.598553 L123.791908,189.598553 Z" id="Fill-3" fill="#1A1919"></path>
                    <path d="M45.0756851,426.256383 L45.5429148,426.376185 C63.0340776,430.742986 81.4357394,434.80429 100.160868,438.440295 C115.962816,441.513229 131.734813,444.112943 146.626262,446.473052 L146.464528,344.832624 L145.961358,344.742772 C130.075548,341.945384 113.800381,338.87844 93.1644027,334.787185 C77.8236944,331.750192 56.3610792,326.730468 45.0756851,324.004962 L45.0756851,426.256383 Z M151.017023,455.985369 C150.789398,455.985369 150.561773,455.967399 150.334149,455.931458 C133.897248,453.355705 116.238361,450.492425 98.4896231,447.048104 C79.6147416,443.382148 61.0573366,439.290893 43.3505293,434.864191 L39.5707609,433.893791 C37.647931,433.384631 36.3121333,431.641504 36.3121333,429.652783 L36.3121333,318.422166 C36.3121333,317.074388 36.9351062,315.798491 37.9953582,314.965864 C39.0616003,314.139227 40.4513091,313.851701 41.7571562,314.169177 C49.5443178,316.109978 76.6017091,322.573322 94.865598,326.191357 C115.441675,330.264641 131.662931,333.325595 147.470869,336.105013 L151.574104,336.817837 C153.682628,337.171255 155.22808,338.992252 155.22808,341.130727 L155.395804,451.594608 C155.395804,452.876495 154.838722,454.09249 153.868322,454.931108 C153.065645,455.613982 152.053314,455.985369 151.017023,455.985369 L151.017023,455.985369 Z" id="Fill-4" fill="#1A1919"></path>
                    <path d="M596.005384,344.832624 L595.855631,446.473052 C610.795001,444.106953 626.590958,441.495259 642.315035,438.440295 C661.100064,434.7983 679.501726,430.731005 696.992889,426.358215 L697.400217,426.256383 L697.400217,324.004962 C686.174724,326.718488 664.819931,331.714251 649.30551,334.787185 C628.705472,338.87245 612.424315,341.939394 596.526525,344.742772 L596.005384,344.832624 Z M591.45888,455.985369 C590.416598,455.985369 589.404267,455.613982 588.613571,454.931108 C587.63718,454.09249 587.074109,452.876495 587.080099,451.594608 L587.247822,341.130727 C587.247822,338.992252 588.793274,337.171255 590.901798,336.817837 L595.017013,336.105013 C610.848912,333.319605 627.070168,330.258651 647.598324,326.191357 C666.101818,322.519411 693.009456,316.092007 700.718746,314.169177 C702.006623,313.833731 703.414302,314.127247 704.474554,314.965864 C705.540796,315.798491 706.163769,317.074388 706.163769,318.422166 L706.163769,429.652783 C706.163769,431.641504 704.827971,433.37864 702.905142,433.887801 L699.179284,434.852211 C681.478467,439.278913 662.927052,443.370168 643.986279,447.048104 C626.333383,450.474455 608.632566,453.343725 592.141754,455.931458 C591.908139,455.967399 591.686504,455.985369 591.45888,455.985369 L591.45888,455.985369 Z" id="Fill-5" fill="#1A1919"></path>
                    <path d="M44.4107813,200.674293 C60.9135736,205.993523 174.186823,240.07134 366.517733,240.07733 L371.20201,240.07134 C530.503375,239.616091 678.26776,205.376541 698.604232,200.476619 L698.604232,54.4793203 C675.84176,60.4514742 557.75844,89.0423373 383.913054,89.0423373 C383.901074,89.0423373 383.889094,89.0423373 383.877113,89.0423373 C379.672046,89.0423373 375.454999,89.0243669 371.19003,88.9944163 C200.824906,87.6646087 68.3652882,59.7027087 44.4107813,54.3235771 L44.4107813,200.674293 Z M366.517733,246.33701 C157.761903,246.33701 41.3917587,206.29303 40.2416548,205.885701 C38.9837287,205.442432 38.1511014,204.262377 38.1511014,202.93257 L38.1511014,50.3880654 C38.1511014,49.4296455 38.5883805,48.5251368 39.3431362,47.9321145 C40.0978918,47.333102 41.0682919,47.1114675 42.0147316,47.3450823 C43.4164207,47.6865194 184.405975,81.2731461 371.237951,82.7347364 C375.490939,82.7646871 379.690017,82.7826574 383.877113,82.7826574 C383.889094,82.7826574 383.901074,82.7826574 383.913054,82.7826574 C576.184063,82.7766673 699.640524,47.7344404 700.862509,47.381023 C701.808949,47.0994872 702.82727,47.2971613 703.617966,47.8841935 C704.402673,48.4772158 704.863912,49.405685 704.863912,50.3880654 L704.863912,202.93257 C704.863912,204.36421 703.893512,205.616146 702.497813,205.969563 C700.92241,206.364911 542.735209,245.84582 371.219981,246.33102 L366.517733,246.33701 L366.517733,246.33701 Z" id="Fill-6" fill="#1A1919"></path>
                    <path d="M152.903912,663.878622 L158.636461,663.878622 L158.636461,638.049206 C158.636461,637.713759 158.714332,637.378312 158.864086,637.072816 L164.512773,625.284251 L164.512773,597.981265 L155.737241,589.397417 L146.931758,597.981265 L147.00364,625.284251 L152.676287,637.072816 C152.82604,637.378312 152.903912,637.713759 152.903912,638.049206 L152.903912,663.878622 Z M160.894738,668.383196 L150.645635,668.383196 C149.399689,668.383196 148.393348,667.376855 148.393348,666.130909 L148.393348,638.564357 L142.720701,626.775792 C142.570948,626.476286 142.499066,626.146829 142.493076,625.805392 L142.421194,597.034825 C142.421194,596.429823 142.66679,595.842791 143.104069,595.417492 L154.161838,584.629278 C155.048376,583.77868 156.444075,583.784671 157.312643,584.629278 L168.346452,595.417492 C168.777741,595.842791 169.023336,596.423833 169.023336,597.034825 L169.023336,625.799402 C169.023336,626.140839 168.945465,626.476286 168.801702,626.775792 L163.147024,638.564357 L163.147024,666.130909 C163.147024,667.376855 162.140684,668.383196 160.894738,668.383196 L160.894738,668.383196 Z" id="Fill-7" fill="#1A1919"></path>
                    <path d="M132.651302,663.878622 L137.137905,663.878622 L137.137905,644.662303 L126.122066,630.232094 L101.412804,630.232094 L101.412804,640.307483 L107.738375,646.710926 L118.742233,639.552727 C119.598821,638.989656 120.742935,639.085498 121.49769,639.786342 L131.920507,649.394502 C132.387736,649.8198 132.651302,650.418813 132.651302,651.047776 L132.651302,663.878622 Z M139.396182,668.383196 L130.393025,668.383196 C129.147079,668.383196 128.140738,667.376855 128.140738,666.130909 L128.140738,652.036146 L119.730604,644.284926 L108.654864,651.485055 C107.762335,652.072087 106.576291,651.946295 105.821535,651.185549 L97.5551637,642.817345 C97.135855,642.398036 96.9022402,641.822985 96.9022402,641.229962 L96.9022402,627.979807 C96.9022402,626.733862 97.9085811,625.727521 99.1545269,625.727521 L127.236229,625.727521 C127.937074,625.727521 128.601978,626.050987 129.027277,626.608069 L141.187229,642.529819 C141.486735,642.925167 141.648468,643.404377 141.648468,643.901558 L141.648468,666.130909 C141.648468,667.376855 140.642128,668.383196 139.396182,668.383196 L139.396182,668.383196 Z" id="Fill-8" fill="#1A1919"></path>
                    <path d="M174.474349,663.878622 L178.990903,663.878622 L178.990903,651.047776 C178.990903,650.418813 179.254469,649.8198 179.721698,649.394502 L190.138524,639.786342 C190.89328,639.085498 192.031404,638.989656 192.893982,639.552727 L203.90383,646.704936 L210.205441,640.307483 L210.205441,630.232094 L185.520139,630.232094 L174.474349,644.662303 L174.474349,663.878622 Z M181.24918,668.383196 L172.222063,668.383196 C170.976117,668.383196 169.969776,667.376855 169.969776,666.130909 L169.969776,643.901558 C169.969776,643.404377 170.131509,642.925167 170.431016,642.529819 L182.614928,626.608069 C183.040227,626.050987 183.705131,625.727521 184.405975,625.727521 L212.457727,625.727521 C213.703673,625.727521 214.716004,626.733862 214.716004,627.979807 L214.716004,641.229962 C214.716004,641.822985 214.482389,642.392046 214.063081,642.811355 L205.82067,651.179559 C205.071904,651.946295 203.89185,652.072087 202.987341,651.485055 L191.905611,644.284926 L183.501467,652.036146 L183.501467,666.130909 C183.501467,667.376855 182.495126,668.383196 181.24918,668.383196 L181.24918,668.383196 Z" id="Fill-9" fill="#1A1919"></path>
                    <path d="M123.911711,684.808116 L132.968778,692.463495 L137.066023,687.491692 L137.066023,679.518837 L123.911711,679.518837 L123.911711,684.808116 Z M133.256304,697.908518 C132.729173,697.908518 132.208033,697.722824 131.800704,697.381387 L120.197833,687.575554 C119.694663,687.144265 119.401147,686.515302 119.401147,685.856388 L119.401147,677.26655 C119.401147,676.020604 120.413478,675.014263 121.659424,675.014263 L139.3243,675.014263 C140.570246,675.014263 141.576587,676.020604 141.576587,677.26655 L141.576587,688.300359 C141.576587,688.821499 141.396883,689.33066 141.061436,689.731998 L134.999431,697.093861 C134.616063,697.561091 134.058981,697.854607 133.459969,697.902528 C133.394077,697.908518 133.322196,697.908518 133.256304,697.908518 L133.256304,697.908518 Z" id="Fill-10" fill="#1A1919"></path>
                    <path d="M174.402468,687.491692 L178.499713,692.463495 L187.556781,684.808116 L187.556781,679.518837 L174.402468,679.518837 L174.402468,687.491692 Z M178.212187,697.908518 C178.140305,697.908518 178.074414,697.908518 178.008523,697.902528 C177.40352,697.854607 176.852429,697.561091 176.469061,697.093861 L170.407055,689.731998 C170.077598,689.33066 169.891904,688.821499 169.891904,688.300359 L169.891904,677.26655 C169.891904,676.020604 170.904235,675.014263 172.150181,675.014263 L189.809068,675.014263 C191.055013,675.014263 192.067344,676.020604 192.067344,677.26655 L192.067344,685.856388 C192.067344,686.515302 191.773828,687.144265 191.264668,687.575554 L179.667787,697.381387 C179.254469,697.722824 178.739318,697.908518 178.212187,697.908518 L178.212187,697.908518 Z" id="Fill-11" fill="#1A1919"></path>
                    <path d="M147.662553,700.628034 L155.677339,710.451838 C157.1569,708.576929 159.606861,705.575877 163.638215,700.628034 L157.911656,692.289781 C157.64809,691.912404 157.510317,691.469134 157.510317,691.013885 L157.510317,679.518837 L153.77847,679.518837 L153.77847,691.013885 C153.77847,691.469134 153.640697,691.912404 153.383122,692.289781 L147.662553,700.628034 Z M155.659369,716.256269 C154.994465,716.256269 154.353522,715.962753 153.916243,715.429631 L143.104069,702.173486 C142.469115,701.39477 142.421194,700.298578 142.990256,699.47194 L149.267907,690.319031 L149.267907,677.26655 C149.267907,676.020604 150.274247,675.014263 151.520193,675.014263 L159.768594,675.014263 C161.01454,675.014263 162.020881,676.020604 162.020881,677.26655 L162.020881,690.31304 L168.310512,699.47194 C168.873583,700.298578 168.831652,701.39477 168.196699,702.173486 C168.196699,702.173486 158.10933,714.537103 157.474377,715.34577 C157.222792,715.681217 156.875364,715.956762 156.456056,716.106516 C156.19848,716.208348 155.928925,716.256269 155.659369,716.256269 L155.659369,716.256269 Z" id="Fill-12" fill="#1A1919"></path>
                    <path d="M367.560015,721.815104 L375.886288,721.815104 L375.886288,687.857089 C375.886288,687.485702 375.970149,687.132284 376.131883,686.796837 L383.511716,671.432169 L383.511716,635.725038 L371.67523,624.72118 L359.886666,635.719048 L359.994488,671.432169 L367.32041,686.802828 C367.476153,687.132284 367.560015,687.491692 367.560015,687.857089 L367.560015,721.815104 Z M378.330258,726.691065 L365.116044,726.691065 C363.768266,726.691065 362.672073,725.600862 362.672073,724.253085 L362.672073,688.402191 L355.352142,673.043512 C355.196398,672.714055 355.112537,672.360638 355.112537,671.99524 L354.998724,634.664786 C354.998724,633.981912 355.28026,633.334978 355.77744,632.873739 L370.003986,619.593633 C370.944435,618.719075 372.394045,618.725065 373.334495,619.587643 L387.614951,632.867749 C388.112131,633.328988 388.393667,633.981912 388.393667,634.658796 L388.393667,671.98925 C388.393667,672.360638 388.309805,672.714055 388.154062,673.049502 L380.768239,688.408181 L380.768239,724.253085 C380.768239,725.600862 379.684026,726.691065 378.330258,726.691065 L378.330258,726.691065 Z" id="Fill-13" fill="#1A1919"></path>
                    <path d="M343.072387,721.815104 L349.907119,721.815104 L349.907119,696.237273 L335.339136,677.212639 L302.591127,677.212639 L302.591127,690.995915 L311.180965,699.699565 L325.802859,690.217198 C326.731328,689.606206 327.965294,689.714028 328.77995,690.468784 L342.281691,702.892301 C342.784861,703.359531 343.072387,704.006464 343.072387,704.689339 L343.072387,721.815104 Z M352.345099,726.691065 L340.628416,726.691065 C339.280638,726.691065 338.190436,725.600862 338.190436,724.253085 L338.190436,705.761571 L326.869101,695.344745 L312.169336,704.875033 C311.198936,705.503996 309.917049,705.372213 309.102392,704.545576 L298.41002,693.709441 C297.960761,693.254191 297.709176,692.637209 297.709176,691.996265 L297.709176,674.774658 C297.709176,673.42089 298.799378,672.336678 300.147156,672.336678 L336.549142,672.336678 C337.309887,672.336678 338.022712,672.684105 338.483952,673.289107 L354.2859,693.925085 C354.615356,694.356374 354.78907,694.877515 354.78907,695.410636 L354.78907,724.253085 C354.78907,725.600862 353.692877,726.691065 352.345099,726.691065 L352.345099,726.691065 Z" id="Fill-14" fill="#1A1919"></path>
                    <path d="M393.641016,721.815104 L400.57758,721.815104 L400.57758,704.689339 C400.57758,704.006464 400.859116,703.359531 401.362286,702.892301 L414.840066,690.468784 C415.654723,689.708038 416.894678,689.612196 417.823148,690.217198 L432.433061,699.693575 L441.004928,690.995915 L441.004928,677.212639 L408.28088,677.212639 L393.641016,696.243263 L393.641016,721.815104 Z M403.01556,726.691065 L391.203035,726.691065 C389.849267,726.691065 388.759065,725.600862 388.759065,724.253085 L388.759065,695.410636 C388.759065,694.877515 388.938768,694.350384 389.262235,693.919095 L405.142055,673.283117 C405.603294,672.684105 406.316119,672.336678 407.076865,672.336678 L443.442909,672.336678 C444.796677,672.336678 445.88688,673.42089 445.88688,674.774658 L445.88688,691.996265 C445.88688,692.637209 445.635295,693.254191 445.186035,693.709441 L434.523614,704.545576 C433.702967,705.372213 432.41509,705.498005 431.45068,704.875033 L416.756905,695.350735 L405.459531,705.761571 L405.459531,724.253085 C405.459531,725.600862 404.369328,726.691065 403.01556,726.691065 L403.01556,726.691065 Z" id="Fill-15" fill="#1A1919"></path>
                    <path d="M331.870855,747.16531 L344.138629,757.558175 L349.907119,750.597651 L349.907119,739.641714 L331.870855,739.641714 L331.870855,747.16531 Z M344.444125,763.464438 C343.869073,763.464438 343.306002,763.266764 342.862733,762.883396 L327.851481,750.154382 C327.30638,749.693142 326.988903,749.016258 326.988903,748.297443 L326.988903,737.203733 C326.988903,735.849965 328.085096,734.765753 329.432874,734.765753 L352.345099,734.765753 C353.692877,734.765753 354.78907,735.849965 354.78907,737.203733 L354.78907,751.478199 C354.78907,752.041271 354.591396,752.592362 354.225998,753.035632 L346.325024,762.5779 C345.911706,763.08107 345.312693,763.398547 344.65977,763.458448 C344.587888,763.464438 344.516007,763.464438 344.444125,763.464438 L344.444125,763.464438 Z" id="Fill-16" fill="#1A1919"></path>
                    <path d="M393.641016,750.591661 L399.475397,757.570156 L411.761142,747.16531 L411.761142,739.641714 L393.641016,739.641714 L393.641016,750.591661 Z M399.181881,763.464438 C399.109999,763.464438 399.038118,763.464438 398.966236,763.458448 C398.319303,763.398547 397.720291,763.08706 397.306972,762.58988 L389.328126,753.041622 C388.962729,752.604343 388.759065,752.047261 388.759065,751.478199 L388.759065,737.203733 C388.759065,735.849965 389.849267,734.765753 391.203035,734.765753 L414.199122,734.765753 C415.55289,734.765753 416.643093,735.849965 416.643093,737.203733 L416.643093,748.297443 C416.643093,749.016258 416.331607,749.693142 415.780515,750.160372 L400.757284,762.889386 C400.314014,763.266764 399.750943,763.464438 399.181881,763.464438 L399.181881,763.464438 Z" id="Fill-17" fill="#1A1919"></path>
                    <path d="M360.797165,767.501782 L371.729141,780.973571 C373.61004,778.559551 376.886638,774.510227 382.583247,767.501782 L374.981779,756.402081 C374.700243,756.000743 374.55049,755.515543 374.55049,755.024353 L374.55049,739.641714 L368.805961,739.641714 L368.805961,755.024353 C368.805961,755.515543 368.656208,755.994753 368.380662,756.396091 L360.797165,767.501782 Z M371.693201,787.245231 C370.974386,787.245231 370.273541,786.933745 369.794331,786.346713 L355.861302,769.161046 C355.178428,768.322429 355.130507,767.136384 355.7415,766.249846 L363.918019,754.269597 L363.918019,737.203733 C363.918019,735.849965 365.014212,734.765753 366.36199,734.765753 L376.994461,734.765753 C378.342239,734.765753 379.438431,735.849965 379.438431,737.203733 L379.438431,754.269597 L387.644902,766.243856 C388.255894,767.136384 388.213963,768.322429 387.525099,769.161046 C387.525099,769.161046 374.352816,785.376312 373.651971,786.268841 C373.394396,786.610278 373.052959,786.885824 372.64563,787.059537 C372.334144,787.19132 372.010677,787.245231 371.693201,787.245231 L371.693201,787.245231 Z" id="Fill-18" fill="#1A1919"></path>
                    <path d="M584.222809,663.878622 L589.991299,663.878622 L589.991299,638.049206 C589.991299,637.713759 590.069171,637.378312 590.212934,637.072816 L595.867611,625.284251 L595.867611,597.981265 L587.086089,589.397417 L578.286596,597.981265 L578.358478,625.284251 L584.007165,637.078806 C584.150928,637.378312 584.222809,637.713759 584.222809,638.049206 L584.222809,663.878622 Z M592.243586,668.383196 L581.970523,668.383196 C580.724577,668.383196 579.718236,667.376855 579.718236,666.130909 L579.718236,638.564357 L574.069549,626.769802 C573.931776,626.476286 573.853904,626.140839 573.853904,625.805392 L573.776033,597.034825 C573.770043,596.429823 574.015638,595.842791 574.452917,595.417492 L585.510686,584.629278 C586.391234,583.77868 587.792924,583.77868 588.655501,584.629278 L599.68931,595.417492 C600.13258,595.842791 600.372185,596.423833 600.372185,597.034825 L600.372185,625.799402 C600.372185,626.140839 600.294313,626.476286 600.14456,626.775792 L594.495873,638.564357 L594.495873,666.130909 C594.495873,667.376855 593.489532,668.383196 592.243586,668.383196 L592.243586,668.383196 Z" id="Fill-19" fill="#1A1919"></path>
                    <path d="M563.99416,663.878622 L568.516704,663.878622 L568.516704,644.668294 L557.470915,630.232094 L532.749672,630.232094 L532.749672,640.307483 L539.087223,646.710926 L550.121032,639.552727 C550.9896,638.989656 552.115743,639.085498 552.882479,639.786342 L563.275345,649.394502 C563.730594,649.8198 563.99416,650.424803 563.99416,651.047776 L563.99416,663.878622 Z M570.76899,668.383196 L561.741873,668.383196 C560.495927,668.383196 559.489586,667.376855 559.489586,666.130909 L559.489586,652.036146 L551.103412,644.284926 L539.997722,651.485055 C539.093213,652.066097 537.925139,651.940304 537.170383,651.185549 L528.898022,642.817345 C528.484703,642.398036 528.251088,641.822985 528.251088,641.229962 L528.251088,627.979807 C528.251088,626.733862 529.251439,625.727521 530.497385,625.727521 L558.585078,625.727521 C559.285922,625.727521 559.950826,626.050987 560.376125,626.608069 L572.560038,642.529819 C572.859544,642.925167 573.021277,643.404377 573.021277,643.901558 L573.021277,666.130909 C573.021277,667.376855 572.014936,668.383196 570.76899,668.383196 L570.76899,668.383196 Z" id="Fill-20" fill="#1A1919"></path>
                    <path d="M605.829188,663.878622 L610.345741,663.878622 L610.345741,651.047776 C610.345741,650.418813 610.609307,649.8198 611.070546,649.394502 L621.487373,639.786342 C622.248118,639.085498 623.386242,638.989656 624.24283,639.552727 L635.258668,646.710926 L641.59023,640.307483 L641.59023,630.232094 L616.857006,630.232094 L605.829188,644.662303 L605.829188,663.878622 Z M612.598028,668.383196 L603.576901,668.383196 C602.330955,668.383196 601.324614,667.376855 601.324614,666.130909 L601.324614,643.901558 C601.324614,643.404377 601.480357,642.925167 601.785854,642.529819 L613.957786,626.608069 C614.383085,626.050987 615.047989,625.727521 615.748833,625.727521 L643.842516,625.727521 C645.088462,625.727521 646.094803,626.733862 646.094803,627.979807 L646.094803,641.229962 C646.094803,641.822985 645.861188,642.398036 645.44787,642.817345 L637.169518,651.185549 C636.408772,651.940304 635.222727,652.066097 634.336189,651.485055 L623.254459,644.284926 L614.850315,652.036146 L614.850315,666.130909 C614.850315,667.376855 613.843974,668.383196 612.598028,668.383196 L612.598028,668.383196 Z" id="Fill-21" fill="#1A1919"></path>
                    <path d="M555.254569,684.808116 L564.317627,692.463495 L568.420862,687.491692 L568.420862,679.518837 L555.254569,679.518837 L555.254569,684.808116 Z M564.605153,697.908518 C564.072031,697.908518 563.556881,697.722824 563.149552,697.381387 L551.546682,687.575554 C551.043511,687.144265 550.749995,686.515302 550.749995,685.856388 L550.749995,677.26655 C550.749995,676.020604 551.756336,675.014263 553.002282,675.014263 L570.673148,675.014263 C571.919094,675.014263 572.925435,676.020604 572.925435,677.26655 L572.925435,688.300359 C572.925435,688.821499 572.739741,689.33066 572.410284,689.731998 L566.342289,697.093861 C565.958921,697.561091 565.407829,697.854607 564.808817,697.902528 C564.736935,697.908518 564.671044,697.908518 564.605153,697.908518 L564.605153,697.908518 Z" id="Fill-22" fill="#1A1919"></path>
                    <path d="M605.751316,687.491692 L609.854551,692.463495 L618.887659,684.808116 L618.887659,679.518837 L605.751316,679.518837 L605.751316,687.491692 Z M609.567025,697.908518 C609.501134,697.908518 609.429252,697.908518 609.369351,697.902528 C608.764349,697.854607 608.207267,697.561091 607.829889,697.093861 L601.761893,689.731998 C601.426446,689.33066 601.246743,688.821499 601.246743,688.300359 L601.246743,677.26655 C601.246743,676.020604 602.253084,675.014263 603.499029,675.014263 L621.139945,675.014263 C622.385891,675.014263 623.392232,676.020604 623.392232,677.26655 L623.392232,685.856388 C623.392232,686.515302 623.104706,687.144265 622.601536,687.575554 L611.022625,697.381387 C610.615297,697.722824 610.100146,697.908518 609.567025,697.908518 L609.567025,697.908518 Z" id="Fill-23" fill="#1A1919"></path>
                    <path d="M579.017392,700.628034 L587.026188,710.451838 C588.505748,708.576929 590.949719,705.575877 594.981073,700.628034 L589.260504,692.289781 C589.002929,691.912404 588.871146,691.469134 588.871146,691.013885 L588.871146,679.518837 L585.133308,679.518837 L585.133308,691.013885 C585.133308,691.469134 584.995536,691.912404 584.73796,692.289781 L579.017392,700.628034 Z M587.008217,716.256269 C586.349304,716.256269 585.69638,715.962753 585.259101,715.423641 L574.452917,702.167496 C573.823954,701.39477 573.776033,700.298578 574.345095,699.47194 L580.628735,690.319031 L580.628735,677.26655 C580.628735,676.020604 581.635076,675.014263 582.881022,675.014263 L591.123433,675.014263 C592.369378,675.014263 593.375719,676.020604 593.375719,677.26655 L593.375719,690.319031 L599.65337,699.47194 C600.222431,700.298578 600.17451,701.39477 599.545547,702.173486 C599.545547,702.173486 589.434218,714.561063 588.817235,715.35176 C588.56565,715.687207 588.218222,715.956762 587.804904,716.112506 C587.541338,716.208348 587.271783,716.256269 587.008217,716.256269 L587.008217,716.256269 Z" id="Fill-24" fill="#1A1919"></path>
                    <path d="M235.23817,471.499791 L351.668215,471.511771 C352.84228,471.511771 354.040304,471.984991 354.860951,472.823609 L371.513497,489.7517 L388.154062,472.823609 C388.974709,471.984991 390.100852,471.511771 391.274917,471.511771 L507.794814,471.511771 L507.633081,279.300664 L390.496201,279.300664 L374.598411,295.096622 C372.891225,296.791827 370.129778,296.797817 368.416603,295.096622 L352.542773,279.300664 L235.399903,279.300664 L235.23817,471.499791 Z M371.513497,500.390161 C370.333442,500.390161 369.207299,499.922931 368.386652,499.078323 L349.901129,480.275323 L231.146915,480.275323 C231.033103,480.275323 230.625774,480.251363 230.505972,480.239383 C228.229725,480.059679 226.468628,478.160809 226.468628,475.866592 L226.642342,274.897923 C226.642342,273.628016 227.193433,272.424001 228.145863,271.591374 C229.104283,270.758747 230.380179,270.381369 231.632115,270.561073 L353.944462,270.531122 C354.31585,270.495181 354.693228,270.513152 355.070606,270.579043 C356.112887,270.758747 357.023386,271.297858 357.67631,272.046624 L371.513497,285.805939 L385.033207,272.37009 C385.692121,271.453601 386.698462,270.788698 387.884507,270.597014 C388.154062,270.549093 388.411637,270.513152 388.693173,270.531122 L511.838148,270.531122 C512.736667,270.597014 513.952662,270.854589 514.767319,271.531473 C515.77366,272.3641 516.396632,273.592076 516.396632,274.897923 L516.564356,475.866592 C516.570346,478.142839 514.83321,480.035718 512.568943,480.233392 C512.44315,480.245373 512.047802,480.275323 511.92201,480.275323 L393.113885,480.275323 L374.640342,499.078323 C373.813705,499.922931 372.687561,500.390161 371.513497,500.390161 L371.513497,500.390161 Z" id="Fill-25" fill="#1A1919"></path>
                    <g id="Group-29" transform="translate(178.000000, 295.000000)"></g>
                    <path d="M186.975739,521.667082 L341.095646,521.667082 C342.185849,521.667082 343.23412,522.07441 344.042787,522.805206 L371.513497,547.730113 L398.996187,522.805206 C399.798864,522.07441 400.853126,521.667082 401.943328,521.667082 L556.069225,521.667082 L556.069225,321.740695 L539.153115,308.442619 L539.356779,500.37818 C539.362769,502.624477 537.667564,504.505376 535.433247,504.738991 C535.277504,504.756961 534.792304,504.798892 534.642551,504.798892 L396.198799,504.798892 L374.394747,523.823527 C372.741472,525.261156 370.279531,525.261156 368.632247,523.823527 L346.792254,504.798892 L208.402413,504.798892 C208.24667,504.798892 207.76147,504.756961 207.605727,504.738991 C205.383391,504.493396 203.694176,502.618487 203.694176,500.38417 L203.790018,308.466579 L186.975739,321.734704 L186.975739,521.667082 Z M371.513497,558.033126 C370.453245,558.033126 369.398983,557.655749 368.566356,556.895003 L339.406431,530.430634 L182.590968,530.430634 C180.170958,530.430634 178.206197,528.471863 178.206197,526.051853 L178.206197,319.6142 C178.206197,318.272413 178.82318,317.002506 179.871451,316.175869 L205.455272,295.97717 C206.78508,294.928898 208.576127,294.743204 210.085638,295.46801 C211.60114,296.204795 212.559559,297.738267 212.559559,299.415501 L212.463717,496.02336 L348.433548,496.03534 C349.4938,496.03534 350.512121,496.418708 351.308808,497.113563 L371.507507,514.700567 L391.670265,497.113563 C392.472942,496.418708 393.491263,496.03534 394.551515,496.03534 L530.587237,496.03534 L530.377582,299.421492 C530.371592,297.744257 531.330012,296.210785 532.839524,295.474 C534.343045,294.737214 536.140082,294.922908 537.46989,295.97118 L563.161533,316.169879 C564.215794,316.996516 564.832777,318.266422 564.832777,319.6142 L564.832777,526.051853 C564.832777,528.471863 562.874007,530.430634 560.453996,530.430634 L403.632543,530.430634 L374.454648,556.895003 C373.622021,557.655749 372.567759,558.033126 371.513497,558.033126 L371.513497,558.033126 Z" id="Fill-26" fill="#1A1919"></path>
                    <path d="M14.3762982,14.3634581 C14.3703081,18.3409006 14.3703081,22.3243333 14.3703081,26.3017758 C14.3703081,36.9701871 14.3762982,47.6445885 14.2564957,58.3129998 C13.9749599,81.7643363 13.98095,105.611021 13.9929303,128.672999 C14.0049105,148.051051 14.0168908,167.429103 13.8611475,186.813146 C13.6155524,217.638325 13.6155524,248.463504 13.6095623,279.288684 C13.6035722,304.363344 13.6035722,329.438004 13.4717895,354.512664 C13.208224,409.280371 13.1782734,466.072739 13.3699574,523.314366 C13.4178783,536.205114 13.1782734,549.000019 12.9506487,561.369626 C12.3156955,595.189867 11.7166831,627.12322 16.5147726,660.835639 C23.1518303,707.576579 74.283531,732.866883 111.619976,751.340426 C164.285148,777.409447 356.118878,844.750424 371.507507,847.877269 C386.926087,844.738444 578.819717,777.379497 631.442959,751.340426 C668.773413,732.872873 719.887144,707.582569 726.542172,660.835639 C731.340261,627.111239 730.741249,595.159917 730.118276,561.339675 C729.884661,548.970068 729.651046,536.187143 729.692977,523.314366 C729.890651,465.66541 729.84872,408.873042 729.567185,354.512664 C729.447382,330.444345 729.441392,306.376026 729.441392,282.301716 C729.441392,250.476186 729.435402,218.650656 729.171836,186.819136 C729.022083,167.321281 729.034064,147.835407 729.046044,128.343543 C729.058024,105.389386 729.070004,81.650524 728.806439,58.3189899 C728.674656,47.6445885 728.674656,36.9582068 728.680646,26.2778153 C728.680646,22.3063629 728.686636,18.3349105 728.680646,14.3634581 C693.338913,22.2883925 541.81872,53.9402091 376.682974,53.9402091 L371.483546,53.934219 L366.33803,53.9402091 C201.202284,53.9461992 49.7180314,22.2883925 14.3762982,14.3634581 Z M371.369734,860.43856 L371.369734,860.43856 C361.617812,860.432569 157.294673,787.922115 106.06713,762.559929 C66.2387941,742.85841 11.6867324,715.866911 4.11521537,662.602726 C-0.820647024,627.895946 -0.215644473,595.471403 0.425298823,561.136011 C0.652923545,548.838286 0.892528515,536.115262 0.850597645,523.362287 C0.652923545,466.078729 0.682874166,409.25042 0.946439634,354.452763 C1.07822237,329.390083 1.08421249,304.339384 1.08421249,279.288684 C1.09020262,248.427564 1.09619274,217.572434 1.33579771,186.711313 C1.49154094,167.369202 1.48555082,148.021101 1.47357057,128.67899 C1.46159032,105.57508 1.44961007,81.6864647 1.73114591,58.1692368 C1.8509484,47.5547366 1.8509484,36.9282562 1.8509484,26.3017758 C1.8509484,19.6886786 1.8509484,13.0815715 1.87490889,6.46847433 C1.88089902,4.55163456 2.76743741,2.74261704 4.27694872,1.56256256 C5.78646004,0.382508076 7.7512208,-0.0427907471 9.62013957,0.412458697 C11.3033645,0.819787147 180.075116,41.4268395 366.33803,41.4208494 L371.483546,41.4088692 L376.682974,41.4208494 C562.945888,41.4208494 731.75957,0.819787147 733.442795,0.412458697 C735.281763,-0.0427907471 737.270484,0.382508076 738.779996,1.56256256 C740.295497,2.74261704 741.176045,4.55163456 741.182036,6.46847433 C741.211986,13.0695913 741.211986,19.6766983 741.205996,26.2838054 C741.200006,36.9102858 741.194016,47.5427564 741.325799,58.1692368 C741.595354,81.5846326 741.583374,105.359436 741.571394,128.349533 C741.559413,147.805456 741.547433,167.26138 741.691196,186.711313 C741.960752,218.578774 741.966742,250.440245 741.966742,282.301716 C741.966742,306.352065 741.972732,330.402414 742.086544,354.452763 C742.37407,408.843091 742.410011,465.6714 742.212337,523.362287 C742.170406,536.097291 742.404021,548.808335 742.637636,561.10007 C743.278579,595.441452 743.883582,627.877975 738.941729,662.602726 C731.352242,715.878891 676.81815,742.85841 637.001794,762.559929 C585.726331,787.934096 381.385222,860.43856 371.64528,860.43856 C371.561418,860.43856 371.465576,860.43856 371.369734,860.43856 L371.369734,860.43856 Z" id="Fill-28" fill="#1A1919"></path>
                    <path d="M42.7155761,550.605372 C42.6197341,555.074005 42.4939415,559.692391 42.3681489,564.412609 C41.6433439,590.99678 40.8226969,621.121115 44.35088,646.297607 C50.1133796,687.258077 90.8402344,706.097018 126.78098,722.713623 L132.914867,725.558932 C173.276325,744.355942 274.946704,781.722337 335.698544,804.04753 C350.991331,809.672256 363.510691,814.266682 371.513497,817.273724 C379.402491,814.314603 391.682245,809.804039 406.669536,804.293125 C467.60707,781.90204 569.612896,744.427823 610.130097,725.558932 L616.281955,722.707632 C652.20473,706.091028 692.931585,687.252087 698.682104,646.297607 C702.198307,621.234927 701.38964,591.236385 700.670825,564.772016 C700.539042,559.926006 700.41325,555.187817 700.311418,550.605372 C676.171217,556.164208 540.39906,585.68354 378.300308,585.68354 L371.495527,585.66557 L364.720696,585.68354 C202.627933,585.68354 66.861767,556.164208 42.7155761,550.605372 Z M371.513497,823.749049 C371.136119,823.749049 370.764731,823.683157 370.405324,823.551374 C362.48638,820.562302 349.529741,815.800154 333.536109,809.923842 C272.694417,787.562708 170.868295,750.142402 130.267232,731.231579 L124.151315,728.39226 C88.6119082,711.96135 44.3868208,691.511065 38.1511014,647.172165 C34.5510367,621.474532 35.3776739,591.068662 36.1084691,564.244885 C36.2702024,558.164909 36.4319358,552.252656 36.539758,546.609959 C36.5577284,545.651539 37.0069877,544.765001 37.7617434,544.183959 C38.5105089,543.596927 39.4928893,543.393263 40.4213585,543.626877 C41.8649785,543.986285 187.454949,579.42386 364.720696,579.42386 L371.495527,579.40589 L378.300308,579.42386 C555.566055,579.41787 701.168005,543.986285 702.617616,543.626877 C703.528114,543.405243 704.516485,543.602917 705.271241,544.183959 C706.025996,544.765001 706.475256,545.65753 706.493226,546.609959 C706.601048,552.360479 706.762782,558.392534 706.930505,564.598303 C707.65531,591.308267 708.469967,621.582355 704.881883,647.166175 C698.658143,691.505075 654.439046,711.955359 618.905629,728.38627 L612.777732,731.231579 C572.020926,750.214283 469.859357,787.742412 408.825981,810.175427 C393.143836,815.931936 380.432792,820.610223 372.61568,823.551374 C372.262262,823.683157 371.884885,823.749049 371.513497,823.749049 L371.513497,823.749049 Z" id="Fill-30" fill="#1A1919"></path>
                </g>
            </g>
        </g>
    </g>
</svg>