<svg xmlns="http://www.w3.org/2000/svg" width="607.122" height="126.115" viewBox="0 0 607.12207 126.11475" enable-background="new 0 0 607.12207 126.11475"><g fill="#fff"><path d="M147.48 28.82c0 8.105.218 11.633 1.212 12.626.88.883 2.315 1.267 6.616 1.267 2.922 0 5.348-.05 6.67-1.65.72-.884 1.267-2.265 1.43-3.31.06-.442.168-.72.5-.72.276 0 .33.223.33.83 0 .604-.384 3.913-.83 5.512-.38 1.27-.546 1.49-3.47 1.49-3.97 0-6.836-.11-9.152-.168-2.316-.11-4.025-.163-5.623-.163-.22 0-1.158.054-2.263.054-1.1.058-2.313.11-3.14.11-.608 0-.886-.11-.886-.44 0-.164.11-.33.443-.33.494 0 1.16-.11 1.655-.22 1.1-.222 1.377-1.435 1.597-3.033.278-2.318.278-6.672.278-11.967v-9.702c0-8.602 0-10.146-.112-11.91-.11-1.875-.55-2.757-2.37-3.14-.44-.11-1.382-.166-1.876-.166-.218 0-.44-.112-.44-.33 0-.334.273-.444.882-.444 2.48 0 5.954.165 6.23.165.275 0 4.3-.164 5.955-.164.607 0 .884.11.884.443 0 .218-.223.33-.442.33-.384 0-1.158.055-1.818.165-1.6.276-2.042 1.21-2.152 3.14-.11 1.765-.11 3.31-.11 11.91v9.814zM170.907 22.81c0-7.278 0-8.601-.11-10.09-.112-1.6-.386-2.37-1.984-2.59-.386-.057-1.214-.11-1.655-.11-.166 0-.387-.222-.387-.387 0-.275.222-.387.774-.387 2.206 0 5.348.112 5.623.112.33 0 10.475.054 11.58 0 .935-.055 1.817-.22 2.206-.277.22-.053.44-.22.66-.22.165 0 .222.22.222.443 0 .33-.277.882-.388 2.203-.055.445-.166 2.536-.274 3.088-.057.22-.22.498-.443.498-.274 0-.384-.22-.384-.608 0-.33-.055-1.103-.278-1.653-.33-.77-.828-1.1-3.47-1.434-.828-.11-6.454-.166-7.005-.166-.22 0-.276.166-.276.5v12.735c0 .33 0 .495.276.495.606 0 7.006 0 8.107-.11 1.155-.11 1.87-.167 2.368-.662.333-.33.552-.606.72-.606.165 0 .274.11.274.386s-.275 1.05-.385 2.59c-.113.936-.22 2.702-.22 3.033 0 .39-.11.886-.442.886-.222 0-.333-.166-.333-.443 0-.442 0-.938-.22-1.543-.166-.665-.607-1.21-2.482-1.433-1.32-.166-6.507-.222-7.332-.222-.276 0-.33.166-.33.33v3.914c0 1.6-.056 7.058 0 7.997.11 3.14.992 3.745 5.787 3.745 1.27 0 3.586 0 4.855-.493 1.267-.554 1.928-1.38 2.204-3.253.11-.552.22-.72.498-.72.273 0 .328.39.328.72s-.385 3.53-.66 4.52c-.33 1.212-.826 1.212-2.703 1.212-3.64 0-6.45-.113-8.436-.164-2.04-.112-3.304-.112-4.023-.112-.107 0-1.05 0-2.094.054-.942.058-2.04.11-2.81.11-.5 0-.772-.11-.772-.384 0-.166.11-.385.383-.385.443 0 1.048-.167 1.49-.223.936-.166 1.048-1.1 1.27-2.48.274-1.93.274-5.625.274-10.148v-8.27zM207.565 10.185c.608-1.544.83-1.82 1.16-1.82.495 0 .66.662 1.155 1.708.886 1.986 8.66 21.34 11.635 28.452 1.765 4.188 3.088 4.796 4.135 5.13.718.218 1.436.274 1.93.274.276 0 .608.107.608.384 0 .274-.552.383-1.102.383-.718 0-4.302 0-7.666-.11-.938-.053-1.71-.053-1.71-.328 0-.223.11-.223.33-.33.276-.11.775-.498.442-1.268l-4.354-10.754c-.11-.22-.167-.277-.443-.277h-11.193c-.22 0-.385.112-.495.388l-2.755 7.5c-.442 1.157-.718 2.314-.718 3.144 0 .934.828 1.267 1.655 1.267h.44c.386 0 .497.164.497.384 0 .274-.28.383-.718.383-1.158 0-3.802-.163-4.357-.163-.498 0-2.92.163-4.907.163-.607 0-.936-.11-.936-.383 0-.22.218-.385.44-.385.33 0 1.047-.057 1.433-.11 2.206-.28 3.14-1.934 4.08-4.303l11.412-29.332zm5.406 19.52c.22 0 .22-.114.164-.333l-4.795-12.844c-.277-.72-.553-.72-.828 0l-4.52 12.844c-.058.22 0 .333.162.333h9.817zM233.477 22.81c0-7.278 0-8.601-.11-10.09-.11-1.6-.39-2.37-1.986-2.59-.385-.057-1.212-.11-1.654-.11-.167 0-.386-.222-.386-.387 0-.275.22-.387.772-.387 2.205 0 5.35.112 5.625.112.55 0 3.64-.112 6.504-.112 4.854 0 13.733-.442 19.466 5.348 2.427 2.426 4.74 6.343 4.74 11.91 0 5.898-2.535 10.42-5.237 13.178-2.097 2.15-6.452 5.404-14.723 5.404-2.095 0-4.686-.167-6.783-.277-2.093-.164-3.747-.276-3.967-.276-.113 0-.993.054-1.984.054-.996.058-2.152.11-2.926.11-.495 0-.77-.11-.77-.384 0-.166.11-.385.386-.385.442 0 1.047-.11 1.49-.223.934-.22 1.045-1.1 1.265-2.48.28-1.93.28-5.625.28-10.148v-8.27zm4.41 5.073c0 4.962 0 9.316.055 10.2.056 1.16.164 2.867.552 3.363.605.883 2.315 1.875 8.052 1.875 4.46 0 8.432-1.488 11.354-4.243 2.538-2.373 3.806-6.84 3.806-11.14 0-5.953-2.593-9.758-4.578-11.743-4.574-4.63-9.923-5.238-15.713-5.238-.937 0-2.48.164-2.92.33-.442.166-.61.387-.61.937v15.66zM278.68 31.08c0 4.522 0 8.216.22 10.147.165 1.38.332 2.26 1.765 2.48.72.112 1.765.222 2.207.222.274 0 .385.218.385.384 0 .22-.222.383-.77.383-2.702 0-5.846-.163-6.067-.163-.275 0-3.308.163-4.796.163-.498 0-.77-.11-.77-.383 0-.166.108-.385.385-.385.44 0 1.044-.11 1.486-.223.938-.22 1.102-1.1 1.27-2.48.218-1.93.274-5.625.274-10.148v-8.27c0-7.278 0-8.602-.11-10.09-.11-1.6-.496-2.316-1.545-2.535-.55-.112-1.157-.166-1.49-.166-.217 0-.38-.222-.38-.387 0-.275.217-.387.768-.387 1.6 0 4.632.112 4.907.112.22 0 3.365-.112 4.854-.112.548 0 .77.112.77.387 0 .165-.222.386-.385.386-.332 0-.663 0-1.216.11-1.322.274-1.597.935-1.71 2.59-.054 1.488-.054 2.812-.054 10.09v8.27zM293.342 38.3c.113 3.862.554 5.02 1.876 5.354.885.22 1.985.275 2.428.275.218 0 .383.164.383.384 0 .274-.332.383-.88.383-2.757 0-4.688-.163-5.13-.163-.437 0-2.48.163-4.686.163-.494 0-.77-.052-.77-.383 0-.22.165-.385.383-.385.387 0 1.27-.057 1.986-.276 1.216-.333 1.38-1.6 1.38-5.85V10.957c0-1.875.274-2.37.66-2.37.554 0 1.38.936 1.875 1.433.775.77 7.83 8.27 15.328 15.986 4.8 4.964 9.978 10.534 11.47 12.076l-.5-23.488c-.054-3.032-.33-4.076-1.816-4.356-.882-.165-1.987-.22-2.373-.22-.332 0-.386-.275-.386-.442 0-.273.387-.33.94-.33 2.202 0 4.52.112 5.072.112.55 0 2.15-.112 4.132-.112.5 0 .886.057.886.33 0 .167-.22.443-.554.443-.22 0-.605 0-1.155.11-1.6.327-1.71 1.266-1.71 4.078l-.11 27.458c0 3.09-.053 3.365-.385 3.365-.497 0-.99-.385-3.696-2.868-.496-.442-7.5-7.334-12.626-12.68-5.623-5.9-11.082-11.634-12.573-13.288l.552 22.107zM358.178 32.733c0-3.804-.112-4.355-2.097-4.74-.385-.057-1.213-.11-1.65-.11-.165 0-.388-.222-.388-.39 0-.328.223-.382.77-.382 2.208 0 5.463.112 5.736.112.218 0 3.255-.11 4.743-.11.55 0 .772.053.772.382 0 .167-.223.39-.387.39-.33 0-.662 0-1.215.108-1.32.222-1.706.937-1.815 2.592-.057 1.49-.057 2.868-.057 4.853v5.238c0 2.147-.055 2.205-.663 2.534-3.086 1.6-7.494 2.097-10.31 2.097-3.69 0-10.585-.443-15.988-5.02-2.977-2.482-5.79-7.497-5.79-13.34 0-7.5 3.805-12.793 8.106-15.384 4.355-2.646 9.21-2.977 12.902-2.977 3.088 0 6.506.55 7.442.772.993.218 2.702.496 3.916.496.496 0 .61.22.61.44 0 .662-.28 1.93-.28 6.618 0 .772-.218.992-.554.992-.273 0-.33-.277-.33-.72-.054-.603-.33-1.982-1.102-3.084-1.215-1.766-4.908-3.643-11.192-3.643-2.922 0-6.452.224-10.146 3.035-2.81 2.15-4.796 6.342-4.796 11.8 0 6.616 3.417 11.358 5.13 12.955 3.856 3.585 7.935 4.908 12.4 4.908 1.714 0 3.975-.166 5.24-.882.61-.332.994-.553.994-1.432v-8.107zM409.04 4.182h-10.378c-5.037 0-5.714 4.484-6.51 6.94h-1.597l2.273-10.38h1.104c1.104.615 2.337.924 3.566.924H426.3c1.04 0 2.394-.185 3.317-.923h1.043l-1.043 10.5h-1.596V9.587c0-4.115-.797-5.405-4.85-5.405h-8.415l-5.96 32.86c-.06.552-.55 2.885-.55 3.498 0 1.905 1.292 2.398 4.483 2.398h1.596l-.31 1.596c-3.256 0-6.568-.122-9.826-.122-2.638 0-5.34.06-7.983.122l.308-1.596h1.903c2.703.06 3.87-.923 4.547-4.792l6.078-33.964zM434.53 17.897c6.764 0 11.194 5.13 11.194 11.832 0 8.22-6.998 15.678-15.332 15.678-6.994 0-11.483-4.663-11.483-11.716 0-8.394 7.17-15.795 15.62-15.795zm-4.196 25.995c7.517 0 10.726-10.258 10.726-16.263 0-4.137-1.578-8.22-6.586-8.22-7.813 0-10.9 9.85-10.9 16.262 0 4.372 1.63 8.22 6.76 8.22zM466.76 43.718c2.68 1.458 4.546 2.448 4.546 5.827 0 5.888-8.278 8.277-13 8.277-4.14 0-12.006-1.046-12.006-6.703 0-4.255 5.886-6.643 9.15-7.926-1.108-.7-3.264-1.574-3.264-3.206 0-2.217 3.148-3.963 4.72-5.015-3.146-1.748-4.953-3.557-4.953-7.285 0-5.48 5.886-9.79 11.368-9.79 3.44 0 4.72 1.047 7.69 1.804.41.117.88.29 1.23.29.697 0 1.34-.347 1.918-.7.588-.347 1.17-.698 1.815-.698.75 0 .926.876.926 1.69 0 1.05-.462 2.157-1.397 2.157-1.225 0-2.39-1.28-4.605-1.513 1.282 1.398 1.867 3.09 1.867 4.896 0 6.12-6.064 10.028-11.778 10.028-.87 0-1.806-.06-2.68-.178-.525.18-1.806 1.458-1.806 2.043 0 .758.525.99 1.107 1.282l9.152 4.72zm-9.56.23c-1.167.41-7.055 2.974-7.055 6.24 0 4.372 5.306 5.77 8.86 5.77 2.8 0 8.453-.93 8.453-4.72 0-1.573-1.342-2.74-2.855-3.5l-7.403-3.79zm6.763-24.537c-4.725-.233-7.348 5.888-7.348 9.736 0 2.798 1.05 5.187 4.255 5.187 4.664 0 7.228-6.003 7.228-9.967 0-2.448-1.107-4.955-4.135-4.955zM497.822 37.833c-3.847 4.252-8.105 7.575-13.23 7.575-5.365 0-7.17-3.963-7.17-7.87 0-9.326 8.333-19.64 16.785-19.64 2.623 0 5.714.93 5.714 4.136 0 7.928-11.135 10.667-17.37 11.25-.35 1.517-.468 2.973-.468 4.487 0 2.917 2.04 4.492 4.785 4.492 3.38 0 6.816-2.218 10.14-5.423l.815.993zm-2.566-15.565c0-1.517-.874-2.508-2.39-2.508-4.488 0-9.092 8.16-10.024 12.01 5.36-.354 12.414-3.15 12.414-9.502zM511.687 11.423h4.67l-2.394 7.347h6.233l-.697 2.39h-6.18l-5.068 16.847c-.178.524-.353 1.222-.353 1.805 0 .7.29 1.283 1.163 1.283 2.277 0 5.714-3.556 7.23-5.07l.818.99c-2.623 2.915-7.402 8.393-11.66 8.393-1.687 0-2.562-1.516-2.562-3.032 0-1.165.47-2.74.757-3.73l5.19-17.486h-5.715l.7-2.39h5.654l2.213-7.347zM527.25 30.952h.113c2.51-3.964 10.436-13.055 15.858-13.055 3.09 0 4.198 2.216 4.198 5.07 0 5.887-7.113 21.567-13.117 21.567-1.11 0-1.398-.585-1.398-1.283 0-.35.175-.815.29-1.165l1.224-2.856h4.022c1.81-3.615 4.318-10.375 4.318-14.398 0-1.982-.588-3.437-2.334-3.437-4.02 0-10.9 8.916-12.595 12.12-1.974 3.733-2.388 5.54-3.494 9.97-.115.524-.524.932-2.506.932-.757 0-1.863-.29-1.863-.99 0-.585.23-1.224.347-1.807l9.212-37.715-2.858-1.633.178-.757c.93-.116 2.39-.29 3.846-.524 1.4-.233 2.74-.58 4.14-.99l.64.234-8.22 30.718zM572.01 37.833c-3.847 4.252-8.102 7.575-13.234 7.575-5.364 0-7.17-3.963-7.17-7.87 0-9.326 8.337-19.64 16.79-19.64 2.623 0 5.713.93 5.713 4.136 0 7.928-11.136 10.667-17.372 11.25-.35 1.517-.467 2.973-.467 4.487 0 2.917 2.042 4.492 4.78 4.492 3.383 0 6.82-2.218 10.143-5.423l.818.993zm-2.566-15.565c0-1.517-.874-2.508-2.39-2.508-4.49 0-9.098 8.16-10.027 12.01 5.365-.354 12.417-3.15 12.417-9.502zM575.85 25.708c1.46-2.157 5.945-7.81 8.803-7.81 1.457 0 2.392.637 2.392 2.215 0 .638-.235 1.745-.585 3.028l-2.22 7.986h.118c1.578-2.973 7.056-13.23 10.732-13.23 1.218 0 1.803.698 1.803 1.98 0 1.34-.645 4.314-2.45 4.314-.698 0-1.458-.233-2.158-.233-4.022 0-8.16 11.31-10.083 17.254l-1.05 3.73c-.117.41-1.046.468-2.094.468-.757 0-1.867-.524-1.867-1.05 0-.175.06-.35.12-.524l4.603-16.087c.29-.934.702-2.565.702-3.44 0-.64-.352-1.516-1.11-1.516-1.573 0-3.96 2.74-4.896 3.907l-.76-.99z"/></g><path fill="#fff" d="M606.302 73.568H129.374c-.452 0-.82-.355-.82-.793 0-.437.368-.794.82-.794h476.928c.453 0 .82.358.82.795 0 .438-.367.793-.82.793z"/><g fill="#fff"><path d="M146.71 103.966v16.096h-2.824v-16.096h-5.134v-2.54h13.09v2.54h-5.132zM162.26 120.063v-8.14c0-.96-.248-1.686-.748-2.176-.494-.486-1.136-.73-1.922-.73-.787 0-1.434.244-1.94.73-.504.49-.757 1.216-.757 2.176v8.14h-2.67v-18.636h2.67v6.702c.924-.997 2.067-1.496 3.43-1.496 1.448 0 2.574.446 3.39 1.337.81.888 1.216 2.067 1.216 3.535v8.558h-2.67zM170.477 114.2c0 1.152.297 2.06.89 2.72.593.665 1.42.996 2.487.996.713 0 1.307-.105 1.78-.313.472-.21.95-.56 1.44-1.05l1.7 1.597c-.717.717-1.442 1.24-2.182 1.573-.744.33-1.674.497-2.79.497-.872 0-1.667-.123-2.383-.368-.717-.244-1.34-.634-1.87-1.165-.53-.53-.95-1.24-1.26-2.12-.304-.88-.458-1.932-.458-3.15 0-2.13.51-3.794 1.535-4.99 1.018-1.197 2.384-1.793 4.096-1.793 1.762 0 3.138.583 4.134 1.754.996 1.17 1.49 2.716 1.49 4.633v1.18h-8.61zm5.877-2.842c-.044-.25-.135-.527-.274-.82-.21-.51-.548-.915-1.01-1.22-.462-.308-.997-.46-1.607-.46-.612 0-1.152.152-1.626.46-.47.305-.813.71-1.02 1.22-.123.275-.206.538-.25.78-.04.245-.073.59-.09 1.024h5.97c-.02-.403-.05-.73-.093-.984zM198.576 118.715c-1.196 1.004-2.658 1.505-4.384 1.505-1.936 0-3.57-.663-4.895-1.99-.44-.435-.78-.897-1.035-1.39-.254-.485-.43-1.015-.534-1.583-.107-.567-.17-1.172-.197-1.816-.028-.645-.038-1.544-.038-2.696 0-1.17.01-2.072.04-2.71.025-.635.092-1.237.208-1.806.112-.567.29-1.094.537-1.584.243-.486.58-.952 1.02-1.383 1.326-1.328 2.96-1.992 4.895-1.992 1.745 0 3.21.5 4.398 1.492 1.184.994 1.935 2.41 2.248 4.24h-2.877c-.23-.977-.663-1.752-1.308-2.33-.646-.576-1.466-.863-2.46-.863-.54 0-1.052.1-1.532.3-.48.2-.887.478-1.218.825-.227.245-.414.51-.56.798-.15.29-.265.647-.34 1.07-.08.43-.14.95-.173 1.56-.038.615-.053 1.406-.053 2.384s.015 1.777.052 2.393c.033.62.09 1.14.17 1.557.077.423.186.77.326 1.05.14.277.333.55.576.81.33.35.738.626 1.218.828.48.2.993.3 1.532.3 1.01 0 1.842-.288 2.486-.865.645-.577 1.08-1.353 1.31-2.33h2.85c-.313 1.814-1.07 3.223-2.262 4.228zM210.918 120.063v-1.205c-.49.49-.996.84-1.518 1.045-.525.213-1.193.317-2.017.317-1.57 0-2.756-.404-3.56-1.207-.7-.73-1.046-1.68-1.046-2.85 0-1.15.393-2.078 1.18-2.776.78-.696 1.917-1.045 3.398-1.045h3.51v-.944c0-.854-.23-1.48-.692-1.883-.463-.403-1.2-.603-2.212-.603-.73 0-1.31.095-1.73.288-.416.192-.81.526-1.175.993l-1.754-1.647c.608-.718 1.275-1.213 1.99-1.492.716-.278 1.64-.42 2.772-.42 3.65 0 5.472 1.52 5.472 4.555v8.872h-2.616zm-.052-5.863h-3.116c-1.59 0-2.38.637-2.38 1.907 0 1.26.81 1.89 2.432 1.89.577 0 1.05-.05 1.425-.145.377-.096.73-.3 1.06-.618.386-.385.58-1.036.58-1.964v-1.07zM233.296 120.063v-8.09c0-.993-.242-1.736-.73-2.226-.49-.486-1.135-.73-1.94-.73-.768 0-1.415.244-1.947.73-.533.49-.8 1.19-.8 2.096v8.22h-2.672v-8.09c0-.993-.242-1.736-.732-2.226-.49-.486-1.137-.73-1.934-.73-.806 0-1.465.25-1.98.745-.514.498-.77 1.235-.77 2.212v8.088h-2.67v-13.27h2.616v1.337c.435-.494.965-.86 1.583-1.118.623-.252 1.27-.378 1.952-.378 1.675 0 2.93.645 3.77 1.938 1.063-1.293 2.452-1.938 4.16-1.938.684 0 1.31.106 1.888.317.574.21 1.062.504 1.464.888.942.927 1.41 2.174 1.41 3.743v8.482h-2.668zM250.115 116.723c-.202.953-.597 1.726-1.19 2.318-.365.368-.825.657-1.386.863-.56.213-1.174.317-1.834.317-.732 0-1.38-.112-1.936-.34-.56-.23-1.075-.62-1.544-1.178v6.728h-2.67v-18.637h2.616v1.412c.486-.575 1.007-.983 1.557-1.216.55-.237 1.2-.356 1.95-.356.664 0 1.277.106 1.844.317.57.21 1.036.495 1.402.86.592.597.987 1.36 1.19 2.307.2.944.3 2.04.3 3.3 0 1.253-.1 2.356-.3 3.306zm-2.46-5.06c-.06-.508-.192-.96-.392-1.362-.2-.4-.485-.716-.85-.944-.367-.228-.838-.34-1.415-.34-.578 0-1.05.112-1.427.34-.373.228-.657.54-.846.93-.194.393-.326.844-.396 1.348-.07.504-.102 1.098-.102 1.783 0 .675.032 1.27.102 1.776.07.506.202.963.396 1.36.19.405.473.717.847.944.377.228.85.34 1.428.34.577 0 1.048-.112 1.416-.34.364-.227.648-.545.85-.955.2-.412.33-.87.39-1.374.063-.505.094-1.09.094-1.75 0-.67-.03-1.25-.094-1.755zM260.65 120.063v-1.205c-.488.49-.99.84-1.514 1.045-.526.213-1.198.317-2.017.317-1.572 0-2.76-.404-3.563-1.207-.7-.73-1.046-1.68-1.046-2.85 0-1.15.39-2.078 1.178-2.776.787-.696 1.918-1.045 3.406-1.045h3.506v-.944c0-.854-.234-1.48-.694-1.883-.465-.403-1.196-.603-2.21-.603-.736 0-1.31.095-1.726.288-.422.192-.815.526-1.18.993l-1.754-1.647c.61-.718 1.272-1.213 1.987-1.492.717-.278 1.64-.42 2.777-.42 3.644 0 5.47 1.52 5.47 4.555v8.872h-2.62zm-.05-5.863h-3.117c-1.586 0-2.382.637-2.382 1.907 0 1.26.815 1.89 2.44 1.89.574 0 1.047-.05 1.424-.145.37-.096.728-.3 1.06-.618.383-.385.576-1.036.576-1.964v-1.07zM266.778 104.175v-2.828h2.826v2.828h-2.826zm.076 15.888v-13.27h2.672v13.27h-2.672zM281.837 124.03c-1.017 1.034-2.4 1.556-4.148 1.556-1.01 0-1.87-.132-2.578-.395-.708-.26-1.408-.712-2.11-1.36l1.703-1.7c.454.418.893.722 1.31.903.422.183.945.275 1.57.275 1.065 0 1.853-.317 2.356-.954.506-.64.76-1.446.76-2.422v-1.703c-.47.56-.982.953-1.53 1.178-.55.226-1.183.34-1.9.34-1.325 0-2.378-.39-3.165-1.178-.594-.59-.99-1.317-1.192-2.17-.197-.856-.3-1.928-.3-3.218 0-1.295.103-2.37.3-3.224.2-.853.598-1.577 1.192-2.173.766-.768 1.83-1.15 3.195-1.15.733 0 1.376.118 1.936.354.56.232 1.073.64 1.542 1.215v-1.412h2.595v13.19c0 1.66-.512 3.008-1.536 4.046zm-1.228-12.475c-.062-.472-.184-.897-.366-1.28-.184-.386-.46-.69-.824-.92-.368-.227-.84-.34-1.415-.34-.578 0-1.045.113-1.412.34s-.644.534-.827.92c-.184.383-.31.808-.38 1.28-.068.474-.103 1.012-.103 1.627 0 .61.035 1.148.103 1.62.07.47.196.897.38 1.28.183.385.46.69.827.916.367.23.834.342 1.412.342.576 0 1.047-.113 1.415-.342.365-.225.64-.53.824-.914.182-.385.304-.813.365-1.282.06-.472.09-1.01.09-1.62 0-.615-.03-1.153-.09-1.627zM295.178 120.063v-8.09c0-.993-.245-1.736-.733-2.226-.488-.486-1.136-.73-1.936-.73-.805 0-1.465.25-1.98.745-.512.498-.77 1.235-.77 2.212v8.088h-2.67v-13.27h2.616v1.337c.927-.997 2.104-1.496 3.532-1.496 1.345 0 2.438.404 3.275 1.204.488.473.834 1.013 1.033 1.624.2.61.3 1.317.3 2.12v8.48h-2.668zM310.277 109.068v10.995h-2.67v-10.995h-1.514v-2.042h1.514v-2.04c0-1.03.313-1.902.944-2.618.63-.714 1.526-1.073 2.7-1.073h1.673v2.275h-1.177c-.976 0-1.47.518-1.47 1.547v1.91h2.647v2.04h-2.646zM324.913 116.46c-.228.83-.64 1.56-1.233 2.19-.472.47-1.04.85-1.7 1.14-.666.284-1.422.43-2.28.43-.853 0-1.61-.14-2.262-.42-.655-.278-1.216-.66-1.69-1.15-.595-.63-1.005-1.36-1.23-2.19-.223-.824-.34-1.842-.34-3.043 0-1.21.117-2.223.34-3.053.225-.827.635-1.55 1.23-2.16.474-.487 1.035-.87 1.69-1.15.653-.278 1.41-.42 2.262-.42.858 0 1.614.142 2.28.42.66.28 1.228.663 1.7 1.15.593.61 1.005 1.333 1.233 2.16.224.83.34 1.845.34 3.053 0 1.2-.116 2.22-.34 3.044zm-2.514-5.242c-.127-.596-.372-1.076-.733-1.444-.507-.503-1.162-.758-1.967-.758-.784 0-1.428.255-1.934.758-.37.368-.615.848-.733 1.444-.124.592-.185 1.322-.185 2.2 0 .87.06 1.602.185 2.195.118.595.364 1.074.733 1.44.52.524 1.168.785 1.934.785.787 0 1.443-.26 1.967-.784.36-.367.606-.846.732-1.44.12-.594.182-1.327.182-2.197 0-.877-.063-1.607-.183-2.2zM335.643 109.91c-.315-.32-.616-.544-.904-.687-.288-.138-.65-.207-1.086-.207-.735 0-1.357.277-1.872.824-.517.55-.77 1.272-.77 2.16v8.063h-2.672v-13.27h2.616v1.44c.353-.47.84-.855 1.48-1.153.637-.297 1.32-.446 2.055-.446.647 0 1.224.097 1.73.29.505.19.985.513 1.44.967l-2.017 2.02zM360.59 120.063h-2.462L354.333 107l-3.77 13.063h-2.46l-4.866-18.636h2.98l3.247 13.323 3.743-13.323h2.276l3.745 13.323 3.248-13.323h2.978l-4.865 18.635zM373.438 120.063v-1.205c-.487.49-.99.84-1.516 1.045-.525.213-1.192.317-2.015.317-1.57 0-2.76-.404-3.558-1.207-.7-.73-1.047-1.68-1.047-2.85 0-1.15.386-2.078 1.172-2.776.786-.696 1.92-1.045 3.406-1.045h3.508v-.944c0-.854-.23-1.48-.695-1.883-.462-.403-1.198-.603-2.207-.603-.734 0-1.31.095-1.732.288-.418.192-.808.526-1.178.993l-1.752-1.647c.608-.718 1.273-1.213 1.99-1.492.714-.278 1.64-.42 2.772-.42 3.647 0 5.474 1.52 5.474 4.555v8.872h-2.622zm-.05-5.863h-3.117c-1.584 0-2.375.637-2.375 1.907 0 1.26.808 1.89 2.433 1.89.573 0 1.05-.05 1.425-.145.373-.096.728-.3 1.06-.618.382-.385.575-1.036.575-1.964v-1.07zM387.93 119.12c-1.02.732-2.35 1.1-3.995 1.1-1.187 0-2.225-.14-3.125-.42-.9-.278-1.714-.775-2.45-1.493l1.756-1.754c.488.508 1.064.866 1.726 1.074.665.21 1.362.317 2.093.317.857 0 1.554-.156 2.098-.472.54-.314.812-.768.812-1.365 0-.467-.147-.837-.433-1.093-.29-.264-.74-.42-1.348-.474l-1.075-.105-1.048-.08c-1.272-.104-2.247-.46-2.918-1.06-.67-.602-1.01-1.468-1.01-2.603 0-1.257.477-2.246 1.428-2.972.95-.722 2.145-1.086 3.57-1.086 1.032 0 1.965.12 2.79.355.828.232 1.54.613 2.135 1.14l-1.676 1.7c-.398-.333-.88-.576-1.44-.733-.555-.158-1.17-.24-1.83-.24-.77 0-1.362.153-1.78.462-.42.303-.63.717-.63 1.24 0 .437.14.78.423 1.035.274.255.745.413 1.41.486l1.075.104 1.018.08c1.278.104 2.254.466 2.932 1.084.683.62 1.022 1.507 1.022 2.66 0 1.343-.508 2.38-1.53 3.11zM400.216 120.063v-8.14c0-.96-.246-1.686-.745-2.176-.492-.486-1.137-.73-1.917-.73-.788 0-1.44.244-1.944.73-.506.49-.757 1.216-.757 2.176v8.14h-2.67v-18.636h2.67v6.702c.925-.997 2.066-1.496 3.428-1.496 1.45 0 2.58.446 3.39 1.337.814.888 1.222 2.067 1.222 3.535v8.558h-2.676zM406.397 104.175v-2.828h2.825v2.828h-2.825zm.078 15.888v-13.27h2.67v13.27h-2.67zM420.947 120.063v-8.09c0-.993-.243-1.736-.733-2.226-.488-.486-1.136-.73-1.936-.73-.802 0-1.462.25-1.978.745-.516.498-.772 1.235-.772 2.212v8.088h-2.67v-13.27h2.62v1.337c.92-.997 2.1-1.496 3.53-1.496 1.346 0 2.438.404 3.275 1.204.49.473.83 1.013 1.032 1.624.204.61.3 1.317.3 2.12v8.48h-2.668zM435.804 124.03c-1.02 1.034-2.408 1.556-4.15 1.556-1.013 0-1.87-.132-2.576-.395-.71-.26-1.41-.712-2.11-1.36l1.7-1.7c.456.418.89.722 1.31.903.418.183.94.275 1.572.275 1.063 0 1.846-.317 2.356-.954.504-.64.757-1.446.757-2.422v-1.703c-.47.56-.98.953-1.53 1.178-.55.226-1.185.34-1.9.34-1.327 0-2.378-.39-3.167-1.178-.59-.59-.986-1.317-1.19-2.17-.2-.856-.3-1.928-.3-3.218 0-1.295.1-2.37.3-3.224.204-.853.6-1.577 1.19-2.173.77-.768 1.83-1.15 3.197-1.15.728 0 1.376.118 1.935.354.562.232 1.074.64 1.545 1.215v-1.412h2.59v13.19c0 1.66-.512 3.008-1.53 4.046zm-1.233-12.475c-.06-.472-.18-.897-.363-1.28-.186-.386-.456-.69-.825-.92-.364-.227-.838-.34-1.414-.34-.58 0-1.05.113-1.413.34-.368.23-.64.534-.83.92-.18.383-.306.808-.374 1.28-.072.474-.103 1.012-.103 1.627 0 .61.03 1.148.104 1.62.07.47.195.897.376 1.28.19.385.46.69.83.916.363.23.833.342 1.412.342.576 0 1.05-.113 1.414-.342.37-.225.638-.53.825-.914.184-.385.304-.813.364-1.282.064-.472.093-1.01.093-1.62 0-.615-.03-1.153-.092-1.627zM445.004 120.063c-1.167 0-2.07-.357-2.695-1.076-.63-.712-.944-1.584-.944-2.614v-7.305h-1.52v-2.042h1.52V103h2.672v4.026h2.563v2.042h-2.562v7.172c0 1.03.484 1.548 1.462 1.548h1.1v2.274h-1.596zM459.456 116.46c-.23.83-.64 1.56-1.232 2.19-.47.47-1.044.85-1.7 1.14-.666.284-1.422.43-2.28.43-.854 0-1.608-.14-2.265-.42-.655-.278-1.216-.66-1.686-1.15-.597-.63-1.004-1.36-1.233-2.19-.223-.824-.337-1.842-.337-3.043 0-1.21.114-2.223.338-3.053.23-.827.637-1.55 1.234-2.16.47-.487 1.03-.87 1.685-1.15.656-.278 1.41-.42 2.264-.42.858 0 1.614.142 2.28.42.656.28 1.23.663 1.7 1.15.593.61 1.003 1.333 1.232 2.16.224.83.342 1.845.342 3.053 0 1.2-.118 2.22-.342 3.044zm-2.514-5.242c-.12-.596-.37-1.076-.737-1.444-.505-.503-1.158-.758-1.96-.758-.79 0-1.432.255-1.936.758-.368.368-.615.848-.735 1.444-.123.592-.183 1.322-.183 2.2 0 .87.06 1.602.183 2.195.12.595.367 1.074.734 1.44.52.524 1.166.785 1.934.785.786 0 1.44-.26 1.96-.784.368-.367.617-.846.738-1.44.12-.594.184-1.327.184-2.197 0-.877-.063-1.607-.184-2.2zM470.97 120.063v-8.09c0-.993-.246-1.736-.734-2.226-.487-.486-1.132-.73-1.935-.73s-1.46.25-1.975.745c-.515.498-.773 1.235-.773 2.212v8.088h-2.67v-13.27h2.618v1.337c.926-.997 2.104-1.496 3.535-1.496 1.345 0 2.434.404 3.27 1.204.49.473.836 1.013 1.033 1.624.204.61.3 1.317.3 2.12v8.48h-2.668zM495.878 116.386c-.34.794-.814 1.48-1.413 2.054-.608.573-1.317 1.015-2.136 1.323-.82.304-1.704.457-2.644.457-.944 0-1.818-.153-2.632-.457-.812-.308-1.523-.75-2.133-1.323-.61-.575-1.08-1.26-1.413-2.054-.332-.796-.495-1.665-.495-2.605v-12.353h2.826v12.222c0 1.238.35 2.22 1.044 2.945.7.725 1.634 1.087 2.804 1.087 1.167 0 2.104-.362 2.812-1.087.708-.725 1.058-1.707 1.058-2.946v-12.223h2.833v12.354c0 .94-.173 1.81-.512 2.606zM508.218 120.063v-8.09c0-.993-.244-1.736-.732-2.226-.49-.486-1.134-.73-1.937-.73-.8 0-1.464.25-1.977.745-.516.498-.774 1.235-.774 2.212v8.088h-2.67v-13.27h2.617v1.337c.924-.997 2.102-1.496 3.535-1.496 1.345 0 2.432.404 3.272 1.204.487.473.834 1.013 1.035 1.624.196.61.297 1.317.297 2.12v8.48h-2.67zM514.396 104.175v-2.828h2.824v2.828h-2.824zm.078 15.888v-13.27h2.67v13.27h-2.67zM525.987 120.063h-2.17l-4.87-13.27h2.83l3.14 9.342 3.114-9.342h2.83l-4.873 13.27zM534.364 114.2c0 1.152.298 2.06.892 2.72.597.665 1.42.996 2.485.996.715 0 1.312-.105 1.784-.313.474-.21.95-.56 1.44-1.05l1.7 1.597c-.717.717-1.444 1.24-2.187 1.573-.74.33-1.67.497-2.787.497-.872 0-1.666-.123-2.385-.368-.71-.244-1.336-.634-1.87-1.165-.53-.53-.95-1.24-1.258-2.12-.3-.88-.453-1.932-.453-3.15 0-2.13.51-3.794 1.53-4.99 1.02-1.197 2.386-1.793 4.098-1.793 1.76 0 3.14.583 4.136 1.754.992 1.17 1.49 2.716 1.49 4.633v1.18h-8.614zm5.877-2.842c-.042-.25-.134-.527-.27-.82-.213-.51-.55-.915-1.01-1.22-.462-.308-1-.46-1.608-.46-.614 0-1.153.152-1.625.46-.47.305-.81.71-1.02 1.22-.122.275-.208.538-.248.78-.05.245-.078.59-.096 1.024h5.97c-.018-.403-.05-.73-.093-.984zM553.292 109.91c-.313-.32-.616-.544-.903-.687-.287-.138-.652-.207-1.087-.207-.735 0-1.36.277-1.87.824-.52.55-.774 1.272-.774 2.16v8.063h-2.673v-13.27h2.62v1.44c.35-.47.84-.855 1.477-1.153.637-.297 1.324-.446 2.053-.446.647 0 1.223.097 1.73.29.506.19.985.513 1.44.967l-2.015 2.02zM564.978 119.12c-1.024.732-2.35 1.1-3.99 1.1-1.19 0-2.23-.14-3.132-.42-.897-.278-1.71-.775-2.448-1.493l1.754-1.754c.49.508 1.067.866 1.732 1.074.663.21 1.36.317 2.093.317.854 0 1.548-.156 2.093-.472.542-.314.812-.768.812-1.365 0-.467-.144-.837-.428-1.093-.295-.264-.742-.42-1.35-.474l-1.076-.105-1.052-.08c-1.267-.104-2.24-.46-2.916-1.06-.668-.602-1.006-1.468-1.006-2.603 0-1.257.476-2.246 1.428-2.972.952-.722 2.142-1.086 3.572-1.086 1.03 0 1.958.12 2.787.355.827.232 1.54.613 2.134 1.14l-1.677 1.7c-.396-.333-.877-.576-1.437-.733-.558-.158-1.166-.24-1.832-.24-.77 0-1.36.153-1.78.462-.418.303-.628.717-.628 1.24 0 .437.14.78.416 1.035.28.255.75.413 1.416.486l1.075.104 1.018.08c1.276.104 2.25.466 2.933 1.084.683.62 1.02 1.507 1.02 2.66 0 1.343-.507 2.38-1.53 3.11zM569.152 104.175v-2.828h2.827v2.828h-2.828zm.08 15.888v-13.27h2.67v13.27h-2.67zM579.57 120.063c-1.17 0-2.066-.357-2.694-1.076-.63-.712-.94-1.584-.94-2.614v-7.305h-1.52v-2.042h1.52V103h2.668v4.026h2.566v2.042h-2.566v7.172c0 1.03.488 1.548 1.468 1.548h1.098v2.274h-1.6zM588.21 122.71c-.245.694-.57 1.245-.97 1.647-.35.344-.75.597-1.208.743-.45.148-.957.223-1.513.223h-1.076v-2.408h.682c.56 0 .972-.1 1.23-.302.26-.198.488-.57.676-1.11l.738-2.07-4.633-12.64h2.83l3.16 9.342 3.092-9.342h2.854l-5.865 15.916z"/></g><g fill="#fff"><path d="M51.854 37.134c-16.658 0-32.332-1.94-46.586-5.77-.175-.044-.297-.203-.297-.382V8.502c0-.12.057-.235.15-.308.095-.075.22-.102.336-.08 15.49 3.46 32.788 5.293 50.018 5.293 16.964 0 33.018-1.83 46.43-5.288.12-.03.246-.008.342.07.097.073.155.188.155.313v22.48c0 .184-.13.343-.31.386-16.314 3.77-33.687 5.764-50.236 5.764zm-46.088-6.46c14.11 3.76 29.612 5.665 46.088 5.665 16.387 0 33.582-1.962 49.75-5.675V9.015c-13.372 3.393-29.31 5.185-46.13 5.185-17.108 0-34.283-1.8-49.708-5.202v21.677zM85.85 67.77c-.126 0-.252-.04-.354-.114-.135-.102-.22-.252-.238-.416-.133-1.228-.01-15.603-.003-16.214.003-.292.216-.54.504-.582 3.718-.562 6.728-1.25 10.54-2.12 1.668-.38 3.486-.796 5.576-1.25.175-.04.36.006.5.12.14.112.22.283.22.462v16.44c0 .284-.2.528-.482.583L85.96 67.76c-.037.008-.074.01-.11.01zm.59-16.228c-.033 3.96-.084 12.41-.027 14.92l14.996-2.858v-15.21c-1.79.393-3.376.753-4.845 1.088-3.664.837-6.592 1.507-10.126 2.06zM22.327 68.037c-.02 0-.036 0-.056-.004-5.306-.5-8.943-1.35-15.55-2.896l-1.487-.348c-.27-.064-.458-.305-.458-.582V47.656c0-.186.086-.363.235-.474.15-.114.34-.15.52-.1 3.667 1.033 6.83 1.53 9.89 2.01 2.46.385 4.79.75 7.06 1.362.262.07.44.305.44.576v16.414c0 .166-.07.325-.193.438-.11.1-.253.155-.4.155zm-16.364-4.3l1.03.243c6.278 1.47 9.856 2.307 14.738 2.806V51.488c-2.076-.53-4.226-.867-6.494-1.22-2.75-.432-5.84-.916-9.273-1.833v15.303zM53.81 73.956h-.014c-.162-.003-.316-.075-.426-.195L50.857 71H33.764c-.33 0-.595-.266-.595-.594V42.146c0-.332.265-.595.594-.595H51.12c.157 0 .308.062.42.173l2.28 2.292 2.418-2.304c.11-.1.258-.16.41-.16h17.49c.328 0 .596.264.596.596v28.258c0 .328-.268.594-.596.594H57.024l-2.793 2.788c-.112.11-.262.17-.42.17zM34.357 69.81H51.12c.167 0 .326.068.44.192l2.272 2.5 2.527-2.52c.11-.11.26-.17.42-.17H73.54V42.738H56.886l-2.666 2.535c-.232.222-.603.22-.83-.008l-2.517-2.528H34.357v27.07zM53.81 82.712c-.143 0-.285-.052-.4-.155l-4.125-3.742-23.06-.002c-.33 0-.594-.267-.594-.594V47.655c0-.186.088-.363.24-.474l3.905-2.952c.18-.138.42-.16.622-.056.2.096.33.303.33.526l.13 28.746h19.867c.154 0 .304.058.413.166l2.97 2.857 3.21-2.875c.11-.096.25-.15.395-.15h19.332l.135-28.74c0-.228.13-.435.336-.53.204-.104.448-.072.63.068l4.037 3.218c.142.116.225.285.225.465v30.297c0 .328-.268.593-.595.593H58.35l-4.142 3.742c-.113.103-.256.155-.398.155zm-26.99-5.087l22.694.002c.148 0 .29.055.4.152l3.898 3.535 3.91-3.536c.11-.098.252-.153.4-.153h23.096V48.212L78.36 45.94l-.128 28.103c0 .33-.268.59-.595.59H57.94l-3.452 3.09c-.23.207-.583.202-.808-.017l-3.196-3.072h-20.22c-.325 0-.593-.263-.594-.59l-.126-28.148-2.724 2.055v29.675zM82.835 26.07c.08 0 .158.024.228.073l3.763 2.618-1.25-4.288c-.045-.16.014-.337.156-.432l3.258-2.287-4.316-.118c-.168-.004-.314-.113-.367-.267l-1.485-4.434-1.584 4.44c-.056.154-.202.26-.365.26l-4.122.11 3.473 2.288c.148.093.213.27.165.44l-1.224 4.234 3.433-2.558c.07-.05.153-.077.238-.077zM25.04 26.07c.076 0 .153.024.22.068l3.832 2.597-1.454-4.245c-.058-.17.004-.353.147-.455l3.264-2.29-3.905-.11c-.16-.004-.302-.104-.36-.255-.508-1.324-1.243-3.228-1.696-4.367l-1.373 4.347c-.05.16-.2.273-.367.275l-4.29.113 3.365 2.284c.144.096.207.274.158.437l-1.226 4.238 3.444-2.56c.072-.05.156-.077.24-.077zM53.81 28.744c.08 0 .16.023.227.07l3.673 2.546-1.436-4.07c-.056-.16-.007-.335.125-.444l3.542-2.868-4.436-.118c-.16-.004-.304-.105-.36-.258l-1.443-3.86-1.207 3.84c-.05.162-.198.274-.366.278l-4.277.115 3.51 2.72c.135.105.188.283.132.442l-1.44 4.203 3.526-2.523c.07-.048.15-.073.23-.073zM28.562 100.226h.773v-1.843c0-.072.028-.142.082-.19l1.487-1.374c.085-.082.216-.09.316-.027l1.638 1.06.952-.95v-1.564h-3.672l-1.576 1.968v2.918zM23.776 100.226h.77v-2.918l-1.58-1.97h-3.673v1.564l.948.95 1.643-1.06c.1-.062.227-.054.316.027l1.492 1.372c.052.05.084.12.084.19v1.844zM25.32 94.803l.82 1.652c.018.035.028.076.028.116v3.653l.75-.007v-3.65c0-.043.01-.08.03-.117l.844-1.65v-3.88l-1.232-1.234-1.24 1.234v3.883zM53.81 126.115c-.086 0-.173-.013-.254-.042-3.765-1.277-7.898-2.757-11.984-4.223-4.085-1.465-8.125-2.912-11.694-4.12C13 111.506 4.536 106.618 1.548 101.373c-.008-.02-.02-.04-.03-.06C.038 98.664.026 96.162.01 93.51c0-.423 0-.848-.01-1.284.127-21.46.132-82.613.132-89.514 0-.244.11-.476.304-.627.19-.148.44-.203.678-.144C18.49 6.165 36.454 8.313 54.51 8.313c18.222 0 35.672-2.188 51.865-6.5.243-.064.495-.012.69.14.195.148.31.38.31.63V91.94c.016 3.422-.804 6.578-2.437 9.373-.013.03-.03.06-.044.087-4.81 8.083-15.52 11.833-24.123 14.847-2.377.83-4.622 1.618-6.447 2.403-4.9 2.003-10.007 3.8-14.947 5.54-1.767.623-3.538 1.247-5.296 1.88-.088.032-.178.045-.27.045zM2.957 100.638c2.777 4.807 11.25 9.618 27.45 15.594 3.558 1.203 7.606 2.654 11.7 4.123 3.984 1.425 8.012 2.87 11.697 4.124 1.676-.602 3.36-1.195 5.046-1.79 4.92-1.733 10.01-3.523 14.86-5.503 1.862-.803 4.132-1.598 6.536-2.438 8.336-2.92 18.703-6.552 23.24-14.094.014-.03.03-.054.04-.08 1.535-2.596 2.273-5.422 2.26-8.634V3.61C89.738 7.783 72.495 9.9 54.51 9.9 36.67 9.9 18.915 7.82 1.72 3.72c0 10.453-.01 67.863-.132 88.496.01.42.01.856.013 1.285.013 2.565.024 4.778 1.332 7.084l.025.054zM53.955 121.817c-.05 0-.096-.008-.14-.027-4.718-1.78-9-3.376-12.886-4.818-19.234-7.158-28.956-10.775-33.156-15.658-.035-.02-.066-.046-.092-.08-1.733-2.08-2.57-4.398-2.71-7.516-.015-1.204-.128-11.654.004-12.47.02-.107.08-.204.17-.267.09-.057.202-.08.31-.054 15.635 3.47 31.916 5.236 48.39 5.236 16.424 0 32.596-1.765 48.07-5.236.118-.028.24 0 .334.075.095.078.15.19.15.313V93.7c-.382 2.823-1.46 5.332-3.21 7.514-3.614 4.54-9.254 6.95-12.99 8.543-.87.37-1.62.69-2.188.975-4.644 1.825-9.327 3.485-13.855 5.09-5.263 1.864-10.705 3.795-16.054 5.967-.048.016-.098.027-.148.027zM8.205 100.62c.032.02.06.045.086.075 4.012 4.778 13.672 8.37 32.916 15.53 3.845 1.43 8.083 3.006 12.742 4.767 5.318-2.155 10.72-4.067 15.943-5.92 4.524-1.602 9.2-3.26 13.8-5.065.554-.28 1.318-.604 2.2-.98 3.658-1.563 9.19-3.924 12.68-8.308 1.658-2.07 2.68-4.45 3.04-7.075l-.004-11.838c-15.383 3.418-31.447 5.148-47.76 5.148-16.375 0-32.557-1.733-48.11-5.158-.056 1.706-.016 7.775.03 11.898.13 2.866.882 5.013 2.438 6.925zM50.147 107.425h1.13v-4.007l-2.153-2.696H44.08v2.17l1.343 1.335 2.44-1.59 2.284 2.122v2.665zM52.226 100.06l1.157 2.382v4.98l1.108-.014.044-5.103 1.135-2.244v-5.278l-1.724-1.72-1.72 1.72v5.28zM56.607 107.425h1.135v-2.666l2.283-2.123 2.44 1.59 1.332-1.336v-2.168h-5.042l-2.148 2.696v4.007zM22.474 102.752l1.412 1.15.63-.792.005-1.17-2.046.01v.802zM28.54 103.11l.63.79 1.416-1.148v-.8H28.54v1.158zM25.276 104.99l1.183 1.526 1.268-1.537-.822-1.22v-1.808h-.73l-.008 1.825-.892 1.214zM83.314 100.226h.77v-1.842c0-.073.033-.142.084-.192l1.497-1.373c.09-.08.22-.09.316-.027l1.64 1.06.94-.95V95.34H84.89l-1.574 1.968v2.918zM78.538 100.226h.754v-2.918l-1.57-1.97h-3.67v1.564l.95.95 1.635-1.06c.094-.062.226-.052.314.027l1.505 1.372c.052.05.083.12.083.192v1.842zM80.076 94.802l.834 1.65c.016.038.024.08.024.12v3.65l.738-.002v-3.654c0-.043.014-.08.03-.117l.845-1.65v-3.88l-1.232-1.234-1.24 1.234v3.882zM77.23 102.752l1.41 1.148.633-.79v-1.17l-2.042.01v.802zM83.294 103.11l.63.79 1.412-1.148.005-.8h-2.046v1.158zM80.04 104.995l1.178 1.52 1.266-1.534-.814-1.22v-1.808h-.727l-.01 1.825-.893 1.218zM48.41 110.792l1.965 1.596.902-1.12v-1.633l-2.867-.003v1.16zM56.607 111.268l.898 1.12 1.96-1.596v-1.16l-2.858.003v1.633zM52.143 113.797l1.658 2.13 1.776-2.146-1.115-1.683v-2.47l-1.09-.004-.004 2.518-1.223 1.657z"/></g></svg>