<svg xmlns="http://www.w3.org/2000/svg" width="1772.838" height="125.648" viewBox="0 0 1772.83789 125.64795" enable-background="new 0 0 1772.83789 125.64795"><path d="M152.997 73.895c0 13.414.365 19.257 2.01 20.9 1.458 1.46 3.83 2.097 10.947 2.097 4.838 0 8.853-.084 11.04-2.738 1.192-1.454 2.1-3.743 2.372-5.47.096-.734.274-1.19.824-1.19.456 0 .55.368.55 1.366 0 1.006-.638 6.48-1.374 9.13-.636 2.1-.907 2.46-5.747 2.46-6.57 0-11.318-.18-15.15-.277-3.833-.175-6.66-.268-9.305-.268-.367 0-1.918.093-3.746.093-1.825.09-3.83.175-5.2.175-1.005 0-1.464-.175-1.464-.72 0-.273.182-.55.734-.55.818 0 1.918-.184 2.738-.368 1.823-.36 2.28-2.37 2.643-5.018.463-3.835.463-11.04.463-19.803v-16.06c0-14.24 0-16.794-.185-19.716-.182-3.102-.912-4.56-3.92-5.196-.733-.186-2.288-.274-3.108-.274-.36 0-.73-.185-.73-.548 0-.55.455-.733 1.46-.733 4.107 0 9.856.273 10.316.273.452 0 7.115-.273 9.855-.273 1.003 0 1.46.183 1.46.733 0 .363-.37.548-.73.548-.637 0-1.917.088-3.01.274-2.65.455-3.377 2-3.56 5.196C153 40.86 153 43.415 153 57.655v16.24zm38.777-9.945c0-12.05 0-14.237-.182-16.7-.185-2.65-.637-3.925-3.282-4.292-.642-.092-2.01-.182-2.74-.182-.275 0-.64-.363-.64-.637 0-.457.365-.64 1.28-.64 3.65 0 8.85.183 9.306.183.548 0 17.338.09 19.165 0 1.55-.09 3.01-.367 3.653-.46.365-.09.727-.364 1.094-.364.272 0 .365.364.365.733 0 .545-.454 1.456-.637 3.645-.094.734-.276 4.197-.456 5.11-.094.363-.366.824-.733.824-.454 0-.637-.366-.637-1.006 0-.545-.093-1.825-.46-2.735-.546-1.28-1.37-1.822-5.742-2.374-1.372-.18-10.686-.277-11.597-.277-.365 0-.453.277-.453.83v21.08c0 .545 0 .82.453.82 1.003 0 11.596 0 13.42-.185 1.91-.183 3.097-.275 3.92-1.095.55-.547.912-1.002 1.188-1.002.274 0 .456.184.456.635 0 .456-.456 1.74-.64 4.293-.184 1.55-.363 4.468-.363 5.022 0 .636-.18 1.462-.73 1.462-.365 0-.55-.28-.55-.738 0-.724 0-1.55-.364-2.548-.275-1.103-1.004-2.013-4.106-2.373-2.19-.274-10.772-.367-12.14-.367-.456 0-.544.273-.544.545v6.477c0 2.654-.094 11.683 0 13.233.183 5.203 1.642 6.205 9.58 6.205 2.1 0 5.933 0 8.032-.818 2.1-.914 3.19-2.284 3.65-5.387.18-.905.364-1.185.824-1.185.452 0 .545.64.545 1.185 0 .554-.638 5.844-1.095 7.483-.547 2.01-1.366 2.01-4.472 2.01-6.027 0-10.677-.186-13.963-.27-3.377-.184-5.47-.184-6.66-.184-.18 0-1.74 0-3.466.093-1.557.09-3.377.174-4.654.174-.825 0-1.274-.175-1.274-.632 0-.272.18-.636.632-.636.734 0 1.737-.273 2.467-.37 1.55-.272 1.736-1.823 2.1-4.103.455-3.194.455-9.305.455-16.796V63.95zm60.676-20.9c1.006-2.553 1.37-3.008 1.915-3.008.823 0 1.1 1.093 1.916 2.824 1.47 3.287 14.336 35.32 19.26 47.096 2.92 6.93 5.11 7.94 6.844 8.484 1.188.36 2.377.458 3.194.458.46 0 1.007.18 1.007.637 0 .46-.915.634-1.824.634-1.19 0-7.12 0-12.69-.175-1.55-.094-2.826-.094-2.826-.546 0-.37.182-.37.547-.55.456-.184 1.278-.82.73-2.095l-7.206-17.8c-.184-.365-.28-.458-.733-.458h-18.525c-.366 0-.637.182-.818.64l-4.563 12.41c-.73 1.917-1.188 3.833-1.188 5.208 0 1.542 1.37 2.096 2.74 2.096h.73c.638 0 .822.276.822.637 0 .458-.465.633-1.188.633-1.917 0-6.295-.268-7.213-.268-.82 0-4.833.268-8.122.268-1.002 0-1.55-.175-1.55-.632 0-.36.363-.636.73-.636.547 0 1.732-.097 2.373-.185 3.65-.458 5.2-3.2 6.753-7.12l18.89-48.55zm8.946 32.312c.364 0 .364-.184.272-.554l-7.938-21.26c-.46-1.192-.91-1.192-1.368 0l-7.483 21.26c-.096.37 0 .554.27.554h16.245zm33.942-11.412c0-12.05 0-14.237-.186-16.7-.176-2.65-.642-3.925-3.283-4.292-.64-.092-2.01-.182-2.74-.182-.278 0-.64-.363-.64-.637 0-.457.362-.64 1.28-.64 3.646 0 8.85.183 9.307.183.908 0 6.026-.184 10.764-.184 8.03 0 22.73-.733 32.22 8.85 4.017 4.015 7.847 10.5 7.847 19.712 0 9.767-4.198 17.246-8.672 21.81-3.467 3.56-10.675 8.946-24.365 8.946-3.468 0-7.754-.278-11.226-.462-3.464-.27-6.2-.453-6.566-.453-.185 0-1.64.093-3.284.093-1.648.09-3.563.175-4.842.175-.82 0-1.273-.174-1.273-.63 0-.273.18-.637.635-.637.73 0 1.732-.185 2.462-.37 1.552-.36 1.732-1.823 2.1-4.103.46-3.194.46-9.305.46-16.796V63.95zm7.298 8.398c0 8.212 0 15.418.092 16.876.09 1.924.273 4.746.914 5.57 1 1.46 3.832 3.107 13.326 3.107 7.384 0 13.957-2.466 18.795-7.032 4.2-3.92 6.298-11.313 6.298-18.43 0-9.854-4.29-16.152-7.576-19.44-7.57-7.666-16.423-8.668-26.005-8.668-1.55 0-4.108.27-4.837.548-.732.27-1.006.637-1.006 1.55v25.92zm67.52 5.286c0 7.49 0 13.602.364 16.797.274 2.28.55 3.745 2.923 4.106 1.19.184 2.92.37 3.65.37.456 0 .638.363.638.636 0 .365-.366.633-1.274.633-4.47 0-9.677-.268-10.04-.268-.456 0-5.474.268-7.937.268-.827 0-1.28-.175-1.28-.632 0-.272.184-.636.64-.636.726 0 1.73-.185 2.46-.37 1.554-.36 1.827-1.823 2.1-4.103.363-3.194.457-9.305.457-16.796V63.95c0-12.05 0-14.237-.183-16.7-.18-2.65-.82-3.835-2.556-4.2-.91-.184-1.913-.274-2.465-.274-.36 0-.632-.363-.632-.637 0-.457.364-.64 1.273-.64 2.65 0 7.667.183 8.122.183.364 0 5.57-.184 8.035-.184.907 0 1.272.183 1.272.64 0 .272-.365.635-.635.635-.55 0-1.097 0-2.01.182-2.19.457-2.645 1.55-2.83 4.292-.092 2.462-.092 4.65-.092 16.7v13.683zm24.27 11.96c.183 6.39.914 8.307 3.103 8.852 1.46.36 3.285.458 4.014.458.363 0 .636.276.636.637 0 .46-.546.634-1.457.634-4.562 0-7.755-.268-8.49-.268-.723 0-4.1.268-7.754.268-.82 0-1.277-.084-1.277-.632 0-.36.275-.636.635-.636.64 0 2.1-.097 3.286-.458 2.013-.545 2.282-2.653 2.282-9.68V44.33c0-3.105.454-3.923 1.096-3.923.914 0 2.28 1.55 3.1 2.37 1.284 1.278 12.962 13.687 25.37 26.46 7.944 8.22 16.518 17.44 18.986 19.987l-.825-38.873c-.092-5.02-.547-6.747-3.01-7.21-1.458-.273-3.285-.363-3.925-.363-.552 0-.64-.453-.64-.732 0-.45.64-.545 1.55-.545 3.65 0 7.486.184 8.4.184.912 0 3.56-.184 6.837-.184.828 0 1.466.094 1.466.544 0 .28-.365.732-.914.732-.366 0-1 0-1.914.182-2.647.545-2.83 2.1-2.83 6.755l-.177 45.447c0 5.11-.095 5.567-.643 5.567-.82 0-1.64-.638-6.117-4.745-.82-.733-12.41-12.144-20.896-20.99-9.306-9.764-18.34-19.257-20.81-21.994l.914 36.595zm107.31-9.22c0-6.3-.183-7.21-3.47-7.85-.64-.09-2.01-.176-2.733-.176-.272 0-.64-.37-.64-.642 0-.55.368-.637 1.275-.637 3.653 0 9.04.18 9.49.18.362 0 5.39-.18 7.853-.18.908 0 1.278.086 1.278.635 0 .273-.37.642-.644.642-.544 0-1.09 0-2.008.176-2.186.37-2.824 1.55-3.005 4.292-.092 2.465-.092 4.75-.092 8.036v8.666c0 3.555-.093 3.65-1.096 4.2-5.11 2.64-12.407 3.467-17.066 3.467-6.107 0-17.518-.734-26.462-8.305-4.926-4.113-9.582-12.413-9.582-22.084 0-12.414 6.295-21.173 13.414-25.465 7.208-4.376 15.243-4.924 21.355-4.924 5.11 0 10.768.91 12.32 1.277 1.64.36 4.472.82 6.48.82.82 0 1.003.362 1.003.73 0 1.095-.458 3.193-.458 10.953 0 1.278-.362 1.643-.915 1.643-.45 0-.548-.46-.548-1.19-.087-1-.544-3.285-1.824-5.11-2.01-2.92-8.123-6.028-18.52-6.028-4.84 0-10.68.37-16.796 5.022-4.653 3.56-7.94 10.496-7.94 19.53 0 10.954 5.657 18.8 8.49 21.446 6.384 5.933 13.138 8.125 20.527 8.125 2.836 0 6.574-.28 8.67-1.46 1.01-.557 1.645-.916 1.645-2.372V80.375zm84.184-47.26h-17.17c-8.343 0-9.46 7.423-10.782 11.49h-2.64l3.76-17.18h1.828c1.83 1.02 3.87 1.527 5.903 1.527h47.67c1.723 0 3.96-.304 5.49-1.524h1.726l-1.725 17.377h-2.642v-2.74c0-6.81-1.322-8.947-8.03-8.947H595.38L585.517 87.5c-.1.92-.912 4.78-.912 5.794 0 3.153 2.136 3.97 7.42 3.97h2.644l-.518 2.64c-5.385 0-10.87-.204-16.263-.204-4.368 0-8.84.105-13.21.205l.506-2.64h3.15c4.475.096 6.404-1.527 7.524-7.932l10.06-56.218zm42.193 22.703c11.195 0 18.526 8.486 18.526 19.582 0 13.605-11.583 25.95-25.38 25.95-11.574 0-19.006-7.717-19.006-19.39 0-13.898 11.867-26.144 25.858-26.144zm-6.947 43.024c12.443 0 17.752-16.976 17.752-26.915 0-6.845-2.607-13.6-10.9-13.6-12.932 0-18.04 16.3-18.04 26.914 0 7.24 2.7 13.602 11.188 13.602zm60.287-.285c4.437 2.415 7.527 4.054 7.527 9.646 0 9.748-13.702 13.7-21.516 13.7-6.852 0-19.873-1.73-19.873-11.095 0-7.042 9.746-10.99 15.15-13.12-1.837-1.157-5.404-2.603-5.404-5.303 0-3.667 5.21-6.555 7.813-8.3-5.21-2.892-8.2-5.89-8.2-12.06 0-9.068 9.742-16.203 18.816-16.203 5.688 0 7.81 1.734 12.728 2.99.68.19 1.455.48 2.033.48 1.154 0 2.218-.58 3.178-1.16.968-.577 1.932-1.157 3-1.157 1.246 0 1.536 1.448 1.536 2.796 0 1.74-.766 3.57-2.313 3.57-2.026 0-3.953-2.12-7.62-2.506 2.124 2.313 3.088 5.11 3.088 8.103 0 10.127-10.038 16.6-19.49 16.6-1.447 0-2.99-.105-4.44-.298-.868.297-2.99 2.413-2.99 3.382 0 1.254.868 1.64 1.832 2.122l15.147 7.813zm-15.823.382c-1.928.675-11.673 4.92-11.673 10.325 0 7.236 8.782 9.553 14.665 9.553 4.632 0 13.988-1.542 13.988-7.817 0-2.604-2.217-4.532-4.724-5.786l-12.256-6.275zm11.194-40.613c-7.816-.388-12.158 9.74-12.158 16.11 0 4.63 1.735 8.59 7.04 8.59 7.723 0 11.965-9.94 11.965-16.503 0-4.047-1.83-8.195-6.845-8.195zm56.044 30.49c-6.367 7.04-13.413 12.54-21.9 12.54-8.878 0-11.87-6.563-11.87-13.027 0-15.438 13.8-32.51 27.79-32.51 4.338 0 9.453 1.54 9.453 6.847 0 13.12-18.427 17.652-28.75 18.62-.577 2.516-.77 4.926-.77 7.43 0 4.824 3.373 7.43 7.917 7.43 5.595 0 11.284-3.666 16.783-8.974l1.348 1.643zm-4.246-25.764c0-2.51-1.445-4.148-3.956-4.148-7.43 0-15.047 13.505-16.59 19.872 8.87-.583 20.546-5.207 20.546-15.724zm27.193-17.948h7.73l-3.96 12.16H769.9l-1.154 3.956H758.52l-8.392 27.885c-.294.868-.583 2.024-.583 2.99 0 1.156.485 2.12 1.93 2.12 3.768 0 9.458-5.886 11.964-8.388l1.354 1.634c-4.343 4.824-12.252 13.89-19.297 13.89-2.797 0-4.242-2.51-4.242-5.017 0-1.928.773-4.536 1.253-6.174l8.584-28.943h-9.454l1.157-3.955h9.36l3.658-12.16zm25.758 32.322h.193c4.15-6.56 17.27-21.607 26.244-21.607 5.116 0 6.947 3.668 6.947 8.39 0 9.746-11.773 35.698-21.708 35.698-1.837 0-2.32-.968-2.32-2.125 0-.578.29-1.35.483-1.928l2.023-4.725h6.658c2.993-5.985 7.142-17.174 7.142-23.835 0-3.278-.966-5.686-3.86-5.686-6.652 0-18.04 14.757-20.844 20.064-3.27 6.18-3.953 9.168-5.786 16.496-.187.872-.867 1.543-4.144 1.543-1.253 0-3.086-.48-3.086-1.64 0-.966.38-2.027.575-2.99l15.247-62.425-4.734-2.7.297-1.254c1.54-.19 3.955-.477 6.368-.867 2.317-.386 4.532-.96 6.853-1.64l1.06.387-13.606 50.844zm74.087 11.39c-6.364 7.04-13.415 12.54-21.908 12.54-8.87 0-11.858-6.563-11.858-13.027 0-15.438 13.794-32.51 27.787-32.51 4.34 0 9.46 1.54 9.46 6.847 0 13.12-18.437 17.652-28.753 18.62-.587 2.516-.78 4.926-.78 7.43 0 4.824 3.383 7.43 7.916 7.43 5.59 0 11.29-3.666 16.787-8.974l1.35 1.643zm-4.243-25.764c0-2.51-1.447-4.148-3.962-4.148-7.43 0-15.054 13.505-16.596 19.872 8.877-.583 20.556-5.207 20.556-15.724zm10.597 5.697c2.42-3.572 9.842-12.93 14.567-12.93 2.417 0 3.967 1.056 3.967 3.668 0 1.056-.39 2.888-.968 5.01l-3.674 13.218h.194c2.606-4.92 11.676-21.896 17.76-21.896 2.015 0 2.98 1.155 2.98 3.278 0 2.218-1.06 7.136-4.05 7.136-1.157 0-2.41-.383-3.566-.383-6.66 0-13.51 18.72-16.693 28.56l-1.733 6.17c-.202.68-1.735.776-3.47.776-1.255 0-3.095-.868-3.095-1.74 0-.29.106-.574.203-.864l7.616-26.63c.48-1.544 1.166-4.244 1.166-5.695 0-1.06-.588-2.507-1.842-2.507-2.602 0-6.555 4.532-8.106 6.465l-1.253-1.635zM967.025 112.615V18.022c0-.092.796-.163 1.787-.163.98 0 1.78.07 1.78.16v94.594c0 .093-.8.164-1.78.164-.99 0-1.787-.072-1.787-.165zM1039.44 58.864v26.39h-4.627v-26.39h-8.417V54.7h21.458v4.164h-8.414zm25.488 26.39V71.912c0-1.577-.403-2.763-1.22-3.567-.813-.797-1.86-1.202-3.152-1.202s-2.352.405-3.182 1.202c-.825.804-1.24 1.99-1.24 3.567v13.342h-4.377V54.7h4.376v10.987c1.517-1.633 3.39-2.45 5.622-2.45 2.377 0 4.22.733 5.56 2.196 1.33 1.455 1.993 3.385 1.993 5.79v14.03h-4.38zm13.476-9.61c0 1.89.492 3.373 1.463 4.46.974 1.09 2.327 1.63 4.08 1.63 1.164 0 2.138-.168 2.91-.516.774-.34 1.563-.914 2.36-1.715l2.786 2.616c-1.17 1.176-2.36 2.03-3.575 2.58-1.216.54-2.74.81-4.574.81-1.43 0-2.73-.2-3.907-.604-1.17-.403-2.197-1.036-3.064-1.91-.868-.865-1.56-2.03-2.062-3.473-.5-1.445-.754-3.17-.754-5.164 0-3.497.838-6.22 2.52-8.184 1.67-1.96 3.908-2.94 6.717-2.94 2.883 0 5.142.96 6.777 2.875 1.63 1.924 2.44 4.455 2.44 7.595v1.937h-14.116zm9.634-4.66c-.072-.414-.222-.866-.454-1.35-.338-.835-.892-1.495-1.646-1.99-.763-.51-1.64-.756-2.636-.756-1.007 0-1.887.245-2.667.757-.768.494-1.333 1.154-1.673 1.988-.196.45-.336.89-.41 1.285-.064.402-.118.97-.148 1.677h9.79c-.03-.658-.08-1.195-.156-1.61zm36.436 12.06c-1.966 1.65-4.364 2.466-7.19 2.466-3.177 0-5.85-1.085-8.027-3.26-.72-.714-1.283-1.473-1.7-2.277-.412-.8-.703-1.664-.878-2.595-.17-.93-.275-1.924-.317-2.976-.05-1.065-.06-2.536-.06-4.427 0-1.915.01-3.398.06-4.443.042-1.04.153-2.028.34-2.958.185-.932.483-1.79.88-2.597.403-.794.952-1.557 1.673-2.267 2.176-2.182 4.85-3.268 8.027-3.268 2.855 0 5.258.815 7.21 2.45 1.946 1.625 3.17 3.947 3.686 6.948h-4.72c-.375-1.6-1.087-2.876-2.143-3.823-1.06-.943-2.407-1.413-4.034-1.413-.884 0-1.73.166-2.514.49-.793.33-1.45.79-1.997 1.353-.373.406-.683.836-.918 1.314-.248.47-.436 1.06-.557 1.75-.14.708-.228 1.564-.28 2.563-.06 1.006-.085 2.302-.085 3.903 0 1.606.024 2.91.084 3.92.052 1.022.14 1.874.28 2.556.12.698.3 1.263.53 1.724.232.453.546.906.944 1.33.546.57 1.205 1.026 1.997 1.353.783.326 1.63.49 2.514.49 1.658 0 3.02-.47 4.07-1.413 1.063-.952 1.775-2.222 2.153-3.823h4.674c-.516 2.976-1.757 5.282-3.706 6.933zm20.226 2.21V83.28c-.805.805-1.63 1.37-2.49 1.71-.86.353-1.95.52-3.3.52-2.574 0-4.523-.658-5.84-1.974-1.142-1.203-1.714-2.76-1.714-4.674 0-1.886.646-3.408 1.93-4.557 1.286-1.14 3.148-1.71 5.575-1.71h5.757v-1.547c0-1.398-.382-2.424-1.136-3.085-.757-.664-1.97-.99-3.625-.99-1.2 0-2.146.156-2.834.47-.683.32-1.327.866-1.926 1.63l-2.877-2.7c.994-1.18 2.088-1.986 3.257-2.447 1.174-.454 2.692-.69 4.553-.69 5.978 0 8.967 2.497 8.967 7.47v14.548h-4.293zm-.084-9.61h-5.105c-2.607 0-3.9 1.042-3.9 3.126 0 2.063 1.323 3.093 3.986 3.093.947 0 1.722-.08 2.335-.24.617-.154 1.2-.485 1.736-1.01.636-.623.95-1.697.95-3.214V75.64zm36.772 9.61V71.99c0-1.625-.394-2.84-1.196-3.645-.8-.797-1.86-1.202-3.176-1.202-1.266 0-2.328.405-3.203 1.202-.864.804-1.304 1.95-1.304 3.437v13.472h-4.378V71.99c0-1.625-.403-2.84-1.203-3.645-.807-.797-1.867-1.202-3.174-1.202-1.32 0-2.4.41-3.236 1.227-.85.815-1.265 2.02-1.265 3.62v13.264h-4.377V63.497h4.284v2.19c.713-.807 1.58-1.407 2.6-1.828 1.017-.417 2.08-.624 3.198-.624 2.74 0 4.803 1.06 6.174 3.18 1.745-2.12 4.02-3.18 6.82-3.18 1.124 0 2.147.176 3.098.52.94.345 1.74.825 2.398 1.456 1.552 1.52 2.314 3.565 2.314 6.137v13.903h-4.376zm27.578-5.474c-.335 1.56-.982 2.825-1.953 3.793-.604.608-1.354 1.078-2.277 1.418-.914.354-1.92.52-3.005.52-1.197 0-2.257-.183-3.167-.552-.923-.377-1.76-1.023-2.537-1.933V94.05h-4.38V63.496h4.296v2.316c.8-.942 1.65-1.608 2.55-1.992.906-.388 1.976-.583 3.203-.583 1.09 0 2.087.176 3.02.52.93.345 1.696.813 2.3 1.41.97.98 1.618 2.232 1.953 3.78.322 1.544.49 3.342.49 5.413 0 2.054-.168 3.856-.49 5.42zm-4.036-8.3c-.106-.83-.32-1.57-.646-2.23-.328-.66-.798-1.176-1.39-1.55-.6-.372-1.376-.557-2.32-.557-.948 0-1.727.185-2.34.556-.615.373-1.08.882-1.39 1.524-.315.645-.532 1.383-.647 2.21-.112.83-.172 1.8-.172 2.925 0 1.106.06 2.086.172 2.912.115.83.332 1.576.646 2.23.31.663.776 1.17 1.39 1.543.614.373 1.393.557 2.34.557.945 0 1.72-.184 2.32-.557.593-.374 1.063-.893 1.39-1.564.327-.674.54-1.43.647-2.254.104-.826.146-1.786.146-2.867 0-1.1-.042-2.055-.146-2.88zm21.307 13.774V83.28c-.805.805-1.627 1.37-2.487 1.71-.866.353-1.965.52-3.307.52-2.573 0-4.526-.658-5.835-1.974-1.148-1.203-1.72-2.76-1.72-4.674 0-1.886.642-3.408 1.93-4.557 1.295-1.14 3.145-1.71 5.58-1.71h5.75v-1.547c0-1.398-.38-2.424-1.134-3.085-.764-.664-1.963-.99-3.623-.99-1.205 0-2.145.156-2.83.47-.69.32-1.334.866-1.93 1.63l-2.875-2.7c.998-1.18 2.08-1.986 3.253-2.447 1.174-.454 2.686-.69 4.552-.69 5.972 0 8.97 2.497 8.97 7.47v14.548h-4.293zm-.088-9.61h-5.11c-2.597 0-3.904 1.042-3.904 3.126 0 2.063 1.332 3.093 3.998 3.093.935 0 1.716-.08 2.33-.24.61-.154 1.195-.485 1.74-1.01.634-.623.944-1.697.944-3.214V75.64zm10.13-16.435v-4.635h4.633v4.633h-4.632zm.122 26.043V63.497h4.38v21.757h-4.38zm24.565 6.507c-1.673 1.694-3.933 2.545-6.8 2.545-1.655 0-3.068-.214-4.224-.646-1.162-.433-2.31-1.17-3.463-2.228l2.795-2.79c.743.69 1.464 1.18 2.148 1.48.685.3 1.546.45 2.573.45 1.743 0 3.038-.518 3.86-1.558.826-1.053 1.246-2.373 1.246-3.974v-2.79c-.772.917-1.61 1.558-2.51 1.93-.903.366-1.94.56-3.112.56-2.17 0-3.903-.642-5.19-1.933-.972-.97-1.626-2.16-1.953-3.56-.326-1.4-.49-3.16-.49-5.277 0-2.113.164-3.886.49-5.286.327-1.396.98-2.582 1.953-3.557 1.258-1.26 2.998-1.89 5.23-1.89 1.21 0 2.265.195 3.18.584.914.386 1.76 1.05 2.53 1.994v-2.316h4.25v21.628c0 2.716-.832 4.93-2.513 6.636zm-2.012-20.456c-.105-.775-.306-1.47-.603-2.094-.302-.637-.75-1.136-1.346-1.51-.604-.372-1.375-.557-2.322-.557-.944 0-1.715.185-2.315.556-.6.373-1.058.872-1.36 1.51-.298.624-.5 1.32-.62 2.093-.114.78-.168 1.66-.168 2.666 0 1 .054 1.885.168 2.657.12.77.323 1.476.62 2.1.302.63.76 1.132 1.36 1.5.6.382 1.37.563 2.314.563.947 0 1.718-.18 2.322-.56.595-.37 1.044-.873 1.346-1.502.297-.624.498-1.33.603-2.1.097-.772.147-1.656.147-2.658 0-1.006-.05-1.886-.147-2.666zm23.885 13.95V71.99c0-1.625-.41-2.84-1.203-3.645-.8-.797-1.866-1.202-3.177-1.202-1.32 0-2.397.41-3.25 1.227-.833.815-1.253 2.02-1.253 3.62v13.264h-4.38V63.497h4.288v2.19c1.518-1.633 3.45-2.45 5.79-2.45 2.204 0 3.998.664 5.37 1.976.795.776 1.362 1.66 1.693 2.66.33 1 .49 2.16.49 3.477v13.904h-4.368zm24.754-18.027v18.027h-4.38V67.227h-2.485v-3.345h2.482v-3.347c0-1.687.512-3.117 1.543-4.288 1.035-1.172 2.502-1.76 4.427-1.76h2.745v3.732h-1.937c-1.592 0-2.396.84-2.396 2.53v3.13h4.334v3.346h-4.334zm23.99 12.12c-.378 1.363-1.048 2.558-2.03 3.59-.765.775-1.697 1.395-2.783 1.865s-2.33.708-3.732.708c-1.4 0-2.64-.23-3.706-.687-1.072-.457-1.998-1.082-2.77-1.886-.98-1.032-1.643-2.227-2.02-3.59-.365-1.348-.554-3.02-.554-4.987 0-1.98.19-3.647.554-5.005.377-1.356 1.04-2.543 2.02-3.543.772-.794 1.698-1.425 2.77-1.886 1.066-.454 2.306-.69 3.707-.69 1.402 0 2.65.236 3.733.69 1.087.46 2.02 1.092 2.785 1.887.98 1 1.65 2.186 2.03 3.542.364 1.358.553 3.026.553 5.005 0 1.966-.19 3.64-.553 4.988zm-4.116-8.593c-.206-.98-.616-1.764-1.204-2.365-.834-.828-1.91-1.248-3.227-1.248-1.287 0-2.34.42-3.174 1.246-.608.6-1.002 1.384-1.202 2.364-.196.973-.296 2.168-.296 3.606 0 1.425.1 2.628.298 3.597.2.98.595 1.76 1.203 2.368.856.855 1.92 1.278 3.174 1.278 1.29 0 2.366-.422 3.226-1.277.588-.608.998-1.388 1.204-2.368.187-.97.293-2.172.293-3.597 0-1.438-.105-2.633-.292-3.606zm21.702-2.15c-.513-.515-1.007-.886-1.48-1.12-.47-.225-1.06-.34-1.778-.34-1.208 0-2.225.45-3.07 1.35-.845.905-1.265 2.085-1.265 3.54v13.22h-4.376V63.497h4.286v2.36c.586-.77 1.384-1.397 2.432-1.887 1.04-.49 2.167-.733 3.366-.733 1.056 0 2.008.165 2.833.477.83.31 1.614.84 2.364 1.583l-3.31 3.307zm40.904 16.65h-4.037l-6.225-21.414-6.175 21.414h-4.036l-7.976-30.554h4.88l5.328 21.844 6.14-21.844h3.73l6.135 21.844 5.323-21.844h4.89l-7.974 30.554zm21.066 0V83.28c-.802.805-1.632 1.37-2.496 1.71-.86.353-1.954.52-3.298.52-2.583 0-4.525-.658-5.836-1.974-1.144-1.203-1.71-2.76-1.71-4.674 0-1.886.624-3.408 1.916-4.557 1.29-1.14 3.152-1.71 5.587-1.71h5.748v-1.547c0-1.398-.372-2.424-1.14-3.085-.754-.664-1.965-.99-3.62-.99-1.2 0-2.147.156-2.83.47-.696.32-1.328.866-1.937 1.63l-2.872-2.7c.998-1.18 2.09-1.986 3.263-2.447 1.17-.454 2.692-.69 4.55-.69 5.976 0 8.965 2.497 8.965 7.47v14.548h-4.288zm-.09-9.61h-5.11c-2.602 0-3.898 1.042-3.898 3.126 0 2.063 1.324 3.093 3.99 3.093.945 0 1.724-.08 2.34-.24.607-.154 1.19-.485 1.732-1.01.627-.623.947-1.697.947-3.214V75.64zm23.835 8.068c-1.667 1.195-3.848 1.798-6.54 1.798-1.952 0-3.654-.23-5.12-.687-1.486-.457-2.814-1.266-4.013-2.448l2.87-2.872c.794.827 1.745 1.417 2.827 1.757 1.09.343 2.232.52 3.435.52 1.4 0 2.545-.256 3.442-.776.88-.51 1.324-1.253 1.324-2.234 0-.768-.233-1.37-.707-1.794-.478-.432-1.22-.688-2.213-.78l-1.756-.168-1.72-.13c-2.086-.17-3.688-.754-4.78-1.735-1.105-.985-1.657-2.415-1.657-4.274 0-2.06.78-3.683 2.34-4.87 1.563-1.187 3.516-1.784 5.86-1.784 1.684 0 3.213.195 4.565.584 1.36.385 2.52 1.005 3.5 1.867l-2.746 2.792c-.658-.55-1.446-.948-2.36-1.203-.915-.26-1.92-.39-3.002-.39-1.266 0-2.234.245-2.92.757-.685.494-1.025 1.173-1.025 2.03 0 .715.216 1.282.68 1.696.45.42 1.222.68 2.31.797l1.76.172 1.675.124c2.096.176 3.697.767 4.81 1.782 1.122 1.014 1.667 2.47 1.667 4.355 0 2.21-.827 3.908-2.508 5.11zm20.147 1.542V71.912c0-1.577-.407-2.763-1.217-3.567-.81-.797-1.873-1.202-3.15-1.202-1.292 0-2.357.405-3.187 1.202-.826.804-1.242 1.99-1.242 3.567v13.342h-4.376V54.7h4.376v10.987c1.522-1.633 3.393-2.45 5.626-2.45 2.373 0 4.23.733 5.55 2.196 1.333 1.455 2.005 3.385 2.005 5.79v14.03h-4.385zm10.13-26.045v-4.635h4.633v4.633h-4.632zm.127 26.043V63.497h4.374v21.757h-4.376zm23.726 0V71.99c0-1.625-.395-2.84-1.2-3.645-.796-.797-1.86-1.202-3.168-1.202-1.32 0-2.407.41-3.245 1.227-.846.815-1.266 2.02-1.266 3.62v13.264h-4.376V63.497h4.3v2.19c1.503-1.633 3.436-2.45 5.783-2.45 2.2 0 3.995.664 5.366 1.976.805.776 1.356 1.66 1.692 2.66.337 1 .492 2.16.492 3.477v13.904h-4.376zm24.354 6.507c-1.673 1.694-3.943 2.545-6.8 2.545-1.658 0-3.067-.214-4.224-.646-1.16-.433-2.314-1.17-3.463-2.228l2.797-2.79c.742.69 1.46 1.18 2.14 1.48.693.3 1.548.45 2.58.45 1.743 0 3.027-.518 3.86-1.558.83-1.053 1.242-2.373 1.242-3.974v-2.79c-.764.917-1.606 1.558-2.508 1.93-.9.366-1.94.56-3.11.56-2.17 0-3.903-.642-5.19-1.933-.97-.97-1.626-2.16-1.95-3.56-.335-1.4-.507-3.16-.507-5.277 0-2.113.172-3.886.508-5.286.323-1.396.978-2.582 1.95-3.557 1.256-1.26 2.992-1.89 5.23-1.89 1.2 0 2.26.195 3.178.584.918.386 1.76 1.05 2.533 1.994v-2.316h4.242v21.628c0 2.716-.834 4.93-2.507 6.636zm-2.02-20.456c-.096-.775-.292-1.47-.594-2.094-.307-.637-.752-1.136-1.356-1.51-.593-.372-1.365-.557-2.317-.557-.943 0-1.715.185-2.314.556-.597.373-1.054.872-1.364 1.51-.294.624-.5 1.32-.612 2.093-.117.78-.168 1.66-.168 2.666 0 1 .05 1.885.168 2.657.112.77.318 1.476.612 2.1.31.63.767 1.132 1.362 1.5.598.382 1.37.563 2.313.563.953 0 1.725-.18 2.318-.56.604-.37 1.05-.873 1.356-1.502.302-.624.498-1.33.594-2.1.105-.772.152-1.656.152-2.658 0-1.006-.047-1.886-.152-2.666zm17.103 13.95c-1.907 0-3.387-.586-4.418-1.764-1.036-1.165-1.538-2.595-1.538-4.29V67.228h-2.495v-3.345h2.495V57.28h4.376v6.602h4.2v3.345h-4.2v11.756c0 1.69.792 2.54 2.397 2.54h1.803v3.73h-2.62zm23.693-5.906c-.373 1.362-1.048 2.557-2.02 3.59-.768.774-1.71 1.394-2.783 1.864-1.09.47-2.33.708-3.737.708-1.4 0-2.64-.23-3.712-.687-1.078-.457-1.992-1.082-2.763-1.886-.98-1.032-1.65-2.227-2.02-3.59-.367-1.348-.56-3.02-.56-4.987 0-1.98.193-3.647.56-5.005.37-1.356 1.04-2.543 2.02-3.543.773-.794 1.687-1.425 2.765-1.886 1.072-.454 2.313-.69 3.712-.69 1.406 0 2.646.236 3.737.69 1.072.46 2.015 1.092 2.783 1.887.972 1 1.647 2.186 2.02 3.542.365 1.358.562 3.026.562 5.005 0 1.966-.198 3.64-.563 4.988zm-4.122-8.594c-.2-.98-.603-1.764-1.197-2.365-.83-.828-1.907-1.248-3.22-1.248-1.295 0-2.347.42-3.173 1.246-.608.6-1.002 1.384-1.204 2.364-.21.973-.3 2.168-.3 3.606 0 1.425.09 2.628.3 3.597.202.98.596 1.76 1.204 2.368.85.855 1.91 1.278 3.172 1.278 1.284 0 2.357-.422 3.22-1.277.595-.608.998-1.388 1.198-2.368.203-.97.302-2.172.302-3.597 0-1.438-.1-2.633-.302-3.606zm23.003 14.5V71.99c0-1.625-.408-2.84-1.204-3.645-.805-.797-1.856-1.202-3.173-1.202-1.312 0-2.398.41-3.236 1.227-.848.815-1.266 2.02-1.266 3.62v13.264h-4.385V63.497h4.292v2.19c1.523-1.633 3.446-2.45 5.794-2.45 2.203 0 4 .664 5.37 1.976.795.776 1.36 1.66 1.69 2.66.336 1 .488 2.16.488 3.477v13.904h-4.373zm40.833-6.032c-.56 1.308-1.333 2.428-2.32 3.367-.992.945-2.157 1.666-3.5 2.17-1.345.502-2.786.75-4.333.75-1.542 0-2.985-.248-4.31-.75-1.333-.504-2.5-1.225-3.5-2.17-1.005-.94-1.773-2.06-2.322-3.37-.54-1.3-.808-2.723-.808-4.266V54.7h4.63v20.04c0 2.034.576 3.64 1.71 4.83 1.147 1.19 2.684 1.778 4.6 1.778 1.912 0 3.45-.587 4.61-1.778 1.167-1.19 1.737-2.796 1.737-4.83V54.7h4.64v20.255c0 1.543-.28 2.968-.834 4.267zm20.226 6.032V71.99c0-1.625-.394-2.84-1.2-3.645-.804-.797-1.86-1.202-3.176-1.202-1.308 0-2.394.41-3.237 1.227-.846.815-1.266 2.02-1.266 3.62v13.264h-4.38V63.497h4.292v2.19c1.51-1.633 3.445-2.45 5.792-2.45 2.205 0 3.99.664 5.366 1.976.803.776 1.368 1.66 1.693 2.66.327 1 .49 2.16.49 3.477v13.904h-4.376zm10.128-26.045v-4.635h4.632v4.633h-4.632zm.13 26.043V63.497h4.376v21.757h-4.376zm18.876 0h-3.555l-7.986-21.756h4.634l5.152 15.323 5.105-15.323h4.64l-7.99 21.757zm13.736-9.61c0 1.89.486 3.374 1.455 4.46.983 1.09 2.328 1.63 4.08 1.63 1.17 0 2.144-.167 2.918-.515.785-.34 1.565-.914 2.364-1.715l2.785 2.616c-1.174 1.176-2.368 2.03-3.583 2.58-1.213.54-2.743.81-4.566.81-1.43 0-2.733-.2-3.915-.604-1.16-.403-2.183-1.036-3.06-1.91-.87-.865-1.554-2.03-2.066-3.473-.49-1.445-.742-3.17-.742-5.164 0-3.497.844-6.22 2.51-8.184 1.675-1.96 3.908-2.94 6.72-2.94 2.89 0 5.14.96 6.78 2.875 1.627 1.924 2.442 4.455 2.442 7.595v1.937h-14.118zm9.63-4.658c-.07-.415-.224-.867-.445-1.352-.35-.834-.9-1.494-1.654-1.988-.76-.512-1.643-.757-2.632-.757-1.01 0-1.89.245-2.665.757-.778.494-1.33 1.154-1.68 1.988-.19.45-.34.89-.4 1.285-.085.402-.127.97-.153 1.677h9.784c-.023-.658-.08-1.195-.153-1.61zm21.394-2.38c-.51-.516-1.01-.887-1.484-1.12-.468-.226-1.063-.34-1.775-.34-1.2 0-2.234.45-3.07 1.35-.836.904-1.264 2.084-1.264 3.54v13.22h-4.376V63.496h4.29v2.36c.57-.77 1.376-1.397 2.416-1.887 1.048-.49 2.175-.733 3.37-.733 1.07 0 2.004.165 2.843.477.824.31 1.616.84 2.353 1.583l-3.303 3.307zm19.158 15.107c-1.68 1.195-3.853 1.798-6.543 1.798-1.95 0-3.652-.23-5.13-.687-1.468-.457-2.806-1.266-4.013-2.448l2.87-2.872c.807.827 1.75 1.417 2.84 1.757 1.085.343 2.234.52 3.433.52 1.4 0 2.54-.256 3.433-.776.888-.51 1.328-1.253 1.328-2.234 0-.768-.234-1.37-.7-1.794-.48-.432-1.22-.688-2.217-.78l-1.758-.168-1.728-.13c-2.08-.17-3.668-.754-4.774-1.735-1.097-.985-1.655-2.415-1.655-4.274 0-2.06.78-3.683 2.343-4.87 1.556-1.187 3.505-1.784 5.857-1.784 1.684 0 3.21.195 4.565.584 1.354.385 2.523 1.005 3.49 1.867l-2.744 2.792c-.65-.55-1.44-.948-2.356-1.203-.914-.26-1.904-.39-2.997-.39-1.262 0-2.234.245-2.917.757-.688.494-1.032 1.173-1.032 2.03 0 .715.234 1.282.68 1.696.46.42 1.23.68 2.32.797l1.766.172 1.665.124c2.095.176 3.692.767 4.808 1.782 1.118 1.014 1.672 2.47 1.672 4.355 0 2.21-.826 3.908-2.507 5.11zm6.842-24.503v-4.635h4.63v4.633h-4.63zm.13 26.043V63.497h4.375v21.757h-4.376zm16.952 0c-1.92 0-3.39-.585-4.415-1.763-1.035-1.165-1.546-2.595-1.546-4.29V67.228h-2.49v-3.345h2.49V57.28h4.378v6.602h4.2v3.345h-4.2v11.756c0 1.69.796 2.54 2.406 2.54h1.794v3.73h-2.615zm14.156 4.34c-.394 1.14-.932 2.038-1.58 2.7-.575.565-1.225.977-1.98 1.215-.74.248-1.572.365-2.485.365h-1.756V89.93h1.11c.913 0 1.593-.17 2.025-.496.42-.327.796-.93 1.107-1.824l1.205-3.39-7.6-20.723h4.64l5.186 15.323 5.065-15.323h4.682l-9.62 26.096zM52.403 35.725c-16.835 0-32.67-1.962-47.08-5.833-.175-.042-.3-.204-.3-.386V6.788c0-.12.06-.24.152-.31.096-.076.222-.103.34-.08 15.654 3.497 33.135 5.35 50.548 5.35 17.143 0 33.37-1.852 46.922-5.346.12-.033.25-.006.346.072.098.07.16.19.16.314v22.718c0 .186-.13.348-.316.392-16.486 3.81-34.042 5.827-50.77 5.827zm-46.576-6.53c14.26 3.8 29.926 5.725 46.576 5.725 16.562 0 33.94-1.98 50.283-5.734V7.306c-13.518 3.43-29.623 5.242-46.623 5.242-17.288 0-34.65-1.82-50.236-5.26v21.908zm80.933 37.49c-.126 0-.256-.043-.36-.116-.134-.107-.22-.258-.237-.42-.137-1.24-.01-15.77-.004-16.387.002-.296.217-.545.51-.587 3.757-.57 6.798-1.264 10.653-2.145 1.683-.382 3.52-.803 5.634-1.26.178-.04.364.006.504.118.14.11.224.288.224.47V62.97c0 .286-.204.53-.488.59l-16.324 3.114c-.04.006-.077.008-.113.008zm.597-16.4c-.033 4-.085 12.54-.025 15.08l15.152-2.893V47.106c-1.804.394-3.412.76-4.894 1.1-3.704.843-6.663 1.52-10.233 2.078zm-64.792 16.67c-.02 0-.037 0-.058-.002-5.362-.506-9.038-1.365-15.716-2.93l-1.5-.35c-.273-.066-.464-.308-.464-.588V46.36c0-.19.088-.37.24-.48.15-.117.343-.153.525-.1 3.706 1.04 6.905 1.54 9.996 2.028 2.486.39 4.838.76 7.138 1.378.26.07.442.31.442.58v16.59c0 .17-.07.328-.197.446-.11.098-.257.153-.404.153zM6.028 62.61l1.04.245c6.342 1.486 9.96 2.33 14.896 2.836V50.23c-2.098-.536-4.274-.877-6.565-1.233-2.78-.436-5.906-.927-9.373-1.85V62.61zm48.354 10.328h-.012c-.166-.003-.32-.074-.434-.196l-2.54-2.794H34.123c-.333 0-.6-.266-.6-.602V40.79c0-.334.267-.605.6-.605h17.542c.16 0 .31.065.422.176l2.307 2.318 2.443-2.324c.11-.107.26-.168.415-.168h17.676c.332 0 .602.27.602.604v28.556c0 .336-.27.602-.602.602h-17.3l-2.82 2.815c-.114.11-.267.175-.426.175zm-19.66-4.19h16.942c.167 0 .33.066.443.196l2.296 2.523 2.553-2.55c.112-.107.266-.17.425-.17h16.943V41.39H57.49l-2.696 2.562c-.232.224-.607.222-.84-.01l-2.542-2.55h-16.69v27.355zm19.66 13.04c-.147 0-.287-.055-.407-.16l-4.168-3.776-23.306-.004c-.33 0-.597-.273-.597-.604V46.36c0-.19.09-.37.24-.48l3.95-2.983c.182-.14.423-.163.626-.06.205.098.335.308.335.536l.132 29.046h20.077c.153 0 .308.06.417.166l3.003 2.888 3.244-2.905c.11-.097.25-.15.4-.15H77.86l.137-29.046c0-.23.136-.44.342-.538.203-.103.45-.072.633.07l4.08 3.254c.145.116.23.288.23.47v30.618c0 .33-.27.604-.602.604H58.97l-4.186 3.777c-.113.102-.26.157-.402.157zM27.105 76.64l22.937.004c.146 0 .29.055.4.155l3.94 3.574 3.953-3.576c.11-.1.254-.156.402-.156h23.345V46.917l-2.89-2.292-.13 28.397c0 .335-.27.6-.6.6h-19.91l-3.487 3.123c-.23.205-.588.2-.815-.02l-3.228-3.103H30.588c-.33 0-.6-.265-.603-.6l-.128-28.444-2.752 2.077V76.64zm56.61-52.097c.08 0 .16.023.23.074l3.802 2.647-1.262-4.335c-.046-.165.014-.344.156-.44l3.294-2.31-4.36-.12c-.17-.005-.318-.115-.37-.27L83.7 15.307l-1.6 4.49c-.056.155-.205.26-.368.264l-4.167.11 3.51 2.31c.148.097.215.273.167.447l-1.24 4.274 3.472-2.58c.07-.055.154-.082.24-.082zm-58.408 0c.077 0 .154.023.222.07l3.87 2.623-1.47-4.292c-.06-.168.004-.355.15-.457l3.3-2.314-3.947-.11c-.16-.007-.306-.107-.362-.26-.513-1.338-1.26-3.262-1.715-4.415l-1.387 4.395c-.05.16-.204.275-.372.28l-4.334.112 3.4 2.307c.145.1.208.277.16.445l-1.24 4.28 3.48-2.582c.07-.055.157-.082.243-.082zm29.075 2.704c.08 0 .16.02.228.07l3.714 2.57-1.452-4.11c-.057-.16-.006-.34.126-.448l3.58-2.905-4.482-.117c-.163-.005-.31-.108-.366-.263l-1.458-3.9-1.22 3.88c-.05.164-.2.278-.37.282l-4.322.114 3.55 2.753c.134.102.188.283.132.444l-1.456 4.25 3.565-2.55c.07-.05.15-.073.233-.073zm-25.516 72.24h.78V97.62c0-.07.03-.138.08-.187l1.506-1.393c.086-.075.22-.092.318-.025l1.657 1.07.96-.957v-1.584h-3.71l-1.59 1.99v2.952zm-4.838 0h.782v-2.95l-1.6-1.993H19.5v1.584l.957.956 1.66-1.07c.1-.066.23-.05.318.026l1.51 1.393c.052.05.083.116.083.188v1.867zm1.562-5.48l.83 1.664c.018.036.025.08.025.124v3.685l.76-.005v-3.69c0-.04.01-.08.03-.117L28.088 94v-3.916l-1.245-1.25-1.254 1.25v3.923zm28.792 31.64c-.09 0-.174-.01-.258-.037-3.805-1.3-7.98-2.787-12.108-4.272-4.132-1.484-8.21-2.94-11.822-4.163-17.054-6.295-25.608-11.233-28.627-16.532-.012-.017-.02-.038-.033-.06C.038 97.907.024 95.38.014 92.696c0-.423-.006-.85-.014-1.29C.128 69.712.136 7.91.136.936c0-.246.11-.48.307-.63.19-.155.444-.21.684-.148 17.56 4.266 35.718 6.435 53.96 6.435 18.416 0 36.052-2.21 52.415-6.568.248-.065.5-.01.698.14.196.153.312.386.312.637v90.31c.017 3.455-.813 6.65-2.463 9.47-.01.03-.03.06-.044.084-4.862 8.175-15.68 11.96-24.378 15.008-2.405.842-4.672 1.64-6.517 2.43-4.954 2.026-10.112 3.84-15.105 5.6-1.788.627-3.575 1.254-5.355 1.9-.086.03-.18.042-.27.042zM2.992 99.9c2.803 4.86 11.365 9.726 27.74 15.763 3.596 1.214 7.685 2.682 11.825 4.163 4.024 1.442 8.094 2.9 11.818 4.167l5.103-1.808c4.968-1.747 10.112-3.56 15.014-5.558 1.88-.813 4.177-1.62 6.607-2.464 8.422-2.957 18.897-6.624 23.483-14.25.015-.02.028-.05.042-.075 1.55-2.624 2.293-5.483 2.28-8.723V1.845C90.69 6.062 73.267 8.197 55.09 8.197c-18.03 0-35.973-2.097-53.35-6.243 0 10.566-.01 68.582-.133 89.432.01.432.01.868.015 1.304.01 2.587.023 4.83 1.344 7.157.008.017.02.037.027.054zm51.536 21.405c-.05 0-.098-.013-.14-.025-4.77-1.798-9.098-3.412-13.026-4.87-19.436-7.237-29.262-10.896-33.504-15.826-.036-.02-.067-.042-.092-.08-1.755-2.104-2.6-4.45-2.742-7.595-.014-1.22-.128-11.777.006-12.607.017-.104.082-.2.172-.268.09-.06.202-.08.31-.06 15.802 3.514 32.258 5.3 48.905 5.3 16.6 0 32.943-1.786 48.58-5.3.12-.02.244 0 .338.08.097.076.153.194.153.31v12.527c-.385 2.85-1.475 5.39-3.244 7.586-3.654 4.59-9.352 7.03-13.13 8.64-.876.373-1.636.694-2.21.984-4.696 1.845-9.428 3.52-14.004 5.145-5.317 1.88-10.817 3.83-16.223 6.026-.048.016-.098.03-.15.03zM8.292 99.885c.033.02.062.046.087.07 4.052 4.834 13.815 8.464 33.262 15.7 3.885 1.446 8.168 3.038 12.877 4.815 5.373-2.175 10.833-4.112 16.11-5.977 4.574-1.626 9.298-3.3 13.947-5.126.56-.282 1.332-.608 2.222-.99 3.7-1.576 9.29-3.965 12.814-8.392 1.674-2.096 2.712-4.498 3.074-7.152l-.002-11.958c-15.553 3.45-31.786 5.2-48.27 5.2-16.548 0-32.903-1.755-48.62-5.214-.06 1.73-.02 7.858.03 12.025.13 2.896.89 5.068 2.463 7zm42.386 6.88h1.145v-4.056l-2.178-2.72H44.55v2.19l1.356 1.346 2.464-1.605 2.308 2.147v2.696zm2.102-7.445l1.17 2.405v5.034l1.12-.018.04-5.157 1.15-2.267v-5.334l-1.74-1.747-1.74 1.746v5.333zm4.428 7.444h1.146v-2.696l2.31-2.146 2.466 1.605 1.344-1.345V99.99h-5.098l-2.168 2.72v4.054zm-34.496-4.73l1.427 1.166.636-.8.004-1.183-2.068.01v.808zm6.13.366l.638.8 1.43-1.165v-.81h-2.068v1.174zm-3.297 1.903l1.195 1.534 1.283-1.55-.828-1.23v-1.83h-.742l-.008 1.843-.9 1.233zM84.2 99.486h.78v-1.86c0-.077.028-.144.083-.193l1.51-1.393c.09-.075.223-.092.32-.025l1.655 1.07.954-.957v-1.584h-3.714l-1.59 1.99v2.952zm-4.83 0h.763v-2.95l-1.585-1.992h-3.712v1.584l.963.956 1.65-1.07c.095-.066.227-.05.315.026l1.52 1.393c.054.05.084.116.084.19v1.863zm1.557-5.483l.84 1.664c.017.038.025.084.025.126v3.685h.75v-3.694c0-.04.012-.08.026-.117L83.423 94v-3.916l-1.243-1.25-1.253 1.25v3.92zm-2.873 8.032l1.423 1.165.64-.8v-1.183l-2.063.01v.808zm6.124.365l.635.8 1.427-1.165.005-.81h-2.067v1.174zm-3.288 1.907l1.192 1.53 1.276-1.55-.82-1.23v-1.83h-.735l-.01 1.843-.903 1.237zm-31.964 5.853l1.985 1.617.914-1.137v-1.647l-2.897-.004v1.17zm8.282.48l.907 1.137 1.98-1.618v-1.17l-2.887.002v1.647zm-4.512 2.563l1.676 2.15 1.794-2.172-1.126-1.7v-2.494l-1.106-.004-.003 2.546-1.233 1.677z" fill="#fff"/></svg>