<?xml version="1.0" encoding="utf-8"?><!DOCTYPE svg PUBLIC "-//W3C//DTD SVG 1.1//EN" "http://www.w3.org/Graphics/SVG/1.1/DTD/svg11.dtd"><svg xmlns="http://www.w3.org/2000/svg" width="23" height="23" viewBox="38.5 38.5 23 23" enable-background="new 38.5 38.5 23 23"><path fill="#fff" d="M51.5 43.1h-3.6c-.5 0-1 0-1.5.2-.6.1-1.1.4-1.6.8-.7.7-1.1 1.5-1.1 2.4 0 .7.3 1.4.8 1.9.5.6 1.2.9 2.2.9h.6c0 .1-.1.2-.1.3 0 .1-.1.2-.1.4 0 .3.1.5.2.7.1.2.2.4.4.6-.4 0-1 .1-1.6.2-.7.1-1.3.3-1.8.7-.5.3-.9.7-1.1 1.1-.2.4-.3.8-.3 1.1 0 .7.3 1.3 1 1.8.6.5 1.6.8 2.8.8 1.5 0 2.7-.4 3.5-1.1.8-.7 1.2-1.5 1.2-2.3 0-.6-.2-1.1-.4-1.5-.3-.4-.6-.7-1-1l-.6-.5-.3-.3c-.1-.1-.2-.3-.2-.5s0-.4.2-.5c.1-.1.2-.3.3-.4.2-.2.4-.3.5-.5.1-.2.3-.3.4-.5.3-.4.4-.9.4-1.6 0-.3 0-.7-.1-.9-.1-.3-.2-.5-.3-.7-.1-.2-.3-.4-.4-.5-.1-.1-.3-.2-.4-.3h1.1l.9-.8zm-2 9.9c.3.3.4.7.4 1.2 0 .6-.2 1-.7 1.4-.4.4-1.1.6-2 .6-1 0-1.7-.2-2.2-.6-.6-.4-.9-.9-.9-1.6 0-.3.1-.6.2-.8.1-.2.3-.4.4-.6.2-.1.4-.3.5-.3.2-.1.3-.1.4-.2.4-.1.8-.2 1.1-.3h1.1c.9.5 1.4.9 1.7 1.2zm-.6-5.3c0 .2-.1.5-.3.7-.3.3-.7.5-1.2.5-.4 0-.7-.1-1-.3-.3-.2-.5-.5-.7-.8-.4-.7-.6-1.4-.6-2.1 0-.5.1-1 .4-1.4.3-.4.7-.6 1.2-.6.4 0 .7.1 1 .3s.5.5.7.9c.4.7.5 1.4.5 2.2.1.1.1.3 0 .6zm8.3 1.1h-1.9v-1.9h-1.1v1.9h-1.9v1.1h1.9v1.9h1.1v-1.9h2l-.1-1.1z"/></svg>