<svg xmlns="http://www.w3.org/2000/svg" width="607" height="33" viewBox="0 0 607 33"><path fill="#fff" d="M142.4 26.1c-3.8 0-5.1-4.6-5.1-8.3 0-3.3 1.3-6.3 4.5-6.3 3.8 0 5.1 4 5.1 7.9 0 4.9-1.9 6.7-4.5 6.7zm-.3 1.1c3.9 0 7-3.6 7-8.3 0-7.1-4.6-8.5-7-8.5-4 0-7.1 4-7.1 8.8-.1 5.1 3 8 7.1 8zM48.8 14.5l-1-2.8s-.1 0 .6-2.2l1.5-4.3c.7-2.1 1.4-3.3 2.4-3.3 1.1 0 1.1-.7.3-.7h-4.2c-.6 0-.8.1-.8.4s.4.1.8.3c.6.4 1 1.7.6 2.9l-1.7 5.4-1.9-5.1c-.4-1-1-3.1 0-3.3.8 0 .8-.6.1-.6-1.1 0-1.7.1-2.6.1-1.1 0-1.9-.1-3.1-.1-.3 0-.6 0-.6.4 0 .3.6.1 1 .4 1.3.8 1.5 1.9 1.9 3.1l2.8 8.1c.6 1.5.6 1 .1 2.1l-2.5 6.8-6-17.4c-.6-1.3-.7-2.2.3-2.8.4-.3.6-.3.6-.4s.1-.4-.6-.4c-1.1 0-1.8.1-2.9.1H31c-.3 0-.4.1-.4.4 0 .4.8.1 1.7 1 .4.4 1.3 2.1 1.4 2.6l7.4 21.3c.1.3.1 1 .6 1 .3 0 .4-.7.6-1l3.9-10.7L50 26c.1.4.4 1.5.8 1.5.3 0 .4-.6.6-1L59 5.6c.6-1.7 1.3-3.5 2.5-3.6.4 0 .7-.3.7-.3 0-.3 0-.4-.6-.4-.8 0-1.3.1-2.1.1s-1.5-.1-2.2-.1-.7.2-.7.4c0 .3.8.1 1.3 1.1.3.6.1 1.7-.1 2.4l-6.3 17-2.7-7.7zm83.1-3.7c0-3.1 0-4-.4-4s-.4.1-.8 1.4c-.7 2.2-3.1 3.2-3.9 3.6-.2.1-.2.1-.2.2 0 .3 1 .1 2.9.3v10c0 4.3 2.1 5 3.6 5 2.4 0 3.9-1.7 4-2.2 0-.3 0-.3-.3-.3-.3.1-1.1 1-2.8 1-1.3 0-2.1-.8-2.1-2.5V12.6h4.2c.3 0 .8-1.8.8-1.8 0-.3.1-.4.1-.6 0-.3-.3-.4-.4 0-.1.1-.4.7-1.3.7l-3.4-.1zM153 15c0-.6 1.1-3.1 3.8-3.1 2.6 0 3.8 2.9 3.8 4.9V24c0 2.8-1 1.9-1.4 2.5-.3.3.1.4.6.4.4 0 1.1-.1 2.4-.1 1.5 0 2.2.1 2.6.1.3 0 1-.3.6-.6-.8-.7-2.4.3-2.4-2.5v-6.4c0-2.9-1-7.2-5.1-7.2-3.1 0-4.7 3.1-4.6 2.5v-2.2c0-.4-.1-.6-.4-.6-.7 0-1.3 1.3-3.8 2.1-.1 0-.6 0-.6.3 0 .8 2.5-1.1 2.5 2.1v9.5c0 2.5-1.7 1.8-2.1 2.5-.1.3.3.4.7.4.4 0 1-.1 2.8-.1 1.8 0 2.5.1 3.1.1.4 0 1-.3.7-.6-.6-.6-2.8 0-2.8-2.5L153 15zm-88.5 8c0 2.1-2.1 3.1-3.2 3.1-1.7 0-2.9-1.1-2.9-3.3 0-3.3 4-4 6.1-4.6V23zm-.3-5.8c-7.5 1.5-8.6 3.9-8.6 6.1 0 2.8 1.9 3.9 4 3.9 1.8 0 3.6-.8 4.9-2.2.4 1.3 1.3 2.1 2.5 1.9.4 0 .6.1 1.8-.4.4-.1.4-.1 1 0 1 .1-1.3-3.6-1.4-2.6 0 .3.1 1.9-.7 2.1-1.5.1-1.3-2.4-1.3-3.6v-8.1c0-2.5-1.9-4-4.7-4-3.9 0-6.5 4.7-5.3 6.1.3.3 1.5-1 1.7-1.1l.1-.1c0-1.5 1.3-3.6 2.9-3.9 2.1-.1 3.1 1.4 3.1 3.3v2.6zm8.7-7c-2.2 0-4.3 1.5-4.2 4.5 0 2.8 3.2 4.2 4.9 5.3 1.3.7 2.8 1.7 2.8 3.2 0 1.9-1.5 3.3-3.2 3.2-3.9 0-3.5-5-4.3-5-.4 0-.4 1.3-.4 1.8 0 1.5.6 2.2.6 2.9.4.1-.1.3.3.3.8 0 1.8.8 4 .8 2.5 0 4.7-2.4 4.7-5.1 0-1.8-.6-2.9-2.9-4.5-.6-.3-1.5-.8-2.1-1.1-2.1-1.1-2.8-1.8-3-2.8-.1-1.8 1.4-2.8 2.8-2.6 3.2 0 3.6 3.5 3.9 3.5.4 0 .3-.4.3-1.5 0-.3 0-1.5-.1-1.8-.4-.6-2.6-1-3.2-1h-.9v-.1zM82 3.1c0-.4-.1-.6-.4-.6-.6 0-1.2 1.5-3.6 2.1-.1 0-.7.1-.7.3 0 .8 2.5-.4 2.5 2.1v17.2c0 1.8-1.5 1.7-1.8 2.2 0 .3.1.4.3.4.6 0 1.9-.1 2.9-.1s2.6.1 3.3.1c.4 0 .6 0 .6-.6-.3-.7-2.8.3-2.8-2.9v-7.9c0-1.9 2.4-3.5 3.8-3.5 1.1 0 3.9 1 3.9 5.7v7c0 1.4-1.5 1.5-1.5 1.9 0 .3.1.4.6.4.4 0 1.4-.1 2.6-.1s2.2.1 2.8.1c.3 0 .6 0 .6-.4 0-.1 0-.4-.6-.3-1.1 0-2.1-.3-2.1-1.8v-6.5c0-3.3-1.3-7.6-5.4-7.6-1.8 0-3.3 1-4.6 2.4L82 3.1zm232.5.2c0-.4-.1-.6-.4-.6-.4 0-1.3 1.4-3.6 1.9-.1 0-.7.1-.7.3 0 .8 2.4-.4 2.4 2.1v17.4c0 1.8-1.5 1.5-1.8 2.1 0 .3.1.4.3.4.6 0 1.8-.1 2.8-.1s2.5.1 3.2.1c.4 0 .6 0 .6-.6-.3-.6-2.8.3-2.8-2.9v-7.7c0-1.9 2.2-3.3 3.6-3.3 1.1 0 3.8.8 3.8 5.4v6.8c0 1.4-1.4 1.5-1.5 1.9 0 .3.1.4.6.4.3 0 1.4-.1 2.5-.1 1.3 0 2.2.1 2.8.1.3 0 .6 0 .4-.4 0-.1 0-.4-.6-.3-1.1 0-1.9-.3-1.9-1.8v-6.3c0-3.2-1.3-7.2-5.1-7.2-1.8 0-3.3 1-4.4 2.4l-.2-10zm41.5 9.6V3.3c0-.4-.1-.6-.4-.6-.6 0-1.1 1.3-3.5 1.8-.1 0-.7.1-.7.3 0 .8 2.5-.4 2.5 2.1v17.4c0 1.8-1.5 1.7-1.8 2.2 0 .3.1.4.3.4.6 0 1.9-.1 2.9-.1s2.4.3 3.1.3c.4 0 .6 0 .6-.6-.3-.7-2.8.3-2.8-2.9v-8.1M96.4 5.2C96 5.2 95 6.7 95 7.1S96 9 96.4 9c.4 0 1.3-1.5 1.3-1.9-.1-.3-.9-1.9-1.3-1.9zm-1.2 18.2c0 2.4-1.3 2.5-1.8 2.5-1 0-.8.1-.8.4 0 .4.7.4 1.7.4.3 0 1.3-.1 2.2-.1 1.3 0 2.4.1 3.1.1.4 0 1-1 .1-.8-.6 0-2.1-.3-2.1-1.7V10.4c0-.4-.1-.6-.4-.6-.7 0-1.3 1.4-3.3 2.1-.1 0-.4 0-.4.3 0 .8 1.8-.7 1.8 2.1v9.1h-.1zm8.9-8.4c0-.6 1.1-3.1 3.8-3.1 2.6 0 3.8 2.9 3.8 4.9V24c0 2.5-1 1.9-1.4 2.5-.3.3.1.4.6.4.4 0 1.1-.1 2.4-.1 1.5 0 2.4.1 2.8.1.3 0 1-.3.6-.6-.8-.7-2.5 0-2.5-2.5v-6.4c0-2.9-1-7.2-5.1-7.2-3.1 0-4.7 3.1-4.6 2.5v-2.2c0-.4-.1-.6-.4-.6-.7 0-1 1.3-3.6 1.9-.1 0-.6.1-.6.4 0 .8 2.1-1 2.1 2.1v9.5c0 2.1-1.5 2.1-1.9 2.1-.3 0-.7 0-1.4-.1-.8-.1-.1.6-.3.7-.3.3 1.8.3 2.2.3s1-.1 2.8-.1c1.8 0 2.5.1 3.1.1.4 0 1-.3.7-.6-.6-.6-2.8 0-2.8-2.5V15h-.3zm13.5 15c-1-1.5-.1-4.2 1.3-4.3.3 0 .3.1 3.3.3 3.1 0 4.2 1 4.3 1.8.3 1.4-.7 4.4-5 4.2-2.7-.4-3.5-1.7-3.9-2zm7.3-14.3c0 2.5-1.1 4.3-3.5 4.3-2.5 0-3.5-2.5-3.5-4.9 0-2.5.7-4.5 3.3-4.5 2.7 0 3.7 2.8 3.7 5.1zm-7.5 9.7c-1.1.4-2.4 1.8-2.5 3.2-.1 3.1 3.6 4.3 6.8 4.2 6.4 0 8.2-4.6 6.8-6.8-1.4-2.5-4.3-2.4-7-2.4-5.1 0-4.2-3.2-2.1-3.1.6 0 .3.1 1.9.1 3.1 0 5.8-2.1 5.8-5.4 0-.3 0-1.3-.7-2.6h4.3c.1 0-.1-3.6-1.5-2.2-.3.1-1.7 1.3-3.3 1-1-.3-1.9-1.3-4.7-1.3-2.9 0-5.4 2.5-5.4 5.7 0 1.8.8 3.5 2.1 4.3-.3.1-1.8 1.5-1.7 3.2-.2-.1-.2 1.5 1.2 2.1zm114.1-8.1c.7 0 1.1 0 1.1-.7 0-1.5-1.8-6.1-5.7-6.1-4 0-6.3 4.2-6.3 9 0 2.5 1.7 7.9 6.5 7.9 2.9 0 5.7-2.8 5.7-3.6 0-.1 0-.3-.1-.3-.7 0-1.8 1.9-4.6 1.9-1.9 0-5.1-1.8-5.1-8.2h8.5v.1zm-8.5-1c0-2.1 1.4-4.9 3.3-4.9 1.8 0 3.6 1.9 3.6 4 0 .6-.1.8-.6.8H223v.1zm200.2 1.3c.7 0 1.1 0 1.1-.6 0-1.5-1.7-6-5.6-6-3.9 0-6.1 4-6.1 8.8 0 2.5 1.7 7.6 6.3 7.6 2.8 0 5.6-2.8 5.6-3.6 0-.1 0-.3-.1-.3-.7 0-1.7 1.9-4.4 1.9-1.9 0-5-1.8-5-8.1l8.2.3zm-8.4-1c0-2.1 1.4-4.7 3.3-4.7 1.7 0 3.5 1.8 3.5 3.9 0 .6-.1.7-.6.7h-6.3l.1.1zm78 1c.7 0 1.1 0 1.1-.6 0-1.5-1.7-6-5.6-6s-6.1 4-6.1 8.8c0 2.5 1.7 7.6 6.3 7.6 2.8 0 5.6-2.8 5.6-3.6 0-.1 0-.3-.1-.3-.7 0-1.7 1.9-4.5 1.9-1.9 0-5-1.8-5-8.1l8.3.3zm-8.3-1c0-2.1 1.4-4.7 3.3-4.7 1.7 0 3.5 1.8 3.5 3.9 0 .6-.1.7-.6.7h-6.2v.1zm-237.6-6c-2.2 0-4.3 1.4-4.2 4.3 0 2.6 3.2 4.2 4.9 5.1 1.3.7 2.8 1.4 2.8 3.1 0 1.9-1.5 3.2-3.2 3.1-3.8 0-3.3-4.9-3.9-4.9-.4 0-.4 1.3-.4 1.8 0 1.5 0 2.8.1 3.1h.6c.7 0 1.7.8 3.9.8 2.5 0 4.6-2.2 4.6-5 0-1.8-.6-2.8-2.9-4.3-.6-.3-1.5-.8-1.9-1.1-1.9-1.1-2.8-1.8-2.8-2.8-.1-1.8 1.4-2.6 2.6-2.5 3.1 0 3.5 3.3 3.8 3.3.4 0 .3-.4.3-1.5 0-.3 0-1.5-.1-1.8-.4-.6-2.5-1-3.1-1h-.7l-.4.3zm8.6-5.7c-.4 0-1.4 1.7-1.4 2.1 0 .4 1 1.9 1.4 1.9.4 0 1.4-1.5 1.4-1.9 0-.5-.9-2.1-1.4-2.1zm-1 18.7c0 3.5-1.5 2.1-1.8 3.1-.1.4.6.4.8.4.2 0 1.3-.1 2.2-.1 1.3 0 2.4.1 3.1.1.4 0 .7-.1.6-.4-.3-.7-2.5-.1-2.5-2.1v-14c0-.4-.1-.6-.4-.6-.7 0-1.3 1.4-3.3 2.1-.1 0-.6 0-.6.3 0 .8 1.8-.8 1.8 2.1v9h.1v.1zM172 7.3c0-2.5 1.8-1.8 1.8-2.5 0-.6-1.5-.3-1.7-.3-.8 0-1.4.1-2.2.1-.7 0-1.5-.1-2.2-.1-.1 0-.6 0-.7.1-.3.7 2.2.3 2.2 2.4v10.4c0 5.1 1.3 10.2 8.2 10 8.2-.1 8.1-8.2 8.1-9.9V8.1c0-3.1 1.4-2.8 1.7-3.3.1-.3-.3-.3-.4-.3-.4 0-1.5.1-2.1.1-1 0-1.8-.1-2.9-.1 0 0-.6 0-.6.3 0 .8 2.5-.1 2.5 3.3v10c0 3.9-1.1 8.1-6.1 8.1-3.6 0-5.4-2.5-5.4-7.8L172 7.3zm91.2 4.2c0-2.8 0-3.6-.4-3.6s-.3.1-.7 1.4c-.6 2-2.9 3-3.6 3.4-.1.1-.1.1-.1.3 0 .3.8.1 2.6.3v9.4c0 4 1.9 4.7 3.5 4.7 2.2 0 3.8-1.5 3.9-2.1 0-.3 0-.3-.3-.3-.3.1-1 1-2.6 1-1.3 0-1.9-.7-2.1-2.4V13.1h3.9c.3 0 .8-1.5.8-1.5 0-.3-.1-.1-1.5-.1h-3.4zM191 15.1c0-.6 1.1-2.9 3.8-2.9 2.5 0 3.6 2.8 3.6 4.7V24c0 2.5-1 1.9-1.4 2.5-.3.3.1.4.6.4.4 0 1.1-.1 2.2-.1 1.4 0 2.4.1 2.8.1.3 0 1.7-1.4 1.3-1.4-.1 0-.6.7-1.4.7h-.5c-.7-.1-1.3-.6-1.3-2.2v-6.4c0-2.9-1-7.1-5.1-7.1-3.1 0-4.6 2.8-4.6 2.4v-2.1c0-.4-.1-.6-.4-.6-.7 0-1 1.5-3.5 1.9-.1 0-.6 0-.6.3 0 .8 2.1-.7 2.2 2.1V24c0 2.5-1.9 1.8-2.2 2.5-.1.3.6.4 1 .4s1-.1 2.6-.1c1.8 0 2.5.1 3.1.1.4 0 1-.3.7-.6-.6-.6-2.8 0-2.8-2.5v-8.7h-.1zm21.2-.4c-.4-1.1-.6-1.8-.6-1.8 0-1.1 1.4-1 1.8-1.4.3-.3-.3-.4-.7-.4s-.8.1-2.1.1h-2.1c-1.1-.1-1 .4-.6.6.4.1.6 0 1.1 1.7l4.9 13.4c.1.3.3 1 .6 1 .4 0 .4-.4 1.1-2.1 0 0 4.6-12.5 4.9-13.1.6-1 1.1-.6 1.4-.8.3-.3.3-.6-.7-.6-.6 0-1 .1-1.5.1h-1.5c-.8 0-1.1 0-1 .3.1.7 1.9 0 1.7 2.1-.3 1.8-.8 3.3-1.4 4.9l-2.1 5.6-3.2-9.6zm24.7.5c0-.6.7-2.2 2.1-2.2 1.1 0 1.3.8 1.8.8.4 0 1.1-1.1 1.1-1.7 0-.7-1.4-1.7-2.1-1.7-1.3 0-2.2 1.5-2.9 2.6v-2.4c0-.4-.1-.6-.4-.6-.6 0-1 1-3.6 1.7-.1 0-.6.1-.6.3 0 .8 2.2-.3 2.2 2.4v9.9c0 1.5-1.5 1.4-1.5 2.1 0 .3.1.3.3.3.1 0 .8-.1 2.9-.1 1.8 0 2.5.1 2.9.1.3 0 .6 0 .6-.4 0-1.3-2.8.6-2.8-2.9v-8.2zM205.2 4.8c-.4 0-1.4 1.7-1.4 2.1 0 .4 1 1.9 1.4 1.9s1.4-1.5 1.4-1.9c0-.4-1-2.1-1.4-2.1zm-1.1 18.6c0 2.5-1.1 2.6-1.5 2.6s-1.1-.3-1.1.1-.3.6 1.4.6c.7 0 1.5-.1 2.6-.1 1.3 0 2.4.1 3.1.1.4 0 .7-.1.6-.4-.3-.7-2.5-.1-2.5-2.1V10.4c0-.4-.1-.6-.4-.6-.7 0-1.3 1.4-3.3 2.1-.1 0-.4 0-.4.3 0 .8 1.8-.8 1.8 2.1v9.2l-.3-.1zm69.1 4.1l4.5-13.4c.6-2.4 1.7-1.8 1.8-2.2.1-.1 0-.4-.4-.4h-1.8c-1 0-1.4-.1-1.7-.1-.6 0-1.1 0-1 .4s2.1.3 2.1 2.4c0 .3 0 .6-.4 1.9l-2.5 7.8-3.8-9.5s-.1-.3-.1-1c0-1.5 1.8-1.4 1.9-1.7 0-.3-.3-.4-.7-.4h-4.7c-.4 0-.6 0-.6.4 0 .6 1.3.6 1.5 1.4l3.6 9.9c.3.8.4 1.1.8 2.5.3 1 .1 1.8.1 1.8-.3 1.5-1.3 2.4-2.6 5.1-.1.3 2.1 0 2.1 0 .1 0 .1-.1.3-.6l1.7-4.9-.1.6zM532.5 4.9h-.6c-3.1 0-5.8 1.8-5.8 6 0 3.6 4.5 5.8 6.8 7.2 1.8 1 3.6 2.5 3.5 4.3-.1 2.8-1.8 4.5-4.2 4.3-5.3-.1-4.6-6.7-5.6-6.7-.7 0-.6 1.7-.6 2.5 0 2.1-.1 3.9.1 4.2 0 .1.3 0 .8 0 1 0 2.4 1.1 5.4 1.1 3.3 0 6.3-2.9 6.3-6.8 0-2.5-.7-3.9-4-6-.8-.4-2.1-1.1-2.8-1.5-2.8-1.5-3.8-2.5-4-3.9-.1-2.5 2.4-3.9 4.2-3.6 2.2 0 4.2 1.3 4.9 4 0 .3.3 1 .6 1s.3-.3.3-.6l-.4-4.5c0-.3-.1-.4-.3-.4-.3 0-.4.3-.6.3 0 .3-1-.9-4-.9zm-242 0h-.5c-3.1 0-5.8 1.8-5.8 6 0 3.6 4.5 5.8 6.8 7.2 1.8 1 3.6 2.5 3.5 4.3-.1 2.8-1.8 4.5-4.2 4.3-5.3-.1-4.6-6.7-5.6-6.7-.7 0-.6 1.7-.6 2.5 0 2.1-.1 3.9.1 4.2 0 .1.3 0 .8 0 1 0 2.4 1.1 5.4 1.1 3.3 0 6.3-2.9 6.3-6.8 0-2.5-.7-3.9-4-6-.8-.4-2.1-1.1-2.8-1.5-2.9-1.5-3.9-2.5-4-3.9-.1-2.5 2.4-3.9 4.2-3.6 2.2 0 4.2 1.3 4.9 4 0 .3.3 1 .6 1s.3-.3.3-.6l-.4-4.3c0-.3-.1-.4-.3-.4-.3 0-.4.3-.6.3-.1.1-1.1-1.1-4.1-1.1zm252 7.1c0-2.8 0-3.6-.4-3.6s-.3.1-.7 1.4c-.6 2.1-2.9 3.1-3.6 3.5-.1.1-.1.1-.1.3 0 .3.8.1 2.6.3v9.5c0 4 1.9 4.7 3.3 4.7 2.1 0 3.8-1.5 3.9-2.1 0-.3 0-.3-.3-.3-.3.1-1 1-2.6 1-1.3 0-1.9-.7-2.1-2.4V13.8h3.9c.3 0 .8-1.7.8-1.8 0-.3 0-.4.1-.6 0-.3-.1-.3-.3 0-.1.1-.4.6-1.3.6h-3.2zm15-3.7c0-3.3 2.2-2.4 2.4-2.9 0-.4-.3-.3-.7-.3-.4 0-1.3.1-2.9.1-1.4 0-2.6-.1-3.3-.1-.4 0-.7.1-.6.4.3.7 2.5 0 2.5 2.1v15.1c0 1.8.3 2.9-.6 3.3-1 .6-1.9.6-1.9 1 0 .3.6.3.8.3 1.1 0 2.8-.1 3.9-.1 2.2 0 4.4.1 6.7.1 1.3 0 1.5-.3 2.5-1.7.7-1 .7-1.1.7-2.4 0 0 0-.4-.3-.4-.4 0-.3 3.1-7 3.1-2.5 0-2.2-1-2.2-3.2V8.3zm-8 15.3c-.4 0-1.4 1.5-1.4 2.1 0 .4 1 1.9 1.4 1.9.4 0 1.4-1.5 1.4-1.9-.1-.5-1.1-2.1-1.4-2.1zm52.2-12.4c-2.1 0-4.2 1.3-4 4.2 0 2.6 3.1 4 4.7 5.1 1.2.7 2.6 1.4 2.6 3.1 0 1.9-1.5 3.2-3.1 3.1-3.8 0-3.2-4.7-3.9-4.7-.4 0-.3 1.3-.4 1.8 0 1.5 0 2.8.1 2.9h.6c.7 0 1.7.8 3.8.8 2.4 0 4.6-2.2 4.6-4.9 0-1.7-.6-2.8-2.8-4.2-.6-.3-1.5-.8-1.9-1-1.9-1.1-2.6-1.8-2.8-2.8-.1-1.7 1.4-2.6 2.6-2.5 3.1 0 3.3 3.3 3.8 3.3.4 0 .3-.4.3-1.4 0-.3 0-1.5-.1-1.8-.3-.6-2.5-.8-3.1-.8h-.7c-.2-.2-.4-.2-.3-.2zm-8-5.3c-.3 0-1.3 1.5-1.3 1.9s1 1.9 1.3 1.9c.4 0 1.3-1.5 1.3-1.9s-.8-1.9-1.3-1.9zm-1.2 18c0 3.3-1.5 2.1-1.7 2.9-.1.3.6.4.8.4.2 0 1.1-.3 2.1-.3 1.3 0 1.5.3 2.2.3.4 0 .7-.1.6-.4-.3-.7-1.8-.1-1.8-1.9V11.5c0-.4-.1-.6-.4-.6-.7 0-1.3 1.3-3.1 1.9-.1 0-.4 0-.4.3 0 .8 1.5-1 1.7 2.1v8.7zm-129.8-18c-.3 0-1.3 1.5-1.3 1.9s1 1.9 1.3 1.9c.4 0 1.3-1.5 1.3-1.9s-1-1.9-1.3-1.9zm-1.2 18c0 3.3-1.5 2.1-1.7 2.9-.1.3.6.4.8.4.3 0 1.1-.3 2.1-.3 1.3 0 1.5.3 2.2.3.4 0 .7-.1.6-.4-.3-.7-1.8-.1-1.8-1.9V11.5c0-.4-.1-.6-.4-.6-.7 0-1.3 1.3-3.1 1.9-.1 0-.4 0-.4.3 0 .8 1.5-1 1.7 2.1v8.7zM444 5.9c-.3 0-1.2 1.5-1.2 1.9s1 1.9 1.2 1.9c.4 0 1.3-1.5 1.3-1.9-.1-.4-.8-1.9-1.3-1.9zm-1 18c0 3.3-1.5 2.1-1.7 2.9-.1.3.6.4.8.4.3 0 1.1-.3 2.1-.3 1.3 0 1.5.3 2.2.3.4 0 .7-.1.6-.4-.3-.7-1.8-.1-1.8-1.9V11.5c0-.4-.1-.6-.4-.6-.7 0-1.3 1.3-3.1 1.9-.1 0-.4 0-.4.3 0 .8 1.5-1 1.7 2.1v8.7zm143.8-1.3c-.1 1.5-1.5 3.3-3.3 3.3-.4 0-2.9-.3-2.9-4.3v-9.4c0-.7-.4-1-.6-1-.6 0-.7.1-1.1.1-.3.1-.7.3-1.7.3-.4 0-1 0-.8.3 0 .4 1.9 0 1.9 1.4v8.8c0 3.2 1.9 5 4.5 5 1.5 0 3.1-.3 4-2.1v1.5c0 .1 0 .6.3.6.4 0 .7-.3 1-.4.3 0 .4-.4 1.5-.6.4 0 1-.3 1-.6-.1-.6-1.8 0-1.8-1V12.2c0-.7-.4-1-.6-1-.6 0-.7.1-1.1.1-.3.1-.7.3-1.5.3-.1 0-1-.1-1 .3s1.9.1 1.9 1.4v9.3h.3zm-16 3.9c-3.3 0-4.7-4.7-4.7-8.3 0-3.2 1.1-6.1 3.9-6.1 3.3 0 4.6 4 4.6 7.9.2 4.6-1.3 6.5-3.8 6.5zm-.3.8c3.5 0 6.4-3.6 6.4-8.2 0-7-4.3-8.2-6.4-8.2-3.6 0-6.5 3.9-6.5 8.5 0 5.2 2.8 7.9 6.5 7.9zm-238-.8c-3.3 0-4.7-4.7-4.7-8.3 0-3.2 1.1-6.1 3.9-6.1 3.3 0 4.6 4 4.6 7.9-.1 4.6-1.5 6.5-3.8 6.5zm-.3.8c3.5 0 6.4-3.6 6.4-8.2 0-7-4.3-8.2-6.4-8.2-3.6 0-6.5 3.9-6.5 8.5-.2 5.2 2.8 7.9 6.5 7.9zm14-.8c-3.3 0-4.7-4.7-4.7-8.3 0-3.2 1.1-6.1 3.9-6.1 3.3 0 4.6 4 4.6 7.9.2 4.6-1.2 6.5-3.8 6.5zm-.2.8c3.5 0 6.4-3.6 6.4-8.2 0-7-4.3-8.2-6.4-8.2-3.6 0-6.5 3.9-6.5 8.5 0 5.2 2.7 7.9 6.5 7.9zm23.8-.8c-3.3 0-4.7-4.7-4.7-8.3 0-3.2 1.1-6.1 3.9-6.1 3.3 0 4.6 4 4.6 7.9-.1 4.6-1.4 6.5-3.8 6.5zm-.5.8c3.5 0 6.4-3.6 6.4-8.2 0-7-4.3-8.2-6.4-8.2-3.6 0-6.5 3.9-6.5 8.5 0 5.2 3 7.9 6.5 7.9zm140.5-11.8c0-.6 1.1-2.9 3.6-2.9s3.6 2.8 3.6 4.7v7c0 2.5-1 1.8-1.4 2.5-.3.3.1.4.6.4.4 0 1.1-.1 2.2-.1 1.5 0 2.4.1 2.8.1.3 0 1-.3.6-.6-.8-.6-2.5 0-2.5-2.5v-6.3c0-2.8-1-7-5.1-7-3.1 0-4.6 2.8-4.6 2.4v-2c0-.4-.1-.6-.4-.6-.7 0-1.3 1.3-3.6 1.9-.1 0-.6 0-.6.3 0 .8 2.4-.6 2.5 2.1v9.3c0 1.7-.8 2.1-2.4 2.1-.3.1.1.1 0 .4-.1.3.6.4 1 .4s1-.1 2.6-.1c1.8 0 2.4.1 2.9.1.4 0 1-.3.7-.6-.6-.6-2.8 0-2.8-2.5l.3-8.5zm-38.8 0c0-.6 1.1-2.9 3.6-2.9s3.6 2.8 3.6 4.7v7c0 2.5-1 1.8-1.4 2.5-.3.3.1.4.6.4.4 0 1.1-.1 2.2-.1 1.5 0 2.4.1 2.8.1.3 0 1-.3.6-.6-.8-.6-2.4 0-2.4-2.5v-6.3c0-2.8-1-7-5.1-7-3.1 0-4.6 2.8-4.6 2.4v-2c0-.4-.1-.6-.4-.6-.7 0-1.3 1.3-3.6 1.9-.1 0-.6 0-.6.3 0 .8 2.4-.6 2.5 2.1v9.3c0 1.7-.7 2.1-2.1 2.2-.3.1-.4.3-.3.4.1.3.8.3 1.3.3.4 0 1-.1 2.6-.1 1.8 0 2.5.1 2.9.1s1-.3.7-.6c-.6-.6-2.8 0-2.8-2.5l-.1-8.5zm31-10.4c-.4 0-1.3 1.5-1.3 2.1 0 .4 1 1.9 1.3 1.9.4 0 1.3-1.5 1.3-1.9-.1-.4-.8-2.1-1.3-2.1zm-1 18.5c0 3.5-1.5 2.1-1.8 3.1-.1.4.6.4.8.4.3 0 1.3-.1 2.2-.1 1.2 0 2.2.3 2.9.3 2.5-.1.7-.3.6-.6 0-.3 1.3-.7-.1-.3-1.5-.1-2.4-.4-2.4-1.8V11.1c0-.4-.1-.6-.4-.6-.7 0-1.3 1.4-3.2 2.1-.1 0-.6 0-.6.3 0 .8 1.8-.8 1.8 2.1l.2 8.6zm-202.5-4.3c0-4.6 2.9-8.5 7.1-8.5 1.7 0 3.9.6 3.9 1.4v2.2s-.1.8-.3.8c-.3 0-.7-.7-.8-.8-1.1-1.7-2.5-2.2-4-2.2-2.8 0-3.6 3.3-3.6 6 0 4 1.8 7.4 5.6 7.4 2.5 0 4-2.1 4.5-2.1.1 0 .3.1.3.3 0 .6-1.9 3.8-6.4 3.8-3.9-.4-6.3-4.2-6.3-8.3zm79.3-8.4c0-2.4.6-3.6 1-4.5 1-1.7 2.2-3.1 5.1-3.1.6 0 1.5.1 1.5.8 0 .7-.1 2.4-.6 2.4-.6 0-.1-1.5-2.5-1.5-1.4 0-2.2 1.1-2.4 2.9-.1 1.1 0 1.3 0 3.2h2.8c1 0 1.4-.8 1.5-.8.1 0 .3.4.3.6 0 .1-.1.3-.3.6l-.6 1.4H380v11.8c0 2.4 2.6 1.5 2.6 2.4 0 .4-.6.3-.8.3 0 0-1.4-.3-2.5-.3s-2.8.3-2.8.3c-.1 0-.6 0-.6-.3 0-.8 1.8-.3 1.8-2.1V12.5h-2.5l.3-1.5 2.3-.1zM411 24c.1 2.6 2.4 1.5 2.4 2.6 0 .3-.4.3-.7.3-.6 0-1.5-.1-2.8-.1-1 0-1.8.1-2.6.1-.3 0-.3-.1-.3-.3 0-1 1.8-.3 1.8-2.6l-.3-12.2c0-.8-.1-1.3-.3-1.3-.3 0-.4.3-.8 1l-6.1 13.4c-.1.3-.6 1.5-1 1.5-.3 0-.6-.7-.6-1l-6.3-14c-.1-.3-.3-.3-.3-.3-.1 0-.1.1-.3.4l-.2 11.1c-.1 4.2 2.6 2.8 2.6 3.9 0 .3-.3.3-.7.3-.4 0-1.7-.1-2.6-.1-1.5 0-2.1.1-2.5.1-.3 0-.3-.1-.3-.4 0-1.1 1.8.3 2.1-3.1.3-5.1.7-8.5.7-11.8 0-7.4-2.8-5.7-2.8-6.7 0-.3.3-.3.6-.3.6 0 1.1.1 1.7.1.6 0 1.1-.1 1.5-.1.4 0 .4.6.6 1l7 16c.3.7.4 1 .6 1s.4-.7 1-1.7l7-15.2c.1-.3.4-1.1.8-1.1.3 0 1.2.1 1.4.1.7 0 1-.1 1.4-.1.1 0 .3.1.3.4 0 1-2.4-.3-2.2 3.3L411 24zm25.2-17c0-2.2-2.8-1.3-2.8-2.1 0-.3.1-.4.3-.4 2.6-.7 3.5-2.1 4.3-2.1.3 0 .4.3.4.6v22.1c0 .4.7.7 1.8 1 .3 0 .4 0 .4.3s-1 .6-2.1.6c-1 0-1.7.4-1.9.4-.3 0-.4-.3-.4-.6v-2.1c-1.1 1.5-3.1 2.6-5 2.6-3.8 0-6.1-3.8-6.1-7.6 0-4.4 2.8-8.8 7.1-8.8 1.4 0 2.8.4 3.9 1.3l.1-5.2zm0 9.3c0-2.8-2.1-4.3-4.6-4.3-3.2 0-4.6 3.3-4.6 6.4 0 3.1 2.1 7.5 5.3 7.5 2.8 0 3.9-1.9 3.9-3.2v-6.4zm11 3.2c0-4.6 2.9-8.5 7.1-8.5 1.7 0 3.9.6 3.9 1.4v2.3c0 .6-.1.8-.3.8-.3 0-.7-.7-.8-.8-1.1-1.7-2.5-2.2-4-2.2-2.8 0-3.6 3.3-3.6 6 0 4 1.8 7.4 5.6 7.4 2.5 0 4-2.1 4.5-2.1.1 0 .3.1.3.3 0 .6-1.9 3.8-6.4 3.8-3.7-.4-6.3-4.2-6.3-8.4zm-420 3.2c0 4.4-5.6 5.5-8.3 6.6-1.7.7-3.4 1.3-5.1 1.9-1.9-.7-4.2-1.5-6-2.1C-.1 26.2.4 24.8.3 22.8V.1c8.9 2.2 18.5 2.2 26.8 0v22.6h.1z"/><path fill="#007360" d="M26 22.1V1.7c-7.5 2-16.2 2-24.2 0v20.5c0 1.8-.4 3 6.7 5.7 1.6.6 3.7 1.3 5.4 1.9 1.5-.6 3.1-1.1 4.6-1.7 2.4-1 7.5-2 7.5-6z"/><path fill="#9D0917" d="M2.8 7.8H25v13.1H2.8V7.8z"/><path fill="#E6D1B9" d="M18.5 17.2h-4l-.7.7-.6-.7h-4v-6.5h4l.6.7.6-.7h4.1v6.5zm1.7 1.8h-5.4l-1 .9-1-.9H7.5v-7l.9-.7V18h4.7l.8.8.8-.8h4.6v-6.7l.9.8V19zm4.8-3.3l-3.7.8v-3.7c1.2-.2 2.2-.5 3.7-.8v3.7zm-18.4.8c-1.3-.1-2.2-.3-3.9-.7V12c1.5.4 2.7.5 3.9.8v3.7zM25 22.6c-.3 2.5-3.3 3.3-4.2 3.7-2.3.9-4.6 1.6-6.8 2.5C5.1 25.5 3 25 2.9 22.5v-2.8c6.9 1.5 14.7 1.7 22.1.1v2.8zm-.1-14.4c-7 1.6-15.1 1.9-22.1 0V3.1c6.7 1.5 15.4 1.7 22.1 0v5.1z"/><path fill="#007360" d="M24 5.6h-1.7L21.9 4l-.6 1.6h-1.6l1.3.9-.4 1.6 1.3-1 1.4 1-.5-1.6 1.2-.9zm-16.1 0H6.4L5.8 4l-.6 1.6H3.6l1.4.9-.5 1.6 1.3-1 1.4 1-.6-1.6 1.3-.9zm8 .6h-1.6l-.5-1.5-.5 1.5h-1.6l1.3 1-.5 1.6 1.3-.9 1.4.9-.6-1.5 1.3-1.1zm-1.3 17.3v-1.7l-.6-.6-.6.6v1.7l.3.9v1.4h.5v-1.4l.4-.9zm2.4.9v-.8h-1.7l-.7.8v1.4h.5v-.9l.6-.5.8.4.5-.4zm-6 0v-.8h1.6l.7.8v1.4h-.5v-.9l-.6-.5-.8.4-.4-.4zm2.4 2.5v-.6h-1v.4l.7.6.3-.4zm1.2 0v-.6h1v.4l-.6.6-.4-.4zm0 .7l-.4-.6v-.7h-.5v.7l-.4.6.6.8.7-.8zm7-5.3v-1.1l-.4-.4-.5.4v1.1l.3.6v1h.3v-1l.3-.6zm1.6.6v-.5h-1.1l-.5.5v.9h.4v-.5l.5-.4.5.3.2-.3zm-4.1 0v-.5h1.1l.5.5v.9h-.3v-.5l-.4-.4-.5.3-.4-.3zm1.7 1.7v-.4H20v.3l.5.4.3-.3zm.8 0v-.4h.7v.3l-.5.4-.2-.3zm0 .5l-.3-.4v-.5H21v.5l-.3.4.4.5.5-.5zM7 22.4v-1.2l-.4-.4-.4.4v1.2l.3.6v.9h.3V23l.2-.6zm1.6.6v-.6H7.5L7 23v.9h.3v-.6l.5-.3.5.3.3-.3zm-4.1 0v-.6h1.1l.5.6v.9h-.3v-.6l-.4-.3-.5.3-.4-.3zm1.6 1.7v-.5h-.6v.4l.5.4.1-.3zm.9 0v-.5h.7v.4l-.5.4-.2-.3zm0 .5l-.2-.5v-.5h-.3v.5l-.3.5.4.5.4-.5z"/></svg>