<?xml version="1.0" encoding="utf-8"?>
<!-- Generator: Adobe Illustrator 21.1.0, SVG Export Plug-In . SVG Version: 6.00 Build 0)  -->
<svg version="1.1" id="Logo" xmlns="http://www.w3.org/2000/svg" xmlns:xlink="http://www.w3.org/1999/xlink" x="0px" y="0px"
	 viewBox="0 0 503.8 503.8" style="enable-background:new 0 0 503.8 503.8;" xml:space="preserve">
<style type="text/css">
	.st0{fill:#FFFFFF;}
</style>
<title>ig-white</title>
<path class="st0" d="M251.9,112.2c45.5,0,50.9,0.2,68.9,1c16.6,0.8,25.6,3.5,31.7,5.9c7.4,2.7,14.1,7.1,19.6,12.8
	c5.7,5.5,10,12.2,12.8,19.6c2.3,6,5.1,15,5.9,31.7c0.8,18,1,23.4,1,68.9s-0.2,50.9-1,68.9c-0.8,16.6-3.5,25.6-5.9,31.7
	c-5.7,14.9-17.5,26.6-32.4,32.4c-6,2.3-15,5.1-31.7,5.9c-18,0.8-23.4,1-68.9,1s-50.9-0.2-68.9-1c-16.6-0.8-25.6-3.5-31.7-5.9
	c-7.4-2.7-14.1-7.1-19.6-12.8c-5.7-5.5-10-12.2-12.8-19.6c-2.3-6-5.1-15-5.9-31.7c-0.8-18-1-23.4-1-68.9s0.2-50.9,1-68.9
	c0.8-16.6,3.5-25.6,5.9-31.7c2.7-7.4,7.1-14.1,12.8-19.6c5.5-5.7,12.2-10,19.6-12.8c6-2.3,15-5.1,31.7-5.9
	C201,112.3,206.4,112.1,251.9,112.2 M251.9,81.4c-46.3,0-52.1,0.2-70.3,1s-30.6,3.7-41.4,7.9c-11.4,4.3-21.7,11-30.2,19.7
	c-8.7,8.5-15.4,18.8-19.7,30.2c-4.2,10.8-7.1,23.2-7.9,41.4s-1,24-1,70.3s0.2,52.1,1,70.3s3.7,30.5,7.9,41.4
	c4.3,11.4,11,21.7,19.7,30.2c8.5,8.7,18.8,15.4,30.2,19.7c10.8,4.2,23.2,7.1,41.4,7.9s24,1,70.3,1s52.1-0.2,70.3-1
	s30.5-3.7,41.4-7.9c22.9-8.9,41-27,49.9-49.9c4.2-10.8,7.1-23.2,7.9-41.4c0.8-18.1,1-24,1-70.3s-0.2-52.1-1-70.3
	c-0.8-18.2-3.7-30.5-7.9-41.4c-4.3-11.4-11-21.7-19.7-30.2c-8.5-8.7-18.8-15.4-30.2-19.7c-10.8-4.2-23.2-7.1-41.4-7.9
	C304.1,81.6,298.2,81.4,251.9,81.4L251.9,81.4z"/>
<path class="st0" d="M251.9,164.4c-48.4,0-87.5,39.2-87.5,87.5s39.2,87.5,87.5,87.5s87.5-39.2,87.5-87.5l0,0
	C339.5,203.6,300.3,164.4,251.9,164.4z M251.9,308.8c-31.4,0-56.8-25.5-56.8-56.8s25.5-56.8,56.8-56.8s56.8,25.5,56.8,56.8
	S283.3,308.8,251.9,308.8L251.9,308.8z"/>
<circle class="st0" cx="342.9" cy="160.9" r="20.5"/>
</svg>
