<?xml version="1.0" encoding="utf-8"?><!DOCTYPE svg PUBLIC "-//W3C//DTD SVG 1.1//EN" "http://www.w3.org/Graphics/SVG/1.1/DTD/svg11.dtd"><svg xmlns="http://www.w3.org/2000/svg" width="23" height="23" viewBox="0 0 23 23"><g fill="#fff"><path d="M3.9 8.9h3.2v10.4H3.9V8.9zm1.7-5.2c1 0 1.9.8 1.9 1.9 0 1-.8 1.9-1.9 1.9-1 0-1.9-.8-1.9-1.9 0-1.1.8-1.9 1.9-1.9"/><path d="M9.2 8.9h3.1v1.4c.4-.8 1.5-1.7 3.1-1.7 3.3 0 3.9 2.2 3.9 5v5.7h-3.2v-5.1c0-1.2 0-2.8-1.7-2.8s-1.9 1.3-1.9 2.7v5.2H9.2V8.9z"/></g></svg>