<?xml version="1.0" encoding="utf-8"?>
2016.04.20.0
<!DOCTYPE svg PUBLIC "-//W3C//DTD SVG 1.1//EN" "http://www.w3.org/Graphics/SVG/1.1/DTD/svg11.dtd">
<svg version="1.1" id="Layer_1" xmlns="http://www.w3.org/2000/svg" xmlns:xlink="http://www.w3.org/1999/xlink" x="0px" y="0px"
	 width="27px" height="34.167px" viewBox="-1.506 -4 27 34.167" enable-background="new -1.506 -4 27 34.167" xml:space="preserve">
<g>
	<path fill="#FFFFFF" d="M0.753-4h22.481c1.242,0,2.26,0.9,2.26,2s-1.018,2-2.26,2H0.753C-0.49,0-1.506-0.9-1.506-2
		S-0.489-4,0.753-4z"/>
</g>
<g>
	<path fill="#FFFFFF" d="M0.753,4.9h22.481c1.242,0,2.26,0.9,2.26,2s-1.018,2-2.26,2H0.753c-1.243,0-2.259-0.9-2.259-2
		S-0.489,4.9,0.753,4.9z"/>
</g>
<g>
	<path fill="#FFFFFF" d="M0.753,13.9h22.481c1.242,0,2.26,0.899,2.26,2c0,1.1-1.018,2-2.26,2H0.753c-1.243,0-2.259-0.9-2.259-2
		S-0.489,13.9,0.753,13.9z"/>
</g>
<g enable-background="new    ">
	<path fill="#FFFFFF" d="M2.129,29.794l-1.863-5.365H0.231c0.05,0.797,0.075,1.544,0.075,2.24v3.125h-0.954v-6.425h1.481l1.784,5.11
		h0.026l1.837-5.11h1.485v6.425H4.955v-3.178c0-0.318,0.008-0.734,0.024-1.248c0.016-0.512,0.03-0.822,0.042-0.932H4.986
		l-1.929,5.357H2.129z"/>
	<path fill="#FFFFFF" d="M11.292,29.794H7.658v-6.425h3.634v0.888H8.708v1.749h2.421v0.879H8.708v2.017h2.584V29.794z"/>
	<path fill="#FFFFFF" d="M18.033,29.794h-1.287l-3.16-5.119h-0.035l0.021,0.285c0.041,0.545,0.062,1.043,0.062,1.494v3.34h-0.954
		v-6.425h1.274l3.15,5.093h0.027c-0.006-0.066-0.018-0.312-0.035-0.735c-0.018-0.424-0.027-0.754-0.027-0.991v-3.366h0.963V29.794z"
		/>
	<path fill="#FFFFFF" d="M24.766,23.369v4.157c0,0.475-0.103,0.89-0.306,1.246c-0.204,0.355-0.498,0.63-0.884,0.821
		c-0.385,0.192-0.846,0.288-1.382,0.288c-0.797,0-1.417-0.211-1.858-0.633c-0.443-0.422-0.664-1.002-0.664-1.74v-4.14h1.055v4.065
		c0,0.53,0.123,0.921,0.369,1.173s0.624,0.378,1.134,0.378c0.99,0,1.485-0.52,1.485-1.561v-4.056H24.766z"/>
</g>
</svg>
