<?xml version="1.0" encoding="UTF-8"?>
<svg width="146px" height="146px" viewBox="0 0 146 146" version="1.1" xmlns="http://www.w3.org/2000/svg" xmlns:xlink="http://www.w3.org/1999/xlink">
    <!-- Generator: Sketch 50.2 (55047) - http://www.bohemiancoding.com/sketch -->
    <title>Artboard</title>
    <desc>Created with Sketch.</desc>
    <defs></defs>
    <g id="Artboard" stroke="none" stroke-width="1" fill="none" fill-rule="evenodd">
        <rect id="Rectangle" fill="#A51417" x="0" y="0" width="146" height="20"></rect>
        <rect id="Rectangle" fill="#A51417" x="0" y="40" width="146" height="20"></rect>
        <rect id="Rectangle" fill="#A51417" x="0" y="80" width="146" height="20"></rect>
        <path d="M31.8808594,145.699219 L25.6933594,125.537109 L25.5351562,125.537109 C25.7578136,129.638692 25.8691406,132.374993 25.8691406,133.746094 L25.8691406,145.699219 L21,145.699219 L21,120 L28.4179688,120 L34.5,139.652344 L34.6054688,139.652344 L41.0566406,120 L48.4746094,120 L48.4746094,145.699219 L43.3945312,145.699219 L43.3945312,133.535156 C43.3945312,132.960935 43.4033202,132.298832 43.4208984,131.548828 C43.4384767,130.798824 43.5175774,128.806657 43.6582031,125.572266 L43.5,125.572266 L36.8730469,145.699219 L31.8808594,145.699219 Z M69.7441406,145.699219 L54.9433594,145.699219 L54.9433594,120 L69.7441406,120 L69.7441406,124.464844 L60.3925781,124.464844 L60.3925781,130.107422 L69.09375,130.107422 L69.09375,134.572266 L60.3925781,134.572266 L60.3925781,141.199219 L69.7441406,141.199219 L69.7441406,145.699219 Z M97.9042969,145.699219 L90.9785156,145.699219 L79.7988281,126.257812 L79.640625,126.257812 C79.8632824,129.691423 79.9746094,132.140618 79.9746094,133.605469 L79.9746094,145.699219 L75.1054688,145.699219 L75.1054688,120 L81.9785156,120 L93.140625,139.248047 L93.2636719,139.248047 C93.0878897,135.908186 93,133.546882 93,132.164062 L93,120 L97.9042969,120 L97.9042969,145.699219 Z M125.291016,120 L125.291016,136.628906 C125.291016,138.527353 124.866215,140.191399 124.016602,141.621094 C123.166988,143.050788 121.939461,144.146481 120.333984,144.908203 C118.728508,145.669926 116.830089,146.050781 114.638672,146.050781 C111.333968,146.050781 108.767587,145.20411 106.939453,143.510742 C105.111319,141.817374 104.197266,139.500015 104.197266,136.558594 L104.197266,120 L109.628906,120 L109.628906,135.732422 C109.628906,137.712901 110.02734,139.166011 110.824219,140.091797 C111.621098,141.017583 112.939444,141.480469 114.779297,141.480469 C116.560556,141.480469 117.852535,141.014653 118.655273,140.083008 C119.458012,139.151363 119.859375,137.689463 119.859375,135.697266 L119.859375,120 L125.291016,120 Z" id="MENU" fill="#A51417"></path>
    </g>
</svg>