<?xml version="1.0" encoding="utf-8"?>
<!-- Generator: Adobe Illustrator 16.0.4, SVG Export Plug-In . SVG Version: 6.00 Build 0)  -->
<!DOCTYPE svg PUBLIC "-//W3C//DTD SVG 1.1//EN" "http://www.w3.org/Graphics/SVG/1.1/DTD/svg11.dtd">
<svg version="1.1" id="Layer_1" xmlns="http://www.w3.org/2000/svg" xmlns:xlink="http://www.w3.org/1999/xlink" x="0px" y="0px"
	 width="27px" height="35px" viewBox="-1.506 -4.205 27 35" enable-background="new -1.506 -4.205 27 35" xml:space="preserve">
<g>
	<path fill="#FFFFFF" d="M0.753-4h22.481c1.243,0,2.26,0.9,2.26,2s-1.017,2-2.26,2H0.753c-1.243,0-2.259-0.9-2.259-2
		S-0.489-4,0.753-4z"/>
</g>
<g>
	<path fill="#FFFFFF" d="M0.753,4.9h22.481c1.243,0,2.26,0.9,2.26,2s-1.017,2-2.26,2H0.753c-1.243,0-2.259-0.9-2.259-2
		S-0.489,4.9,0.753,4.9z"/>
</g>
<g>
	<path fill="#FFFFFF" d="M0.753,13.9h22.481c1.243,0,2.26,0.899,2.26,2c0,1.1-1.017,2-2.26,2H0.753c-1.243,0-2.259-0.9-2.259-2
		C-1.506,14.8-0.489,13.9,0.753,13.9z"/>
</g>
<text transform="matrix(1 0 0 1 -1.2402 29.7939)" fill="#FFFFFF" font-family="'OpenSans'" font-size="9">MENU</text>
</svg>
