<?xml version="1.0" encoding="utf-8"?>
<!-- Generator: Adobe Illustrator 19.1.0, SVG Export Plug-In . SVG Version: 6.00 Build 0)  -->
<svg version="1.1" id="Layer_1" xmlns="http://www.w3.org/2000/svg" xmlns:xlink="http://www.w3.org/1999/xlink" x="0px" y="0px"
	 width="11.3px" height="14.3px" viewBox="-299 389.7 11.3 14.3" enable-background="new -299 389.7 11.3 14.3"
	 xml:space="preserve">
<path fill="#BABABA" stroke="#BABABA" stroke-width="0.25" stroke-miterlimit="10" d="M-287.9,402.7l-3.3-4.6
	c1.8-1.5,2.2-4.1,0.9-6.1c-1.3-2.2-4.2-2.8-6.4-1.4c-2.2,1.4-2.8,4.3-1.4,6.4c1.3,2,3.7,2.7,5.8,1.8l2.7,4.9
	c0.1,0.2,0.3,0.2,0.4,0.1l1.2-0.7C-287.8,403-287.8,402.8-287.9,402.7 M-292.5,397.2c-1.5,0.9-3.4,0.5-4.4-1c-0.9-1.5-0.5-3.4,1-4.4
	c1.5-0.9,3.4-0.5,4.4,1C-290.6,394.3-291,396.2-292.5,397.2"/>
</svg>
