<svg id="Layer_7" data-name="Layer 7" xmlns="http://www.w3.org/2000/svg" viewBox="0 0 1000 53.68"><defs><style>.cls-1{fill:#fff;}.cls-2{fill:#007361;}.cls-3{fill:#e1c4ac;}.cls-4{fill:#a41e22;}</style></defs><title>Artboard 1</title><path class="cls-1" d="M97.61,3.68a2.69,2.69,0,0,0,1.1-.39c0-.49,0-.6-.78-.6-1.31,0-2.09.23-3.38.23s-2.6-.16-3.7-.16c-.69,0-.62.21-.62.6s1.29.16,2,1.77a6,6,0,0,1-.16,3.79l-10,27.42L77.84,24.18l-1.68-4.43s-.3.11.94-3.66l2.3-7c1.15-3.45,2.3-5.27,3.75-5.29,1.84,0,1.84-1.15.44-1.15s-2.3.12-3.52.12-2-.12-3.38-.12c-.53,0-1.1.16-1,.6s.82.27,1.4.6a4,4,0,0,1,.87,4.59l-2.76,8.83-3.08-8c-.62-1.57-1.45-5,0-5.34s1.27-1.06.37-1.06c-1.7,0-2.62.23-4.28.23S65,2.8,63.29,2.8c-.37,0-1,0-.83.76s1,.28,1.49.6a8.39,8.39,0,0,1,3.31,5l4.6,12.94c.83,2.3.9,1.45.21,3.45l-4,10.87L58.21,8.28c-.78-2.12-1.22-3.59.5-4.39a4.26,4.26,0,0,0,1.06-.6c0-.14.18-.62-.9-.6-1.77,0-2.87.23-4.59.23s-3.18-.23-4.9-.23c-.55,0-.67.28-.67.71s1.41.21,2.6,1.61A19,19,0,0,1,53.56,9.2L65.45,43.36c.21.5.27,1.49,1,1.49s.67-1.13.85-1.56l6.3-17.11,6.1,16.3c.25.65.59,2.42,1.24,2.42s.71-.83,1-1.66L93.61,9.56C94.6,6.9,95.75,4,97.61,3.68Z"/><path class="cls-1" d="M228.28,17.06c-6.53,0-11.5,6.55-11.5,14.23a14.51,14.51,0,0,0,2.85,9.19,6.87,6.87,0,0,1-4.3,1.38c-2.13,0-3.38-1.26-3.47-4V21.22h6.74c.43,0,1.31-2.88,1.33-3s.21-.64.23-.89-.34-.6-.71,0a2.28,2.28,0,0,1-2,1.1h-5.65c0-4.83,0-6.9-.69-6.9s-.6.19-1.27,2.3A9.78,9.78,0,0,1,204.6,19,5.62,5.62,0,0,1,202,19a18.13,18.13,0,0,0-7.63-2.09,9,9,0,0,0-8.9,9.08v.12A8.26,8.26,0,0,0,188.92,33a6.33,6.33,0,0,0-2.71,5.06,4,4,0,0,0,2.09,3.63A6.22,6.22,0,0,0,186.37,43c-1.38-.51-3.43-.14-3.43-3.82V29c0-4.59-1.51-11.49-8.43-11.49-5,0-7.61,4.76-7.5,4V18c0-.62-.32-1-.62-1-1.19,0-1.45,2-5.79,3.11-.28,0-.85.18-.88.66,0,1.29,3.5-1.42,3.52,3.36V39.43a3,3,0,0,1-2.57,3.31,2.9,2.9,0,0,1-.51,0h-.6c-1.1-.12-3-.6-3-2.67V18c0-.62-.32-1-.62-1-1.19,0-2,2.17-5.26,3.27-.28,0-.74.11-.74.48,0,1.31,3-1.19,2.83,3.4V38.69c0,3.56-1.73,4-2.87,4.07s-2.3-.74-2.3-2.83V29.66c0-5.29-2-12.12-8.65-12.12a10.14,10.14,0,0,0-7.45,3.82V3.68c0-.62-.29-1-.62-1-.78,0-2.11,2.3-5.88,3.24-.28,0-1.24.14-1.24.53,0,1.29,3.91-.62,4,3.38V40c0,3-2.57,2.62-3,3.58,0,.42.16.6.53.6.82,0,3.1-.23,4.71-.23s4.18.23,5.26.23c.62,0,.88-.11.88-.85-.53-1.06-4.6.55-4.6-4.74v-13a6.49,6.49,0,0,1,6.07-5.54c1.79,0,6.25,1.42,6.25,9.05V40.37c0,2.3-2.3,2.43-2.55,3.12s.32.67.83.67,2.3-.23,4.25-.23a23.15,23.15,0,0,1,3,.12,12.69,12.69,0,0,0,1.95,0c.58,0,2-.21,3.64-.21s3,.14,4,.21h2.3c.6,0,1.63-.23,4.39-.23s4,.23,4.9.23,1.68-.35,1.15-.85-4.6.11-4.6-4.14V25a6.06,6.06,0,0,1,6.09-4.8c4.19,0,6.05,4.6,6.05,7.7v11.5c0,4-1.61,3.08-2.3,4-.34.5.25.73.92.73s1.77-.23,3.72-.23c1.28,0,2.55.06,3.82.18a5.5,5.5,0,0,0-1,2.81c-.28,5,5.84,6.9,11,6.74,10.23-.14,13.12-7.25,11-11s-6.9-3.73-11.33-3.73c-8.42,0-6.9-5.15-3.41-5a12.4,12.4,0,0,0,3.15.27,8.78,8.78,0,0,0,9.34-8.19c0-.18,0-.36,0-.54A8.2,8.2,0,0,0,203,21.24h4.81V36.46c0,6.9,3.26,8,5.72,8A7.59,7.59,0,0,0,220,41.13a11,11,0,0,0,8.23,3.38c6.37,0,11.17-5.87,11.17-13.54C239.49,19.36,232.18,17.06,228.28,17.06ZM190.8,42.23c.42,0,.53.16,5.27.34s6.67,1.54,6.9,2.81c.52,2.3-1.06,7-8.1,6.57a6.88,6.88,0,0,1-6-2.87C187.29,46.74,188.64,42.37,190.8,42.23Zm4-9.2c-4.16,0-5.54-4-5.54-7.79s1.17-7.15,5.33-7.15,5.91,4.32,5.91,8.12-1.73,6.89-5.66,6.89Zm33.91,9.61c-6.05,0-8.42-7.49-8.42-13.61,0-5.31,2.07-10.18,7.13-10.18,6.16,0,8.37,6.55,8.37,13,0,7.79-2.69,10.87-7,10.87Z"/><path class="cls-1" d="M261.7,39.2V29c0-4.59-1.52-11.49-8.44-11.49-5,0-7.6,4.74-7.49,4V18c0-.62-.32-1-.62-1-1.2,0-2.07,2-6.12,3.25-.25,0-1,0-1,.52,0,1.29,4.07-1.67,4,3.38V39.43c0,4-2.69,3-3.31,4.09-.3.53.51.64,1.17.64s1.66-.23,4.42-.23,4,.23,4.89.23,1.68-.32,1.15-.85-4.6.12-4.6-4.11V25a6.06,6.06,0,0,1,6.1-4.8c4.18,0,6,4.6,6,7.7v11.5c0,4.59-1.61,3.1-2.3,4-.34.52.26.73.92.73s1.77-.23,3.73-.23c2.53,0,3.65.23,4.32.23s1.45-.39.87-.87C264.23,42.25,261.66,43.84,261.7,39.2Z"/><path class="cls-1" d="M154.53,15.17c.64,0,2.11-2.3,2.11-3.12s-1.47-3.18-2.11-3.18-2.14,2.53-2.14,3.18S154,15.17,154.53,15.17Z"/><path class="cls-1" d="M120,29.06c-1-.51-2.53-1.36-3.29-1.77-3.24-1.77-4.6-2.95-4.6-4.6a3.93,3.93,0,0,1,3.66-4.18,3.86,3.86,0,0,1,.76,0c5,0,5.74,5.58,6.25,5.58s.57-.75.57-2.41a10.28,10.28,0,0,0-.25-3c-.62-1-4.21-1.5-5.08-1.5h-1.77a6.46,6.46,0,0,0-6.91,6,7.79,7.79,0,0,0,0,1.08c0,4.41,5.29,6.9,8.07,8.6C119.47,34,122,35.13,122,38a5,5,0,0,1-4.89,5.18h-.33c-6.3-.12-5.42-8-6.57-8-.76,0-.6,2-.62,3V40.9c-.14.73-.44,1.4-1.11,1.44-2.46.14-1.86-3.79-1.86-5.9V23.61c-.25-3.93-3.17-6.51-7.77-6.51-6.18,0-10.57,7.61-8.5,10,.5.55,2.52-1.61,2.64-1.72a.51.51,0,0,0,.14-.26,6.25,6.25,0,0,1,4.8-6.18c3.2-.3,4.78,2.07,4.78,5.31v4.18c-12.09,2.42-13.79,6.44-13.79,9.73a6,6,0,0,0,5.65,6.37,5.47,5.47,0,0,0,.81,0,11.24,11.24,0,0,0,7.91-3.59,4,4,0,0,0,4,3.22c.71,0,.81.16,2.94-.76a2.26,2.26,0,0,1,1.54,0,13.34,13.34,0,0,0,5.31,1.15,8.12,8.12,0,0,0,7.68-8.35C124.74,33.31,123.91,31.49,120,29.06Zm-16.83,8.62a5.43,5.43,0,0,1-5.2,5c-2.75,0-4.59-1.79-4.59-5.33,0-5.45,6.55-6.44,9.86-7.31Z"/><path class="cls-1" d="M473.88,21.77c-1.49-.74-3.7-2.07-4.78-2.71-4.73-2.72-6.59-4.49-6.73-7A6.65,6.65,0,0,1,469,5.32a4.69,4.69,0,0,1,.53,0c3.9,0,7.15,2.3,8.48,7.45.14.53.62,1.77,1.1,1.77s.53-.41.49-.87l-.67-8c0-.64-.25-.83-.53-.83s-.71.67-1.1.67a12.8,12.8,0,0,0-7.59-2.18,4,4,0,0,0-.85,0c-5.24,0-10.18,3.4-10,10.78.14,6.73,7.7,10.57,11.77,13.15,3,1.79,6.16,4.6,6,7.86-.13,4.94-3.24,8.16-7.15,7.89-9.19-.17-7.88-12.23-9.54-12.23-1.12,0-.89,3-.92,4.59a31,31,0,0,0,.28,7.52c.16.16.6,0,1.49,0,1.8,0,4,2.09,9.2,2.09,5.91,0,10.74-5.35,10.74-12.48C480.8,28.28,479.59,25.49,473.88,21.77Z"/><path class="cls-1" d="M763.08,15.17c.64,0,2.11-2.3,2.11-3.12s-1.47-3.18-2.11-3.18-2.16,2.62-2.16,3.18S762.46,15.17,763.08,15.17Z"/><path class="cls-1" d="M790.67,39.2V29c0-4.59-1.52-11.49-8.44-11.49-5,0-7.61,4.74-7.5,4V18c0-.62-.32-1-.62-1-1.19,0-2.07,2-6.11,3.25-.25,0-1,0-1,.52,0,1.29,4.07-1.67,4,3.38V39.43c0,2.87-1.4,3.08-2.43,3.35h-.19c-1,0-3.24-.48-3.24-2.69V18c0-.62-.32-1-.62-1-1.19,0-2,2.17-5.26,3.27-.28,0-.74.11-.74.48,0,1.31,3-1.19,2.83,3.4V38.69c.11,3.72-1.91,4.07-3,4.07-1.65,0-1.24.21-1.24.71s1.06.67,2.72.67c.57,0,2-.21,3.63-.21,2.14,0,3.72.23,4.83.23.62,0,2.29-.23,5-.23s4,.23,4.9.23,1.67-.32,1.15-.85-4.6.12-4.6-4.11V25a6.06,6.06,0,0,1,6.09-4.8c4.21,0,6.07,4.6,6.07,7.7v11.5c0,4.59-1.63,3.1-2.3,4-.34.52.25.73.92.73s1.77-.23,3.72-.23c2.53,0,3.66.23,4.33.23s1.44-.39.87-.87C793.1,42.25,790.62,43.84,790.67,39.2Z"/><path class="cls-1" d="M823.26,15.17c.67,0,2.14-2.3,2.14-3.12s-1.47-3.18-2.14-3.18-2.11,2.53-2.11,3.18S822.67,15.17,823.26,15.17Z"/><path class="cls-1" d="M850.85,39.2V29c0-4.59-1.5-11.49-8.41-11.49-5,0-7.61,4.74-7.5,4V18c0-.62-.32-1-.62-1-1.2,0-2.09,2-6.14,3.25-.25,0-1,0-1,.52,0,1.29,4.05-1.67,4,3.38V39.43c0,2.87-1.4,3.08-2.42,3.35h-.18c-1.06,0-3.26-.48-3.26-2.69V18c0-.62-.3-1-.62-1-1.2,0-2,2.17-5.27,3.27-.25,0-.73.11-.73.48,0,1.31,3-1.19,2.85,3.4V38.69c.11,3.72-1.91,4.07-3,4.07-1.68,0-1.26.21-1.26.71s1,.67,2.73.67c.55,0,2-.21,3.63-.21,2.12,0,3.73.23,4.81.23.62,0,2.3-.23,5-.23s4.05.23,4.92.23,1.68-.32,1.15-.85-4.59.12-4.59-4.11V25a6,6,0,0,1,6.09-4.8c4.18,0,6,4.6,6,7.7v11.5c0,4.59-1.61,3.1-2.3,4-.34.52.28.73.95.73s1.74-.23,3.72-.23c2.53,0,3.63.23,4.3.23s1.47-.39.9-.87C853.4,42.25,850.83,43.84,850.85,39.2Z"/><path class="cls-1" d="M901.54,38.07c-.62,0-2.16,2.57-2.16,3.24s1.54,3.2,2.16,3.2,2.14-2.46,2.14-3.2S902.21,38.07,901.54,38.07Z"/><path class="cls-1" d="M968.83,40.3V18.67c0-1.22-.69-1.54-.88-1.54a5.46,5.46,0,0,0-1.74.32,6.7,6.7,0,0,1-2.58.46c-.25,0-1.61-.21-1.52.5s3.13.3,3.15,2.46V36.51A6.15,6.15,0,0,1,960,42.25c-.62,0-4.76-.46-4.71-7.28V18.67c0-1.22-.69-1.54-.87-1.54a5.89,5.89,0,0,0-1.77.32,6.33,6.33,0,0,1-2.62.39c-.76,0-1.59-.14-1.48.57s3.22,0,3.22,2.46v15c0,5.5,3.22,8.65,7.13,8.65a6.35,6.35,0,0,0,6.46-3.59h.11v2.62c0,.25,0,1,.44,1s1.1-.63,1.66-.81a6,6,0,0,1,2.55-.83c.76,0,1.63-.48,1.63-1C971.38,40.78,968.83,42,968.83,40.3Z"/><path class="cls-1" d="M938.3,17.06c-6.51,0-11.5,6.55-11.5,14.23a15.12,15.12,0,0,0,2.3,8.43c-1.58,1.15-4.46,2.3-9.91,2.3-4.25,0-3.84-1.47-3.84-5.08V8c0-5.33,4-3.77,4-4.76s-.55-.5-1.22-.5-2.11.29-5,.29c-2.48,0-4.6-.23-5.75-.23-.64,0-1.24.19-1,.69.5,1.13,4.27,0,4.27,3.27V36.92c0,2.87.44,4.71-.89,5.45s-3.52,1-3.36,1.65.9.42,1.36.42c2,0,4.83-.26,6.89-.3,3.84-.14,7.71.23,11.5.23,2.3,0,2.78-.44,4.41-2.65h0a11.08,11.08,0,0,0,7.73,2.88c6.36,0,11.17-5.86,11.17-13.54C949.42,19.36,942.23,17.06,938.3,17.06Zm.53,25.65c-6.05,0-8.44-7.49-8.44-13.61,0-5.31,2.07-10.18,7.15-10.18,6.14,0,8.37,6.55,8.37,13C945.91,39.63,943.17,42.71,938.83,42.71Z"/><path class="cls-1" d="M874.87,21.77c-1.49-.74-3.7-2.07-4.8-2.71-4.72-2.72-6.58-4.49-6.72-7A6.67,6.67,0,0,1,870,5.32a4.47,4.47,0,0,1,.52,0c3.91,0,7.15,2.3,8.49,7.45.13.53.62,1.77,1.1,1.77s.53-.41.48-.87l-.66-8c0-.64-.26-.83-.53-.83s-.71.67-1.11.67a12.77,12.77,0,0,0-7.58-2.18,4,4,0,0,0-.85,0c-5.24,0-10.19,3.4-10,10.78.14,6.73,7.71,10.57,11.77,13.15,3,1.79,6.17,4.6,6,7.86-.14,4.94-3.24,8.16-7.15,7.89-9.19-.17-7.88-12.23-9.54-12.23-1.13,0-.9,3-.92,4.59a30.53,30.53,0,0,0,.28,7.52c.16.16.6,0,1.49,0,1.79,0,4,2.09,9.2,2.09,5.91,0,10.73-5.35,10.73-12.48C881.79,28.28,880.57,25.49,874.87,21.77Z"/><path class="cls-1" d="M978,15.17c.67,0,2.12-2.3,2.12-3.12S978.71,8.87,978,8.87s-2.11,2.53-2.11,3.18S977.45,15.17,978,15.17Z"/><path class="cls-1" d="M983.31,42.8c-1,0-3.24-.48-3.24-2.69V18c0-.62-.3-1-.62-1-1.2,0-2,2.17-5.27,3.27-.25,0-.73.11-.73.48,0,1.31,3-1.19,2.85,3.4V38.69c.11,3.72-1.91,4.11-3,4.07S972,43,972,43.47s1.06.67,2.73.67c.56,0,2-.21,3.64-.21,2.11,0,3.72.23,4.8.23C983.91,44.16,984.69,42.57,983.31,42.8Z"/><path class="cls-1" d="M995.24,29c-1-.48-2.53-1.35-3.29-1.77-3.24-1.77-4.6-2.92-4.6-4.59A4,4,0,0,1,991,18.48a3.77,3.77,0,0,1,.75,0c5.06,0,5.75,5.58,6.25,5.58s.58-.73.58-2.41a10.73,10.73,0,0,0-.26-3c-.62-.92-4.2-1.47-5.08-1.47h-1.19a2.81,2.81,0,0,0-.58,0,6.42,6.42,0,0,0-6.89,7.06c.11,4.39,5.28,6.9,8.06,8.6,2.07,1.17,4.6,2.3,4.49,5.1a5,5,0,0,1-4.85,5.18h-.37c-6.3,0-5.43-8-6.55-8-.78,0-.62,2-.62,3a17.89,17.89,0,0,0,.18,4.9c0,.11.39,0,1,0a26.21,26.21,0,0,0,6.37,1.35,8.07,8.07,0,0,0,7.68-8.25C1000,33.29,999.17,31.47,995.24,29Z"/><path class="cls-1" d="M898,40.37a7.31,7.31,0,0,1-4.6,1.54c-2.12,0-3.36-1.27-3.47-4V20.3h6.76c.43,0,1.28-2.87,1.33-3s.18-.64.23-.92-.35-.59-.74,0a2.29,2.29,0,0,1-2,1.09h-5.59c0-4.81,0-6-.69-6s-.62.18-1.26,2.3c-1.08,3.58-5,5.15-6.28,5.93-.3.16-.3.21-.3.39s1.49.28,4.6.34v16.1c0,6.89,3.29,8,5.75,8a7.39,7.39,0,0,0,6.55-3.58C898.34,40.37,898.27,40.32,898,40.37Z"/><path class="cls-1" d="M376.41,38.16c-1.15,0-2.85,3.24-7.31,3.24-3.17,0-8.34-3.06-8.34-13.31h13.79c1.17,0,1.75,0,1.75-1,0-2.49-2.81-9.89-9.2-9.89S357,23.82,357,31.77c0,4.09,2.68,12.74,10.45,12.74,4.6,0,9.2-4.49,9.2-5.91C376.62,38.41,376.62,38.16,376.41,38.16ZM366.25,18.6A6.55,6.55,0,0,1,372,25.17c0,.94-.3,1.24-1,1.24H360.76C360.76,23,363,18.6,366.25,18.6Z"/><path class="cls-1" d="M303,4c.21-.34-.51-.48-.74-.48-.8,0-2.71.21-3.58.21-1.8,0-3.27-.16-5.06-.16-.14,0-.9,0-.92.34,0,1.27,4.25-.2,4.25,5.2v21.1C296.94,36.41,295,43,286.39,43c-6.16,0-9.52-3.87-9.52-12.33v-23c0-3.82,3-3,3.06-3.84s-2.64-.33-2.87-.33c-1.43,0-2.3.14-3.89.14s-2.71-.18-3.91-.18c-.23,0-1.08,0-1.21.3-.46,1.12,3.81.53,3.81,3.63V29.2c0,8.13,2.3,16.09,14.3,15.9,14.25-.23,14-13.05,14-15.65V9.2C300.16,4.23,302.53,4.6,303,4Z"/><path class="cls-1" d="M359.26,18.39c.37-.39.46-1.06-1.15-.92-.87,0-1.54.16-2.41.16h-2.44c-1.08,0-1.72,0-1.65.51.23,1.19,3.1,0,2.71,3.58a33.18,33.18,0,0,1-2.3,8.12L348.55,39l-5.08-15.35a21.89,21.89,0,0,1-.94-3.15c0-1.93,2.3-1.47,2.83-2.3s-.35-.78-1.08-.78-1.34.23-3.25.27a21.44,21.44,0,0,1-3.4,0c-1.79-.34-1.65.65-1,1s.92,0,1.84,2.69l7.81,22.09c.16.44.37,1.52,1,1.52s.78-.76,1.74-3.38c0,0,7.5-20.92,8-21.68C358.14,18.39,358.9,18.85,359.26,18.39Z"/><path class="cls-1" d="M388.14,17.43c-2.12,0-3.61,2.55-4.6,4.32h0V17.91c0-.6-.3-1-.6-1-.83,0-1.45,1.63-5.74,2.65-.26,0-1,.18-1,.55,0,1.29,3.63-.37,3.63,3.86V40.09c0,2.51-2.57,2.3-2.57,3.54,0,.37.16.53.55.53a37.2,37.2,0,0,1,4.6-.23c2.82,0,4,.23,4.73.23s.81-.11.81-.67c0-1.93-4.49,1-4.49-4.59V25.1c0-.78,1.22-3.58,3.27-3.58s2,1.4,3,1.4c.6,0,1.82-1.82,1.82-2.74S389.2,17.43,388.14,17.43Z"/><path class="cls-1" d="M453.13,17.63H450c-1.24,0-2.3-.18-2.89-.18s-1.91,0-1.75.64,3.47.46,3.47,4a11.47,11.47,0,0,1-.67,3.43L444,38.78l-5.77-16.27a3.78,3.78,0,0,1-.27-1.59c0-2.62,3.08-2.3,3.19-2.81s-.41-.78-1.22-.78H426.94c0-4.8,0-6-.69-6s-.6.18-1.24,2.3c-1.08,3.58-5,5.15-6.3,5.93-.3.16-.27.2-.3.39s1.5.27,4.6.34V36.34c0,6.9,3.27,8,5.73,8a7.41,7.41,0,0,0,6.57-3.59c0-.55,0-.59-.39-.55a7.1,7.1,0,0,1-4.6,1.54c-2.14,0-3.35-1.26-3.47-4V20.3h6.39a2.42,2.42,0,0,1,.21.39l5.95,16.87a27,27,0,0,1,1.38,4.28,10.5,10.5,0,0,1,.23,3c-.57,2.53-2.14,4-4.6,8.67-.23.46,3.43,0,3.61-.12s.26-.16.62-.83l2.62-7.86,7.38-22.64c1.08-4,2.78-3.22,3.06-3.77S453.77,17.63,453.13,17.63Z"/><polygon class="cls-1" points="443.59 44.3 443.45 44.69 443.43 44.78 443.59 44.3"/><path class="cls-1" d="M414.14,15.17c.66,0,2.11-2.3,2.11-3.12s-1.45-3.18-2.11-3.18S412,11.4,412,12.05,413.54,15.17,414.14,15.17Z"/><path class="cls-1" d="M419.4,42.8c-1,0-3.24-.48-3.24-2.69V18c0-.62-.32-1-.62-1-1.2,0-2,2.17-5.26,3.27-.26,0-.74.11-.74.48,0,1.31,3-1.19,2.85,3.4V38.69c.12,3.72-1.93,4.07-3,4.07-1.68,0-1.27.21-1.27.71s1.06.67,2.71.67c.58,0,2-.21,3.66-.21,2.11,0,3.72.23,4.8.23C419.93,44.16,420.69,42.57,419.4,42.8Z"/><path class="cls-1" d="M697.77,38.16c-1.13,0-2.85,3.24-7.29,3.24-3.17,0-8.34-3.06-8.34-13.31h13.79c1.2,0,1.77,0,1.77-1,0-2.49-2.8-9.89-9.2-9.89s-10.16,6.65-10.16,14.6c0,4.09,2.72,12.74,10.49,12.74,4.59,0,9.19-4.49,9.19-5.91C698,38.41,698,38.16,697.77,38.16ZM687.63,18.6a6.55,6.55,0,0,1,5.75,6.57c0,.94-.32,1.24-1,1.24h-10.2C682.14,23,684.41,18.6,687.63,18.6Z"/><path class="cls-1" d="M812.34,38.16c-1.12,0-2.85,3.24-7.31,3.24-3.15,0-8.32-3.06-8.32-13.31H810.5c1.2,0,1.77,0,1.77-1,0-2.49-2.8-9.89-9.19-9.89s-10.16,6.65-10.16,14.6c0,4.09,2.69,12.74,10.46,12.74,4.6,0,9.19-4.49,9.19-5.91C812.55,38.41,812.55,38.16,812.34,38.16Zm-10-19.56A6.57,6.57,0,0,1,808,25.17c0,.94-.32,1.24-1,1.24H796.8C796.71,23,799,18.6,802.3,18.6Z"/><path class="cls-1" d="M731.36,15.17c.66,0,2.11-2.3,2.11-3.12S732,8.87,731.36,8.87s-2.12,2.53-2.12,3.18S730.76,15.17,731.36,15.17Z"/><path class="cls-1" d="M736.62,42.8c-1,0-3.24-.48-3.24-2.69V18c0-.62-.32-1-.62-1-1.2,0-2,2.17-5.27,3.27-.25,0-.73.11-.73.48,0,1.31,3-1.19,2.85,3.4V38.69c.11,3.72-1.93,4.11-3,4.07-.62,0-1.26.21-1.26.71s1.06.67,2.71.67c.58,0,2-.21,3.66-.21,2.11,0,3.72.23,4.8.23C737.15,44.16,737.93,42.57,736.62,42.8Z"/><path class="cls-1" d="M332.39,15.17c.67,0,2.12-2.3,2.12-3.12s-1.45-3.18-2.12-3.18-2.11,2.53-2.11,3.18S331.79,15.17,332.39,15.17Z"/><path class="cls-1" d="M337.65,42.8c-1,0-3.24-.48-3.24-2.69V18c0-.62-.32-1-.62-1-1.19,0-2,2.17-5.26,3.27-.25,0-.74.11-.74.48,0,1.31,3-1.19,2.85,3.4V38.69c0,3.72-1.93,4.07-3,4.07h-.37c-1.08-.19-2.09-.62-2.07-3.56V29c0-4.59-1.52-11.49-8.43-11.49-5,0-7.61,4.74-7.5,4V18c0-.62-.32-1-.62-1-1.19,0-2.07,2-6.11,3.25-.28,0-1,0-1,.52,0,1.29,4.07-1.67,4,3.38V39.43c0,4-2.69,3-3.31,4.09-.3.53.51.64,1.17.64s1.68-.23,4.42-.23,4,.23,4.89.23,1.68-.32,1.15-.85-4.59.12-4.59-4.11V25a6,6,0,0,1,6.09-4.8c4.18,0,6,4.6,6,7.7v11.5c0,4.59-1.61,3.1-2.3,4-.34.52.26.73.92.73s1.77-.23,3.73-.23c2.53,0,3.65.23,4.32.23h.92c.57,0,2-.21,3.65-.21,2.12,0,3.73.23,4.81.23C338.18,44.16,339,42.57,337.65,42.8Z"/><path class="cls-1" d="M403,29c-1-.5-2.55-1.35-3.29-1.77-3.24-1.79-4.6-2.94-4.6-4.59a3.94,3.94,0,0,1,3.66-4.19,3.84,3.84,0,0,1,.76,0c5.05,0,5.74,5.58,6.25,5.58s.57-.76.57-2.41a10.37,10.37,0,0,0-.25-3c-.62-.94-4.21-1.49-5.08-1.49h-1.77a6.46,6.46,0,0,0-6.91,6,7.79,7.79,0,0,0,0,1.08c0,4.41,5.29,6.89,8.07,8.59,2.07,1.18,4.6,2.3,4.46,5.11a5,5,0,0,1-4.82,5.19h-.37c-6.3-.11-5.43-8-6.58-8-.76,0-.59,2-.62,3a18.45,18.45,0,0,0,.21,4.92c0,.11.39,0,1,0a26.8,26.8,0,0,0,6.39,1.38,8.12,8.12,0,0,0,7.68-8.35C407.75,33.29,406.9,31.45,403,29Z"/><path class="cls-1" d="M528.94,44.14a.47.47,0,0,0,.46-.69c-.23-.69-1-.62-1.91-.71-1.33-.12-2.3-.79-2.3-2.81V29.66c0-5.29-2-12.12-8.64-12.12a10,10,0,0,0-7.42,3.82V3.68c0-.62-.33-1-.62-1-.81,0-2.14,2.3-5.91,3.24-.28,0-1.24.14-1.24.53,0,1.29,3.9-.62,4,3.38V40c0,3-2.57,2.62-3,3.58,0,.42.14.6.5.6.83,0,3.11-.23,4.72-.23s4.18.23,5.26.23c.62,0,.87-.11.87-.85-.52-1.06-4.59.55-4.59-4.74v-13a6.47,6.47,0,0,1,6-5.54c1.8,0,6.26,1.42,6.26,9.05V40.37c0,2.3-2.3,2.43-2.53,3.12s.3.67.82.67,2.3-.23,4.23-.23a23.39,23.39,0,0,1,3,.12,12.69,12.69,0,0,0,2,0"/><path class="cls-1" d="M592.14,39.77a14,14,0,0,0,1.58,1.86,11.13,11.13,0,0,0,7.73,2.88c6.37,0,11.17-5.87,11.17-13.54,0-11.61-7.29-13.91-11.22-13.91-6.53,0-11.49,6.55-11.49,14.23a15,15,0,0,0,2.3,8.43m9.79,3c-6,0-8.41-7.49-8.41-13.61,0-5.31,2.06-10.18,7.12-10.18,6.16,0,8.37,6.55,8.37,13-.09,7.72-2.83,10.8-7.17,10.8Z"/><path class="cls-1" d="M554.28,39.77a12.15,12.15,0,0,0,1.58,1.86,11.13,11.13,0,0,0,7.73,2.88c6.34,0,11.17-5.87,11.17-13.54,0-11.61-7.29-13.91-11.22-13.91-6.53,0-11.49,6.55-11.49,14.23a15,15,0,0,0,2.29,8.43m9.8,3c-6,0-8.44-7.49-8.44-13.61,0-5.31,2.07-10.18,7.15-10.18,6.14,0,8.37,6.55,8.37,13-.09,7.72-2.83,10.8-7.17,10.8Z"/><path class="cls-1" d="M530,39.77a12.81,12.81,0,0,0,1.59,1.86,11.1,11.1,0,0,0,7.72,2.88c6.37,0,11.17-5.87,11.17-13.54,0-11.61-7.29-13.91-11.22-13.91-6.53,0-11.49,6.55-11.49,14.23a15.12,15.12,0,0,0,2.3,8.43m9.79,3c-6,0-8.41-7.49-8.41-13.61,0-5.31,2.07-10.18,7.12-10.18,6.16,0,8.37,6.55,8.37,13-.09,7.72-2.83,10.8-7.17,10.8Z"/><path class="cls-1" d="M482.05,31.26c0-7.79,5.08-14.23,12.18-14.23,2.8,0,6.64.88,6.9,2.3a18,18,0,0,1,0,3.7c0,.83-.19,1.31-.46,1.31s-1.18-1.19-1.36-1.44a7.9,7.9,0,0,0-6.9-3.8c-4.8,0-6.16,5.5-6.16,10,0,6.76,3.11,12.3,9.47,12.3,4.39,0,6.9-3.61,7.73-3.61.16,0,.43.18.43.37,0,1-3.37,6.37-11.08,6.37C486.23,44.51,482.05,38.21,482.05,31.26Z"/><path class="cls-1" d="M736.41,31.26c0-7.79,5.11-14.23,12.19-14.23,2.82,0,6.64.88,6.89,2.3a17.33,17.33,0,0,1,0,3.7c0,.83-.16,1.31-.46,1.31s-1.17-1.19-1.33-1.44a7.92,7.92,0,0,0-6.9-3.8c-4.78,0-6.16,5.5-6.16,10,0,6.76,3.13,12.3,9.47,12.3,4.39,0,6.9-3.61,7.73-3.61.16,0,.46.18.46.37,0,1-3.38,6.37-11.11,6.37C740.62,44.51,736.41,38.21,736.41,31.26Z"/><path class="cls-1" d="M580.44,20.05V4c0-.64-.33-1-.65-1-.85,0-1.93,2.3-5.95,3.1-.28,0-1.31.14-1.31.53,0,1.38,4.18-.64,4.25,3.61V39.59c0,3.19-2.76,2.75-3.24,3.79a.49.49,0,0,0,.29.62.39.39,0,0,0,.24,0c.89,0,3.31-.25,5-.25s4.11.6,5.26.6c.67,0,.95-.14.95-.92-.58-1.11-4.85.6-4.85-5V24.62"/><path class="cls-1" d="M626.25,3.77a9.18,9.18,0,0,0-8.8,5.43,17.51,17.51,0,0,0-1.75,8.27h-3c-.51,0-2.56,2.78-1.89,2.78h4.92V40.18c0,3.06-3,2.3-3,3.64,0,.5.69.36,1,.36a39.18,39.18,0,0,1,4.71-.5,24.24,24.24,0,0,1,4.25.46c.51,0,1.31.2,1.31-.58,0-1.38-4.59.14-4.59-3.93V20.21h5.93c.27,0,.5-.53.66-.85a25.66,25.66,0,0,0,1.27-2.51c0-.18,0-.8-.26-.8s-.89,1.4-2.48,1.4h-4.94V11.36c.23-3,1.52-4.88,4-4.92,4.07-.14,3.49,2.76,4.39,2.76s.94-2.76.94-4S627.08,3.79,626.25,3.77Z"/><path class="cls-1" d="M675.56,39.08c.28,4.94,4.35,2.78,4.35,4.83,0,.6-.72.6-1.31.6-1.06,0-3-.23-5.2-.23-1.7,0-3.47.23-4.85.23-.48,0-.6-.3-.6-.53,0-1.77,3.47-.49,3.43-4.83l-.55-22.85c0-1.47-.28-2.3-.62-2.3s-.88.53-1.43,1.75L657.29,40.62c-.3.53-1.18,2.94-1.73,2.94s-.94-1.28-1.1-1.7L642.73,15.59c-.18-.49-.46-.65-.66-.65s-.35.28-.39.88L641,36.51c-.28,7.81,5,5.21,5,7.35,0,.58-.6.65-1.38.65s-3.2-.23-4.85-.23c-2.88,0-3.8.23-4.79.23-.39,0-.55-.3-.55-.72,0-2,3.52.42,3.91-5.7.67-9.61,1.31-15.86,1.31-22.09,0-13.79-5.22-10.55-5.22-12.55,0-.53.44-.65.92-.65,1,0,2,.23,3,.23s2-.23,3-.23.87,1,1.14,1.64l13.13,29.88c.6,1.24.83,1.77,1.2,1.77s.82-1.24,1.72-3.17l13.1-28.16c.35-.65.79-2.07,1.45-2s2.3.23,2.58.23c1.26,0,1.77-.23,2.64-.23a.61.61,0,0,1,.55.68h0c0,1.91-4.39-.65-4.18,6.37Z"/><path class="cls-1" d="M718.16,10.3c0-3.75-4.6-2.12-4.6-3.43a.65.65,0,0,1,.51-.69c4.6-1.12,6-3.42,7.38-3.42.34,0,.69.39.69,1V40.83c0,.87.16.78,2.07.83.41,0,1,0,.94.52s-1,1.34-2.65,1.36a17.33,17.33,0,0,0-3.67,1.06c-.49,0-.65-.49-.65-.92V40.23H718a10.75,10.75,0,0,1-8.59,4.37c-6.42,0-10.35-6.3-10.35-12.72,0-7.37,4.85-14.73,12.23-14.73a11.74,11.74,0,0,1,6.9,2.3Zm0,15.52a7.11,7.11,0,0,0-7-7.25,5.62,5.62,0,0,0-.82,0c-5.49,0-8,5.47-8,10.66s3.49,12.67,9.06,12.67c4.85,0,6.62-3.19,6.62-5.42Z"/><path class="cls-1" d="M20.9,2.41h0A106.46,106.46,0,0,1,0,0V35.79H0a6.15,6.15,0,0,0,1.52,4,10.66,10.66,0,0,0,2.73,2.09l1.11.56.94.41h0a9,9,0,0,1,1.4.58l13.17,5h0l13.18-5,1.38-.58h0l.94-.41,1.1-.56a10.64,10.64,0,0,0,2.76-2.09,6.44,6.44,0,0,0,1.52-4h0V0A106.81,106.81,0,0,1,20.9,2.41Z"/><path class="cls-2" d="M20.9,4.6h0A98.33,98.33,0,0,1,1.79,2.3V35h0a5.79,5.79,0,0,0,1.38,3.66,9.35,9.35,0,0,0,2.51,1.9l1,.53.87.37h0L8.83,42l12,4.6h0L32.92,42l1.26-.53h0L35,41.1a10.7,10.7,0,0,0,1-.53,9.46,9.46,0,0,0,2.5-1.9A5.55,5.55,0,0,0,40,35h0V2.3A97.72,97.72,0,0,1,20.9,4.6Z"/><path class="cls-3" d="M20.9,6.39h0a90,90,0,0,1-17.47-2v8.14a90,90,0,0,0,17.47,2h0a90.64,90.64,0,0,0,17.45-2V4.37A89.86,89.86,0,0,1,20.9,6.39Z"/><path class="cls-4" d="M20.9,14.53h0a90,90,0,0,1-17.47-2V30.6a90,90,0,0,0,17.47,2h0a89.86,89.86,0,0,0,17.45-2V12.51A90.64,90.64,0,0,1,20.9,14.53Z"/><path class="cls-3" d="M3.45,34.3h0a5.26,5.26,0,0,0,1.26,3.36A9.06,9.06,0,0,0,7,39.4l.92.46.78.35h0l1.18.5,11,4.16h0l11-4.16,1.15-.5h0l.8-.35.92-.46a9.36,9.36,0,0,0,2.3-1.74,5.29,5.29,0,0,0,1.29-3.36h0V30.62a89.86,89.86,0,0,1-17.45,2h0a90,90,0,0,1-17.47-2V34.3Z"/><polygon class="cls-2" points="9.59 6.28 10.41 8.71 12.99 8.74 10.92 10.28 11.7 12.74 9.59 11.24 7.5 12.74 8.25 10.28 6.18 8.74 8.76 8.71 9.59 6.28"/><polygon class="cls-2" points="32.18 6.28 33.01 8.71 35.59 8.74 33.52 10.28 34.3 12.74 32.18 11.24 30.09 12.74 30.87 10.28 28.8 8.74 31.38 8.71 32.18 6.28"/><polygon class="cls-2" points="20.9 7.22 21.73 9.68 24.3 9.7 22.23 11.24 22.99 13.7 20.9 12.21 18.78 13.7 19.56 11.24 17.5 9.7 20.07 9.68 20.9 7.22"/><polygon class="cls-2" points="20.9 33.26 19.98 34.18 19.98 34.18 19.98 36.62 19.98 36.62 19.98 36.62 19.98 36.62 19.98 36.62 20.46 37.93 20.46 40.12 21.33 40.12 21.33 37.93 21.79 36.62 21.79 36.62 21.79 34.18 20.9 33.26"/><polygon class="cls-2" points="21.33 42.09 21.33 40.78 20.46 40.78 20.46 42.09 19.98 42.94 20.9 44.05 21.79 42.94 21.33 42.09"/><polygon class="cls-2" points="21.98 40.78 21.98 41.77 22.57 42.41 23.59 41.59 23.59 40.78 21.98 40.78"/><polygon class="cls-2" points="23.08 36.71 21.98 37.93 21.98 40.12 22.87 40.12 22.87 38.8 23.73 37.88 23.73 37.88 24.8 38.6 25.52 37.88 25.52 36.71 23.08 36.71"/><polygon class="cls-2" points="19.79 40.78 19.79 41.77 19.22 42.41 18.18 41.59 18.18 40.78 19.79 40.78"/><polygon class="cls-2" points="18.71 36.71 19.79 37.93 19.79 40.12 18.92 40.12 18.92 38.8 18.07 37.88 18.07 37.88 16.97 38.6 16.28 37.88 16.28 36.71 18.71 36.71"/><polygon class="cls-3" points="29.22 17.4 29.22 27.79 22.23 27.79 21.75 28.21 20.9 28.94 20.02 28.21 19.54 27.79 12.57 27.79 12.57 17.4 11.1 18.48 11.1 29.24 19.31 29.24 20.02 29.89 20.9 30.62 21.75 29.89 22.48 29.24 30.69 29.24 30.69 18.48 29.22 17.4"/><polygon class="cls-3" points="22 16.53 21.75 16.76 20.9 17.52 20.02 16.76 19.77 16.53 14.05 16.53 14.05 26.32 19.79 26.32 20.18 26.67 20.9 27.26 21.59 26.67 22 26.32 27.75 26.32 27.75 16.53 22 16.53"/><path class="cls-3" d="M32.18,19.59v6.62c1.91-.28,4-.65,6.17-1.08V18.39C36.14,18.94,34.09,19.31,32.18,19.59Z"/><path class="cls-3" d="M9.59,19.59c-1.89-.28-4-.65-6.16-1.2V25c2.29.44,4.27.81,6.16,1.08Z"/><polygon class="cls-2" points="32.18 32.39 31.56 33.03 31.56 33.03 31.56 34.74 31.56 34.74 31.56 34.74 31.56 34.74 31.56 34.74 31.89 35.66 31.89 37.17 32.51 37.17 32.51 35.66 32.83 34.74 32.83 34.74 32.83 33.03 32.18 32.39"/><polygon class="cls-2" points="32.51 38.55 32.51 37.66 31.89 37.66 31.89 38.55 31.56 39.15 32.18 39.93 32.83 39.15 32.51 38.55"/><polygon class="cls-2" points="32.97 37.66 32.97 38.34 33.38 38.8 34.09 38.23 34.09 37.66 32.97 37.66"/><polygon class="cls-2" points="33.73 34.8 32.97 35.66 32.97 37.17 33.59 37.17 33.59 36.28 34.18 35.61 34.18 35.61 34.94 36.12 35.43 35.61 35.43 34.8 33.73 34.8"/><polygon class="cls-2" points="31.43 37.66 31.43 38.34 31.01 38.8 30.3 38.23 30.3 37.66 31.43 37.66"/><polygon class="cls-2" points="30.67 34.8 31.43 35.66 31.43 37.17 30.8 37.17 30.8 36.28 30.21 35.61 30.21 35.61 29.45 36.12 28.97 35.61 28.97 34.8 30.67 34.8"/><polygon class="cls-2" points="9.59 32.39 8.97 33.03 8.97 33.03 8.97 34.74 8.97 34.74 8.97 34.74 8.97 34.74 8.97 34.74 9.29 35.66 9.29 37.17 9.89 37.17 9.89 35.66 10.23 34.74 10.23 34.74 10.23 33.03 9.59 32.39"/><polygon class="cls-2" points="9.89 38.55 9.89 37.66 9.29 37.66 9.29 38.55 8.97 39.15 9.59 39.93 10.23 39.15 9.89 38.55"/><polygon class="cls-2" points="10.35 37.66 10.35 38.34 10.76 38.8 11.47 38.23 11.47 37.66 10.35 37.66"/><polygon class="cls-2" points="11.13 34.8 10.35 35.66 10.35 37.17 10.97 37.17 10.97 36.28 11.56 35.61 11.56 35.61 12.32 36.12 12.83 35.61 12.83 34.8 11.13 34.8"/><polygon class="cls-2" points="8.83 37.66 8.83 38.34 8.41 38.8 7.7 38.23 7.7 37.66 8.83 37.66"/><polygon class="cls-2" points="8.05 34.8 8.83 35.66 8.83 37.17 8.21 37.17 8.21 36.28 7.61 35.61 7.61 35.61 6.85 36.12 6.34 35.61 6.34 34.8 8.05 34.8"/></svg>