<svg xmlns="http://www.w3.org/2000/svg" width="607" height="33" viewBox="-86.6 -6.8 607 33" enable-background="new -86.6 -6.8 607 33"><path fill="#fff" d="M55.8 19.4c-3.8 0-5.1-4.6-5.1-8.3 0-3.3 1.3-6.3 4.5-6.3 3.8 0 5.1 4 5.1 7.9 0 4.9-1.8 6.7-4.5 6.7zm-.2 1.1c3.9 0 7-3.6 7-8.3 0-7.1-4.6-8.5-7-8.5-4 0-7.1 4-7.1 8.8-.2 5.1 2.9 8 7.1 8zM-37.8 7.8l-1-2.8s-.1 0 .6-2.2l1.5-4.3c.7-2.1 1.4-3.3 2.4-3.3 1.1 0 1.1-.7.3-.7h-4.2c-.6 0-.8.1-.8.4 0 .3.4.1.8.3.6.4 1 1.7.6 2.9l-1.7 5.4-1.9-5.1c-.4-1-1-3.1 0-3.3.8 0 .8-.6.1-.6-1.1 0-1.7.1-2.6.1-1.1 0-1.9-.1-3.1-.1-.3 0-.6 0-.6.4 0 .3.6.1 1 .4 1.3.8 1.5 1.9 1.9 3.1l2.8 8.1c.6 1.5.6 1 .1 2.1l-2.5 6.8L-50-2c-.6-1.3-.7-2.2.3-2.8.4-.3.6-.3.6-.4 0-.1.1-.4-.6-.4-1.1 0-1.8.1-2.9.1h-2.9c-.3 0-.4.1-.4.4 0 .4.8.1 1.7 1 .4.4 1.3 2.1 1.4 2.6l7.4 21.3c.1.3.1 1 .6 1 .3 0 .4-.7.6-1l3.9-10.7 3.8 10.2c.1.4.4 1.5.8 1.5.3 0 .4-.6.6-1l7.5-20.9c.6-1.7 1.3-3.5 2.5-3.6.4 0 .7-.3.7-.3 0-.3 0-.4-.6-.4-.8 0-1.3.1-2.1.1s-1.5-.1-2.2-.1c-.7 0-.7.2-.7.4 0 .3.8.1 1.3 1.1.3.6.1 1.7-.1 2.4l-6.3 17-2.7-7.7zm83.1-3.7c0-3.1 0-4-.4-4s-.4.1-.8 1.4c-.7 2.2-3.1 3.2-3.9 3.6-.2.1-.2.1-.2.2 0 .3 1 .1 2.9.3v10c0 4.3 2.1 5 3.6 5 2.4 0 3.9-1.7 4-2.2 0-.3 0-.3-.3-.3-.3.1-1.1 1-2.8 1-1.3 0-2.1-.8-2.1-2.5V5.9h4.2c.3 0 .8-1.8.8-1.8 0-.3.1-.4.1-.6 0-.3-.3-.4-.4 0-.1.1-.4.7-1.3.7l-3.4-.1zm21.1 4.2c0-.6 1.1-3.1 3.8-3.1 2.6 0 3.8 2.9 3.8 4.9v7.2c0 2.8-1 1.9-1.4 2.5-.3.3.1.4.6.4.4 0 1.1-.1 2.4-.1 1.5 0 2.2.1 2.6.1.3 0 1-.3.6-.6-.8-.7-2.4.3-2.4-2.5v-6.4c0-2.9-1-7.2-5.1-7.2-3.1 0-4.7 3.1-4.6 2.5V3.8c0-.4-.1-.6-.4-.6-.7 0-1.3 1.3-3.8 2.1-.1 0-.6 0-.6.3 0 .8 2.5-1.1 2.5 2.1v9.5c0 2.5-1.7 1.8-2.1 2.5-.1.3.3.4.7.4.4 0 1-.1 2.8-.1 1.8 0 2.5.1 3.1.1.4 0 1-.3.7-.6-.6-.6-2.8 0-2.8-2.5l-.4-8.7zm-88.4 8c0 2.1-2.1 3.1-3.2 3.1-1.7 0-2.9-1.1-2.9-3.3 0-3.3 4-4 6.1-4.6v4.8zm-.3-5.8c-7.5 1.5-8.6 3.9-8.6 6.1 0 2.8 1.9 3.9 4 3.9 1.8 0 3.6-.8 4.9-2.2.4 1.3 1.3 2.1 2.5 1.9.4 0 .6.1 1.8-.4.4-.1.4-.1 1 0 1 .1-1.3-3.6-1.4-2.6 0 .3.1 1.9-.7 2.1-1.5.1-1.3-2.4-1.3-3.6V7.6c0-2.5-1.9-4-4.7-4-3.9 0-6.5 4.7-5.3 6.1.3.3 1.5-1 1.7-1.1l.1-.1c0-1.5 1.3-3.6 2.9-3.9 2.1-.1 3.1 1.4 3.1 3.3v2.6zm8.6-7C-15.9 3.5-18 5-17.9 8c0 2.8 3.2 4.2 4.9 5.3 1.3.7 2.8 1.7 2.8 3.2 0 1.9-1.5 3.3-3.2 3.2-3.9 0-3.5-5-4.3-5-.4 0-.4 1.3-.4 1.8 0 1.5.6 2.2.6 2.9.4.1-.1.3.3.3.8 0 1.8.8 4 .8 2.5 0 4.7-2.4 4.7-5.1 0-1.8-.6-2.9-2.9-4.5-.6-.3-1.5-.8-2.1-1.1-2.1-1.1-2.8-1.8-3-2.8-.1-1.8 1.4-2.8 2.8-2.6 3.2 0 3.6 3.5 3.9 3.5.4 0 .3-.4.3-1.5 0-.3 0-1.5-.1-1.8-.4-.6-2.6-1-3.2-1h-.9v-.1zm9.2-7.1c0-.4-.1-.6-.4-.6-.6 0-1.3 1.5-3.6 2.1-.1 0-.7.1-.7.3 0 .8 2.5-.4 2.5 2.1v17.2c0 1.8-1.5 1.7-1.8 2.2 0 .3.1.4.3.4.6 0 1.9-.1 2.9-.1s2.6.1 3.3.1c.4 0 .6 0 .6-.6-.3-.7-2.8.3-2.8-2.9V8.7c0-1.9 2.4-3.5 3.8-3.5 1.1 0 3.9 1 3.9 5.7v7c0 1.4-1.5 1.5-1.5 1.9 0 .3.1.4.6.4.4 0 1.4-.1 2.6-.1s2.2.1 2.8.1c.3 0 .6 0 .6-.4 0-.1 0-.4-.6-.3-1.1 0-2.1-.3-2.1-1.8v-6.5c0-3.3-1.3-7.6-5.4-7.6-1.8 0-3.3 1-4.6 2.4l-.4-9.6zm232.5.2c0-.4-.1-.6-.4-.6-.4 0-1.3 1.4-3.6 1.9-.1 0-.7.1-.7.3 0 .8 2.4-.4 2.4 2.1v17.4c0 1.8-1.5 1.5-1.8 2.1 0 .3.1.4.3.4.6 0 1.8-.1 2.8-.1 1 0 2.5.1 3.2.1.4 0 .6 0 .6-.6-.3-.6-2.8.3-2.8-2.9V9c0-1.9 2.2-3.3 3.6-3.3 1.1 0 3.8.8 3.8 5.4v6.8c0 1.4-1.4 1.5-1.5 1.9 0 .3.1.4.6.4.3 0 1.4-.1 2.5-.1 1.3 0 2.2.1 2.8.1.3 0 .6 0 .4-.4 0-.1 0-.4-.6-.3-1.1 0-1.9-.3-1.9-1.8v-6.3c0-3.2-1.3-7.2-5.1-7.2-1.8 0-3.3 1-4.4 2.4l-.2-10zm41.5 9.6v-9.6c0-.4-.1-.6-.4-.6-.6 0-1.1 1.3-3.5 1.8-.1 0-.7.1-.7.3 0 .8 2.5-.4 2.5 2.1v17.4c0 1.8-1.5 1.7-1.8 2.2 0 .3.1.4.3.4.6 0 1.9-.1 2.9-.1s2.4.3 3.1.3c.4 0 .6 0 .6-.6-.3-.7-2.8.3-2.8-2.9V8.8"/><path fill="#fff" d="M9.8-1.5C9.4-1.5 8.5 0 8.5.4c0 .4 1 1.9 1.3 1.9.4 0 1.3-1.5 1.3-1.9 0-.3-.9-1.9-1.3-1.9zM8.7 16.7c0 2.4-1.3 2.5-1.8 2.5-1 0-.8.1-.8.4 0 .4.7.4 1.7.4.3 0 1.3-.1 2.2-.1 1.3 0 2.4.1 3.1.1.4 0 1-1 .1-.8-.6 0-2.1-.3-2.1-1.7V3.7c0-.4-.1-.6-.4-.6-.7 0-1.3 1.4-3.3 2.1-.1 0-.4 0-.4.3 0 .8 1.8-.7 1.8 2.1v9.1h-.1zm8.9-8.4c0-.6 1.1-3.1 3.8-3.1 2.6 0 3.8 2.9 3.8 4.9v7.2c0 2.5-1 1.9-1.4 2.5-.3.3.1.4.6.4.4 0 1.1-.1 2.4-.1 1.5 0 2.4.1 2.8.1.3 0 1-.3.6-.6-.8-.7-2.5 0-2.5-2.5v-6.4c0-2.9-1-7.2-5.1-7.2-3.1 0-4.7 3.1-4.6 2.5V3.8c0-.4-.1-.6-.4-.6-.7 0-1 1.3-3.6 1.9-.1 0-.6.1-.6.4 0 .8 2.1-1 2.1 2.1v9.5c0 2.1-1.5 2.1-1.9 2.1-.3 0-.7 0-1.4-.1-.8-.1-.1.6-.3.7-.3.3 1.8.3 2.2.3s1-.1 2.8-.1c1.8 0 2.5.1 3.1.1.4 0 1-.3.7-.6-.6-.6-2.8 0-2.8-2.5V8.3h-.3zm13.5 15c-1-1.5-.1-4.2 1.3-4.3.3 0 .3.1 3.3.3 3.1 0 4.2 1 4.3 1.8.3 1.4-.7 4.4-5 4.2-2.8-.4-3.6-1.7-3.9-2zM38.3 9c0 2.5-1.1 4.3-3.5 4.3-2.5 0-3.5-2.5-3.5-4.9 0-2.5.7-4.5 3.3-4.5 2.7 0 3.7 2.8 3.7 5.1zm-7.5 9.7c-1.1.4-2.4 1.8-2.5 3.2-.1 3.1 3.6 4.3 6.8 4.2 6.4 0 8.2-4.6 6.8-6.8-1.4-2.5-4.3-2.4-7-2.4-5.1 0-4.2-3.2-2.1-3.1.6 0 .3.1 1.9.1 3.1 0 5.8-2.1 5.8-5.4 0-.3 0-1.3-.7-2.6h4.3c.1 0-.1-3.6-1.5-2.2-.3.1-1.7 1.3-3.3 1-1-.3-1.9-1.3-4.7-1.3-2.9 0-5.4 2.5-5.4 5.7 0 1.8.8 3.5 2.1 4.3-.3.1-1.8 1.5-1.7 3.2-.2-.1-.2 1.5 1.2 2.1zM145 10.6c.7 0 1.1 0 1.1-.7 0-1.5-1.8-6.1-5.7-6.1-4 0-6.3 4.2-6.3 9 0 2.5 1.7 7.9 6.5 7.9 2.9 0 5.7-2.8 5.7-3.6 0-.1 0-.3-.1-.3-.7 0-1.8 1.9-4.6 1.9-1.9 0-5.1-1.8-5.1-8.2h8.5zm-8.6-1c0-2.1 1.4-4.9 3.3-4.9 1.8 0 3.6 1.9 3.6 4 0 .6-.1.8-.6.8h-6.3zm200.2 1.3c.7 0 1.1 0 1.1-.6 0-1.5-1.7-6-5.6-6s-6.1 4-6.1 8.8c0 2.5 1.7 7.6 6.3 7.6 2.8 0 5.6-2.8 5.6-3.6 0-.1 0-.3-.1-.3-.7 0-1.7 1.9-4.4 1.9-1.9 0-5-1.8-5-8.1l8.2.3zm-8.3-1c0-2.1 1.4-4.7 3.3-4.7 1.7 0 3.5 1.8 3.5 3.9 0 .6-.1.7-.6.7h-6.3v.1zm77.9 1c.7 0 1.1 0 1.1-.6 0-1.5-1.7-6-5.6-6-3.9 0-6.1 4-6.1 8.8 0 2.5 1.7 7.6 6.3 7.6 2.8 0 5.6-2.8 5.6-3.6 0-.1 0-.3-.1-.3-.7 0-1.7 1.9-4.5 1.9-1.9 0-5-1.8-5-8.1l8.3.3zm-8.2-1c0-2.1 1.4-4.7 3.3-4.7 1.7 0 3.5 1.8 3.5 3.9 0 .6-.1.7-.6.7H398v.1zm-237.7-6c-2.2 0-4.3 1.4-4.2 4.3 0 2.6 3.2 4.2 4.9 5.1 1.3.7 2.8 1.4 2.8 3.1 0 1.9-1.5 3.2-3.2 3.1-3.8 0-3.3-4.9-3.9-4.9-.4 0-.4 1.3-.4 1.8 0 1.5 0 2.8.1 3.1h.6c.7 0 1.7.8 3.9.8 2.5 0 4.6-2.2 4.6-5 0-1.8-.6-2.8-2.9-4.3-.6-.3-1.5-.8-1.9-1.1-1.9-1.1-2.8-1.8-2.8-2.8-.1-1.8 1.4-2.6 2.6-2.5 3.1 0 3.5 3.3 3.8 3.3.4 0 .3-.4.3-1.5 0-.3 0-1.5-.1-1.8-.4-.6-2.5-1-3.1-1h-.7l-.4.3zm8.7-5.7c-.4 0-1.4 1.7-1.4 2.1 0 .4 1 1.9 1.4 1.9.4 0 1.4-1.5 1.4-1.9-.1-.5-.9-2.1-1.4-2.1zm-1.1 18.7c0 3.5-1.5 2.1-1.8 3.1-.1.4.6.4.8.4s1.3-.1 2.2-.1c1.3 0 2.4.1 3.1.1.4 0 .7-.1.6-.4-.3-.7-2.5-.1-2.5-2.1v-14c0-.4-.1-.6-.4-.6-.7 0-1.3 1.4-3.3 2.1-.1 0-.6 0-.6.3 0 .8 1.8-.8 1.8 2.1v9h.1zM85.5.6c0-2.5 1.8-1.8 1.8-2.5 0-.6-1.5-.3-1.7-.3-.8 0-1.4.1-2.2.1-.7 0-1.5-.1-2.2-.1-.1 0-.6 0-.7.1-.3.7 2.2.3 2.2 2.4v10.4c0 5.1 1.3 10.2 8.2 10 8.2-.1 8.1-8.2 8.1-9.9V1.4c0-3.1 1.4-2.8 1.7-3.3.1-.3-.3-.3-.4-.3-.4 0-1.5.1-2.1.1-1 0-1.8-.1-2.9-.1 0 0-.6 0-.6.3 0 .8 2.5-.1 2.5 3.3v10c0 3.9-1.1 8.1-6.1 8.1-3.6 0-5.4-2.5-5.4-7.8L85.5.6zm91.2 4.2c0-2.8 0-3.6-.4-3.6s-.3.1-.7 1.4c-.6 2-2.9 3-3.6 3.4-.1.1-.1.1-.1.3 0 .3.8.1 2.6.3V16c0 4 1.9 4.7 3.5 4.7 2.2 0 3.8-1.5 3.9-2.1 0-.3 0-.3-.3-.3-.3.1-1 1-2.6 1-1.3 0-1.9-.7-2.1-2.4V6.4h3.9c.3 0 .8-1.5.8-1.5 0-.3-.1-.1-1.5-.1h-3.4zm-72.2 3.6c0-.6 1.1-2.9 3.8-2.9 2.5 0 3.6 2.8 3.6 4.7v7.1c0 2.5-1 1.9-1.4 2.5-.3.3.1.4.6.4.4 0 1.1-.1 2.2-.1 1.4 0 2.4.1 2.8.1.3 0 1.7-1.4 1.3-1.4-.1 0-.6.7-1.4.7h-.6c-.7-.1-1.3-.6-1.3-2.2v-6.4c0-2.9-1-7.1-5.1-7.1-3.1 0-4.6 2.8-4.6 2.4V4.1c0-.4-.1-.6-.4-.6-.7 0-1 1.5-3.5 1.9-.1 0-.6 0-.6.3 0 .8 2.1-.7 2.2 2.1v9.5c0 2.5-1.9 1.8-2.2 2.5-.1.3.6.4 1 .4s1-.1 2.6-.1c1.8 0 2.5.1 3.1.1.4 0 1-.3.7-.6-.6-.6-2.8 0-2.8-2.5V8.4zm21.2-.4c-.4-1.1-.6-1.8-.6-1.8 0-1.1 1.4-1 1.8-1.4.3-.3-.3-.4-.7-.4-.4 0-.8.1-2.1.1H122c-1.1-.1-1 .4-.6.6.4.1.6 0 1.1 1.7l4.9 13.4c.1.3.3 1 .6 1 .4 0 .4-.4 1.1-2.1 0 0 4.6-12.5 4.9-13.1.6-1 1.1-.6 1.4-.8.3-.3.3-.6-.7-.6-.6 0-1 .1-1.5.1h-1.5c-.8 0-1.1 0-1 .3.1.7 1.9 0 1.7 2.1-.3 1.8-.8 3.3-1.4 4.9l-2.1 5.6-3.2-9.6zm24.7.5c0-.6.7-2.2 2.1-2.2 1.1 0 1.3.8 1.8.8.4 0 1.1-1.1 1.1-1.7 0-.7-1.4-1.7-2.1-1.7-1.3 0-2.2 1.5-2.9 2.6V3.9c0-.4-.1-.6-.4-.6-.6 0-1 1-3.6 1.7-.1 0-.6.1-.6.3 0 .8 2.2-.3 2.2 2.4v9.9c0 1.5-1.5 1.4-1.5 2.1 0 .3.1.3.3.3.1 0 .8-.1 2.9-.1 1.8 0 2.5.1 2.9.1.3 0 .6 0 .6-.4 0-1.3-2.8.6-2.8-2.9V8.5zM118.7-1.9c-.4 0-1.4 1.7-1.4 2.1 0 .4 1 1.9 1.4 1.9.4 0 1.4-1.5 1.4-1.9 0-.4-1-2.1-1.4-2.1zm-1.1 18.6c0 2.5-1.1 2.6-1.5 2.6-.4 0-1.1-.3-1.1.1s-.3.6 1.4.6c.7 0 1.5-.1 2.6-.1 1.3 0 2.4.1 3.1.1.4 0 .7-.1.6-.4-.3-.7-2.5-.1-2.5-2.1V3.7c0-.4-.1-.6-.4-.6-.7 0-1.3 1.4-3.3 2.1-.1 0-.4 0-.4.3 0 .8 1.8-.8 1.8 2.1v9.2h-.3v-.1zm69.1 4.1l4.5-13.4c.6-2.4 1.7-1.8 1.8-2.2.1-.1 0-.4-.4-.4h-1.8c-1 0-1.4-.1-1.7-.1-.6 0-1.1 0-1 .4.1.4 2.1.3 2.1 2.4 0 .3 0 .6-.4 1.9l-2.5 7.8-3.8-9.5s-.1-.3-.1-1c0-1.5 1.8-1.4 1.9-1.7 0-.3-.3-.4-.7-.4h-4.7c-.4 0-.6 0-.6.4 0 .6 1.3.6 1.5 1.4l3.6 9.9c.3.8.4 1.1.8 2.5.3 1 .1 1.8.1 1.8-.3 1.5-1.3 2.4-2.6 5.1-.1.3 2.1 0 2.1 0 .1 0 .1-.1.3-.6l1.7-4.9-.1.6zM445.9-1.8h-.6c-3.1 0-5.8 1.8-5.8 6 0 3.6 4.5 5.8 6.8 7.2 1.8 1 3.6 2.5 3.5 4.3-.1 2.8-1.8 4.5-4.2 4.3-5.3-.1-4.6-6.7-5.6-6.7-.7 0-.6 1.7-.6 2.5 0 2.1-.1 3.9.1 4.2 0 .1.3 0 .8 0 1 0 2.4 1.1 5.4 1.1 3.3 0 6.3-2.9 6.3-6.8 0-2.5-.7-3.9-4-6-.8-.4-2.1-1.1-2.8-1.5-2.8-1.5-3.8-2.5-3.9-3.9-.1-2.5 2.4-3.9 4.2-3.6 2.2 0 4.2 1.3 4.9 4 0 .3.3 1 .6 1s.3-.3.3-.6l-.4-4.5c0-.3-.1-.4-.3-.4-.3 0-.4.3-.6.3 0 .3-1-.9-4.1-.9zM204-1.8h-.6c-3.1 0-5.8 1.8-5.8 6 0 3.6 4.5 5.8 6.8 7.2 1.8 1 3.6 2.5 3.5 4.3-.1 2.8-1.8 4.5-4.2 4.3-5.3-.1-4.6-6.7-5.6-6.7-.7 0-.6 1.7-.6 2.5 0 2.1-.1 3.9.1 4.2 0 .1.3 0 .8 0 1 0 2.4 1.1 5.4 1.1 3.3 0 6.3-2.9 6.3-6.8 0-2.5-.7-3.9-4-6-.8-.4-2.1-1.1-2.8-1.5-2.8-1.5-3.8-2.5-3.9-3.9-.1-2.5 2.4-3.9 4.2-3.6 2.2 0 4.2 1.3 4.9 4 0 .3.3 1 .6 1s.3-.3.3-.6L209-.6c0-.3-.1-.4-.3-.4-.3 0-.4.3-.6.3-.1.1-1.1-1.1-4.1-1.1zm252 7.1c0-2.8 0-3.6-.4-3.6s-.3.1-.7 1.4c-.6 2.1-2.9 3.1-3.6 3.5-.1.1-.1.1-.1.3 0 .3.8.1 2.6.3v9.5c0 4 1.9 4.7 3.3 4.7 2.1 0 3.8-1.5 3.9-2.1 0-.3 0-.3-.3-.3-.3.1-1 1-2.6 1-1.3 0-1.9-.7-2.1-2.4V7h3.9c.3 0 .8-1.7.8-1.8 0-.3 0-.4.1-.6 0-.3-.1-.3-.3 0-.1.1-.4.6-1.3.6H456v.1zm15-3.7c0-3.3 2.2-2.4 2.4-2.9 0-.4-.3-.3-.7-.3s-1.3.1-2.9.1c-1.4 0-2.6-.1-3.3-.1-.4 0-.7.1-.6.4.3.7 2.5 0 2.5 2.1V16c0 1.8.3 2.9-.6 3.3-1 .6-1.9.6-1.9 1 0 .3.6.3.8.3 1.1 0 2.8-.1 3.9-.1 2.2 0 4.4.1 6.7.1 1.3 0 1.5-.3 2.5-1.7.7-1 .7-1.1.7-2.4 0 0 0-.4-.3-.4-.4 0-.3 3.1-7 3.1-2.5 0-2.2-1-2.2-3.2V1.6zm-8.1 15.3c-.4 0-1.4 1.5-1.4 2.1 0 .4 1 1.9 1.4 1.9s1.4-1.5 1.4-1.9c0-.5-1-2.1-1.4-2.1zm52.2-12.4c-2.1 0-4.2 1.3-4 4.2 0 2.6 3.1 4 4.7 5.1 1.2.7 2.6 1.4 2.6 3.1 0 1.9-1.5 3.2-3.1 3.1-3.8 0-3.2-4.7-3.9-4.7-.4 0-.3 1.3-.4 1.8 0 1.5 0 2.8.1 2.9h.6c.7 0 1.7.8 3.8.8 2.4 0 4.6-2.2 4.6-4.9 0-1.7-.6-2.8-2.8-4.2-.6-.3-1.5-.8-1.9-1-1.9-1.1-2.6-1.8-2.8-2.8-.1-1.7 1.4-2.6 2.6-2.5 3.1 0 3.3 3.3 3.8 3.3.4 0 .3-.4.3-1.4 0-.3 0-1.5-.1-1.8-.3-.6-2.5-.8-3.1-.8h-.7c-.2-.2-.3-.2-.3-.2zm-8-5.3c-.3 0-1.3 1.5-1.3 1.9 0 .4 1 1.9 1.3 1.9.4 0 1.3-1.5 1.3-1.9 0-.4-.8-1.9-1.3-1.9zm-1.1 18c0 3.3-1.5 2.1-1.7 2.9-.1.3.6.4.8.4s1.1-.3 2.1-.3c1.3 0 1.5.3 2.2.3.4 0 .7-.1.6-.4-.3-.7-1.8-.1-1.8-1.9V4.8c0-.4-.1-.6-.4-.6-.7 0-1.3 1.3-3.1 1.9-.1 0-.4 0-.4.3 0 .8 1.5-1 1.7 2.1v8.7zM376.1-.8c-.3 0-1.3 1.5-1.3 1.9 0 .4 1 1.9 1.3 1.9.4 0 1.3-1.5 1.3-1.9 0-.4-.9-1.9-1.3-1.9zm-1.1 18c0 3.3-1.5 2.1-1.7 2.9-.1.3.6.4.8.4.3 0 1.1-.3 2.1-.3 1.3 0 1.5.3 2.2.3.4 0 .7-.1.6-.4-.3-.7-1.8-.1-1.8-1.9V4.8c0-.4-.1-.6-.4-.6-.7 0-1.3 1.3-3.1 1.9-.1 0-.4 0-.4.3 0 .8 1.5-1 1.7 2.1v8.7zm-17.5-18c-.3 0-1.2 1.5-1.2 1.9 0 .4 1 1.9 1.2 1.9.4 0 1.3-1.5 1.3-1.9-.1-.4-.9-1.9-1.3-1.9zm-1.1 18c0 3.3-1.5 2.1-1.7 2.9-.1.3.6.4.8.4.3 0 1.1-.3 2.1-.3 1.3 0 1.5.3 2.2.3.4 0 .7-.1.6-.4-.3-.7-1.8-.1-1.8-1.9V4.8c0-.4-.1-.6-.4-.6-.7 0-1.3 1.3-3.1 1.9-.1 0-.4 0-.4.3 0 .8 1.5-1 1.7 2.1v8.7zm143.8-1.3c-.1 1.5-1.5 3.3-3.3 3.3-.4 0-2.9-.3-2.9-4.3V5.5c0-.7-.4-1-.6-1-.6 0-.7.1-1.1.1-.3.1-.7.3-1.7.3-.4 0-1 0-.8.3 0 .4 1.9 0 1.9 1.4v8.8c0 3.2 1.9 5 4.5 5 1.5 0 3.1-.3 4-2.1v1.5c0 .1 0 .6.3.6.4 0 .7-.3 1-.4.3 0 .4-.4 1.5-.6.4 0 1-.3 1-.6-.1-.6-1.8 0-1.8-1V5.5c0-.7-.4-1-.6-1-.6 0-.7.1-1.1.1-.3.1-.7.3-1.5.3-.1 0-1-.1-1 .3s1.9.1 1.9 1.4v9.3h.3zm-15.9 3.9c-3.3 0-4.7-4.7-4.7-8.3 0-3.2 1.1-6.1 3.9-6.1 3.3 0 4.6 4 4.6 7.9.1 4.6-1.3 6.5-3.8 6.5zm-.3.8c3.5 0 6.4-3.6 6.4-8.2 0-7-4.3-8.2-6.4-8.2-3.6 0-6.5 3.9-6.5 8.5 0 5.2 2.8 7.9 6.5 7.9zm-238-.8c-3.3 0-4.7-4.7-4.7-8.3 0-3.2 1.1-6.1 3.9-6.1 3.3 0 4.6 4 4.6 7.9-.1 4.6-1.5 6.5-3.8 6.5zm-.3.8c3.5 0 6.4-3.6 6.4-8.2 0-7-4.3-8.2-6.4-8.2-3.6 0-6.5 3.9-6.5 8.5-.2 5.2 2.7 7.9 6.5 7.9zm14-.8c-3.3 0-4.7-4.7-4.7-8.3 0-3.2 1.1-6.1 3.9-6.1 3.3 0 4.6 4 4.6 7.9.1 4.6-1.3 6.5-3.8 6.5zm-.3.8c3.5 0 6.4-3.6 6.4-8.2 0-7-4.3-8.2-6.4-8.2-3.6 0-6.5 3.9-6.5 8.5 0 5.2 2.8 7.9 6.5 7.9zm23.8-.8c-3.3 0-4.7-4.7-4.7-8.3 0-3.2 1.1-6.1 3.9-6.1 3.3 0 4.6 4 4.6 7.9 0 4.6-1.4 6.5-3.8 6.5zm-.4.8c3.5 0 6.4-3.6 6.4-8.2 0-7-4.3-8.2-6.4-8.2-3.6 0-6.5 3.9-6.5 8.5 0 5.2 2.9 7.9 6.5 7.9zM423.3 8.8c0-.6 1.1-2.9 3.6-2.9s3.6 2.8 3.6 4.7v7c0 2.5-1 1.8-1.4 2.5-.3.3.1.4.6.4.4 0 1.1-.1 2.2-.1 1.5 0 2.4.1 2.8.1.3 0 1-.3.6-.6-.8-.6-2.5 0-2.5-2.5v-6.3c0-2.8-1-7-5.1-7-3.1 0-4.6 2.8-4.6 2.4v-2c0-.4-.1-.6-.4-.6-.7 0-1.3 1.3-3.6 1.9-.1 0-.6 0-.6.3 0 .8 2.4-.6 2.5 2.1v9.3c0 1.7-.8 2.1-2.4 2.1-.3.1.1.1 0 .4-.1.3.6.4 1 .4s1-.1 2.6-.1c1.8 0 2.4.1 2.9.1.4 0 1-.3.7-.6-.6-.6-2.8 0-2.8-2.5l.3-8.5zm-38.8 0c0-.6 1.1-2.9 3.6-2.9s3.6 2.8 3.6 4.7v7c0 2.5-1 1.8-1.4 2.5-.3.3.1.4.6.4.4 0 1.1-.1 2.2-.1 1.5 0 2.4.1 2.8.1.3 0 1-.3.6-.6-.8-.6-2.4 0-2.4-2.5v-6.3c0-2.8-1-7-5.1-7-3.1 0-4.6 2.8-4.6 2.4v-2c0-.4-.1-.6-.4-.6-.7 0-1.3 1.3-3.6 1.9-.1 0-.6 0-.6.3 0 .8 2.4-.6 2.5 2.1v9.3c0 1.7-.7 2.1-2.1 2.2-.3.1-.4.3-.3.4.1.3.8.3 1.3.3.4 0 1-.1 2.6-.1 1.8 0 2.5.1 2.9.1s1-.3.7-.6c-.6-.6-2.8 0-2.8-2.5l-.1-8.5zm31-10.4c-.4 0-1.3 1.5-1.3 2.1 0 .4 1 1.9 1.3 1.9.4 0 1.3-1.5 1.3-1.9-.1-.4-.9-2.1-1.3-2.1zm-1.1 18.5c0 3.5-1.5 2.1-1.8 3.1-.1.4.6.4.8.4.3 0 1.3-.1 2.2-.1 1.2 0 2.2.3 2.9.3 2.5-.1.7-.3.6-.6 0-.3 1.3-.7-.1-.3-1.5-.1-2.4-.4-2.4-1.8V4.4c0-.4-.1-.6-.4-.6-.7 0-1.3 1.4-3.2 2.1-.1 0-.6 0-.6.3 0 .8 1.8-.8 1.8 2.1l.2 8.6zM212 12.6c0-4.6 2.9-8.5 7.1-8.5 1.7 0 3.9.6 3.9 1.4v2.2s-.1.8-.3.8c-.3 0-.7-.7-.8-.8-1.1-1.7-2.5-2.2-4-2.2-2.8 0-3.6 3.3-3.6 6 0 4 1.8 7.4 5.6 7.4 2.5 0 4-2.1 4.5-2.1.1 0 .3.1.3.3 0 .6-1.9 3.8-6.4 3.8-3.9-.4-6.3-4.2-6.3-8.3zm79.2-8.4c0-2.4.6-3.6 1-4.5 1-1.7 2.2-3.1 5.1-3.1.6 0 1.5.1 1.5.8 0 .7-.1 2.4-.6 2.4-.6 0-.1-1.5-2.5-1.5-1.4 0-2.2 1.1-2.4 2.9-.1 1.1 0 1.3 0 3.2h2.8c1 0 1.4-.8 1.5-.8s.3.4.3.6c0 .1-.1.3-.3.6l-.6 1.4h-3.6V18c0 2.4 2.6 1.5 2.6 2.4 0 .4-.6.3-.8.3 0 0-1.4-.3-2.5-.3s-2.8.3-2.8.3c-.1 0-.6 0-.6-.3 0-.8 1.8-.3 1.8-2.1V5.8h-2.5l.3-1.5h2.3v-.1zm33.2 13.1c.1 2.6 2.4 1.5 2.4 2.6 0 .3-.4.3-.7.3-.6 0-1.5-.1-2.8-.1-1 0-1.8.1-2.6.1-.3 0-.3-.1-.3-.3 0-1 1.8-.3 1.8-2.6l-.3-12.2c0-.8-.1-1.3-.3-1.3-.3 0-.4.3-.8 1l-6.1 13.4c-.1.3-.6 1.5-1 1.5-.3 0-.6-.7-.6-1l-6.3-14c-.1-.3-.3-.3-.3-.3-.1 0-.1.1-.3.4l-.2 11.1c-.1 4.2 2.6 2.8 2.6 3.9 0 .3-.3.3-.7.3s-1.7-.1-2.6-.1c-1.5 0-2.1.1-2.5.1-.3 0-.3-.1-.3-.4 0-1.1 1.8.3 2.1-3.1.3-5.1.7-8.5.7-11.8 0-7.4-2.8-5.7-2.8-6.7 0-.3.3-.3.6-.3.6 0 1.1.1 1.7.1s1.1-.1 1.5-.1c.4 0 .4.6.6 1l7 16c.3.7.4 1 .6 1s.4-.7 1-1.7l7-15.2c.1-.3.4-1.1.8-1.1.3 0 1.2.1 1.4.1.7 0 1-.1 1.4-.1.1 0 .3.1.3.4 0 1-2.4-.3-2.2 3.3l.2 15.8zm25.3-17c0-2.2-2.8-1.3-2.8-2.1 0-.3.1-.4.3-.4 2.6-.7 3.5-2.1 4.3-2.1.3 0 .4.3.4.6v22.1c0 .4.7.7 1.8 1 .3 0 .4 0 .4.3s-1 .6-2.1.6c-1 0-1.7.4-1.9.4-.3 0-.4-.3-.4-.6V18c-1.1 1.5-3.1 2.6-5 2.6-3.8 0-6.1-3.8-6.1-7.6 0-4.4 2.8-8.8 7.1-8.8 1.4 0 2.8.4 3.9 1.3l.1-5.2zm0 9.3c0-2.8-2.1-4.3-4.6-4.3-3.2 0-4.6 3.3-4.6 6.4 0 3.1 2.1 7.5 5.3 7.5 2.8 0 3.9-1.9 3.9-3.2V9.6zm11 3.2c0-4.6 2.9-8.5 7.1-8.5 1.7 0 3.9.6 3.9 1.4V8c0 .6-.1.8-.3.8-.3 0-.7-.7-.8-.8-1.1-1.7-2.5-2.2-4-2.2-2.8 0-3.6 3.3-3.6 6 0 4 1.8 7.4 5.6 7.4 2.5 0 4-2.1 4.5-2.1.1 0 .3.1.3.3 0 .6-1.9 3.8-6.4 3.8-3.8-.4-6.3-4.2-6.3-8.4zM-59.3 16c0 4.4-5.6 5.5-8.3 6.6-1.7.7-3.4 1.3-5.1 1.9-1.9-.7-4.2-1.5-6-2.1-7.9-2.9-7.4-4.3-7.5-6.3V-6.6c8.9 2.2 18.5 2.2 26.8 0V16h.1z"/><path fill="#007360" d="M-60.6 15.4V-5c-7.5 2-16.2 2-24.2 0v20.5c0 1.8-.4 3 6.7 5.7 1.6.6 3.7 1.3 5.4 1.9 1.5-.6 3.1-1.1 4.6-1.7 2.4-1 7.5-2 7.5-6z"/><path fill="#9D0917" d="M-83.8 1.1h22.2v13.1h-22.2V1.1z"/><path fill="#E6D1B9" d="M-68 10.5h-4l-.7.7-.6-.7h-4V4h4l.6.7.6-.7h4.1v6.5zM-66.3 12.3h-5.4l-1 .9-1-.9H-79v-7l.9-.7v6.7h4.7l.8.8.8-.8h4.6V4.6l.9.8v6.9zM-61.6 9l-3.7.8V6.1c1.2-.2 2.2-.5 3.7-.8V9zM-79.9 9.8c-1.3-.1-2.2-.3-3.9-.7V5.3c1.5.4 2.7.5 3.9.8v3.7zM-61.6 15.9c-.3 2.5-3.3 3.3-4.2 3.7-2.3.9-4.6 1.6-6.8 2.5-8.8-3.3-11-3.8-11.1-6.3V13c6.9 1.5 14.7 1.7 22.1.1v2.8zM-61.7 1.5c-7 1.6-15.1 1.9-22.1 0v-5.1c6.7 1.5 15.4 1.7 22.1 0v5.1z"/><path fill="#007360" d="M-62.5-1.1h-1.7l-.5-1.6-.6 1.6h-1.6l1.3.9-.4 1.6 1.3-1 1.4 1-.5-1.6 1.3-.9zM-78.7-1.1h-1.5l-.6-1.6-.5 1.6h-1.6l1.3.9-.5 1.6 1.3-1 1.4 1-.5-1.6 1.2-.9zM-70.7-.5h-1.6l-.5-1.5-.5 1.5h-1.6l1.3 1-.5 1.6 1.3-.9 1.4.9-.6-1.5 1.3-1.1zM-71.9 16.8v-1.7l-.6-.6-.6.6v1.7l.3.9v1.4h.5v-1.4l.4-.9zM-69.5 17.7v-.8h-1.7l-.7.8v1.4h.5v-.9l.6-.5.8.4.5-.4zM-75.5 17.7v-.8h1.6l.7.8v1.4h-.5v-.9l-.6-.5-.8.4-.4-.4zM-73.2 20.2v-.6h-1v.4l.7.6.3-.4zM-71.9 20.2v-.6h1v.4l-.7.6-.3-.4zM-71.9 20.9l-.4-.6v-.7h-.5v.7l-.4.6.6.8.7-.8zM-64.9 15.6v-1.1l-.4-.4-.5.4v1.1l.3.6v1h.3v-1l.3-.6zM-63.3 16.2v-.5h-1.1l-.5.5v.9h.3v-.5l.5-.4.5.3.3-.3zM-67.4 16.2v-.5h1.1l.5.5v.9h-.3v-.5l-.4-.4-.5.3-.4-.3zM-65.8 17.9v-.4h-.7v.3l.5.4.2-.3zM-64.9 17.9v-.4h.7v.3l-.5.4-.2-.3zM-64.9 18.4l-.3-.4v-.5h-.3v.5l-.3.4.4.5.5-.5zM-79.6 15.7v-1.2l-.4-.4-.4.4v1.2l.3.6v.9h.3v-.9l.2-.6zM-77.9 16.3v-.6h-1.2l-.4.6v.9h.3v-.6l.4-.3.5.3.4-.3zM-82 16.3v-.6h1.1l.5.6v.9h-.4v-.6l-.4-.3-.5.3-.3-.3zM-80.4 18v-.5h-.7v.4l.5.4.2-.3zM-79.5 18v-.5h.7v.4l-.5.4-.2-.3zM-79.6 18.5l-.2-.5v-.5h-.3v.5l-.3.5.4.5.4-.5z"/></svg>