<?xml version="1.0" encoding="utf-8"?>
<!-- Generator: Adobe Illustrator 21.0.2, SVG Export Plug-In . SVG Version: 6.00 Build 0)  -->
<svg version="1.1" id="YouTube_Icon" xmlns="http://www.w3.org/2000/svg" xmlns:xlink="http://www.w3.org/1999/xlink" x="0px"
	 y="0px" viewBox="0 0 1404 1404" style="enable-background:new 0 0 1404 1404;" xml:space="preserve">
<style type="text/css">
	.st0{opacity:0.12;enable-background:new    ;}
	.st1{fill:#FFFFFF;}
</style>
<title>YouTube_light_color_icon</title>
<path id="The_Sharpness" class="st0" d="M596.8,547.5l242,161.6l34-17.6L596.8,547.5z"/>
<g id="Lozenge">
	<path class="st1" d="M1202.8,497.8c0,0-10-70.4-40.6-101.4c-38.8-40.7-82.4-40.9-102.3-43.3c-142.9-10.3-357.4-10.3-357.4-10.3H702
		c0,0-214.4,0-357.4,10.3c-19.9,2.4-63.5,2.6-102.3,43.3c-30.6,31-40.6,101.4-40.6,101.4s-10.2,82.7-10.2,165.3v77.5
		c0,82.7,10.2,165.3,10.2,165.3s10,70.4,40.6,101.4c38.9,40.7,89.9,39.4,112.6,43.7c81.7,7.8,347.3,10.3,347.3,10.3
		s214.6-0.3,357.6-10.7c20-2.4,63.5-2.6,102.3-43.3c30.6-31,40.6-101.4,40.6-101.4s10.2-82.7,10.2-165.3v-77.5
		C1213,580.4,1202.8,497.8,1202.8,497.8z M596.8,834.5v-287l276,144L596.8,834.5z"/>
</g>
</svg>
