<?xml version="1.0" encoding="utf-8"?>
<!-- Generator: Adobe Illustrator 19.2.0, SVG Export Plug-In . SVG Version: 6.00 Build 0)  -->
<svg version="1.1" id="Layer_1" xmlns="http://www.w3.org/2000/svg" xmlns:xlink="http://www.w3.org/1999/xlink" x="0px" y="0px"
	 width="20px" height="30.2px" viewBox="0 0 20 30.2" style="enable-background:new 0 0 20 30.2;" xml:space="preserve">
<style type="text/css">
	.st0{fill:#8C8C8C;stroke:#8C8C8C;stroke-linejoin:round;}
	.st1{fill:none;stroke:#8C8C8C;stroke-linecap:round;}
</style>
<path class="st0" d="M10.2,0.6L5.4,4.8H0.8v5.3h4.5l4.9,4.3V0.6z"/>
<path class="st1" d="M13,10.5c0.5-0.9,0.9-1.9,0.9-3s-0.3-2.2-0.9-3"/>
<path class="st1" d="M14.9,2.5c1,1.4,1.7,3.1,1.7,5s-0.6,3.6-1.6,5"/>
<path class="st1" d="M16.8,14.3c1.5-1.9,2.4-4.2,2.4-6.8s-0.9-5-2.4-6.9"/>
<path class="st0" d="M10.2,15.7l-4.8,4.2H0.8v5.3h4.5l4.9,4.3V15.7z"/>
</svg>
